G04 #@! TF.GenerationSoftware,KiCad,Pcbnew,(5.1.9)-1*
G04 #@! TF.CreationDate,2021-05-29T13:59:19+09:00*
G04 #@! TF.ProjectId,green_pomp4,67726565-6e5f-4706-9f6d-70342e6b6963,rev?*
G04 #@! TF.SameCoordinates,Original*
G04 #@! TF.FileFunction,Copper,L1,Top*
G04 #@! TF.FilePolarity,Positive*
%FSLAX46Y46*%
G04 Gerber Fmt 4.6, Leading zero omitted, Abs format (unit mm)*
G04 Created by KiCad (PCBNEW (5.1.9)-1) date 2021-05-29 13:59:19*
%MOMM*%
%LPD*%
G01*
G04 APERTURE LIST*
G04 #@! TA.AperFunction,ComponentPad*
%ADD10C,1.400000*%
G04 #@! TD*
G04 #@! TA.AperFunction,ComponentPad*
%ADD11O,1.400000X1.400000*%
G04 #@! TD*
G04 #@! TA.AperFunction,ComponentPad*
%ADD12R,1.800000X1.800000*%
G04 #@! TD*
G04 #@! TA.AperFunction,ComponentPad*
%ADD13C,1.800000*%
G04 #@! TD*
G04 #@! TA.AperFunction,ComponentPad*
%ADD14C,2.600000*%
G04 #@! TD*
G04 #@! TA.AperFunction,ComponentPad*
%ADD15C,2.400000*%
G04 #@! TD*
G04 #@! TA.AperFunction,ComponentPad*
%ADD16R,2.400000X2.400000*%
G04 #@! TD*
G04 #@! TA.AperFunction,ComponentPad*
%ADD17R,2.000000X2.000000*%
G04 #@! TD*
G04 #@! TA.AperFunction,ComponentPad*
%ADD18C,2.000000*%
G04 #@! TD*
G04 #@! TA.AperFunction,ComponentPad*
%ADD19R,1.600000X1.600000*%
G04 #@! TD*
G04 #@! TA.AperFunction,ComponentPad*
%ADD20C,1.600000*%
G04 #@! TD*
G04 #@! TA.AperFunction,ComponentPad*
%ADD21R,1.700000X1.700000*%
G04 #@! TD*
G04 #@! TA.AperFunction,ComponentPad*
%ADD22O,1.700000X1.700000*%
G04 #@! TD*
G04 #@! TA.AperFunction,ComponentPad*
%ADD23C,1.524000*%
G04 #@! TD*
G04 #@! TA.AperFunction,ComponentPad*
%ADD24C,1.000000*%
G04 #@! TD*
G04 #@! TA.AperFunction,ComponentPad*
%ADD25C,1.500000*%
G04 #@! TD*
G04 #@! TA.AperFunction,ComponentPad*
%ADD26R,1.500000X1.500000*%
G04 #@! TD*
G04 #@! TA.AperFunction,ViaPad*
%ADD27C,1.200000*%
G04 #@! TD*
G04 #@! TA.AperFunction,ViaPad*
%ADD28C,0.600000*%
G04 #@! TD*
G04 #@! TA.AperFunction,Conductor*
%ADD29C,0.250000*%
G04 #@! TD*
G04 #@! TA.AperFunction,Conductor*
%ADD30C,0.500000*%
G04 #@! TD*
G04 #@! TA.AperFunction,Conductor*
%ADD31C,1.000000*%
G04 #@! TD*
G04 #@! TA.AperFunction,Conductor*
%ADD32C,0.254000*%
G04 #@! TD*
G04 #@! TA.AperFunction,Conductor*
%ADD33C,0.150000*%
G04 #@! TD*
G04 APERTURE END LIST*
D10*
G04 #@! TO.P,R4,1*
G04 #@! TO.N,Net-(C10-Pad1)*
X69850000Y-38100000D03*
D11*
G04 #@! TO.P,R4,2*
G04 #@! TO.N,+5V*
X72390000Y-38100000D03*
G04 #@! TD*
D12*
G04 #@! TO.P,U4,1*
G04 #@! TO.N,+5V*
X77470000Y-53340000D03*
D13*
G04 #@! TO.P,U4,2*
G04 #@! TO.N,Net-(C3-Pad1)*
X74930000Y-53340000D03*
G04 #@! TO.P,U4,3*
G04 #@! TO.N,Net-(C4-Pad1)*
X72390000Y-53340000D03*
G04 #@! TO.P,U4,4*
G04 #@! TO.N,Net-(R6-Pad1)*
X69850000Y-53340000D03*
G04 #@! TO.P,U4,5*
G04 #@! TO.N,Net-(R1-Pad1)*
X67310000Y-53340000D03*
G04 #@! TO.P,U4,6*
G04 #@! TO.N,Net-(R5-Pad1)*
X64770000Y-53340000D03*
G04 #@! TO.P,U4,7*
G04 #@! TO.N,Net-(U4-Pad7)*
X62230000Y-53340000D03*
G04 #@! TO.P,U4,8*
G04 #@! TO.N,Net-(U4-Pad8)*
X62230000Y-60960000D03*
G04 #@! TO.P,U4,9*
G04 #@! TO.N,Net-(U3-Pad8)*
X64770000Y-60960000D03*
G04 #@! TO.P,U4,10*
G04 #@! TO.N,Net-(U3-Pad7)*
X67310000Y-60960000D03*
G04 #@! TO.P,U4,11*
G04 #@! TO.N,Net-(SW3-Pad1)*
X69850000Y-60960000D03*
G04 #@! TO.P,U4,12*
G04 #@! TO.N,Net-(J3-Pad5)*
X72390000Y-60960000D03*
G04 #@! TO.P,U4,13*
G04 #@! TO.N,Net-(J3-Pad4)*
X74930000Y-60960000D03*
G04 #@! TO.P,U4,14*
G04 #@! TO.N,GND*
X77470000Y-60960000D03*
G04 #@! TD*
D14*
G04 #@! TO.P,L1,1*
G04 #@! TO.N,+BATT*
X41910000Y-49530000D03*
G04 #@! TO.P,L1,2*
G04 #@! TO.N,Net-(D2-Pad1)*
X41910000Y-54530000D03*
G04 #@! TD*
D15*
G04 #@! TO.P,C7,2*
G04 #@! TO.N,GND*
X83693000Y-37164000D03*
D16*
G04 #@! TO.P,C7,1*
G04 #@! TO.N,+5V*
X83693000Y-42164000D03*
G04 #@! TD*
D17*
G04 #@! TO.P,D2,1*
G04 #@! TO.N,Net-(D2-Pad1)*
X50927000Y-54102000D03*
D18*
G04 #@! TO.P,D2,2*
G04 #@! TO.N,+5V*
X50927000Y-56642000D03*
G04 #@! TD*
D17*
G04 #@! TO.P,Q1,1*
G04 #@! TO.N,Net-(Q1-Pad1)*
X58674000Y-37338000D03*
D18*
G04 #@! TO.P,Q1,2*
G04 #@! TO.N,Net-(C1-Pad2)*
X58674000Y-35038000D03*
G04 #@! TO.P,Q1,3*
G04 #@! TO.N,GND*
X58674000Y-32738000D03*
G04 #@! TD*
D19*
G04 #@! TO.P,C1,1*
G04 #@! TO.N,+BATT*
X47498000Y-40640000D03*
D20*
G04 #@! TO.P,C1,2*
G04 #@! TO.N,Net-(C1-Pad2)*
X45498000Y-40640000D03*
G04 #@! TD*
D19*
G04 #@! TO.P,C2,1*
G04 #@! TO.N,+BATT*
X36830000Y-45720000D03*
D20*
G04 #@! TO.P,C2,2*
G04 #@! TO.N,GND*
X36830000Y-43220000D03*
G04 #@! TD*
G04 #@! TO.P,C5,2*
G04 #@! TO.N,+5V*
X34290000Y-61040000D03*
G04 #@! TO.P,C5,1*
G04 #@! TO.N,GND*
X34290000Y-66040000D03*
G04 #@! TD*
D19*
G04 #@! TO.P,C6,1*
G04 #@! TO.N,+5V*
X46990000Y-59690000D03*
D20*
G04 #@! TO.P,C6,2*
G04 #@! TO.N,GND*
X46990000Y-62190000D03*
G04 #@! TD*
G04 #@! TO.P,C8,1*
G04 #@! TO.N,GND*
X58547000Y-76327000D03*
G04 #@! TO.P,C8,2*
G04 #@! TO.N,+5V*
X58547000Y-81327000D03*
G04 #@! TD*
G04 #@! TO.P,C9,2*
G04 #@! TO.N,+5V*
X81788000Y-54817000D03*
G04 #@! TO.P,C9,1*
G04 #@! TO.N,GND*
X81788000Y-59817000D03*
G04 #@! TD*
G04 #@! TO.P,C10,1*
G04 #@! TO.N,Net-(C10-Pad1)*
X69850000Y-44958000D03*
G04 #@! TO.P,C10,2*
G04 #@! TO.N,GND*
X64850000Y-44958000D03*
G04 #@! TD*
D17*
G04 #@! TO.P,D1,1*
G04 #@! TO.N,Net-(C1-Pad2)*
X43180000Y-33020000D03*
D18*
G04 #@! TO.P,D1,2*
G04 #@! TO.N,+BATT*
X43180000Y-35560000D03*
G04 #@! TD*
D21*
G04 #@! TO.P,J1,1*
G04 #@! TO.N,+BATT*
X34290000Y-50800000D03*
D22*
G04 #@! TO.P,J1,2*
G04 #@! TO.N,GND*
X34290000Y-53340000D03*
G04 #@! TD*
D21*
G04 #@! TO.P,J2,1*
G04 #@! TO.N,+BATT*
X47498000Y-35814000D03*
D22*
G04 #@! TO.P,J2,2*
G04 #@! TO.N,Net-(C1-Pad2)*
X47498000Y-33274000D03*
G04 #@! TD*
D21*
G04 #@! TO.P,J3,1*
G04 #@! TO.N,Net-(C10-Pad1)*
X95250000Y-41910000D03*
D22*
G04 #@! TO.P,J3,2*
G04 #@! TO.N,+5V*
X95250000Y-44450000D03*
G04 #@! TO.P,J3,3*
G04 #@! TO.N,GND*
X95250000Y-46990000D03*
G04 #@! TO.P,J3,4*
G04 #@! TO.N,Net-(J3-Pad4)*
X95250000Y-49530000D03*
G04 #@! TO.P,J3,5*
G04 #@! TO.N,Net-(J3-Pad5)*
X95250000Y-52070000D03*
G04 #@! TD*
D12*
G04 #@! TO.P,LED1,1*
G04 #@! TO.N,Net-(LED1-Pad1)*
X66040000Y-66040000D03*
D13*
G04 #@! TO.P,LED1,2*
G04 #@! TO.N,Net-(LED1-Pad2)*
X68580000Y-66040000D03*
G04 #@! TD*
D12*
G04 #@! TO.P,LED2,1*
G04 #@! TO.N,Net-(LED2-Pad1)*
X66040000Y-71120000D03*
D13*
G04 #@! TO.P,LED2,2*
G04 #@! TO.N,Net-(LED1-Pad2)*
X68580000Y-71120000D03*
G04 #@! TD*
G04 #@! TO.P,LED3,2*
G04 #@! TO.N,Net-(LED1-Pad2)*
X68580000Y-76200000D03*
D12*
G04 #@! TO.P,LED3,1*
G04 #@! TO.N,Net-(LED3-Pad1)*
X66040000Y-76200000D03*
G04 #@! TD*
D13*
G04 #@! TO.P,LED4,2*
G04 #@! TO.N,Net-(LED1-Pad2)*
X68580000Y-81280000D03*
D12*
G04 #@! TO.P,LED4,1*
G04 #@! TO.N,Net-(LED4-Pad1)*
X66040000Y-81280000D03*
G04 #@! TD*
G04 #@! TO.P,LED5,1*
G04 #@! TO.N,Net-(LED5-Pad1)*
X66040000Y-86360000D03*
D13*
G04 #@! TO.P,LED5,2*
G04 #@! TO.N,Net-(LED1-Pad2)*
X68580000Y-86360000D03*
G04 #@! TD*
D11*
G04 #@! TO.P,R1,2*
G04 #@! TO.N,Net-(Q1-Pad1)*
X62103000Y-37338000D03*
D10*
G04 #@! TO.P,R1,1*
G04 #@! TO.N,Net-(R1-Pad1)*
X64643000Y-37338000D03*
G04 #@! TD*
G04 #@! TO.P,R2,1*
G04 #@! TO.N,Net-(R1-Pad1)*
X64643000Y-40767000D03*
D11*
G04 #@! TO.P,R2,2*
G04 #@! TO.N,GND*
X62103000Y-40767000D03*
G04 #@! TD*
G04 #@! TO.P,R5,2*
G04 #@! TO.N,+BATT*
X56388000Y-50800000D03*
D10*
G04 #@! TO.P,R5,1*
G04 #@! TO.N,Net-(R5-Pad1)*
X58928000Y-50800000D03*
G04 #@! TD*
G04 #@! TO.P,R6,1*
G04 #@! TO.N,Net-(R6-Pad1)*
X69850000Y-50419000D03*
D11*
G04 #@! TO.P,R6,2*
G04 #@! TO.N,Net-(C10-Pad1)*
X69850000Y-47879000D03*
G04 #@! TD*
D18*
G04 #@! TO.P,SW1,2*
G04 #@! TO.N,GND*
X85915500Y-64190000D03*
G04 #@! TO.P,SW1,1*
G04 #@! TO.N,Net-(C10-Pad1)*
X85915500Y-59690000D03*
G04 #@! TO.P,SW1,2*
G04 #@! TO.N,GND*
X92415500Y-64190000D03*
G04 #@! TO.P,SW1,1*
G04 #@! TO.N,Net-(C10-Pad1)*
X92415500Y-59690000D03*
G04 #@! TD*
G04 #@! TO.P,SW2,1*
G04 #@! TO.N,Net-(J3-Pad5)*
X92415500Y-69850000D03*
G04 #@! TO.P,SW2,2*
G04 #@! TO.N,GND*
X92415500Y-74350000D03*
G04 #@! TO.P,SW2,1*
G04 #@! TO.N,Net-(J3-Pad5)*
X85915500Y-69850000D03*
G04 #@! TO.P,SW2,2*
G04 #@! TO.N,GND*
X85915500Y-74350000D03*
G04 #@! TD*
G04 #@! TO.P,SW3,2*
G04 #@! TO.N,GND*
X85788500Y-84510000D03*
G04 #@! TO.P,SW3,1*
G04 #@! TO.N,Net-(SW3-Pad1)*
X85788500Y-80010000D03*
G04 #@! TO.P,SW3,2*
G04 #@! TO.N,GND*
X92288500Y-84510000D03*
G04 #@! TO.P,SW3,1*
G04 #@! TO.N,Net-(SW3-Pad1)*
X92288500Y-80010000D03*
G04 #@! TD*
D23*
G04 #@! TO.P,U1,14*
G04 #@! TO.N,Net-(U1-Pad14)*
X50927000Y-71120000D03*
G04 #@! TO.P,U1,15*
G04 #@! TO.N,Net-(LED3-Pad1)*
X48387000Y-71120000D03*
G04 #@! TO.P,U1,16*
G04 #@! TO.N,Net-(LED2-Pad1)*
X45847000Y-71120000D03*
G04 #@! TO.P,U1,17*
G04 #@! TO.N,Net-(LED4-Pad1)*
X43180000Y-71120000D03*
G04 #@! TO.P,U1,18*
G04 #@! TO.N,Net-(LED1-Pad1)*
X40767000Y-71120000D03*
G04 #@! TO.P,U1,13*
G04 #@! TO.N,Net-(U1-Pad13)*
X53467000Y-71120000D03*
G04 #@! TO.P,U1,12*
G04 #@! TO.N,Net-(LED1-Pad1)*
X56007000Y-71120000D03*
G04 #@! TO.P,U1,11*
G04 #@! TO.N,Net-(LED2-Pad1)*
X58547000Y-71120000D03*
G04 #@! TO.P,U1,10*
G04 #@! TO.N,Net-(LED3-Pad1)*
X61087000Y-71120000D03*
G04 #@! TO.P,U1,5*
G04 #@! TO.N,Net-(U1-Pad1)*
X50927000Y-86360000D03*
G04 #@! TO.P,U1,4*
G04 #@! TO.N,Net-(LED5-Pad1)*
X48387000Y-86360000D03*
G04 #@! TO.P,U1,3*
G04 #@! TO.N,Net-(U1-Pad3)*
X45847000Y-86360000D03*
G04 #@! TO.P,U1,2*
G04 #@! TO.N,Net-(U1-Pad2)*
X43307000Y-86360000D03*
G04 #@! TO.P,U1,1*
G04 #@! TO.N,Net-(U1-Pad1)*
X40767000Y-86360000D03*
G04 #@! TO.P,U1,6*
G04 #@! TO.N,Net-(U1-Pad2)*
X53467000Y-86360000D03*
G04 #@! TO.P,U1,7*
G04 #@! TO.N,Net-(LED4-Pad1)*
X56007000Y-86360000D03*
G04 #@! TO.P,U1,8*
G04 #@! TO.N,Net-(U1-Pad3)*
X58547000Y-86360000D03*
G04 #@! TO.P,U1,9*
G04 #@! TO.N,Net-(LED5-Pad1)*
X61087000Y-86360000D03*
G04 #@! TD*
D24*
G04 #@! TO.P,Y1,1*
G04 #@! TO.N,Net-(C3-Pad1)*
X74676000Y-49022000D03*
G04 #@! TO.P,Y1,2*
G04 #@! TO.N,Net-(C4-Pad1)*
X72776000Y-49022000D03*
G04 #@! TD*
D25*
G04 #@! TO.P,U2,2*
G04 #@! TO.N,+5V*
X39497000Y-61087000D03*
G04 #@! TO.P,U2,3*
G04 #@! TO.N,Net-(D2-Pad1)*
X39497000Y-58547000D03*
D26*
G04 #@! TO.P,U2,1*
G04 #@! TO.N,GND*
X39497000Y-63627000D03*
G04 #@! TD*
D20*
G04 #@! TO.P,C3,1*
G04 #@! TO.N,Net-(C3-Pad1)*
X75184000Y-44704000D03*
G04 #@! TO.P,C3,2*
G04 #@! TO.N,GND*
X75184000Y-42204000D03*
G04 #@! TD*
G04 #@! TO.P,C4,2*
G04 #@! TO.N,GND*
X72390000Y-42204000D03*
G04 #@! TO.P,C4,1*
G04 #@! TO.N,Net-(C4-Pad1)*
X72390000Y-44704000D03*
G04 #@! TD*
D27*
G04 #@! TO.N,GND*
X62738000Y-78105000D03*
X71374000Y-46482000D03*
X45974000Y-81280000D03*
D28*
X76200000Y-82931000D03*
X62865000Y-68580000D03*
G04 #@! TO.N,Net-(U1-Pad3)*
X50800000Y-88265000D03*
G04 #@! TO.N,Net-(U3-Pad8)*
X78740000Y-77977998D03*
G04 #@! TO.N,Net-(LED1-Pad1)*
X38989001Y-80264001D03*
G04 #@! TO.N,Net-(LED3-Pad1)*
X78740000Y-81280000D03*
G04 #@! TO.N,Net-(LED4-Pad1)*
X70485008Y-85725000D03*
G04 #@! TD*
D29*
G04 #@! TO.N,Net-(J3-Pad4)*
X76155001Y-59734999D02*
X76155001Y-59607999D01*
X74930000Y-60960000D02*
X76155001Y-59734999D01*
X88740002Y-49530000D02*
X95250000Y-49530000D01*
X78662003Y-59607999D02*
X88740002Y-49530000D01*
X76155001Y-59607999D02*
X78662003Y-59607999D01*
G04 #@! TO.N,Net-(J3-Pad5)*
X85915500Y-69850000D02*
X92415500Y-69850000D01*
X72390000Y-62738000D02*
X72390000Y-60960000D01*
X79502000Y-69850000D02*
X72390000Y-62738000D01*
X85915500Y-69850000D02*
X79502000Y-69850000D01*
X88646000Y-56769000D02*
X93345000Y-52070000D01*
X88646000Y-67119500D02*
X88646000Y-56769000D01*
X93345000Y-52070000D02*
X95250000Y-52070000D01*
X85915500Y-69850000D02*
X88646000Y-67119500D01*
G04 #@! TO.N,Net-(C4-Pad1)*
X72670051Y-53340000D02*
X72390000Y-53340000D01*
D30*
G04 #@! TO.N,+5V*
X78105000Y-52705000D02*
X77470000Y-53340000D01*
X45593000Y-61087000D02*
X46990000Y-59690000D01*
X39497000Y-61087000D02*
X45593000Y-61087000D01*
X39450000Y-61040000D02*
X39497000Y-61087000D01*
X34290000Y-61040000D02*
X39450000Y-61040000D01*
D29*
G04 #@! TO.N,Net-(C1-Pad2)*
X47244000Y-33020000D02*
X47498000Y-33274000D01*
D30*
X43180000Y-33020000D02*
X47244000Y-33020000D01*
X47498000Y-33274000D02*
X47752000Y-33020000D01*
D29*
X47934001Y-32837999D02*
X47498000Y-33274000D01*
D30*
G04 #@! TO.N,+BATT*
X38100000Y-45720000D02*
X41910000Y-49530000D01*
X36830000Y-45720000D02*
X38100000Y-45720000D01*
X43434000Y-35814000D02*
X43180000Y-35560000D01*
X47498000Y-35814000D02*
X43434000Y-35814000D01*
D31*
X40640000Y-50800000D02*
X41910000Y-49530000D01*
X34290000Y-50800000D02*
X40640000Y-50800000D01*
X47498000Y-39878000D02*
X47498000Y-35814000D01*
X47498000Y-43942000D02*
X47498000Y-39878000D01*
X41910000Y-49530000D02*
X47498000Y-43942000D01*
D30*
X43180000Y-50800000D02*
X41910000Y-49530000D01*
X56388000Y-50800000D02*
X43180000Y-50800000D01*
G04 #@! TO.N,GND*
X45553000Y-63627000D02*
X46990000Y-62190000D01*
X39497000Y-63627000D02*
X45553000Y-63627000D01*
X37084000Y-66040000D02*
X39497000Y-63627000D01*
X34290000Y-66040000D02*
X37084000Y-66040000D01*
X33039999Y-64789999D02*
X34290000Y-66040000D01*
X33039999Y-54590001D02*
X33039999Y-64789999D01*
X34290000Y-53340000D02*
X33039999Y-54590001D01*
D29*
G04 #@! TO.N,Net-(C10-Pad1)*
X94615000Y-42545000D02*
X95250000Y-41910000D01*
G04 #@! TO.N,Net-(D2-Pad1)*
X42338000Y-54102000D02*
X41910000Y-54530000D01*
D30*
X50927000Y-54102000D02*
X42338000Y-54102000D01*
X39497000Y-56943000D02*
X39497000Y-58547000D01*
X41910000Y-54530000D02*
X39497000Y-56943000D01*
D29*
G04 #@! TO.N,Net-(LED1-Pad2)*
X68580000Y-66040000D02*
X68580000Y-71120000D01*
X68580000Y-71120000D02*
X68580000Y-76200000D01*
G04 #@! TO.N,Net-(Q1-Pad1)*
X62103000Y-37338000D02*
X58674000Y-37338000D01*
G04 #@! TO.N,Net-(C4-Pad1)*
X72390000Y-49408000D02*
X72776000Y-49022000D01*
X72390000Y-53340000D02*
X72390000Y-49408000D01*
X72776000Y-45090000D02*
X72390000Y-44704000D01*
X72776000Y-49022000D02*
X72776000Y-45090000D01*
G04 #@! TO.N,Net-(C3-Pad1)*
X74930000Y-49276000D02*
X74676000Y-49022000D01*
X74930000Y-53340000D02*
X74930000Y-49276000D01*
X74676000Y-45212000D02*
X75184000Y-44704000D01*
X74676000Y-49022000D02*
X74676000Y-45212000D01*
D30*
G04 #@! TO.N,+5V*
X80311000Y-53340000D02*
X81788000Y-54817000D01*
X77470000Y-53340000D02*
X80311000Y-53340000D01*
X83693000Y-42164000D02*
X81993000Y-42164000D01*
X81993000Y-42164000D02*
X77929000Y-38100000D01*
X77929000Y-38100000D02*
X73379949Y-38100000D01*
X73379949Y-38100000D02*
X72390000Y-38100000D01*
X77597000Y-53340000D02*
X77470000Y-53340000D01*
X81788000Y-44069000D02*
X83693000Y-42164000D01*
X81788000Y-54817000D02*
X81788000Y-44069000D01*
X84582000Y-41275000D02*
X83693000Y-42164000D01*
X92075000Y-41275000D02*
X84582000Y-41275000D01*
X95250000Y-44450000D02*
X92075000Y-41275000D01*
D31*
G04 #@! TO.N,Net-(C1-Pad2)*
X55495787Y-33274000D02*
X47498000Y-33274000D01*
X57259787Y-35038000D02*
X55495787Y-33274000D01*
X58674000Y-35038000D02*
X57259787Y-35038000D01*
D30*
G04 #@! TO.N,GND*
X60960000Y-76327000D02*
X62738000Y-78105000D01*
X58547000Y-76327000D02*
X60960000Y-76327000D01*
X93014002Y-37164000D02*
X83693000Y-37164000D01*
X96550001Y-40699999D02*
X93014002Y-37164000D01*
X96550001Y-45689999D02*
X96550001Y-40699999D01*
X95250000Y-46990000D02*
X96550001Y-45689999D01*
D29*
G04 #@! TO.N,Net-(C10-Pad1)*
X69850000Y-47879000D02*
X69850000Y-44958000D01*
X69850000Y-38100000D02*
X69850000Y-44958000D01*
X93978999Y-40638999D02*
X95250000Y-41910000D01*
X81913999Y-40638999D02*
X93978999Y-40638999D01*
X78349999Y-37074999D02*
X81913999Y-40638999D01*
X70875001Y-37074999D02*
X78349999Y-37074999D01*
X69850000Y-38100000D02*
X70875001Y-37074999D01*
D30*
G04 #@! TO.N,GND*
X53594000Y-81280000D02*
X45974000Y-81280000D01*
X58547000Y-76327000D02*
X53594000Y-81280000D01*
D29*
G04 #@! TO.N,Net-(R1-Pad1)*
X67310000Y-40005000D02*
X64643000Y-37338000D01*
X67310000Y-53340000D02*
X67310000Y-40005000D01*
X64643000Y-40640000D02*
X64516000Y-40767000D01*
X64643000Y-37338000D02*
X64643000Y-40640000D01*
G04 #@! TO.N,Net-(R5-Pad1)*
X62230000Y-50800000D02*
X58928000Y-50800000D01*
X64770000Y-53340000D02*
X62230000Y-50800000D01*
G04 #@! TO.N,Net-(R6-Pad1)*
X69850000Y-53340000D02*
X69850000Y-50419000D01*
G04 #@! TO.N,Net-(SW3-Pad1)*
X85788500Y-76898500D02*
X69850000Y-60960000D01*
X85788500Y-80010000D02*
X85788500Y-76898500D01*
X92288500Y-80010000D02*
X85788500Y-80010000D01*
G04 #@! TO.N,Net-(U1-Pad1)*
X49784000Y-87503000D02*
X50927000Y-86360000D01*
X41910000Y-87503000D02*
X49784000Y-87503000D01*
X40767000Y-86360000D02*
X41910000Y-87503000D01*
G04 #@! TO.N,Net-(U1-Pad3)*
X56642000Y-88265000D02*
X50800000Y-88265000D01*
X58547000Y-86360000D02*
X56642000Y-88265000D01*
G04 #@! TO.N,Net-(U1-Pad2)*
X52324000Y-85217000D02*
X53467000Y-86360000D01*
X44450000Y-85217000D02*
X52324000Y-85217000D01*
X43307000Y-86360000D02*
X44450000Y-85217000D01*
G04 #@! TO.N,Net-(U3-Pad8)*
X64770000Y-60960000D02*
X64770000Y-61341000D01*
X78740000Y-70612000D02*
X78740000Y-77977998D01*
X70358000Y-62230000D02*
X78740000Y-70612000D01*
X66040000Y-62230000D02*
X70358000Y-62230000D01*
X64770000Y-60960000D02*
X66040000Y-62230000D01*
G04 #@! TO.N,Net-(LED1-Pad1)*
X61087000Y-66040000D02*
X66040000Y-66040000D01*
X56007000Y-71120000D02*
X61087000Y-66040000D01*
X41910000Y-69977000D02*
X40767000Y-71120000D01*
X54864000Y-69977000D02*
X41910000Y-69977000D01*
X56007000Y-71120000D02*
X54864000Y-69977000D01*
X38989001Y-73913999D02*
X38989001Y-80264001D01*
X40767000Y-72136000D02*
X38989001Y-73913999D01*
X40767000Y-71120000D02*
X40767000Y-72136000D01*
G04 #@! TO.N,Net-(LED3-Pad1)*
X66040000Y-76200000D02*
X66040000Y-76073000D01*
X49911000Y-72644000D02*
X48387000Y-71120000D01*
X59563000Y-72644000D02*
X49911000Y-72644000D01*
X61087000Y-71120000D02*
X59563000Y-72644000D01*
X78740000Y-80855736D02*
X78740000Y-81280000D01*
X77894264Y-80010000D02*
X78740000Y-80855736D01*
X69977000Y-80010000D02*
X77894264Y-80010000D01*
X61087000Y-71120000D02*
X69977000Y-80010000D01*
G04 #@! TO.N,Net-(LED4-Pad1)*
X61087000Y-81280000D02*
X56007000Y-86360000D01*
X66040000Y-81280000D02*
X61087000Y-81280000D01*
X66040000Y-81280000D02*
X70485000Y-85725000D01*
X70485000Y-85725000D02*
X70485008Y-85725000D01*
X55245001Y-85598001D02*
X56007000Y-86360000D01*
X54919999Y-85272999D02*
X55245001Y-85598001D01*
X53016409Y-85272999D02*
X54919999Y-85272999D01*
X44634990Y-84766990D02*
X52510401Y-84766991D01*
X39497000Y-79629000D02*
X44634990Y-84766990D01*
X52510401Y-84766991D02*
X53016409Y-85272999D01*
X39497000Y-74168000D02*
X39497000Y-79629000D01*
X42545000Y-71120000D02*
X39497000Y-74168000D01*
X43180000Y-71120000D02*
X42545000Y-71120000D01*
G04 #@! TD*
D32*
G04 #@! TO.N,GND*
X92164170Y-30784647D02*
X93309981Y-31003222D01*
X94419362Y-31363682D01*
X95474813Y-31860339D01*
X96459703Y-32485370D01*
X97358480Y-33228903D01*
X98156987Y-34079228D01*
X98842621Y-35022922D01*
X99404575Y-36045110D01*
X99833979Y-37129662D01*
X100124071Y-38259494D01*
X100271669Y-39427864D01*
X100290000Y-40011165D01*
X100290001Y-89290000D01*
X31710000Y-89290000D01*
X31710000Y-86203372D01*
X32372500Y-86203372D01*
X32372500Y-86643628D01*
X32458390Y-87075425D01*
X32626869Y-87482169D01*
X32871462Y-87848229D01*
X33182771Y-88159538D01*
X33548831Y-88404131D01*
X33955575Y-88572610D01*
X34387372Y-88658500D01*
X34827628Y-88658500D01*
X35259425Y-88572610D01*
X35666169Y-88404131D01*
X36032229Y-88159538D01*
X36343538Y-87848229D01*
X36588131Y-87482169D01*
X36756610Y-87075425D01*
X36842500Y-86643628D01*
X36842500Y-86203372D01*
X36756610Y-85771575D01*
X36588131Y-85364831D01*
X36343538Y-84998771D01*
X36032229Y-84687462D01*
X35666169Y-84442869D01*
X35259425Y-84274390D01*
X34827628Y-84188500D01*
X34387372Y-84188500D01*
X33955575Y-84274390D01*
X33548831Y-84442869D01*
X33182771Y-84687462D01*
X32871462Y-84998771D01*
X32626869Y-85364831D01*
X32458390Y-85771575D01*
X32372500Y-86203372D01*
X31710000Y-86203372D01*
X31710000Y-80171912D01*
X38054001Y-80171912D01*
X38054001Y-80356090D01*
X38089933Y-80536730D01*
X38160415Y-80706890D01*
X38262739Y-80860029D01*
X38392973Y-80990263D01*
X38546112Y-81092587D01*
X38716272Y-81163069D01*
X38896912Y-81199001D01*
X39081090Y-81199001D01*
X39261730Y-81163069D01*
X39431890Y-81092587D01*
X39585029Y-80990263D01*
X39684245Y-80891047D01*
X43692698Y-84899500D01*
X43598570Y-84993628D01*
X43444592Y-84963000D01*
X43169408Y-84963000D01*
X42899510Y-85016686D01*
X42645273Y-85121995D01*
X42416465Y-85274880D01*
X42221880Y-85469465D01*
X42068995Y-85698273D01*
X42037000Y-85775515D01*
X42005005Y-85698273D01*
X41852120Y-85469465D01*
X41657535Y-85274880D01*
X41428727Y-85121995D01*
X41174490Y-85016686D01*
X40904592Y-84963000D01*
X40629408Y-84963000D01*
X40359510Y-85016686D01*
X40105273Y-85121995D01*
X39876465Y-85274880D01*
X39681880Y-85469465D01*
X39528995Y-85698273D01*
X39423686Y-85952510D01*
X39370000Y-86222408D01*
X39370000Y-86497592D01*
X39423686Y-86767490D01*
X39528995Y-87021727D01*
X39681880Y-87250535D01*
X39876465Y-87445120D01*
X40105273Y-87598005D01*
X40359510Y-87703314D01*
X40629408Y-87757000D01*
X40904592Y-87757000D01*
X41058570Y-87726372D01*
X41346201Y-88014003D01*
X41369999Y-88043001D01*
X41398997Y-88066799D01*
X41485723Y-88137974D01*
X41617753Y-88208546D01*
X41761014Y-88252003D01*
X41872667Y-88263000D01*
X41872676Y-88263000D01*
X41909999Y-88266676D01*
X41947322Y-88263000D01*
X49746678Y-88263000D01*
X49784000Y-88266676D01*
X49821322Y-88263000D01*
X49821333Y-88263000D01*
X49865000Y-88258699D01*
X49865000Y-88357089D01*
X49900932Y-88537729D01*
X49971414Y-88707889D01*
X50073738Y-88861028D01*
X50203972Y-88991262D01*
X50357111Y-89093586D01*
X50527271Y-89164068D01*
X50707911Y-89200000D01*
X50892089Y-89200000D01*
X51072729Y-89164068D01*
X51242889Y-89093586D01*
X51345535Y-89025000D01*
X56604678Y-89025000D01*
X56642000Y-89028676D01*
X56679322Y-89025000D01*
X56679333Y-89025000D01*
X56790986Y-89014003D01*
X56934247Y-88970546D01*
X57066276Y-88899974D01*
X57182001Y-88805001D01*
X57205804Y-88775997D01*
X58255430Y-87726372D01*
X58409408Y-87757000D01*
X58684592Y-87757000D01*
X58954490Y-87703314D01*
X59208727Y-87598005D01*
X59437535Y-87445120D01*
X59632120Y-87250535D01*
X59785005Y-87021727D01*
X59817000Y-86944485D01*
X59848995Y-87021727D01*
X60001880Y-87250535D01*
X60196465Y-87445120D01*
X60425273Y-87598005D01*
X60679510Y-87703314D01*
X60949408Y-87757000D01*
X61224592Y-87757000D01*
X61494490Y-87703314D01*
X61748727Y-87598005D01*
X61977535Y-87445120D01*
X62172120Y-87250535D01*
X62325005Y-87021727D01*
X62430314Y-86767490D01*
X62484000Y-86497592D01*
X62484000Y-86222408D01*
X62430314Y-85952510D01*
X62325005Y-85698273D01*
X62172120Y-85469465D01*
X61977535Y-85274880D01*
X61748727Y-85121995D01*
X61494490Y-85016686D01*
X61224592Y-84963000D01*
X60949408Y-84963000D01*
X60679510Y-85016686D01*
X60425273Y-85121995D01*
X60196465Y-85274880D01*
X60001880Y-85469465D01*
X59848995Y-85698273D01*
X59817000Y-85775515D01*
X59785005Y-85698273D01*
X59632120Y-85469465D01*
X59437535Y-85274880D01*
X59208727Y-85121995D01*
X58954490Y-85016686D01*
X58684592Y-84963000D01*
X58478801Y-84963000D01*
X61401802Y-82040000D01*
X64501928Y-82040000D01*
X64501928Y-82180000D01*
X64514188Y-82304482D01*
X64550498Y-82424180D01*
X64609463Y-82534494D01*
X64688815Y-82631185D01*
X64785506Y-82710537D01*
X64895820Y-82769502D01*
X65015518Y-82805812D01*
X65140000Y-82818072D01*
X66503271Y-82818072D01*
X68510198Y-84825000D01*
X68428816Y-84825000D01*
X68132257Y-84883989D01*
X67852905Y-84999701D01*
X67601495Y-85167688D01*
X67535056Y-85234127D01*
X67529502Y-85215820D01*
X67470537Y-85105506D01*
X67391185Y-85008815D01*
X67294494Y-84929463D01*
X67184180Y-84870498D01*
X67064482Y-84834188D01*
X66940000Y-84821928D01*
X65140000Y-84821928D01*
X65015518Y-84834188D01*
X64895820Y-84870498D01*
X64785506Y-84929463D01*
X64688815Y-85008815D01*
X64609463Y-85105506D01*
X64550498Y-85215820D01*
X64514188Y-85335518D01*
X64501928Y-85460000D01*
X64501928Y-87260000D01*
X64514188Y-87384482D01*
X64550498Y-87504180D01*
X64609463Y-87614494D01*
X64688815Y-87711185D01*
X64785506Y-87790537D01*
X64895820Y-87849502D01*
X65015518Y-87885812D01*
X65140000Y-87898072D01*
X66940000Y-87898072D01*
X67064482Y-87885812D01*
X67184180Y-87849502D01*
X67294494Y-87790537D01*
X67391185Y-87711185D01*
X67470537Y-87614494D01*
X67529502Y-87504180D01*
X67535056Y-87485873D01*
X67601495Y-87552312D01*
X67852905Y-87720299D01*
X68132257Y-87836011D01*
X68428816Y-87895000D01*
X68731184Y-87895000D01*
X69027743Y-87836011D01*
X69307095Y-87720299D01*
X69558505Y-87552312D01*
X69772312Y-87338505D01*
X69940299Y-87087095D01*
X70056011Y-86807743D01*
X70101660Y-86578249D01*
X70212279Y-86624068D01*
X70392919Y-86660000D01*
X70577097Y-86660000D01*
X70757737Y-86624068D01*
X70927897Y-86553586D01*
X71081036Y-86451262D01*
X71211270Y-86321028D01*
X71289885Y-86203372D01*
X95174000Y-86203372D01*
X95174000Y-86643628D01*
X95259890Y-87075425D01*
X95428369Y-87482169D01*
X95672962Y-87848229D01*
X95984271Y-88159538D01*
X96350331Y-88404131D01*
X96757075Y-88572610D01*
X97188872Y-88658500D01*
X97629128Y-88658500D01*
X98060925Y-88572610D01*
X98467669Y-88404131D01*
X98833729Y-88159538D01*
X99145038Y-87848229D01*
X99389631Y-87482169D01*
X99558110Y-87075425D01*
X99644000Y-86643628D01*
X99644000Y-86203372D01*
X99558110Y-85771575D01*
X99389631Y-85364831D01*
X99145038Y-84998771D01*
X98833729Y-84687462D01*
X98467669Y-84442869D01*
X98060925Y-84274390D01*
X97629128Y-84188500D01*
X97188872Y-84188500D01*
X96757075Y-84274390D01*
X96350331Y-84442869D01*
X95984271Y-84687462D01*
X95672962Y-84998771D01*
X95428369Y-85364831D01*
X95259890Y-85771575D01*
X95174000Y-86203372D01*
X71289885Y-86203372D01*
X71313594Y-86167889D01*
X71384076Y-85997729D01*
X71420008Y-85817089D01*
X71420008Y-85645413D01*
X84832692Y-85645413D01*
X84928456Y-85909814D01*
X85218071Y-86050704D01*
X85529608Y-86132384D01*
X85851095Y-86151718D01*
X86170175Y-86107961D01*
X86474588Y-86002795D01*
X86648544Y-85909814D01*
X86744308Y-85645413D01*
X91332692Y-85645413D01*
X91428456Y-85909814D01*
X91718071Y-86050704D01*
X92029608Y-86132384D01*
X92351095Y-86151718D01*
X92670175Y-86107961D01*
X92974588Y-86002795D01*
X93148544Y-85909814D01*
X93244308Y-85645413D01*
X92288500Y-84689605D01*
X91332692Y-85645413D01*
X86744308Y-85645413D01*
X85788500Y-84689605D01*
X84832692Y-85645413D01*
X71420008Y-85645413D01*
X71420008Y-85632911D01*
X71384076Y-85452271D01*
X71313594Y-85282111D01*
X71211270Y-85128972D01*
X71081036Y-84998738D01*
X70927897Y-84896414D01*
X70757737Y-84825932D01*
X70636647Y-84801845D01*
X70407397Y-84572595D01*
X84146782Y-84572595D01*
X84190539Y-84891675D01*
X84295705Y-85196088D01*
X84388686Y-85370044D01*
X84653087Y-85465808D01*
X85608895Y-84510000D01*
X85968105Y-84510000D01*
X86923913Y-85465808D01*
X87188314Y-85370044D01*
X87329204Y-85080429D01*
X87410884Y-84768892D01*
X87422689Y-84572595D01*
X90646782Y-84572595D01*
X90690539Y-84891675D01*
X90795705Y-85196088D01*
X90888686Y-85370044D01*
X91153087Y-85465808D01*
X92108895Y-84510000D01*
X92468105Y-84510000D01*
X93423913Y-85465808D01*
X93688314Y-85370044D01*
X93829204Y-85080429D01*
X93910884Y-84768892D01*
X93930218Y-84447405D01*
X93886461Y-84128325D01*
X93781295Y-83823912D01*
X93688314Y-83649956D01*
X93423913Y-83554192D01*
X92468105Y-84510000D01*
X92108895Y-84510000D01*
X91153087Y-83554192D01*
X90888686Y-83649956D01*
X90747796Y-83939571D01*
X90666116Y-84251108D01*
X90646782Y-84572595D01*
X87422689Y-84572595D01*
X87430218Y-84447405D01*
X87386461Y-84128325D01*
X87281295Y-83823912D01*
X87188314Y-83649956D01*
X86923913Y-83554192D01*
X85968105Y-84510000D01*
X85608895Y-84510000D01*
X84653087Y-83554192D01*
X84388686Y-83649956D01*
X84247796Y-83939571D01*
X84166116Y-84251108D01*
X84146782Y-84572595D01*
X70407397Y-84572595D01*
X69209389Y-83374587D01*
X84832692Y-83374587D01*
X85788500Y-84330395D01*
X86744308Y-83374587D01*
X91332692Y-83374587D01*
X92288500Y-84330395D01*
X93244308Y-83374587D01*
X93148544Y-83110186D01*
X92858929Y-82969296D01*
X92547392Y-82887616D01*
X92225905Y-82868282D01*
X91906825Y-82912039D01*
X91602412Y-83017205D01*
X91428456Y-83110186D01*
X91332692Y-83374587D01*
X86744308Y-83374587D01*
X86648544Y-83110186D01*
X86358929Y-82969296D01*
X86047392Y-82887616D01*
X85725905Y-82868282D01*
X85406825Y-82912039D01*
X85102412Y-83017205D01*
X84928456Y-83110186D01*
X84832692Y-83374587D01*
X69209389Y-83374587D01*
X68649801Y-82815000D01*
X68731184Y-82815000D01*
X69027743Y-82756011D01*
X69307095Y-82640299D01*
X69558505Y-82472312D01*
X69772312Y-82258505D01*
X69940299Y-82007095D01*
X70056011Y-81727743D01*
X70115000Y-81431184D01*
X70115000Y-81128816D01*
X70056011Y-80832257D01*
X70030223Y-80770000D01*
X77579463Y-80770000D01*
X77836917Y-81027455D01*
X77805000Y-81187911D01*
X77805000Y-81372089D01*
X77840932Y-81552729D01*
X77911414Y-81722889D01*
X78013738Y-81876028D01*
X78143972Y-82006262D01*
X78297111Y-82108586D01*
X78467271Y-82179068D01*
X78647911Y-82215000D01*
X78832089Y-82215000D01*
X79012729Y-82179068D01*
X79182889Y-82108586D01*
X79336028Y-82006262D01*
X79466262Y-81876028D01*
X79568586Y-81722889D01*
X79639068Y-81552729D01*
X79675000Y-81372089D01*
X79675000Y-81187911D01*
X79639068Y-81007271D01*
X79568586Y-80837111D01*
X79490303Y-80719952D01*
X79489003Y-80706750D01*
X79445546Y-80563489D01*
X79374974Y-80431460D01*
X79280001Y-80315735D01*
X79251004Y-80291938D01*
X78458067Y-79499002D01*
X78434265Y-79469999D01*
X78318540Y-79375026D01*
X78186511Y-79304454D01*
X78043250Y-79260997D01*
X77931597Y-79250000D01*
X77931586Y-79250000D01*
X77894264Y-79246324D01*
X77856942Y-79250000D01*
X70291802Y-79250000D01*
X68769233Y-77727432D01*
X69027743Y-77676011D01*
X69307095Y-77560299D01*
X69558505Y-77392312D01*
X69772312Y-77178505D01*
X69940299Y-76927095D01*
X70056011Y-76647743D01*
X70115000Y-76351184D01*
X70115000Y-76048816D01*
X70056011Y-75752257D01*
X69940299Y-75472905D01*
X69772312Y-75221495D01*
X69558505Y-75007688D01*
X69340000Y-74861687D01*
X69340000Y-72458313D01*
X69558505Y-72312312D01*
X69772312Y-72098505D01*
X69940299Y-71847095D01*
X70056011Y-71567743D01*
X70115000Y-71271184D01*
X70115000Y-70968816D01*
X70056011Y-70672257D01*
X69940299Y-70392905D01*
X69772312Y-70141495D01*
X69558505Y-69927688D01*
X69340000Y-69781687D01*
X69340000Y-67378313D01*
X69558505Y-67232312D01*
X69772312Y-67018505D01*
X69940299Y-66767095D01*
X70056011Y-66487743D01*
X70115000Y-66191184D01*
X70115000Y-65888816D01*
X70056011Y-65592257D01*
X69940299Y-65312905D01*
X69772312Y-65061495D01*
X69558505Y-64847688D01*
X69307095Y-64679701D01*
X69027743Y-64563989D01*
X68731184Y-64505000D01*
X68428816Y-64505000D01*
X68132257Y-64563989D01*
X67852905Y-64679701D01*
X67601495Y-64847688D01*
X67535056Y-64914127D01*
X67529502Y-64895820D01*
X67470537Y-64785506D01*
X67391185Y-64688815D01*
X67294494Y-64609463D01*
X67184180Y-64550498D01*
X67064482Y-64514188D01*
X66940000Y-64501928D01*
X65140000Y-64501928D01*
X65015518Y-64514188D01*
X64895820Y-64550498D01*
X64785506Y-64609463D01*
X64688815Y-64688815D01*
X64609463Y-64785506D01*
X64550498Y-64895820D01*
X64514188Y-65015518D01*
X64501928Y-65140000D01*
X64501928Y-65280000D01*
X61124323Y-65280000D01*
X61087000Y-65276324D01*
X61049677Y-65280000D01*
X61049667Y-65280000D01*
X60938014Y-65290997D01*
X60824558Y-65325413D01*
X60794753Y-65334454D01*
X60662723Y-65405026D01*
X60579083Y-65473668D01*
X60546999Y-65499999D01*
X60523201Y-65528997D01*
X56298571Y-69753628D01*
X56144592Y-69723000D01*
X55869408Y-69723000D01*
X55715429Y-69753628D01*
X55427804Y-69466002D01*
X55404001Y-69436999D01*
X55288276Y-69342026D01*
X55156247Y-69271454D01*
X55012986Y-69227997D01*
X54901333Y-69217000D01*
X54901322Y-69217000D01*
X54864000Y-69213324D01*
X54826678Y-69217000D01*
X41947322Y-69217000D01*
X41909999Y-69213324D01*
X41872676Y-69217000D01*
X41872667Y-69217000D01*
X41761014Y-69227997D01*
X41617753Y-69271454D01*
X41485723Y-69342026D01*
X41402083Y-69410668D01*
X41369999Y-69436999D01*
X41346201Y-69465997D01*
X41058570Y-69753628D01*
X40904592Y-69723000D01*
X40629408Y-69723000D01*
X40359510Y-69776686D01*
X40105273Y-69881995D01*
X39876465Y-70034880D01*
X39681880Y-70229465D01*
X39528995Y-70458273D01*
X39423686Y-70712510D01*
X39370000Y-70982408D01*
X39370000Y-71257592D01*
X39423686Y-71527490D01*
X39528995Y-71781727D01*
X39681880Y-72010535D01*
X39749772Y-72078427D01*
X38478004Y-73350195D01*
X38449000Y-73373998D01*
X38412071Y-73418997D01*
X38354027Y-73489723D01*
X38330881Y-73533026D01*
X38283455Y-73621753D01*
X38239998Y-73765014D01*
X38229001Y-73876667D01*
X38229001Y-73876677D01*
X38225325Y-73913999D01*
X38229001Y-73951322D01*
X38229002Y-79718464D01*
X38160415Y-79821112D01*
X38089933Y-79991272D01*
X38054001Y-80171912D01*
X31710000Y-80171912D01*
X31710000Y-67032702D01*
X33476903Y-67032702D01*
X33548486Y-67276671D01*
X33803996Y-67397571D01*
X34078184Y-67466300D01*
X34360512Y-67480217D01*
X34640130Y-67438787D01*
X34906292Y-67343603D01*
X35031514Y-67276671D01*
X35103097Y-67032702D01*
X34290000Y-66219605D01*
X33476903Y-67032702D01*
X31710000Y-67032702D01*
X31710000Y-66110512D01*
X32849783Y-66110512D01*
X32891213Y-66390130D01*
X32986397Y-66656292D01*
X33053329Y-66781514D01*
X33297298Y-66853097D01*
X34110395Y-66040000D01*
X34469605Y-66040000D01*
X35282702Y-66853097D01*
X35526671Y-66781514D01*
X35647571Y-66526004D01*
X35716300Y-66251816D01*
X35730217Y-65969488D01*
X35688787Y-65689870D01*
X35593603Y-65423708D01*
X35526671Y-65298486D01*
X35282702Y-65226903D01*
X34469605Y-66040000D01*
X34110395Y-66040000D01*
X33297298Y-65226903D01*
X33053329Y-65298486D01*
X32932429Y-65553996D01*
X32863700Y-65828184D01*
X32849783Y-66110512D01*
X31710000Y-66110512D01*
X31710000Y-65047298D01*
X33476903Y-65047298D01*
X34290000Y-65860395D01*
X35103097Y-65047298D01*
X35031514Y-64803329D01*
X34776004Y-64682429D01*
X34501816Y-64613700D01*
X34219488Y-64599783D01*
X33939870Y-64641213D01*
X33673708Y-64736397D01*
X33548486Y-64803329D01*
X33476903Y-65047298D01*
X31710000Y-65047298D01*
X31710000Y-64377000D01*
X38108928Y-64377000D01*
X38121188Y-64501482D01*
X38157498Y-64621180D01*
X38216463Y-64731494D01*
X38295815Y-64828185D01*
X38392506Y-64907537D01*
X38502820Y-64966502D01*
X38622518Y-65002812D01*
X38747000Y-65015072D01*
X39211250Y-65012000D01*
X39370000Y-64853250D01*
X39370000Y-63754000D01*
X39624000Y-63754000D01*
X39624000Y-64853250D01*
X39782750Y-65012000D01*
X40247000Y-65015072D01*
X40371482Y-65002812D01*
X40491180Y-64966502D01*
X40601494Y-64907537D01*
X40698185Y-64828185D01*
X40777537Y-64731494D01*
X40836502Y-64621180D01*
X40872812Y-64501482D01*
X40885072Y-64377000D01*
X40882000Y-63912750D01*
X40723250Y-63754000D01*
X39624000Y-63754000D01*
X39370000Y-63754000D01*
X38270750Y-63754000D01*
X38112000Y-63912750D01*
X38108928Y-64377000D01*
X31710000Y-64377000D01*
X31710000Y-60898665D01*
X32855000Y-60898665D01*
X32855000Y-61181335D01*
X32910147Y-61458574D01*
X33018320Y-61719727D01*
X33175363Y-61954759D01*
X33375241Y-62154637D01*
X33610273Y-62311680D01*
X33871426Y-62419853D01*
X34148665Y-62475000D01*
X34431335Y-62475000D01*
X34708574Y-62419853D01*
X34969727Y-62311680D01*
X35204759Y-62154637D01*
X35404637Y-61954759D01*
X35424521Y-61925000D01*
X38391209Y-61925000D01*
X38421201Y-61969886D01*
X38614114Y-62162799D01*
X38730483Y-62240555D01*
X38622518Y-62251188D01*
X38502820Y-62287498D01*
X38392506Y-62346463D01*
X38295815Y-62425815D01*
X38216463Y-62522506D01*
X38157498Y-62632820D01*
X38121188Y-62752518D01*
X38108928Y-62877000D01*
X38112000Y-63341250D01*
X38270750Y-63500000D01*
X39370000Y-63500000D01*
X39370000Y-63480000D01*
X39624000Y-63480000D01*
X39624000Y-63500000D01*
X40723250Y-63500000D01*
X40882000Y-63341250D01*
X40883049Y-63182702D01*
X46176903Y-63182702D01*
X46248486Y-63426671D01*
X46503996Y-63547571D01*
X46778184Y-63616300D01*
X47060512Y-63630217D01*
X47340130Y-63588787D01*
X47606292Y-63493603D01*
X47731514Y-63426671D01*
X47803097Y-63182702D01*
X46990000Y-62369605D01*
X46176903Y-63182702D01*
X40883049Y-63182702D01*
X40885072Y-62877000D01*
X40872812Y-62752518D01*
X40836502Y-62632820D01*
X40777537Y-62522506D01*
X40698185Y-62425815D01*
X40601494Y-62346463D01*
X40491180Y-62287498D01*
X40371482Y-62251188D01*
X40263517Y-62240555D01*
X40379886Y-62162799D01*
X40570685Y-61972000D01*
X45549531Y-61972000D01*
X45564871Y-61973511D01*
X45563700Y-61978184D01*
X45549783Y-62260512D01*
X45591213Y-62540130D01*
X45686397Y-62806292D01*
X45753329Y-62931514D01*
X45997298Y-63003097D01*
X46810395Y-62190000D01*
X47169605Y-62190000D01*
X47982702Y-63003097D01*
X48226671Y-62931514D01*
X48347571Y-62676004D01*
X48416300Y-62401816D01*
X48430217Y-62119488D01*
X48388787Y-61839870D01*
X48293603Y-61573708D01*
X48226671Y-61448486D01*
X47982702Y-61376903D01*
X47169605Y-62190000D01*
X46810395Y-62190000D01*
X46796253Y-62175858D01*
X46975858Y-61996253D01*
X46990000Y-62010395D01*
X47803097Y-61197298D01*
X47782785Y-61128072D01*
X47790000Y-61128072D01*
X47914482Y-61115812D01*
X48034180Y-61079502D01*
X48144494Y-61020537D01*
X48241185Y-60941185D01*
X48320537Y-60844494D01*
X48379502Y-60734180D01*
X48415812Y-60614482D01*
X48428072Y-60490000D01*
X48428072Y-58890000D01*
X48415812Y-58765518D01*
X48379502Y-58645820D01*
X48320537Y-58535506D01*
X48241185Y-58438815D01*
X48144494Y-58359463D01*
X48034180Y-58300498D01*
X47914482Y-58264188D01*
X47790000Y-58251928D01*
X46190000Y-58251928D01*
X46065518Y-58264188D01*
X45945820Y-58300498D01*
X45835506Y-58359463D01*
X45738815Y-58438815D01*
X45659463Y-58535506D01*
X45600498Y-58645820D01*
X45564188Y-58765518D01*
X45551928Y-58890000D01*
X45551928Y-59876494D01*
X45226422Y-60202000D01*
X40570685Y-60202000D01*
X40379886Y-60011201D01*
X40153043Y-59859629D01*
X40050127Y-59817000D01*
X40153043Y-59774371D01*
X40379886Y-59622799D01*
X40572799Y-59429886D01*
X40724371Y-59203043D01*
X40828775Y-58950989D01*
X40882000Y-58683411D01*
X40882000Y-58410589D01*
X40828775Y-58143011D01*
X40724371Y-57890957D01*
X40572799Y-57664114D01*
X40382000Y-57473315D01*
X40382000Y-57309578D01*
X41314015Y-56377564D01*
X41345581Y-56390639D01*
X41719419Y-56465000D01*
X42100581Y-56465000D01*
X42474419Y-56390639D01*
X42826566Y-56244775D01*
X43143491Y-56033013D01*
X43413013Y-55763491D01*
X43624775Y-55446566D01*
X43770639Y-55094419D01*
X43792006Y-54987000D01*
X49288928Y-54987000D01*
X49288928Y-55102000D01*
X49301188Y-55226482D01*
X49337498Y-55346180D01*
X49396463Y-55456494D01*
X49475815Y-55553185D01*
X49572506Y-55632537D01*
X49618630Y-55657191D01*
X49478082Y-55867537D01*
X49354832Y-56165088D01*
X49292000Y-56480967D01*
X49292000Y-56803033D01*
X49354832Y-57118912D01*
X49478082Y-57416463D01*
X49657013Y-57684252D01*
X49884748Y-57911987D01*
X50152537Y-58090918D01*
X50450088Y-58214168D01*
X50765967Y-58277000D01*
X51088033Y-58277000D01*
X51403912Y-58214168D01*
X51701463Y-58090918D01*
X51969252Y-57911987D01*
X52196987Y-57684252D01*
X52375918Y-57416463D01*
X52499168Y-57118912D01*
X52562000Y-56803033D01*
X52562000Y-56480967D01*
X52499168Y-56165088D01*
X52375918Y-55867537D01*
X52235370Y-55657191D01*
X52281494Y-55632537D01*
X52378185Y-55553185D01*
X52457537Y-55456494D01*
X52516502Y-55346180D01*
X52552812Y-55226482D01*
X52565072Y-55102000D01*
X52565072Y-53102000D01*
X52552812Y-52977518D01*
X52516502Y-52857820D01*
X52457537Y-52747506D01*
X52378185Y-52650815D01*
X52281494Y-52571463D01*
X52171180Y-52512498D01*
X52051482Y-52476188D01*
X51927000Y-52463928D01*
X49927000Y-52463928D01*
X49802518Y-52476188D01*
X49682820Y-52512498D01*
X49572506Y-52571463D01*
X49475815Y-52650815D01*
X49396463Y-52747506D01*
X49337498Y-52857820D01*
X49301188Y-52977518D01*
X49288928Y-53102000D01*
X49288928Y-53217000D01*
X43333504Y-53217000D01*
X43143491Y-53026987D01*
X42826566Y-52815225D01*
X42474419Y-52669361D01*
X42100581Y-52595000D01*
X41719419Y-52595000D01*
X41345581Y-52669361D01*
X40993434Y-52815225D01*
X40676509Y-53026987D01*
X40406987Y-53296509D01*
X40195225Y-53613434D01*
X40049361Y-53965581D01*
X39975000Y-54339419D01*
X39975000Y-54720581D01*
X40049361Y-55094419D01*
X40062436Y-55125985D01*
X38901956Y-56286466D01*
X38868183Y-56314183D01*
X38757589Y-56448942D01*
X38675411Y-56602688D01*
X38624805Y-56769511D01*
X38612000Y-56899524D01*
X38612000Y-56899531D01*
X38607719Y-56943000D01*
X38612000Y-56986469D01*
X38612000Y-57473315D01*
X38421201Y-57664114D01*
X38269629Y-57890957D01*
X38165225Y-58143011D01*
X38112000Y-58410589D01*
X38112000Y-58683411D01*
X38165225Y-58950989D01*
X38269629Y-59203043D01*
X38421201Y-59429886D01*
X38614114Y-59622799D01*
X38840957Y-59774371D01*
X38943873Y-59817000D01*
X38840957Y-59859629D01*
X38614114Y-60011201D01*
X38470315Y-60155000D01*
X35424521Y-60155000D01*
X35404637Y-60125241D01*
X35204759Y-59925363D01*
X34969727Y-59768320D01*
X34708574Y-59660147D01*
X34431335Y-59605000D01*
X34148665Y-59605000D01*
X33871426Y-59660147D01*
X33610273Y-59768320D01*
X33375241Y-59925363D01*
X33175363Y-60125241D01*
X33018320Y-60360273D01*
X32910147Y-60621426D01*
X32855000Y-60898665D01*
X31710000Y-60898665D01*
X31710000Y-53696891D01*
X32848519Y-53696891D01*
X32945843Y-53971252D01*
X33094822Y-54221355D01*
X33289731Y-54437588D01*
X33523080Y-54611641D01*
X33785901Y-54736825D01*
X33933110Y-54781476D01*
X34163000Y-54660155D01*
X34163000Y-53467000D01*
X34417000Y-53467000D01*
X34417000Y-54660155D01*
X34646890Y-54781476D01*
X34794099Y-54736825D01*
X35056920Y-54611641D01*
X35290269Y-54437588D01*
X35485178Y-54221355D01*
X35634157Y-53971252D01*
X35731481Y-53696891D01*
X35610814Y-53467000D01*
X34417000Y-53467000D01*
X34163000Y-53467000D01*
X32969186Y-53467000D01*
X32848519Y-53696891D01*
X31710000Y-53696891D01*
X31710000Y-49950000D01*
X32801928Y-49950000D01*
X32801928Y-51650000D01*
X32814188Y-51774482D01*
X32850498Y-51894180D01*
X32909463Y-52004494D01*
X32988815Y-52101185D01*
X33085506Y-52180537D01*
X33195820Y-52239502D01*
X33271626Y-52262498D01*
X33094822Y-52458645D01*
X32945843Y-52708748D01*
X32848519Y-52983109D01*
X32969186Y-53213000D01*
X34163000Y-53213000D01*
X34163000Y-53193000D01*
X34417000Y-53193000D01*
X34417000Y-53213000D01*
X35610814Y-53213000D01*
X35731481Y-52983109D01*
X35634157Y-52708748D01*
X35485178Y-52458645D01*
X35308374Y-52262498D01*
X35384180Y-52239502D01*
X35494494Y-52180537D01*
X35591185Y-52101185D01*
X35670537Y-52004494D01*
X35707683Y-51935000D01*
X40584249Y-51935000D01*
X40640000Y-51940491D01*
X40695751Y-51935000D01*
X40695752Y-51935000D01*
X40862499Y-51918577D01*
X41076447Y-51853676D01*
X41273623Y-51748284D01*
X41446449Y-51606449D01*
X41481996Y-51563135D01*
X41603240Y-51441891D01*
X41719419Y-51465000D01*
X42100581Y-51465000D01*
X42474419Y-51390639D01*
X42505985Y-51377564D01*
X42523470Y-51395049D01*
X42551183Y-51428817D01*
X42584951Y-51456530D01*
X42584953Y-51456532D01*
X42644677Y-51505546D01*
X42685941Y-51539411D01*
X42839687Y-51621589D01*
X43006510Y-51672195D01*
X43136523Y-51685000D01*
X43136533Y-51685000D01*
X43179999Y-51689281D01*
X43223465Y-51685000D01*
X55385025Y-51685000D01*
X55536987Y-51836962D01*
X55755641Y-51983061D01*
X55998595Y-52083696D01*
X56256514Y-52135000D01*
X56519486Y-52135000D01*
X56777405Y-52083696D01*
X57020359Y-51983061D01*
X57239013Y-51836962D01*
X57424962Y-51651013D01*
X57571061Y-51432359D01*
X57658000Y-51222470D01*
X57744939Y-51432359D01*
X57891038Y-51651013D01*
X58076987Y-51836962D01*
X58295641Y-51983061D01*
X58538595Y-52083696D01*
X58796514Y-52135000D01*
X59059486Y-52135000D01*
X59317405Y-52083696D01*
X59560359Y-51983061D01*
X59779013Y-51836962D01*
X59964962Y-51651013D01*
X60025775Y-51560000D01*
X61915199Y-51560000D01*
X62160199Y-51805000D01*
X62078816Y-51805000D01*
X61782257Y-51863989D01*
X61502905Y-51979701D01*
X61251495Y-52147688D01*
X61037688Y-52361495D01*
X60869701Y-52612905D01*
X60753989Y-52892257D01*
X60695000Y-53188816D01*
X60695000Y-53491184D01*
X60753989Y-53787743D01*
X60869701Y-54067095D01*
X61037688Y-54318505D01*
X61251495Y-54532312D01*
X61502905Y-54700299D01*
X61782257Y-54816011D01*
X62078816Y-54875000D01*
X62381184Y-54875000D01*
X62677743Y-54816011D01*
X62957095Y-54700299D01*
X63208505Y-54532312D01*
X63422312Y-54318505D01*
X63500000Y-54202237D01*
X63577688Y-54318505D01*
X63791495Y-54532312D01*
X64042905Y-54700299D01*
X64322257Y-54816011D01*
X64618816Y-54875000D01*
X64921184Y-54875000D01*
X65217743Y-54816011D01*
X65497095Y-54700299D01*
X65748505Y-54532312D01*
X65962312Y-54318505D01*
X66040000Y-54202237D01*
X66117688Y-54318505D01*
X66331495Y-54532312D01*
X66582905Y-54700299D01*
X66862257Y-54816011D01*
X67158816Y-54875000D01*
X67461184Y-54875000D01*
X67757743Y-54816011D01*
X68037095Y-54700299D01*
X68288505Y-54532312D01*
X68502312Y-54318505D01*
X68580000Y-54202237D01*
X68657688Y-54318505D01*
X68871495Y-54532312D01*
X69122905Y-54700299D01*
X69402257Y-54816011D01*
X69698816Y-54875000D01*
X70001184Y-54875000D01*
X70297743Y-54816011D01*
X70577095Y-54700299D01*
X70828505Y-54532312D01*
X71042312Y-54318505D01*
X71120000Y-54202237D01*
X71197688Y-54318505D01*
X71411495Y-54532312D01*
X71662905Y-54700299D01*
X71942257Y-54816011D01*
X72238816Y-54875000D01*
X72541184Y-54875000D01*
X72837743Y-54816011D01*
X73117095Y-54700299D01*
X73368505Y-54532312D01*
X73582312Y-54318505D01*
X73660000Y-54202237D01*
X73737688Y-54318505D01*
X73951495Y-54532312D01*
X74202905Y-54700299D01*
X74482257Y-54816011D01*
X74778816Y-54875000D01*
X75081184Y-54875000D01*
X75377743Y-54816011D01*
X75657095Y-54700299D01*
X75908505Y-54532312D01*
X75974944Y-54465873D01*
X75980498Y-54484180D01*
X76039463Y-54594494D01*
X76118815Y-54691185D01*
X76215506Y-54770537D01*
X76325820Y-54829502D01*
X76445518Y-54865812D01*
X76570000Y-54878072D01*
X78370000Y-54878072D01*
X78494482Y-54865812D01*
X78614180Y-54829502D01*
X78724494Y-54770537D01*
X78821185Y-54691185D01*
X78900537Y-54594494D01*
X78959502Y-54484180D01*
X78995812Y-54364482D01*
X79008072Y-54240000D01*
X79008072Y-54225000D01*
X79944422Y-54225000D01*
X80359983Y-54640561D01*
X80353000Y-54675665D01*
X80353000Y-54958335D01*
X80408147Y-55235574D01*
X80516320Y-55496727D01*
X80673363Y-55731759D01*
X80873241Y-55931637D01*
X81107223Y-56087978D01*
X78347202Y-58847999D01*
X76192334Y-58847999D01*
X76155001Y-58844322D01*
X76117668Y-58847999D01*
X76006015Y-58858996D01*
X75862754Y-58902453D01*
X75730725Y-58973025D01*
X75615000Y-59067998D01*
X75520027Y-59183723D01*
X75449455Y-59315752D01*
X75427688Y-59387510D01*
X75338930Y-59476269D01*
X75081184Y-59425000D01*
X74778816Y-59425000D01*
X74482257Y-59483989D01*
X74202905Y-59599701D01*
X73951495Y-59767688D01*
X73737688Y-59981495D01*
X73660000Y-60097763D01*
X73582312Y-59981495D01*
X73368505Y-59767688D01*
X73117095Y-59599701D01*
X72837743Y-59483989D01*
X72541184Y-59425000D01*
X72238816Y-59425000D01*
X71942257Y-59483989D01*
X71662905Y-59599701D01*
X71411495Y-59767688D01*
X71197688Y-59981495D01*
X71120000Y-60097763D01*
X71042312Y-59981495D01*
X70828505Y-59767688D01*
X70577095Y-59599701D01*
X70297743Y-59483989D01*
X70001184Y-59425000D01*
X69698816Y-59425000D01*
X69402257Y-59483989D01*
X69122905Y-59599701D01*
X68871495Y-59767688D01*
X68657688Y-59981495D01*
X68580000Y-60097763D01*
X68502312Y-59981495D01*
X68288505Y-59767688D01*
X68037095Y-59599701D01*
X67757743Y-59483989D01*
X67461184Y-59425000D01*
X67158816Y-59425000D01*
X66862257Y-59483989D01*
X66582905Y-59599701D01*
X66331495Y-59767688D01*
X66117688Y-59981495D01*
X66040000Y-60097763D01*
X65962312Y-59981495D01*
X65748505Y-59767688D01*
X65497095Y-59599701D01*
X65217743Y-59483989D01*
X64921184Y-59425000D01*
X64618816Y-59425000D01*
X64322257Y-59483989D01*
X64042905Y-59599701D01*
X63791495Y-59767688D01*
X63577688Y-59981495D01*
X63500000Y-60097763D01*
X63422312Y-59981495D01*
X63208505Y-59767688D01*
X62957095Y-59599701D01*
X62677743Y-59483989D01*
X62381184Y-59425000D01*
X62078816Y-59425000D01*
X61782257Y-59483989D01*
X61502905Y-59599701D01*
X61251495Y-59767688D01*
X61037688Y-59981495D01*
X60869701Y-60232905D01*
X60753989Y-60512257D01*
X60695000Y-60808816D01*
X60695000Y-61111184D01*
X60753989Y-61407743D01*
X60869701Y-61687095D01*
X61037688Y-61938505D01*
X61251495Y-62152312D01*
X61502905Y-62320299D01*
X61782257Y-62436011D01*
X62078816Y-62495000D01*
X62381184Y-62495000D01*
X62677743Y-62436011D01*
X62957095Y-62320299D01*
X63208505Y-62152312D01*
X63422312Y-61938505D01*
X63500000Y-61822237D01*
X63577688Y-61938505D01*
X63791495Y-62152312D01*
X64042905Y-62320299D01*
X64322257Y-62436011D01*
X64618816Y-62495000D01*
X64921184Y-62495000D01*
X65178930Y-62443731D01*
X65476200Y-62741002D01*
X65499999Y-62770001D01*
X65615724Y-62864974D01*
X65747753Y-62935546D01*
X65891014Y-62979003D01*
X66002667Y-62990000D01*
X66002676Y-62990000D01*
X66039999Y-62993676D01*
X66077322Y-62990000D01*
X70043199Y-62990000D01*
X77980000Y-70926802D01*
X77980001Y-77432461D01*
X77911414Y-77535109D01*
X77840932Y-77705269D01*
X77805000Y-77885909D01*
X77805000Y-78070087D01*
X77840932Y-78250727D01*
X77911414Y-78420887D01*
X78013738Y-78574026D01*
X78143972Y-78704260D01*
X78297111Y-78806584D01*
X78467271Y-78877066D01*
X78647911Y-78912998D01*
X78832089Y-78912998D01*
X79012729Y-78877066D01*
X79182889Y-78806584D01*
X79336028Y-78704260D01*
X79466262Y-78574026D01*
X79568586Y-78420887D01*
X79639068Y-78250727D01*
X79675000Y-78070087D01*
X79675000Y-77885909D01*
X79639068Y-77705269D01*
X79568586Y-77535109D01*
X79500000Y-77432463D01*
X79500000Y-71684802D01*
X85028501Y-77213303D01*
X85028500Y-78555091D01*
X85014037Y-78561082D01*
X84746248Y-78740013D01*
X84518513Y-78967748D01*
X84339582Y-79235537D01*
X84216332Y-79533088D01*
X84153500Y-79848967D01*
X84153500Y-80171033D01*
X84216332Y-80486912D01*
X84339582Y-80784463D01*
X84518513Y-81052252D01*
X84746248Y-81279987D01*
X85014037Y-81458918D01*
X85311588Y-81582168D01*
X85627467Y-81645000D01*
X85949533Y-81645000D01*
X86265412Y-81582168D01*
X86562963Y-81458918D01*
X86830752Y-81279987D01*
X87058487Y-81052252D01*
X87237418Y-80784463D01*
X87243409Y-80770000D01*
X90833591Y-80770000D01*
X90839582Y-80784463D01*
X91018513Y-81052252D01*
X91246248Y-81279987D01*
X91514037Y-81458918D01*
X91811588Y-81582168D01*
X92127467Y-81645000D01*
X92449533Y-81645000D01*
X92765412Y-81582168D01*
X93062963Y-81458918D01*
X93330752Y-81279987D01*
X93558487Y-81052252D01*
X93737418Y-80784463D01*
X93860668Y-80486912D01*
X93923500Y-80171033D01*
X93923500Y-79848967D01*
X93860668Y-79533088D01*
X93737418Y-79235537D01*
X93558487Y-78967748D01*
X93330752Y-78740013D01*
X93062963Y-78561082D01*
X92765412Y-78437832D01*
X92449533Y-78375000D01*
X92127467Y-78375000D01*
X91811588Y-78437832D01*
X91514037Y-78561082D01*
X91246248Y-78740013D01*
X91018513Y-78967748D01*
X90839582Y-79235537D01*
X90833591Y-79250000D01*
X87243409Y-79250000D01*
X87237418Y-79235537D01*
X87058487Y-78967748D01*
X86830752Y-78740013D01*
X86562963Y-78561082D01*
X86548500Y-78555091D01*
X86548500Y-76935823D01*
X86552176Y-76898500D01*
X86548500Y-76861177D01*
X86548500Y-76861167D01*
X86537503Y-76749514D01*
X86494046Y-76606253D01*
X86423474Y-76474224D01*
X86328501Y-76358499D01*
X86299503Y-76334701D01*
X85955139Y-75990337D01*
X85978095Y-75991718D01*
X86297175Y-75947961D01*
X86601588Y-75842795D01*
X86775544Y-75749814D01*
X86871308Y-75485413D01*
X91459692Y-75485413D01*
X91555456Y-75749814D01*
X91845071Y-75890704D01*
X92156608Y-75972384D01*
X92478095Y-75991718D01*
X92797175Y-75947961D01*
X93101588Y-75842795D01*
X93275544Y-75749814D01*
X93371308Y-75485413D01*
X92415500Y-74529605D01*
X91459692Y-75485413D01*
X86871308Y-75485413D01*
X85915500Y-74529605D01*
X85901358Y-74543748D01*
X85721753Y-74364143D01*
X85735895Y-74350000D01*
X86095105Y-74350000D01*
X87050913Y-75305808D01*
X87315314Y-75210044D01*
X87456204Y-74920429D01*
X87537884Y-74608892D01*
X87549689Y-74412595D01*
X90773782Y-74412595D01*
X90817539Y-74731675D01*
X90922705Y-75036088D01*
X91015686Y-75210044D01*
X91280087Y-75305808D01*
X92235895Y-74350000D01*
X92595105Y-74350000D01*
X93550913Y-75305808D01*
X93815314Y-75210044D01*
X93956204Y-74920429D01*
X94037884Y-74608892D01*
X94057218Y-74287405D01*
X94013461Y-73968325D01*
X93908295Y-73663912D01*
X93815314Y-73489956D01*
X93550913Y-73394192D01*
X92595105Y-74350000D01*
X92235895Y-74350000D01*
X91280087Y-73394192D01*
X91015686Y-73489956D01*
X90874796Y-73779571D01*
X90793116Y-74091108D01*
X90773782Y-74412595D01*
X87549689Y-74412595D01*
X87557218Y-74287405D01*
X87513461Y-73968325D01*
X87408295Y-73663912D01*
X87315314Y-73489956D01*
X87050913Y-73394192D01*
X86095105Y-74350000D01*
X85735895Y-74350000D01*
X84780087Y-73394192D01*
X84515686Y-73489956D01*
X84374796Y-73779571D01*
X84293116Y-74091108D01*
X84279660Y-74314858D01*
X83179389Y-73214587D01*
X84959692Y-73214587D01*
X85915500Y-74170395D01*
X86871308Y-73214587D01*
X91459692Y-73214587D01*
X92415500Y-74170395D01*
X93371308Y-73214587D01*
X93275544Y-72950186D01*
X92985929Y-72809296D01*
X92674392Y-72727616D01*
X92352905Y-72708282D01*
X92033825Y-72752039D01*
X91729412Y-72857205D01*
X91555456Y-72950186D01*
X91459692Y-73214587D01*
X86871308Y-73214587D01*
X86775544Y-72950186D01*
X86485929Y-72809296D01*
X86174392Y-72727616D01*
X85852905Y-72708282D01*
X85533825Y-72752039D01*
X85229412Y-72857205D01*
X85055456Y-72950186D01*
X84959692Y-73214587D01*
X83179389Y-73214587D01*
X80574802Y-70610000D01*
X84460591Y-70610000D01*
X84466582Y-70624463D01*
X84645513Y-70892252D01*
X84873248Y-71119987D01*
X85141037Y-71298918D01*
X85438588Y-71422168D01*
X85754467Y-71485000D01*
X86076533Y-71485000D01*
X86392412Y-71422168D01*
X86689963Y-71298918D01*
X86957752Y-71119987D01*
X87185487Y-70892252D01*
X87364418Y-70624463D01*
X87370409Y-70610000D01*
X90960591Y-70610000D01*
X90966582Y-70624463D01*
X91145513Y-70892252D01*
X91373248Y-71119987D01*
X91641037Y-71298918D01*
X91938588Y-71422168D01*
X92254467Y-71485000D01*
X92576533Y-71485000D01*
X92892412Y-71422168D01*
X93189963Y-71298918D01*
X93457752Y-71119987D01*
X93685487Y-70892252D01*
X93864418Y-70624463D01*
X93987668Y-70326912D01*
X94050500Y-70011033D01*
X94050500Y-69688967D01*
X93987668Y-69373088D01*
X93864418Y-69075537D01*
X93685487Y-68807748D01*
X93457752Y-68580013D01*
X93189963Y-68401082D01*
X92892412Y-68277832D01*
X92576533Y-68215000D01*
X92254467Y-68215000D01*
X91938588Y-68277832D01*
X91641037Y-68401082D01*
X91373248Y-68580013D01*
X91145513Y-68807748D01*
X90966582Y-69075537D01*
X90960591Y-69090000D01*
X87750301Y-69090000D01*
X89157004Y-67683298D01*
X89186001Y-67659501D01*
X89212332Y-67627417D01*
X89280974Y-67543777D01*
X89351546Y-67411747D01*
X89372217Y-67343603D01*
X89395003Y-67268486D01*
X89406000Y-67156833D01*
X89406000Y-67156824D01*
X89409676Y-67119501D01*
X89406000Y-67082178D01*
X89406000Y-65325413D01*
X91459692Y-65325413D01*
X91555456Y-65589814D01*
X91845071Y-65730704D01*
X92156608Y-65812384D01*
X92478095Y-65831718D01*
X92797175Y-65787961D01*
X93101588Y-65682795D01*
X93275544Y-65589814D01*
X93371308Y-65325413D01*
X92415500Y-64369605D01*
X91459692Y-65325413D01*
X89406000Y-65325413D01*
X89406000Y-64252595D01*
X90773782Y-64252595D01*
X90817539Y-64571675D01*
X90922705Y-64876088D01*
X91015686Y-65050044D01*
X91280087Y-65145808D01*
X92235895Y-64190000D01*
X92595105Y-64190000D01*
X93550913Y-65145808D01*
X93815314Y-65050044D01*
X93956204Y-64760429D01*
X94037884Y-64448892D01*
X94057218Y-64127405D01*
X94013461Y-63808325D01*
X93908295Y-63503912D01*
X93815314Y-63329956D01*
X93550913Y-63234192D01*
X92595105Y-64190000D01*
X92235895Y-64190000D01*
X91280087Y-63234192D01*
X91015686Y-63329956D01*
X90874796Y-63619571D01*
X90793116Y-63931108D01*
X90773782Y-64252595D01*
X89406000Y-64252595D01*
X89406000Y-63054587D01*
X91459692Y-63054587D01*
X92415500Y-64010395D01*
X93371308Y-63054587D01*
X93275544Y-62790186D01*
X92985929Y-62649296D01*
X92674392Y-62567616D01*
X92352905Y-62548282D01*
X92033825Y-62592039D01*
X91729412Y-62697205D01*
X91555456Y-62790186D01*
X91459692Y-63054587D01*
X89406000Y-63054587D01*
X89406000Y-59528967D01*
X90780500Y-59528967D01*
X90780500Y-59851033D01*
X90843332Y-60166912D01*
X90966582Y-60464463D01*
X91145513Y-60732252D01*
X91373248Y-60959987D01*
X91641037Y-61138918D01*
X91938588Y-61262168D01*
X92254467Y-61325000D01*
X92576533Y-61325000D01*
X92892412Y-61262168D01*
X93189963Y-61138918D01*
X93457752Y-60959987D01*
X93685487Y-60732252D01*
X93864418Y-60464463D01*
X93987668Y-60166912D01*
X94050500Y-59851033D01*
X94050500Y-59528967D01*
X93987668Y-59213088D01*
X93864418Y-58915537D01*
X93685487Y-58647748D01*
X93457752Y-58420013D01*
X93189963Y-58241082D01*
X92892412Y-58117832D01*
X92576533Y-58055000D01*
X92254467Y-58055000D01*
X91938588Y-58117832D01*
X91641037Y-58241082D01*
X91373248Y-58420013D01*
X91145513Y-58647748D01*
X90966582Y-58915537D01*
X90843332Y-59213088D01*
X90780500Y-59528967D01*
X89406000Y-59528967D01*
X89406000Y-57083801D01*
X93659802Y-52830000D01*
X93971822Y-52830000D01*
X94096525Y-53016632D01*
X94303368Y-53223475D01*
X94546589Y-53385990D01*
X94816842Y-53497932D01*
X95103740Y-53555000D01*
X95396260Y-53555000D01*
X95683158Y-53497932D01*
X95953411Y-53385990D01*
X96196632Y-53223475D01*
X96403475Y-53016632D01*
X96565990Y-52773411D01*
X96677932Y-52503158D01*
X96735000Y-52216260D01*
X96735000Y-51923740D01*
X96677932Y-51636842D01*
X96565990Y-51366589D01*
X96403475Y-51123368D01*
X96196632Y-50916525D01*
X96022240Y-50800000D01*
X96196632Y-50683475D01*
X96403475Y-50476632D01*
X96565990Y-50233411D01*
X96677932Y-49963158D01*
X96735000Y-49676260D01*
X96735000Y-49383740D01*
X96677932Y-49096842D01*
X96565990Y-48826589D01*
X96403475Y-48583368D01*
X96196632Y-48376525D01*
X96014466Y-48254805D01*
X96131355Y-48185178D01*
X96347588Y-47990269D01*
X96521641Y-47756920D01*
X96646825Y-47494099D01*
X96691476Y-47346890D01*
X96570155Y-47117000D01*
X95377000Y-47117000D01*
X95377000Y-47137000D01*
X95123000Y-47137000D01*
X95123000Y-47117000D01*
X93929845Y-47117000D01*
X93808524Y-47346890D01*
X93853175Y-47494099D01*
X93978359Y-47756920D01*
X94152412Y-47990269D01*
X94368645Y-48185178D01*
X94485534Y-48254805D01*
X94303368Y-48376525D01*
X94096525Y-48583368D01*
X93971822Y-48770000D01*
X88777325Y-48770000D01*
X88740002Y-48766324D01*
X88702679Y-48770000D01*
X88702669Y-48770000D01*
X88591016Y-48780997D01*
X88447755Y-48824454D01*
X88315726Y-48895026D01*
X88200001Y-48989999D01*
X88176203Y-49018997D01*
X83058978Y-54136222D01*
X82902637Y-53902241D01*
X82702759Y-53702363D01*
X82673000Y-53682479D01*
X82673000Y-44435578D01*
X83106506Y-44002072D01*
X84893000Y-44002072D01*
X85017482Y-43989812D01*
X85137180Y-43953502D01*
X85247494Y-43894537D01*
X85344185Y-43815185D01*
X85423537Y-43718494D01*
X85482502Y-43608180D01*
X85518812Y-43488482D01*
X85531072Y-43364000D01*
X85531072Y-42160000D01*
X91708422Y-42160000D01*
X93779461Y-44231040D01*
X93765000Y-44303740D01*
X93765000Y-44596260D01*
X93822068Y-44883158D01*
X93934010Y-45153411D01*
X94096525Y-45396632D01*
X94303368Y-45603475D01*
X94485534Y-45725195D01*
X94368645Y-45794822D01*
X94152412Y-45989731D01*
X93978359Y-46223080D01*
X93853175Y-46485901D01*
X93808524Y-46633110D01*
X93929845Y-46863000D01*
X95123000Y-46863000D01*
X95123000Y-46843000D01*
X95377000Y-46843000D01*
X95377000Y-46863000D01*
X96570155Y-46863000D01*
X96691476Y-46633110D01*
X96646825Y-46485901D01*
X96521641Y-46223080D01*
X96347588Y-45989731D01*
X96131355Y-45794822D01*
X96014466Y-45725195D01*
X96196632Y-45603475D01*
X96403475Y-45396632D01*
X96565990Y-45153411D01*
X96677932Y-44883158D01*
X96735000Y-44596260D01*
X96735000Y-44303740D01*
X96677932Y-44016842D01*
X96565990Y-43746589D01*
X96403475Y-43503368D01*
X96271620Y-43371513D01*
X96344180Y-43349502D01*
X96454494Y-43290537D01*
X96551185Y-43211185D01*
X96630537Y-43114494D01*
X96689502Y-43004180D01*
X96725812Y-42884482D01*
X96738072Y-42760000D01*
X96738072Y-41060000D01*
X96725812Y-40935518D01*
X96689502Y-40815820D01*
X96630537Y-40705506D01*
X96551185Y-40608815D01*
X96454494Y-40529463D01*
X96344180Y-40470498D01*
X96224482Y-40434188D01*
X96100000Y-40421928D01*
X94836729Y-40421928D01*
X94542803Y-40128002D01*
X94519000Y-40098998D01*
X94403275Y-40004025D01*
X94271246Y-39933453D01*
X94127985Y-39889996D01*
X94016332Y-39878999D01*
X94016321Y-39878999D01*
X93978999Y-39875323D01*
X93941677Y-39878999D01*
X82228801Y-39878999D01*
X80791782Y-38441980D01*
X82594626Y-38441980D01*
X82714514Y-38726836D01*
X83038210Y-38887699D01*
X83387069Y-38982322D01*
X83747684Y-39007067D01*
X84106198Y-38960985D01*
X84448833Y-38845846D01*
X84671486Y-38726836D01*
X84791374Y-38441980D01*
X83693000Y-37343605D01*
X82594626Y-38441980D01*
X80791782Y-38441980D01*
X79568486Y-37218684D01*
X81849933Y-37218684D01*
X81896015Y-37577198D01*
X82011154Y-37919833D01*
X82130164Y-38142486D01*
X82415020Y-38262374D01*
X83513395Y-37164000D01*
X83872605Y-37164000D01*
X84970980Y-38262374D01*
X85255836Y-38142486D01*
X85416699Y-37818790D01*
X85511322Y-37469931D01*
X85536067Y-37109316D01*
X85489985Y-36750802D01*
X85374846Y-36408167D01*
X85255836Y-36185514D01*
X84970980Y-36065626D01*
X83872605Y-37164000D01*
X83513395Y-37164000D01*
X82415020Y-36065626D01*
X82130164Y-36185514D01*
X81969301Y-36509210D01*
X81874678Y-36858069D01*
X81849933Y-37218684D01*
X79568486Y-37218684D01*
X78913803Y-36564002D01*
X78890000Y-36534998D01*
X78774275Y-36440025D01*
X78642246Y-36369453D01*
X78498985Y-36325996D01*
X78387332Y-36314999D01*
X78387321Y-36314999D01*
X78349999Y-36311323D01*
X78312677Y-36314999D01*
X70912323Y-36314999D01*
X70875000Y-36311323D01*
X70837677Y-36314999D01*
X70837668Y-36314999D01*
X70726015Y-36325996D01*
X70582754Y-36369453D01*
X70450725Y-36440025D01*
X70335000Y-36534998D01*
X70311202Y-36563996D01*
X70088843Y-36786355D01*
X69981486Y-36765000D01*
X69718514Y-36765000D01*
X69460595Y-36816304D01*
X69217641Y-36916939D01*
X68998987Y-37063038D01*
X68813038Y-37248987D01*
X68666939Y-37467641D01*
X68566304Y-37710595D01*
X68515000Y-37968514D01*
X68515000Y-38231486D01*
X68566304Y-38489405D01*
X68666939Y-38732359D01*
X68813038Y-38951013D01*
X68998987Y-39136962D01*
X69090000Y-39197775D01*
X69090001Y-43739956D01*
X68935241Y-43843363D01*
X68735363Y-44043241D01*
X68578320Y-44278273D01*
X68470147Y-44539426D01*
X68415000Y-44816665D01*
X68415000Y-45099335D01*
X68470147Y-45376574D01*
X68578320Y-45637727D01*
X68735363Y-45872759D01*
X68935241Y-46072637D01*
X69090001Y-46176044D01*
X69090000Y-46781225D01*
X68998987Y-46842038D01*
X68813038Y-47027987D01*
X68666939Y-47246641D01*
X68566304Y-47489595D01*
X68515000Y-47747514D01*
X68515000Y-48010486D01*
X68566304Y-48268405D01*
X68666939Y-48511359D01*
X68813038Y-48730013D01*
X68998987Y-48915962D01*
X69217641Y-49062061D01*
X69427530Y-49149000D01*
X69217641Y-49235939D01*
X68998987Y-49382038D01*
X68813038Y-49567987D01*
X68666939Y-49786641D01*
X68566304Y-50029595D01*
X68515000Y-50287514D01*
X68515000Y-50550486D01*
X68566304Y-50808405D01*
X68666939Y-51051359D01*
X68813038Y-51270013D01*
X68998987Y-51455962D01*
X69090001Y-51516775D01*
X69090000Y-52001687D01*
X68871495Y-52147688D01*
X68657688Y-52361495D01*
X68580000Y-52477763D01*
X68502312Y-52361495D01*
X68288505Y-52147688D01*
X68070000Y-52001687D01*
X68070000Y-40042333D01*
X68073677Y-40005000D01*
X68059003Y-39856014D01*
X68015546Y-39712753D01*
X67944974Y-39580724D01*
X67873799Y-39493997D01*
X67850001Y-39464999D01*
X67821003Y-39441201D01*
X65956645Y-37576844D01*
X65978000Y-37469486D01*
X65978000Y-37206514D01*
X65926696Y-36948595D01*
X65826061Y-36705641D01*
X65679962Y-36486987D01*
X65494013Y-36301038D01*
X65275359Y-36154939D01*
X65032405Y-36054304D01*
X64774486Y-36003000D01*
X64511514Y-36003000D01*
X64253595Y-36054304D01*
X64010641Y-36154939D01*
X63791987Y-36301038D01*
X63606038Y-36486987D01*
X63459939Y-36705641D01*
X63373000Y-36915530D01*
X63286061Y-36705641D01*
X63139962Y-36486987D01*
X62954013Y-36301038D01*
X62735359Y-36154939D01*
X62492405Y-36054304D01*
X62234486Y-36003000D01*
X61971514Y-36003000D01*
X61713595Y-36054304D01*
X61470641Y-36154939D01*
X61251987Y-36301038D01*
X61066038Y-36486987D01*
X61005225Y-36578000D01*
X60312072Y-36578000D01*
X60312072Y-36338000D01*
X60299812Y-36213518D01*
X60263502Y-36093820D01*
X60204537Y-35983506D01*
X60125185Y-35886815D01*
X60124217Y-35886020D01*
X82594626Y-35886020D01*
X83693000Y-36984395D01*
X84791374Y-35886020D01*
X84671486Y-35601164D01*
X84347790Y-35440301D01*
X83998931Y-35345678D01*
X83914319Y-35339872D01*
X93396000Y-35339872D01*
X93396000Y-35780128D01*
X93481890Y-36211925D01*
X93650369Y-36618669D01*
X93894962Y-36984729D01*
X94206271Y-37296038D01*
X94572331Y-37540631D01*
X94979075Y-37709110D01*
X95410872Y-37795000D01*
X95851128Y-37795000D01*
X96282925Y-37709110D01*
X96689669Y-37540631D01*
X97055729Y-37296038D01*
X97367038Y-36984729D01*
X97611631Y-36618669D01*
X97780110Y-36211925D01*
X97866000Y-35780128D01*
X97866000Y-35339872D01*
X97780110Y-34908075D01*
X97611631Y-34501331D01*
X97367038Y-34135271D01*
X97055729Y-33823962D01*
X96689669Y-33579369D01*
X96282925Y-33410890D01*
X95851128Y-33325000D01*
X95410872Y-33325000D01*
X94979075Y-33410890D01*
X94572331Y-33579369D01*
X94206271Y-33823962D01*
X93894962Y-34135271D01*
X93650369Y-34501331D01*
X93481890Y-34908075D01*
X93396000Y-35339872D01*
X83914319Y-35339872D01*
X83638316Y-35320933D01*
X83279802Y-35367015D01*
X82937167Y-35482154D01*
X82714514Y-35601164D01*
X82594626Y-35886020D01*
X60124217Y-35886020D01*
X60091635Y-35859281D01*
X60122918Y-35812463D01*
X60246168Y-35514912D01*
X60309000Y-35199033D01*
X60309000Y-34876967D01*
X60246168Y-34561088D01*
X60122918Y-34263537D01*
X59943987Y-33995748D01*
X59841399Y-33893160D01*
X59925083Y-33809475D01*
X59809415Y-33693807D01*
X60073814Y-33598044D01*
X60214704Y-33308429D01*
X60296384Y-32996892D01*
X60315718Y-32675405D01*
X60271961Y-32356325D01*
X60166795Y-32051912D01*
X60073814Y-31877956D01*
X59809413Y-31782192D01*
X58853605Y-32738000D01*
X58867748Y-32752143D01*
X58688143Y-32931748D01*
X58674000Y-32917605D01*
X58659858Y-32931748D01*
X58480253Y-32752143D01*
X58494395Y-32738000D01*
X57538587Y-31782192D01*
X57274186Y-31877956D01*
X57133296Y-32167571D01*
X57051616Y-32479108D01*
X57032282Y-32800595D01*
X57076039Y-33119675D01*
X57144362Y-33317443D01*
X56337782Y-32510864D01*
X56302236Y-32467551D01*
X56129410Y-32325716D01*
X55932234Y-32220324D01*
X55718286Y-32155423D01*
X55551539Y-32139000D01*
X55551538Y-32139000D01*
X55495787Y-32133509D01*
X55440036Y-32139000D01*
X48463107Y-32139000D01*
X48444632Y-32120525D01*
X48201411Y-31958010D01*
X47931158Y-31846068D01*
X47644260Y-31789000D01*
X47351740Y-31789000D01*
X47064842Y-31846068D01*
X46794589Y-31958010D01*
X46551368Y-32120525D01*
X46536893Y-32135000D01*
X44818072Y-32135000D01*
X44818072Y-32020000D01*
X44805812Y-31895518D01*
X44769502Y-31775820D01*
X44710537Y-31665506D01*
X44658901Y-31602587D01*
X57718192Y-31602587D01*
X58674000Y-32558395D01*
X59629808Y-31602587D01*
X59534044Y-31338186D01*
X59244429Y-31197296D01*
X58932892Y-31115616D01*
X58611405Y-31096282D01*
X58292325Y-31140039D01*
X57987912Y-31245205D01*
X57813956Y-31338186D01*
X57718192Y-31602587D01*
X44658901Y-31602587D01*
X44631185Y-31568815D01*
X44534494Y-31489463D01*
X44424180Y-31430498D01*
X44304482Y-31394188D01*
X44180000Y-31381928D01*
X42180000Y-31381928D01*
X42055518Y-31394188D01*
X41935820Y-31430498D01*
X41825506Y-31489463D01*
X41728815Y-31568815D01*
X41649463Y-31665506D01*
X41590498Y-31775820D01*
X41554188Y-31895518D01*
X41541928Y-32020000D01*
X41541928Y-34020000D01*
X41554188Y-34144482D01*
X41590498Y-34264180D01*
X41649463Y-34374494D01*
X41728815Y-34471185D01*
X41825506Y-34550537D01*
X41871630Y-34575191D01*
X41731082Y-34785537D01*
X41607832Y-35083088D01*
X41545000Y-35398967D01*
X41545000Y-35721033D01*
X41607832Y-36036912D01*
X41731082Y-36334463D01*
X41910013Y-36602252D01*
X42137748Y-36829987D01*
X42405537Y-37008918D01*
X42703088Y-37132168D01*
X43018967Y-37195000D01*
X43341033Y-37195000D01*
X43656912Y-37132168D01*
X43954463Y-37008918D01*
X44222252Y-36829987D01*
X44353239Y-36699000D01*
X46013375Y-36699000D01*
X46022188Y-36788482D01*
X46058498Y-36908180D01*
X46117463Y-37018494D01*
X46196815Y-37115185D01*
X46293506Y-37194537D01*
X46363001Y-37231683D01*
X46363000Y-39299043D01*
X46343506Y-39309463D01*
X46246815Y-39388815D01*
X46233210Y-39405393D01*
X46177727Y-39368320D01*
X45916574Y-39260147D01*
X45639335Y-39205000D01*
X45356665Y-39205000D01*
X45079426Y-39260147D01*
X44818273Y-39368320D01*
X44583241Y-39525363D01*
X44383363Y-39725241D01*
X44226320Y-39960273D01*
X44118147Y-40221426D01*
X44063000Y-40498665D01*
X44063000Y-40781335D01*
X44118147Y-41058574D01*
X44226320Y-41319727D01*
X44383363Y-41554759D01*
X44583241Y-41754637D01*
X44818273Y-41911680D01*
X45079426Y-42019853D01*
X45356665Y-42075000D01*
X45639335Y-42075000D01*
X45916574Y-42019853D01*
X46177727Y-41911680D01*
X46233210Y-41874607D01*
X46246815Y-41891185D01*
X46343506Y-41970537D01*
X46363000Y-41980957D01*
X46363000Y-43471868D01*
X42216759Y-47618109D01*
X42100581Y-47595000D01*
X41719419Y-47595000D01*
X41345581Y-47669361D01*
X41314015Y-47682436D01*
X38756534Y-45124956D01*
X38728817Y-45091183D01*
X38594059Y-44980589D01*
X38440313Y-44898411D01*
X38273490Y-44847805D01*
X38260839Y-44846559D01*
X38255812Y-44795518D01*
X38219502Y-44675820D01*
X38160537Y-44565506D01*
X38081185Y-44468815D01*
X37984494Y-44389463D01*
X37874180Y-44330498D01*
X37754482Y-44294188D01*
X37630000Y-44281928D01*
X37622785Y-44281928D01*
X37643097Y-44212702D01*
X36830000Y-43399605D01*
X36016903Y-44212702D01*
X36037215Y-44281928D01*
X36030000Y-44281928D01*
X35905518Y-44294188D01*
X35785820Y-44330498D01*
X35675506Y-44389463D01*
X35578815Y-44468815D01*
X35499463Y-44565506D01*
X35440498Y-44675820D01*
X35404188Y-44795518D01*
X35391928Y-44920000D01*
X35391928Y-46520000D01*
X35404188Y-46644482D01*
X35440498Y-46764180D01*
X35499463Y-46874494D01*
X35578815Y-46971185D01*
X35675506Y-47050537D01*
X35785820Y-47109502D01*
X35905518Y-47145812D01*
X36030000Y-47158072D01*
X37630000Y-47158072D01*
X37754482Y-47145812D01*
X37874180Y-47109502D01*
X37984494Y-47050537D01*
X38081185Y-46971185D01*
X38089489Y-46961067D01*
X40062436Y-48934015D01*
X40049361Y-48965581D01*
X39975000Y-49339419D01*
X39975000Y-49665000D01*
X35707683Y-49665000D01*
X35670537Y-49595506D01*
X35591185Y-49498815D01*
X35494494Y-49419463D01*
X35384180Y-49360498D01*
X35264482Y-49324188D01*
X35140000Y-49311928D01*
X33440000Y-49311928D01*
X33315518Y-49324188D01*
X33195820Y-49360498D01*
X33085506Y-49419463D01*
X32988815Y-49498815D01*
X32909463Y-49595506D01*
X32850498Y-49705820D01*
X32814188Y-49825518D01*
X32801928Y-49950000D01*
X31710000Y-49950000D01*
X31710000Y-43290512D01*
X35389783Y-43290512D01*
X35431213Y-43570130D01*
X35526397Y-43836292D01*
X35593329Y-43961514D01*
X35837298Y-44033097D01*
X36650395Y-43220000D01*
X37009605Y-43220000D01*
X37822702Y-44033097D01*
X38066671Y-43961514D01*
X38187571Y-43706004D01*
X38256300Y-43431816D01*
X38270217Y-43149488D01*
X38228787Y-42869870D01*
X38133603Y-42603708D01*
X38066671Y-42478486D01*
X37822702Y-42406903D01*
X37009605Y-43220000D01*
X36650395Y-43220000D01*
X35837298Y-42406903D01*
X35593329Y-42478486D01*
X35472429Y-42733996D01*
X35403700Y-43008184D01*
X35389783Y-43290512D01*
X31710000Y-43290512D01*
X31710000Y-42227298D01*
X36016903Y-42227298D01*
X36830000Y-43040395D01*
X37643097Y-42227298D01*
X37571514Y-41983329D01*
X37316004Y-41862429D01*
X37041816Y-41793700D01*
X36759488Y-41779783D01*
X36479870Y-41821213D01*
X36213708Y-41916397D01*
X36088486Y-41983329D01*
X36016903Y-42227298D01*
X31710000Y-42227298D01*
X31710000Y-40022313D01*
X31784647Y-38835830D01*
X32003222Y-37690019D01*
X32363682Y-36580638D01*
X32860339Y-35525187D01*
X32977943Y-35339872D01*
X34087000Y-35339872D01*
X34087000Y-35780128D01*
X34172890Y-36211925D01*
X34341369Y-36618669D01*
X34585962Y-36984729D01*
X34897271Y-37296038D01*
X35263331Y-37540631D01*
X35670075Y-37709110D01*
X36101872Y-37795000D01*
X36542128Y-37795000D01*
X36973925Y-37709110D01*
X37380669Y-37540631D01*
X37746729Y-37296038D01*
X38058038Y-36984729D01*
X38302631Y-36618669D01*
X38471110Y-36211925D01*
X38557000Y-35780128D01*
X38557000Y-35339872D01*
X38471110Y-34908075D01*
X38302631Y-34501331D01*
X38058038Y-34135271D01*
X37746729Y-33823962D01*
X37380669Y-33579369D01*
X36973925Y-33410890D01*
X36542128Y-33325000D01*
X36101872Y-33325000D01*
X35670075Y-33410890D01*
X35263331Y-33579369D01*
X34897271Y-33823962D01*
X34585962Y-34135271D01*
X34341369Y-34501331D01*
X34172890Y-34908075D01*
X34087000Y-35339872D01*
X32977943Y-35339872D01*
X33485370Y-34540297D01*
X34228903Y-33641520D01*
X35079228Y-32843013D01*
X36022922Y-32157379D01*
X37045110Y-31595425D01*
X38129662Y-31166021D01*
X39259494Y-30875929D01*
X40427864Y-30728331D01*
X41011165Y-30710000D01*
X90977687Y-30710000D01*
X92164170Y-30784647D01*
G04 #@! TA.AperFunction,Conductor*
D33*
G36*
X92164170Y-30784647D02*
G01*
X93309981Y-31003222D01*
X94419362Y-31363682D01*
X95474813Y-31860339D01*
X96459703Y-32485370D01*
X97358480Y-33228903D01*
X98156987Y-34079228D01*
X98842621Y-35022922D01*
X99404575Y-36045110D01*
X99833979Y-37129662D01*
X100124071Y-38259494D01*
X100271669Y-39427864D01*
X100290000Y-40011165D01*
X100290001Y-89290000D01*
X31710000Y-89290000D01*
X31710000Y-86203372D01*
X32372500Y-86203372D01*
X32372500Y-86643628D01*
X32458390Y-87075425D01*
X32626869Y-87482169D01*
X32871462Y-87848229D01*
X33182771Y-88159538D01*
X33548831Y-88404131D01*
X33955575Y-88572610D01*
X34387372Y-88658500D01*
X34827628Y-88658500D01*
X35259425Y-88572610D01*
X35666169Y-88404131D01*
X36032229Y-88159538D01*
X36343538Y-87848229D01*
X36588131Y-87482169D01*
X36756610Y-87075425D01*
X36842500Y-86643628D01*
X36842500Y-86203372D01*
X36756610Y-85771575D01*
X36588131Y-85364831D01*
X36343538Y-84998771D01*
X36032229Y-84687462D01*
X35666169Y-84442869D01*
X35259425Y-84274390D01*
X34827628Y-84188500D01*
X34387372Y-84188500D01*
X33955575Y-84274390D01*
X33548831Y-84442869D01*
X33182771Y-84687462D01*
X32871462Y-84998771D01*
X32626869Y-85364831D01*
X32458390Y-85771575D01*
X32372500Y-86203372D01*
X31710000Y-86203372D01*
X31710000Y-80171912D01*
X38054001Y-80171912D01*
X38054001Y-80356090D01*
X38089933Y-80536730D01*
X38160415Y-80706890D01*
X38262739Y-80860029D01*
X38392973Y-80990263D01*
X38546112Y-81092587D01*
X38716272Y-81163069D01*
X38896912Y-81199001D01*
X39081090Y-81199001D01*
X39261730Y-81163069D01*
X39431890Y-81092587D01*
X39585029Y-80990263D01*
X39684245Y-80891047D01*
X43692698Y-84899500D01*
X43598570Y-84993628D01*
X43444592Y-84963000D01*
X43169408Y-84963000D01*
X42899510Y-85016686D01*
X42645273Y-85121995D01*
X42416465Y-85274880D01*
X42221880Y-85469465D01*
X42068995Y-85698273D01*
X42037000Y-85775515D01*
X42005005Y-85698273D01*
X41852120Y-85469465D01*
X41657535Y-85274880D01*
X41428727Y-85121995D01*
X41174490Y-85016686D01*
X40904592Y-84963000D01*
X40629408Y-84963000D01*
X40359510Y-85016686D01*
X40105273Y-85121995D01*
X39876465Y-85274880D01*
X39681880Y-85469465D01*
X39528995Y-85698273D01*
X39423686Y-85952510D01*
X39370000Y-86222408D01*
X39370000Y-86497592D01*
X39423686Y-86767490D01*
X39528995Y-87021727D01*
X39681880Y-87250535D01*
X39876465Y-87445120D01*
X40105273Y-87598005D01*
X40359510Y-87703314D01*
X40629408Y-87757000D01*
X40904592Y-87757000D01*
X41058570Y-87726372D01*
X41346201Y-88014003D01*
X41369999Y-88043001D01*
X41398997Y-88066799D01*
X41485723Y-88137974D01*
X41617753Y-88208546D01*
X41761014Y-88252003D01*
X41872667Y-88263000D01*
X41872676Y-88263000D01*
X41909999Y-88266676D01*
X41947322Y-88263000D01*
X49746678Y-88263000D01*
X49784000Y-88266676D01*
X49821322Y-88263000D01*
X49821333Y-88263000D01*
X49865000Y-88258699D01*
X49865000Y-88357089D01*
X49900932Y-88537729D01*
X49971414Y-88707889D01*
X50073738Y-88861028D01*
X50203972Y-88991262D01*
X50357111Y-89093586D01*
X50527271Y-89164068D01*
X50707911Y-89200000D01*
X50892089Y-89200000D01*
X51072729Y-89164068D01*
X51242889Y-89093586D01*
X51345535Y-89025000D01*
X56604678Y-89025000D01*
X56642000Y-89028676D01*
X56679322Y-89025000D01*
X56679333Y-89025000D01*
X56790986Y-89014003D01*
X56934247Y-88970546D01*
X57066276Y-88899974D01*
X57182001Y-88805001D01*
X57205804Y-88775997D01*
X58255430Y-87726372D01*
X58409408Y-87757000D01*
X58684592Y-87757000D01*
X58954490Y-87703314D01*
X59208727Y-87598005D01*
X59437535Y-87445120D01*
X59632120Y-87250535D01*
X59785005Y-87021727D01*
X59817000Y-86944485D01*
X59848995Y-87021727D01*
X60001880Y-87250535D01*
X60196465Y-87445120D01*
X60425273Y-87598005D01*
X60679510Y-87703314D01*
X60949408Y-87757000D01*
X61224592Y-87757000D01*
X61494490Y-87703314D01*
X61748727Y-87598005D01*
X61977535Y-87445120D01*
X62172120Y-87250535D01*
X62325005Y-87021727D01*
X62430314Y-86767490D01*
X62484000Y-86497592D01*
X62484000Y-86222408D01*
X62430314Y-85952510D01*
X62325005Y-85698273D01*
X62172120Y-85469465D01*
X61977535Y-85274880D01*
X61748727Y-85121995D01*
X61494490Y-85016686D01*
X61224592Y-84963000D01*
X60949408Y-84963000D01*
X60679510Y-85016686D01*
X60425273Y-85121995D01*
X60196465Y-85274880D01*
X60001880Y-85469465D01*
X59848995Y-85698273D01*
X59817000Y-85775515D01*
X59785005Y-85698273D01*
X59632120Y-85469465D01*
X59437535Y-85274880D01*
X59208727Y-85121995D01*
X58954490Y-85016686D01*
X58684592Y-84963000D01*
X58478801Y-84963000D01*
X61401802Y-82040000D01*
X64501928Y-82040000D01*
X64501928Y-82180000D01*
X64514188Y-82304482D01*
X64550498Y-82424180D01*
X64609463Y-82534494D01*
X64688815Y-82631185D01*
X64785506Y-82710537D01*
X64895820Y-82769502D01*
X65015518Y-82805812D01*
X65140000Y-82818072D01*
X66503271Y-82818072D01*
X68510198Y-84825000D01*
X68428816Y-84825000D01*
X68132257Y-84883989D01*
X67852905Y-84999701D01*
X67601495Y-85167688D01*
X67535056Y-85234127D01*
X67529502Y-85215820D01*
X67470537Y-85105506D01*
X67391185Y-85008815D01*
X67294494Y-84929463D01*
X67184180Y-84870498D01*
X67064482Y-84834188D01*
X66940000Y-84821928D01*
X65140000Y-84821928D01*
X65015518Y-84834188D01*
X64895820Y-84870498D01*
X64785506Y-84929463D01*
X64688815Y-85008815D01*
X64609463Y-85105506D01*
X64550498Y-85215820D01*
X64514188Y-85335518D01*
X64501928Y-85460000D01*
X64501928Y-87260000D01*
X64514188Y-87384482D01*
X64550498Y-87504180D01*
X64609463Y-87614494D01*
X64688815Y-87711185D01*
X64785506Y-87790537D01*
X64895820Y-87849502D01*
X65015518Y-87885812D01*
X65140000Y-87898072D01*
X66940000Y-87898072D01*
X67064482Y-87885812D01*
X67184180Y-87849502D01*
X67294494Y-87790537D01*
X67391185Y-87711185D01*
X67470537Y-87614494D01*
X67529502Y-87504180D01*
X67535056Y-87485873D01*
X67601495Y-87552312D01*
X67852905Y-87720299D01*
X68132257Y-87836011D01*
X68428816Y-87895000D01*
X68731184Y-87895000D01*
X69027743Y-87836011D01*
X69307095Y-87720299D01*
X69558505Y-87552312D01*
X69772312Y-87338505D01*
X69940299Y-87087095D01*
X70056011Y-86807743D01*
X70101660Y-86578249D01*
X70212279Y-86624068D01*
X70392919Y-86660000D01*
X70577097Y-86660000D01*
X70757737Y-86624068D01*
X70927897Y-86553586D01*
X71081036Y-86451262D01*
X71211270Y-86321028D01*
X71289885Y-86203372D01*
X95174000Y-86203372D01*
X95174000Y-86643628D01*
X95259890Y-87075425D01*
X95428369Y-87482169D01*
X95672962Y-87848229D01*
X95984271Y-88159538D01*
X96350331Y-88404131D01*
X96757075Y-88572610D01*
X97188872Y-88658500D01*
X97629128Y-88658500D01*
X98060925Y-88572610D01*
X98467669Y-88404131D01*
X98833729Y-88159538D01*
X99145038Y-87848229D01*
X99389631Y-87482169D01*
X99558110Y-87075425D01*
X99644000Y-86643628D01*
X99644000Y-86203372D01*
X99558110Y-85771575D01*
X99389631Y-85364831D01*
X99145038Y-84998771D01*
X98833729Y-84687462D01*
X98467669Y-84442869D01*
X98060925Y-84274390D01*
X97629128Y-84188500D01*
X97188872Y-84188500D01*
X96757075Y-84274390D01*
X96350331Y-84442869D01*
X95984271Y-84687462D01*
X95672962Y-84998771D01*
X95428369Y-85364831D01*
X95259890Y-85771575D01*
X95174000Y-86203372D01*
X71289885Y-86203372D01*
X71313594Y-86167889D01*
X71384076Y-85997729D01*
X71420008Y-85817089D01*
X71420008Y-85645413D01*
X84832692Y-85645413D01*
X84928456Y-85909814D01*
X85218071Y-86050704D01*
X85529608Y-86132384D01*
X85851095Y-86151718D01*
X86170175Y-86107961D01*
X86474588Y-86002795D01*
X86648544Y-85909814D01*
X86744308Y-85645413D01*
X91332692Y-85645413D01*
X91428456Y-85909814D01*
X91718071Y-86050704D01*
X92029608Y-86132384D01*
X92351095Y-86151718D01*
X92670175Y-86107961D01*
X92974588Y-86002795D01*
X93148544Y-85909814D01*
X93244308Y-85645413D01*
X92288500Y-84689605D01*
X91332692Y-85645413D01*
X86744308Y-85645413D01*
X85788500Y-84689605D01*
X84832692Y-85645413D01*
X71420008Y-85645413D01*
X71420008Y-85632911D01*
X71384076Y-85452271D01*
X71313594Y-85282111D01*
X71211270Y-85128972D01*
X71081036Y-84998738D01*
X70927897Y-84896414D01*
X70757737Y-84825932D01*
X70636647Y-84801845D01*
X70407397Y-84572595D01*
X84146782Y-84572595D01*
X84190539Y-84891675D01*
X84295705Y-85196088D01*
X84388686Y-85370044D01*
X84653087Y-85465808D01*
X85608895Y-84510000D01*
X85968105Y-84510000D01*
X86923913Y-85465808D01*
X87188314Y-85370044D01*
X87329204Y-85080429D01*
X87410884Y-84768892D01*
X87422689Y-84572595D01*
X90646782Y-84572595D01*
X90690539Y-84891675D01*
X90795705Y-85196088D01*
X90888686Y-85370044D01*
X91153087Y-85465808D01*
X92108895Y-84510000D01*
X92468105Y-84510000D01*
X93423913Y-85465808D01*
X93688314Y-85370044D01*
X93829204Y-85080429D01*
X93910884Y-84768892D01*
X93930218Y-84447405D01*
X93886461Y-84128325D01*
X93781295Y-83823912D01*
X93688314Y-83649956D01*
X93423913Y-83554192D01*
X92468105Y-84510000D01*
X92108895Y-84510000D01*
X91153087Y-83554192D01*
X90888686Y-83649956D01*
X90747796Y-83939571D01*
X90666116Y-84251108D01*
X90646782Y-84572595D01*
X87422689Y-84572595D01*
X87430218Y-84447405D01*
X87386461Y-84128325D01*
X87281295Y-83823912D01*
X87188314Y-83649956D01*
X86923913Y-83554192D01*
X85968105Y-84510000D01*
X85608895Y-84510000D01*
X84653087Y-83554192D01*
X84388686Y-83649956D01*
X84247796Y-83939571D01*
X84166116Y-84251108D01*
X84146782Y-84572595D01*
X70407397Y-84572595D01*
X69209389Y-83374587D01*
X84832692Y-83374587D01*
X85788500Y-84330395D01*
X86744308Y-83374587D01*
X91332692Y-83374587D01*
X92288500Y-84330395D01*
X93244308Y-83374587D01*
X93148544Y-83110186D01*
X92858929Y-82969296D01*
X92547392Y-82887616D01*
X92225905Y-82868282D01*
X91906825Y-82912039D01*
X91602412Y-83017205D01*
X91428456Y-83110186D01*
X91332692Y-83374587D01*
X86744308Y-83374587D01*
X86648544Y-83110186D01*
X86358929Y-82969296D01*
X86047392Y-82887616D01*
X85725905Y-82868282D01*
X85406825Y-82912039D01*
X85102412Y-83017205D01*
X84928456Y-83110186D01*
X84832692Y-83374587D01*
X69209389Y-83374587D01*
X68649801Y-82815000D01*
X68731184Y-82815000D01*
X69027743Y-82756011D01*
X69307095Y-82640299D01*
X69558505Y-82472312D01*
X69772312Y-82258505D01*
X69940299Y-82007095D01*
X70056011Y-81727743D01*
X70115000Y-81431184D01*
X70115000Y-81128816D01*
X70056011Y-80832257D01*
X70030223Y-80770000D01*
X77579463Y-80770000D01*
X77836917Y-81027455D01*
X77805000Y-81187911D01*
X77805000Y-81372089D01*
X77840932Y-81552729D01*
X77911414Y-81722889D01*
X78013738Y-81876028D01*
X78143972Y-82006262D01*
X78297111Y-82108586D01*
X78467271Y-82179068D01*
X78647911Y-82215000D01*
X78832089Y-82215000D01*
X79012729Y-82179068D01*
X79182889Y-82108586D01*
X79336028Y-82006262D01*
X79466262Y-81876028D01*
X79568586Y-81722889D01*
X79639068Y-81552729D01*
X79675000Y-81372089D01*
X79675000Y-81187911D01*
X79639068Y-81007271D01*
X79568586Y-80837111D01*
X79490303Y-80719952D01*
X79489003Y-80706750D01*
X79445546Y-80563489D01*
X79374974Y-80431460D01*
X79280001Y-80315735D01*
X79251004Y-80291938D01*
X78458067Y-79499002D01*
X78434265Y-79469999D01*
X78318540Y-79375026D01*
X78186511Y-79304454D01*
X78043250Y-79260997D01*
X77931597Y-79250000D01*
X77931586Y-79250000D01*
X77894264Y-79246324D01*
X77856942Y-79250000D01*
X70291802Y-79250000D01*
X68769233Y-77727432D01*
X69027743Y-77676011D01*
X69307095Y-77560299D01*
X69558505Y-77392312D01*
X69772312Y-77178505D01*
X69940299Y-76927095D01*
X70056011Y-76647743D01*
X70115000Y-76351184D01*
X70115000Y-76048816D01*
X70056011Y-75752257D01*
X69940299Y-75472905D01*
X69772312Y-75221495D01*
X69558505Y-75007688D01*
X69340000Y-74861687D01*
X69340000Y-72458313D01*
X69558505Y-72312312D01*
X69772312Y-72098505D01*
X69940299Y-71847095D01*
X70056011Y-71567743D01*
X70115000Y-71271184D01*
X70115000Y-70968816D01*
X70056011Y-70672257D01*
X69940299Y-70392905D01*
X69772312Y-70141495D01*
X69558505Y-69927688D01*
X69340000Y-69781687D01*
X69340000Y-67378313D01*
X69558505Y-67232312D01*
X69772312Y-67018505D01*
X69940299Y-66767095D01*
X70056011Y-66487743D01*
X70115000Y-66191184D01*
X70115000Y-65888816D01*
X70056011Y-65592257D01*
X69940299Y-65312905D01*
X69772312Y-65061495D01*
X69558505Y-64847688D01*
X69307095Y-64679701D01*
X69027743Y-64563989D01*
X68731184Y-64505000D01*
X68428816Y-64505000D01*
X68132257Y-64563989D01*
X67852905Y-64679701D01*
X67601495Y-64847688D01*
X67535056Y-64914127D01*
X67529502Y-64895820D01*
X67470537Y-64785506D01*
X67391185Y-64688815D01*
X67294494Y-64609463D01*
X67184180Y-64550498D01*
X67064482Y-64514188D01*
X66940000Y-64501928D01*
X65140000Y-64501928D01*
X65015518Y-64514188D01*
X64895820Y-64550498D01*
X64785506Y-64609463D01*
X64688815Y-64688815D01*
X64609463Y-64785506D01*
X64550498Y-64895820D01*
X64514188Y-65015518D01*
X64501928Y-65140000D01*
X64501928Y-65280000D01*
X61124323Y-65280000D01*
X61087000Y-65276324D01*
X61049677Y-65280000D01*
X61049667Y-65280000D01*
X60938014Y-65290997D01*
X60824558Y-65325413D01*
X60794753Y-65334454D01*
X60662723Y-65405026D01*
X60579083Y-65473668D01*
X60546999Y-65499999D01*
X60523201Y-65528997D01*
X56298571Y-69753628D01*
X56144592Y-69723000D01*
X55869408Y-69723000D01*
X55715429Y-69753628D01*
X55427804Y-69466002D01*
X55404001Y-69436999D01*
X55288276Y-69342026D01*
X55156247Y-69271454D01*
X55012986Y-69227997D01*
X54901333Y-69217000D01*
X54901322Y-69217000D01*
X54864000Y-69213324D01*
X54826678Y-69217000D01*
X41947322Y-69217000D01*
X41909999Y-69213324D01*
X41872676Y-69217000D01*
X41872667Y-69217000D01*
X41761014Y-69227997D01*
X41617753Y-69271454D01*
X41485723Y-69342026D01*
X41402083Y-69410668D01*
X41369999Y-69436999D01*
X41346201Y-69465997D01*
X41058570Y-69753628D01*
X40904592Y-69723000D01*
X40629408Y-69723000D01*
X40359510Y-69776686D01*
X40105273Y-69881995D01*
X39876465Y-70034880D01*
X39681880Y-70229465D01*
X39528995Y-70458273D01*
X39423686Y-70712510D01*
X39370000Y-70982408D01*
X39370000Y-71257592D01*
X39423686Y-71527490D01*
X39528995Y-71781727D01*
X39681880Y-72010535D01*
X39749772Y-72078427D01*
X38478004Y-73350195D01*
X38449000Y-73373998D01*
X38412071Y-73418997D01*
X38354027Y-73489723D01*
X38330881Y-73533026D01*
X38283455Y-73621753D01*
X38239998Y-73765014D01*
X38229001Y-73876667D01*
X38229001Y-73876677D01*
X38225325Y-73913999D01*
X38229001Y-73951322D01*
X38229002Y-79718464D01*
X38160415Y-79821112D01*
X38089933Y-79991272D01*
X38054001Y-80171912D01*
X31710000Y-80171912D01*
X31710000Y-67032702D01*
X33476903Y-67032702D01*
X33548486Y-67276671D01*
X33803996Y-67397571D01*
X34078184Y-67466300D01*
X34360512Y-67480217D01*
X34640130Y-67438787D01*
X34906292Y-67343603D01*
X35031514Y-67276671D01*
X35103097Y-67032702D01*
X34290000Y-66219605D01*
X33476903Y-67032702D01*
X31710000Y-67032702D01*
X31710000Y-66110512D01*
X32849783Y-66110512D01*
X32891213Y-66390130D01*
X32986397Y-66656292D01*
X33053329Y-66781514D01*
X33297298Y-66853097D01*
X34110395Y-66040000D01*
X34469605Y-66040000D01*
X35282702Y-66853097D01*
X35526671Y-66781514D01*
X35647571Y-66526004D01*
X35716300Y-66251816D01*
X35730217Y-65969488D01*
X35688787Y-65689870D01*
X35593603Y-65423708D01*
X35526671Y-65298486D01*
X35282702Y-65226903D01*
X34469605Y-66040000D01*
X34110395Y-66040000D01*
X33297298Y-65226903D01*
X33053329Y-65298486D01*
X32932429Y-65553996D01*
X32863700Y-65828184D01*
X32849783Y-66110512D01*
X31710000Y-66110512D01*
X31710000Y-65047298D01*
X33476903Y-65047298D01*
X34290000Y-65860395D01*
X35103097Y-65047298D01*
X35031514Y-64803329D01*
X34776004Y-64682429D01*
X34501816Y-64613700D01*
X34219488Y-64599783D01*
X33939870Y-64641213D01*
X33673708Y-64736397D01*
X33548486Y-64803329D01*
X33476903Y-65047298D01*
X31710000Y-65047298D01*
X31710000Y-64377000D01*
X38108928Y-64377000D01*
X38121188Y-64501482D01*
X38157498Y-64621180D01*
X38216463Y-64731494D01*
X38295815Y-64828185D01*
X38392506Y-64907537D01*
X38502820Y-64966502D01*
X38622518Y-65002812D01*
X38747000Y-65015072D01*
X39211250Y-65012000D01*
X39370000Y-64853250D01*
X39370000Y-63754000D01*
X39624000Y-63754000D01*
X39624000Y-64853250D01*
X39782750Y-65012000D01*
X40247000Y-65015072D01*
X40371482Y-65002812D01*
X40491180Y-64966502D01*
X40601494Y-64907537D01*
X40698185Y-64828185D01*
X40777537Y-64731494D01*
X40836502Y-64621180D01*
X40872812Y-64501482D01*
X40885072Y-64377000D01*
X40882000Y-63912750D01*
X40723250Y-63754000D01*
X39624000Y-63754000D01*
X39370000Y-63754000D01*
X38270750Y-63754000D01*
X38112000Y-63912750D01*
X38108928Y-64377000D01*
X31710000Y-64377000D01*
X31710000Y-60898665D01*
X32855000Y-60898665D01*
X32855000Y-61181335D01*
X32910147Y-61458574D01*
X33018320Y-61719727D01*
X33175363Y-61954759D01*
X33375241Y-62154637D01*
X33610273Y-62311680D01*
X33871426Y-62419853D01*
X34148665Y-62475000D01*
X34431335Y-62475000D01*
X34708574Y-62419853D01*
X34969727Y-62311680D01*
X35204759Y-62154637D01*
X35404637Y-61954759D01*
X35424521Y-61925000D01*
X38391209Y-61925000D01*
X38421201Y-61969886D01*
X38614114Y-62162799D01*
X38730483Y-62240555D01*
X38622518Y-62251188D01*
X38502820Y-62287498D01*
X38392506Y-62346463D01*
X38295815Y-62425815D01*
X38216463Y-62522506D01*
X38157498Y-62632820D01*
X38121188Y-62752518D01*
X38108928Y-62877000D01*
X38112000Y-63341250D01*
X38270750Y-63500000D01*
X39370000Y-63500000D01*
X39370000Y-63480000D01*
X39624000Y-63480000D01*
X39624000Y-63500000D01*
X40723250Y-63500000D01*
X40882000Y-63341250D01*
X40883049Y-63182702D01*
X46176903Y-63182702D01*
X46248486Y-63426671D01*
X46503996Y-63547571D01*
X46778184Y-63616300D01*
X47060512Y-63630217D01*
X47340130Y-63588787D01*
X47606292Y-63493603D01*
X47731514Y-63426671D01*
X47803097Y-63182702D01*
X46990000Y-62369605D01*
X46176903Y-63182702D01*
X40883049Y-63182702D01*
X40885072Y-62877000D01*
X40872812Y-62752518D01*
X40836502Y-62632820D01*
X40777537Y-62522506D01*
X40698185Y-62425815D01*
X40601494Y-62346463D01*
X40491180Y-62287498D01*
X40371482Y-62251188D01*
X40263517Y-62240555D01*
X40379886Y-62162799D01*
X40570685Y-61972000D01*
X45549531Y-61972000D01*
X45564871Y-61973511D01*
X45563700Y-61978184D01*
X45549783Y-62260512D01*
X45591213Y-62540130D01*
X45686397Y-62806292D01*
X45753329Y-62931514D01*
X45997298Y-63003097D01*
X46810395Y-62190000D01*
X47169605Y-62190000D01*
X47982702Y-63003097D01*
X48226671Y-62931514D01*
X48347571Y-62676004D01*
X48416300Y-62401816D01*
X48430217Y-62119488D01*
X48388787Y-61839870D01*
X48293603Y-61573708D01*
X48226671Y-61448486D01*
X47982702Y-61376903D01*
X47169605Y-62190000D01*
X46810395Y-62190000D01*
X46796253Y-62175858D01*
X46975858Y-61996253D01*
X46990000Y-62010395D01*
X47803097Y-61197298D01*
X47782785Y-61128072D01*
X47790000Y-61128072D01*
X47914482Y-61115812D01*
X48034180Y-61079502D01*
X48144494Y-61020537D01*
X48241185Y-60941185D01*
X48320537Y-60844494D01*
X48379502Y-60734180D01*
X48415812Y-60614482D01*
X48428072Y-60490000D01*
X48428072Y-58890000D01*
X48415812Y-58765518D01*
X48379502Y-58645820D01*
X48320537Y-58535506D01*
X48241185Y-58438815D01*
X48144494Y-58359463D01*
X48034180Y-58300498D01*
X47914482Y-58264188D01*
X47790000Y-58251928D01*
X46190000Y-58251928D01*
X46065518Y-58264188D01*
X45945820Y-58300498D01*
X45835506Y-58359463D01*
X45738815Y-58438815D01*
X45659463Y-58535506D01*
X45600498Y-58645820D01*
X45564188Y-58765518D01*
X45551928Y-58890000D01*
X45551928Y-59876494D01*
X45226422Y-60202000D01*
X40570685Y-60202000D01*
X40379886Y-60011201D01*
X40153043Y-59859629D01*
X40050127Y-59817000D01*
X40153043Y-59774371D01*
X40379886Y-59622799D01*
X40572799Y-59429886D01*
X40724371Y-59203043D01*
X40828775Y-58950989D01*
X40882000Y-58683411D01*
X40882000Y-58410589D01*
X40828775Y-58143011D01*
X40724371Y-57890957D01*
X40572799Y-57664114D01*
X40382000Y-57473315D01*
X40382000Y-57309578D01*
X41314015Y-56377564D01*
X41345581Y-56390639D01*
X41719419Y-56465000D01*
X42100581Y-56465000D01*
X42474419Y-56390639D01*
X42826566Y-56244775D01*
X43143491Y-56033013D01*
X43413013Y-55763491D01*
X43624775Y-55446566D01*
X43770639Y-55094419D01*
X43792006Y-54987000D01*
X49288928Y-54987000D01*
X49288928Y-55102000D01*
X49301188Y-55226482D01*
X49337498Y-55346180D01*
X49396463Y-55456494D01*
X49475815Y-55553185D01*
X49572506Y-55632537D01*
X49618630Y-55657191D01*
X49478082Y-55867537D01*
X49354832Y-56165088D01*
X49292000Y-56480967D01*
X49292000Y-56803033D01*
X49354832Y-57118912D01*
X49478082Y-57416463D01*
X49657013Y-57684252D01*
X49884748Y-57911987D01*
X50152537Y-58090918D01*
X50450088Y-58214168D01*
X50765967Y-58277000D01*
X51088033Y-58277000D01*
X51403912Y-58214168D01*
X51701463Y-58090918D01*
X51969252Y-57911987D01*
X52196987Y-57684252D01*
X52375918Y-57416463D01*
X52499168Y-57118912D01*
X52562000Y-56803033D01*
X52562000Y-56480967D01*
X52499168Y-56165088D01*
X52375918Y-55867537D01*
X52235370Y-55657191D01*
X52281494Y-55632537D01*
X52378185Y-55553185D01*
X52457537Y-55456494D01*
X52516502Y-55346180D01*
X52552812Y-55226482D01*
X52565072Y-55102000D01*
X52565072Y-53102000D01*
X52552812Y-52977518D01*
X52516502Y-52857820D01*
X52457537Y-52747506D01*
X52378185Y-52650815D01*
X52281494Y-52571463D01*
X52171180Y-52512498D01*
X52051482Y-52476188D01*
X51927000Y-52463928D01*
X49927000Y-52463928D01*
X49802518Y-52476188D01*
X49682820Y-52512498D01*
X49572506Y-52571463D01*
X49475815Y-52650815D01*
X49396463Y-52747506D01*
X49337498Y-52857820D01*
X49301188Y-52977518D01*
X49288928Y-53102000D01*
X49288928Y-53217000D01*
X43333504Y-53217000D01*
X43143491Y-53026987D01*
X42826566Y-52815225D01*
X42474419Y-52669361D01*
X42100581Y-52595000D01*
X41719419Y-52595000D01*
X41345581Y-52669361D01*
X40993434Y-52815225D01*
X40676509Y-53026987D01*
X40406987Y-53296509D01*
X40195225Y-53613434D01*
X40049361Y-53965581D01*
X39975000Y-54339419D01*
X39975000Y-54720581D01*
X40049361Y-55094419D01*
X40062436Y-55125985D01*
X38901956Y-56286466D01*
X38868183Y-56314183D01*
X38757589Y-56448942D01*
X38675411Y-56602688D01*
X38624805Y-56769511D01*
X38612000Y-56899524D01*
X38612000Y-56899531D01*
X38607719Y-56943000D01*
X38612000Y-56986469D01*
X38612000Y-57473315D01*
X38421201Y-57664114D01*
X38269629Y-57890957D01*
X38165225Y-58143011D01*
X38112000Y-58410589D01*
X38112000Y-58683411D01*
X38165225Y-58950989D01*
X38269629Y-59203043D01*
X38421201Y-59429886D01*
X38614114Y-59622799D01*
X38840957Y-59774371D01*
X38943873Y-59817000D01*
X38840957Y-59859629D01*
X38614114Y-60011201D01*
X38470315Y-60155000D01*
X35424521Y-60155000D01*
X35404637Y-60125241D01*
X35204759Y-59925363D01*
X34969727Y-59768320D01*
X34708574Y-59660147D01*
X34431335Y-59605000D01*
X34148665Y-59605000D01*
X33871426Y-59660147D01*
X33610273Y-59768320D01*
X33375241Y-59925363D01*
X33175363Y-60125241D01*
X33018320Y-60360273D01*
X32910147Y-60621426D01*
X32855000Y-60898665D01*
X31710000Y-60898665D01*
X31710000Y-53696891D01*
X32848519Y-53696891D01*
X32945843Y-53971252D01*
X33094822Y-54221355D01*
X33289731Y-54437588D01*
X33523080Y-54611641D01*
X33785901Y-54736825D01*
X33933110Y-54781476D01*
X34163000Y-54660155D01*
X34163000Y-53467000D01*
X34417000Y-53467000D01*
X34417000Y-54660155D01*
X34646890Y-54781476D01*
X34794099Y-54736825D01*
X35056920Y-54611641D01*
X35290269Y-54437588D01*
X35485178Y-54221355D01*
X35634157Y-53971252D01*
X35731481Y-53696891D01*
X35610814Y-53467000D01*
X34417000Y-53467000D01*
X34163000Y-53467000D01*
X32969186Y-53467000D01*
X32848519Y-53696891D01*
X31710000Y-53696891D01*
X31710000Y-49950000D01*
X32801928Y-49950000D01*
X32801928Y-51650000D01*
X32814188Y-51774482D01*
X32850498Y-51894180D01*
X32909463Y-52004494D01*
X32988815Y-52101185D01*
X33085506Y-52180537D01*
X33195820Y-52239502D01*
X33271626Y-52262498D01*
X33094822Y-52458645D01*
X32945843Y-52708748D01*
X32848519Y-52983109D01*
X32969186Y-53213000D01*
X34163000Y-53213000D01*
X34163000Y-53193000D01*
X34417000Y-53193000D01*
X34417000Y-53213000D01*
X35610814Y-53213000D01*
X35731481Y-52983109D01*
X35634157Y-52708748D01*
X35485178Y-52458645D01*
X35308374Y-52262498D01*
X35384180Y-52239502D01*
X35494494Y-52180537D01*
X35591185Y-52101185D01*
X35670537Y-52004494D01*
X35707683Y-51935000D01*
X40584249Y-51935000D01*
X40640000Y-51940491D01*
X40695751Y-51935000D01*
X40695752Y-51935000D01*
X40862499Y-51918577D01*
X41076447Y-51853676D01*
X41273623Y-51748284D01*
X41446449Y-51606449D01*
X41481996Y-51563135D01*
X41603240Y-51441891D01*
X41719419Y-51465000D01*
X42100581Y-51465000D01*
X42474419Y-51390639D01*
X42505985Y-51377564D01*
X42523470Y-51395049D01*
X42551183Y-51428817D01*
X42584951Y-51456530D01*
X42584953Y-51456532D01*
X42644677Y-51505546D01*
X42685941Y-51539411D01*
X42839687Y-51621589D01*
X43006510Y-51672195D01*
X43136523Y-51685000D01*
X43136533Y-51685000D01*
X43179999Y-51689281D01*
X43223465Y-51685000D01*
X55385025Y-51685000D01*
X55536987Y-51836962D01*
X55755641Y-51983061D01*
X55998595Y-52083696D01*
X56256514Y-52135000D01*
X56519486Y-52135000D01*
X56777405Y-52083696D01*
X57020359Y-51983061D01*
X57239013Y-51836962D01*
X57424962Y-51651013D01*
X57571061Y-51432359D01*
X57658000Y-51222470D01*
X57744939Y-51432359D01*
X57891038Y-51651013D01*
X58076987Y-51836962D01*
X58295641Y-51983061D01*
X58538595Y-52083696D01*
X58796514Y-52135000D01*
X59059486Y-52135000D01*
X59317405Y-52083696D01*
X59560359Y-51983061D01*
X59779013Y-51836962D01*
X59964962Y-51651013D01*
X60025775Y-51560000D01*
X61915199Y-51560000D01*
X62160199Y-51805000D01*
X62078816Y-51805000D01*
X61782257Y-51863989D01*
X61502905Y-51979701D01*
X61251495Y-52147688D01*
X61037688Y-52361495D01*
X60869701Y-52612905D01*
X60753989Y-52892257D01*
X60695000Y-53188816D01*
X60695000Y-53491184D01*
X60753989Y-53787743D01*
X60869701Y-54067095D01*
X61037688Y-54318505D01*
X61251495Y-54532312D01*
X61502905Y-54700299D01*
X61782257Y-54816011D01*
X62078816Y-54875000D01*
X62381184Y-54875000D01*
X62677743Y-54816011D01*
X62957095Y-54700299D01*
X63208505Y-54532312D01*
X63422312Y-54318505D01*
X63500000Y-54202237D01*
X63577688Y-54318505D01*
X63791495Y-54532312D01*
X64042905Y-54700299D01*
X64322257Y-54816011D01*
X64618816Y-54875000D01*
X64921184Y-54875000D01*
X65217743Y-54816011D01*
X65497095Y-54700299D01*
X65748505Y-54532312D01*
X65962312Y-54318505D01*
X66040000Y-54202237D01*
X66117688Y-54318505D01*
X66331495Y-54532312D01*
X66582905Y-54700299D01*
X66862257Y-54816011D01*
X67158816Y-54875000D01*
X67461184Y-54875000D01*
X67757743Y-54816011D01*
X68037095Y-54700299D01*
X68288505Y-54532312D01*
X68502312Y-54318505D01*
X68580000Y-54202237D01*
X68657688Y-54318505D01*
X68871495Y-54532312D01*
X69122905Y-54700299D01*
X69402257Y-54816011D01*
X69698816Y-54875000D01*
X70001184Y-54875000D01*
X70297743Y-54816011D01*
X70577095Y-54700299D01*
X70828505Y-54532312D01*
X71042312Y-54318505D01*
X71120000Y-54202237D01*
X71197688Y-54318505D01*
X71411495Y-54532312D01*
X71662905Y-54700299D01*
X71942257Y-54816011D01*
X72238816Y-54875000D01*
X72541184Y-54875000D01*
X72837743Y-54816011D01*
X73117095Y-54700299D01*
X73368505Y-54532312D01*
X73582312Y-54318505D01*
X73660000Y-54202237D01*
X73737688Y-54318505D01*
X73951495Y-54532312D01*
X74202905Y-54700299D01*
X74482257Y-54816011D01*
X74778816Y-54875000D01*
X75081184Y-54875000D01*
X75377743Y-54816011D01*
X75657095Y-54700299D01*
X75908505Y-54532312D01*
X75974944Y-54465873D01*
X75980498Y-54484180D01*
X76039463Y-54594494D01*
X76118815Y-54691185D01*
X76215506Y-54770537D01*
X76325820Y-54829502D01*
X76445518Y-54865812D01*
X76570000Y-54878072D01*
X78370000Y-54878072D01*
X78494482Y-54865812D01*
X78614180Y-54829502D01*
X78724494Y-54770537D01*
X78821185Y-54691185D01*
X78900537Y-54594494D01*
X78959502Y-54484180D01*
X78995812Y-54364482D01*
X79008072Y-54240000D01*
X79008072Y-54225000D01*
X79944422Y-54225000D01*
X80359983Y-54640561D01*
X80353000Y-54675665D01*
X80353000Y-54958335D01*
X80408147Y-55235574D01*
X80516320Y-55496727D01*
X80673363Y-55731759D01*
X80873241Y-55931637D01*
X81107223Y-56087978D01*
X78347202Y-58847999D01*
X76192334Y-58847999D01*
X76155001Y-58844322D01*
X76117668Y-58847999D01*
X76006015Y-58858996D01*
X75862754Y-58902453D01*
X75730725Y-58973025D01*
X75615000Y-59067998D01*
X75520027Y-59183723D01*
X75449455Y-59315752D01*
X75427688Y-59387510D01*
X75338930Y-59476269D01*
X75081184Y-59425000D01*
X74778816Y-59425000D01*
X74482257Y-59483989D01*
X74202905Y-59599701D01*
X73951495Y-59767688D01*
X73737688Y-59981495D01*
X73660000Y-60097763D01*
X73582312Y-59981495D01*
X73368505Y-59767688D01*
X73117095Y-59599701D01*
X72837743Y-59483989D01*
X72541184Y-59425000D01*
X72238816Y-59425000D01*
X71942257Y-59483989D01*
X71662905Y-59599701D01*
X71411495Y-59767688D01*
X71197688Y-59981495D01*
X71120000Y-60097763D01*
X71042312Y-59981495D01*
X70828505Y-59767688D01*
X70577095Y-59599701D01*
X70297743Y-59483989D01*
X70001184Y-59425000D01*
X69698816Y-59425000D01*
X69402257Y-59483989D01*
X69122905Y-59599701D01*
X68871495Y-59767688D01*
X68657688Y-59981495D01*
X68580000Y-60097763D01*
X68502312Y-59981495D01*
X68288505Y-59767688D01*
X68037095Y-59599701D01*
X67757743Y-59483989D01*
X67461184Y-59425000D01*
X67158816Y-59425000D01*
X66862257Y-59483989D01*
X66582905Y-59599701D01*
X66331495Y-59767688D01*
X66117688Y-59981495D01*
X66040000Y-60097763D01*
X65962312Y-59981495D01*
X65748505Y-59767688D01*
X65497095Y-59599701D01*
X65217743Y-59483989D01*
X64921184Y-59425000D01*
X64618816Y-59425000D01*
X64322257Y-59483989D01*
X64042905Y-59599701D01*
X63791495Y-59767688D01*
X63577688Y-59981495D01*
X63500000Y-60097763D01*
X63422312Y-59981495D01*
X63208505Y-59767688D01*
X62957095Y-59599701D01*
X62677743Y-59483989D01*
X62381184Y-59425000D01*
X62078816Y-59425000D01*
X61782257Y-59483989D01*
X61502905Y-59599701D01*
X61251495Y-59767688D01*
X61037688Y-59981495D01*
X60869701Y-60232905D01*
X60753989Y-60512257D01*
X60695000Y-60808816D01*
X60695000Y-61111184D01*
X60753989Y-61407743D01*
X60869701Y-61687095D01*
X61037688Y-61938505D01*
X61251495Y-62152312D01*
X61502905Y-62320299D01*
X61782257Y-62436011D01*
X62078816Y-62495000D01*
X62381184Y-62495000D01*
X62677743Y-62436011D01*
X62957095Y-62320299D01*
X63208505Y-62152312D01*
X63422312Y-61938505D01*
X63500000Y-61822237D01*
X63577688Y-61938505D01*
X63791495Y-62152312D01*
X64042905Y-62320299D01*
X64322257Y-62436011D01*
X64618816Y-62495000D01*
X64921184Y-62495000D01*
X65178930Y-62443731D01*
X65476200Y-62741002D01*
X65499999Y-62770001D01*
X65615724Y-62864974D01*
X65747753Y-62935546D01*
X65891014Y-62979003D01*
X66002667Y-62990000D01*
X66002676Y-62990000D01*
X66039999Y-62993676D01*
X66077322Y-62990000D01*
X70043199Y-62990000D01*
X77980000Y-70926802D01*
X77980001Y-77432461D01*
X77911414Y-77535109D01*
X77840932Y-77705269D01*
X77805000Y-77885909D01*
X77805000Y-78070087D01*
X77840932Y-78250727D01*
X77911414Y-78420887D01*
X78013738Y-78574026D01*
X78143972Y-78704260D01*
X78297111Y-78806584D01*
X78467271Y-78877066D01*
X78647911Y-78912998D01*
X78832089Y-78912998D01*
X79012729Y-78877066D01*
X79182889Y-78806584D01*
X79336028Y-78704260D01*
X79466262Y-78574026D01*
X79568586Y-78420887D01*
X79639068Y-78250727D01*
X79675000Y-78070087D01*
X79675000Y-77885909D01*
X79639068Y-77705269D01*
X79568586Y-77535109D01*
X79500000Y-77432463D01*
X79500000Y-71684802D01*
X85028501Y-77213303D01*
X85028500Y-78555091D01*
X85014037Y-78561082D01*
X84746248Y-78740013D01*
X84518513Y-78967748D01*
X84339582Y-79235537D01*
X84216332Y-79533088D01*
X84153500Y-79848967D01*
X84153500Y-80171033D01*
X84216332Y-80486912D01*
X84339582Y-80784463D01*
X84518513Y-81052252D01*
X84746248Y-81279987D01*
X85014037Y-81458918D01*
X85311588Y-81582168D01*
X85627467Y-81645000D01*
X85949533Y-81645000D01*
X86265412Y-81582168D01*
X86562963Y-81458918D01*
X86830752Y-81279987D01*
X87058487Y-81052252D01*
X87237418Y-80784463D01*
X87243409Y-80770000D01*
X90833591Y-80770000D01*
X90839582Y-80784463D01*
X91018513Y-81052252D01*
X91246248Y-81279987D01*
X91514037Y-81458918D01*
X91811588Y-81582168D01*
X92127467Y-81645000D01*
X92449533Y-81645000D01*
X92765412Y-81582168D01*
X93062963Y-81458918D01*
X93330752Y-81279987D01*
X93558487Y-81052252D01*
X93737418Y-80784463D01*
X93860668Y-80486912D01*
X93923500Y-80171033D01*
X93923500Y-79848967D01*
X93860668Y-79533088D01*
X93737418Y-79235537D01*
X93558487Y-78967748D01*
X93330752Y-78740013D01*
X93062963Y-78561082D01*
X92765412Y-78437832D01*
X92449533Y-78375000D01*
X92127467Y-78375000D01*
X91811588Y-78437832D01*
X91514037Y-78561082D01*
X91246248Y-78740013D01*
X91018513Y-78967748D01*
X90839582Y-79235537D01*
X90833591Y-79250000D01*
X87243409Y-79250000D01*
X87237418Y-79235537D01*
X87058487Y-78967748D01*
X86830752Y-78740013D01*
X86562963Y-78561082D01*
X86548500Y-78555091D01*
X86548500Y-76935823D01*
X86552176Y-76898500D01*
X86548500Y-76861177D01*
X86548500Y-76861167D01*
X86537503Y-76749514D01*
X86494046Y-76606253D01*
X86423474Y-76474224D01*
X86328501Y-76358499D01*
X86299503Y-76334701D01*
X85955139Y-75990337D01*
X85978095Y-75991718D01*
X86297175Y-75947961D01*
X86601588Y-75842795D01*
X86775544Y-75749814D01*
X86871308Y-75485413D01*
X91459692Y-75485413D01*
X91555456Y-75749814D01*
X91845071Y-75890704D01*
X92156608Y-75972384D01*
X92478095Y-75991718D01*
X92797175Y-75947961D01*
X93101588Y-75842795D01*
X93275544Y-75749814D01*
X93371308Y-75485413D01*
X92415500Y-74529605D01*
X91459692Y-75485413D01*
X86871308Y-75485413D01*
X85915500Y-74529605D01*
X85901358Y-74543748D01*
X85721753Y-74364143D01*
X85735895Y-74350000D01*
X86095105Y-74350000D01*
X87050913Y-75305808D01*
X87315314Y-75210044D01*
X87456204Y-74920429D01*
X87537884Y-74608892D01*
X87549689Y-74412595D01*
X90773782Y-74412595D01*
X90817539Y-74731675D01*
X90922705Y-75036088D01*
X91015686Y-75210044D01*
X91280087Y-75305808D01*
X92235895Y-74350000D01*
X92595105Y-74350000D01*
X93550913Y-75305808D01*
X93815314Y-75210044D01*
X93956204Y-74920429D01*
X94037884Y-74608892D01*
X94057218Y-74287405D01*
X94013461Y-73968325D01*
X93908295Y-73663912D01*
X93815314Y-73489956D01*
X93550913Y-73394192D01*
X92595105Y-74350000D01*
X92235895Y-74350000D01*
X91280087Y-73394192D01*
X91015686Y-73489956D01*
X90874796Y-73779571D01*
X90793116Y-74091108D01*
X90773782Y-74412595D01*
X87549689Y-74412595D01*
X87557218Y-74287405D01*
X87513461Y-73968325D01*
X87408295Y-73663912D01*
X87315314Y-73489956D01*
X87050913Y-73394192D01*
X86095105Y-74350000D01*
X85735895Y-74350000D01*
X84780087Y-73394192D01*
X84515686Y-73489956D01*
X84374796Y-73779571D01*
X84293116Y-74091108D01*
X84279660Y-74314858D01*
X83179389Y-73214587D01*
X84959692Y-73214587D01*
X85915500Y-74170395D01*
X86871308Y-73214587D01*
X91459692Y-73214587D01*
X92415500Y-74170395D01*
X93371308Y-73214587D01*
X93275544Y-72950186D01*
X92985929Y-72809296D01*
X92674392Y-72727616D01*
X92352905Y-72708282D01*
X92033825Y-72752039D01*
X91729412Y-72857205D01*
X91555456Y-72950186D01*
X91459692Y-73214587D01*
X86871308Y-73214587D01*
X86775544Y-72950186D01*
X86485929Y-72809296D01*
X86174392Y-72727616D01*
X85852905Y-72708282D01*
X85533825Y-72752039D01*
X85229412Y-72857205D01*
X85055456Y-72950186D01*
X84959692Y-73214587D01*
X83179389Y-73214587D01*
X80574802Y-70610000D01*
X84460591Y-70610000D01*
X84466582Y-70624463D01*
X84645513Y-70892252D01*
X84873248Y-71119987D01*
X85141037Y-71298918D01*
X85438588Y-71422168D01*
X85754467Y-71485000D01*
X86076533Y-71485000D01*
X86392412Y-71422168D01*
X86689963Y-71298918D01*
X86957752Y-71119987D01*
X87185487Y-70892252D01*
X87364418Y-70624463D01*
X87370409Y-70610000D01*
X90960591Y-70610000D01*
X90966582Y-70624463D01*
X91145513Y-70892252D01*
X91373248Y-71119987D01*
X91641037Y-71298918D01*
X91938588Y-71422168D01*
X92254467Y-71485000D01*
X92576533Y-71485000D01*
X92892412Y-71422168D01*
X93189963Y-71298918D01*
X93457752Y-71119987D01*
X93685487Y-70892252D01*
X93864418Y-70624463D01*
X93987668Y-70326912D01*
X94050500Y-70011033D01*
X94050500Y-69688967D01*
X93987668Y-69373088D01*
X93864418Y-69075537D01*
X93685487Y-68807748D01*
X93457752Y-68580013D01*
X93189963Y-68401082D01*
X92892412Y-68277832D01*
X92576533Y-68215000D01*
X92254467Y-68215000D01*
X91938588Y-68277832D01*
X91641037Y-68401082D01*
X91373248Y-68580013D01*
X91145513Y-68807748D01*
X90966582Y-69075537D01*
X90960591Y-69090000D01*
X87750301Y-69090000D01*
X89157004Y-67683298D01*
X89186001Y-67659501D01*
X89212332Y-67627417D01*
X89280974Y-67543777D01*
X89351546Y-67411747D01*
X89372217Y-67343603D01*
X89395003Y-67268486D01*
X89406000Y-67156833D01*
X89406000Y-67156824D01*
X89409676Y-67119501D01*
X89406000Y-67082178D01*
X89406000Y-65325413D01*
X91459692Y-65325413D01*
X91555456Y-65589814D01*
X91845071Y-65730704D01*
X92156608Y-65812384D01*
X92478095Y-65831718D01*
X92797175Y-65787961D01*
X93101588Y-65682795D01*
X93275544Y-65589814D01*
X93371308Y-65325413D01*
X92415500Y-64369605D01*
X91459692Y-65325413D01*
X89406000Y-65325413D01*
X89406000Y-64252595D01*
X90773782Y-64252595D01*
X90817539Y-64571675D01*
X90922705Y-64876088D01*
X91015686Y-65050044D01*
X91280087Y-65145808D01*
X92235895Y-64190000D01*
X92595105Y-64190000D01*
X93550913Y-65145808D01*
X93815314Y-65050044D01*
X93956204Y-64760429D01*
X94037884Y-64448892D01*
X94057218Y-64127405D01*
X94013461Y-63808325D01*
X93908295Y-63503912D01*
X93815314Y-63329956D01*
X93550913Y-63234192D01*
X92595105Y-64190000D01*
X92235895Y-64190000D01*
X91280087Y-63234192D01*
X91015686Y-63329956D01*
X90874796Y-63619571D01*
X90793116Y-63931108D01*
X90773782Y-64252595D01*
X89406000Y-64252595D01*
X89406000Y-63054587D01*
X91459692Y-63054587D01*
X92415500Y-64010395D01*
X93371308Y-63054587D01*
X93275544Y-62790186D01*
X92985929Y-62649296D01*
X92674392Y-62567616D01*
X92352905Y-62548282D01*
X92033825Y-62592039D01*
X91729412Y-62697205D01*
X91555456Y-62790186D01*
X91459692Y-63054587D01*
X89406000Y-63054587D01*
X89406000Y-59528967D01*
X90780500Y-59528967D01*
X90780500Y-59851033D01*
X90843332Y-60166912D01*
X90966582Y-60464463D01*
X91145513Y-60732252D01*
X91373248Y-60959987D01*
X91641037Y-61138918D01*
X91938588Y-61262168D01*
X92254467Y-61325000D01*
X92576533Y-61325000D01*
X92892412Y-61262168D01*
X93189963Y-61138918D01*
X93457752Y-60959987D01*
X93685487Y-60732252D01*
X93864418Y-60464463D01*
X93987668Y-60166912D01*
X94050500Y-59851033D01*
X94050500Y-59528967D01*
X93987668Y-59213088D01*
X93864418Y-58915537D01*
X93685487Y-58647748D01*
X93457752Y-58420013D01*
X93189963Y-58241082D01*
X92892412Y-58117832D01*
X92576533Y-58055000D01*
X92254467Y-58055000D01*
X91938588Y-58117832D01*
X91641037Y-58241082D01*
X91373248Y-58420013D01*
X91145513Y-58647748D01*
X90966582Y-58915537D01*
X90843332Y-59213088D01*
X90780500Y-59528967D01*
X89406000Y-59528967D01*
X89406000Y-57083801D01*
X93659802Y-52830000D01*
X93971822Y-52830000D01*
X94096525Y-53016632D01*
X94303368Y-53223475D01*
X94546589Y-53385990D01*
X94816842Y-53497932D01*
X95103740Y-53555000D01*
X95396260Y-53555000D01*
X95683158Y-53497932D01*
X95953411Y-53385990D01*
X96196632Y-53223475D01*
X96403475Y-53016632D01*
X96565990Y-52773411D01*
X96677932Y-52503158D01*
X96735000Y-52216260D01*
X96735000Y-51923740D01*
X96677932Y-51636842D01*
X96565990Y-51366589D01*
X96403475Y-51123368D01*
X96196632Y-50916525D01*
X96022240Y-50800000D01*
X96196632Y-50683475D01*
X96403475Y-50476632D01*
X96565990Y-50233411D01*
X96677932Y-49963158D01*
X96735000Y-49676260D01*
X96735000Y-49383740D01*
X96677932Y-49096842D01*
X96565990Y-48826589D01*
X96403475Y-48583368D01*
X96196632Y-48376525D01*
X96014466Y-48254805D01*
X96131355Y-48185178D01*
X96347588Y-47990269D01*
X96521641Y-47756920D01*
X96646825Y-47494099D01*
X96691476Y-47346890D01*
X96570155Y-47117000D01*
X95377000Y-47117000D01*
X95377000Y-47137000D01*
X95123000Y-47137000D01*
X95123000Y-47117000D01*
X93929845Y-47117000D01*
X93808524Y-47346890D01*
X93853175Y-47494099D01*
X93978359Y-47756920D01*
X94152412Y-47990269D01*
X94368645Y-48185178D01*
X94485534Y-48254805D01*
X94303368Y-48376525D01*
X94096525Y-48583368D01*
X93971822Y-48770000D01*
X88777325Y-48770000D01*
X88740002Y-48766324D01*
X88702679Y-48770000D01*
X88702669Y-48770000D01*
X88591016Y-48780997D01*
X88447755Y-48824454D01*
X88315726Y-48895026D01*
X88200001Y-48989999D01*
X88176203Y-49018997D01*
X83058978Y-54136222D01*
X82902637Y-53902241D01*
X82702759Y-53702363D01*
X82673000Y-53682479D01*
X82673000Y-44435578D01*
X83106506Y-44002072D01*
X84893000Y-44002072D01*
X85017482Y-43989812D01*
X85137180Y-43953502D01*
X85247494Y-43894537D01*
X85344185Y-43815185D01*
X85423537Y-43718494D01*
X85482502Y-43608180D01*
X85518812Y-43488482D01*
X85531072Y-43364000D01*
X85531072Y-42160000D01*
X91708422Y-42160000D01*
X93779461Y-44231040D01*
X93765000Y-44303740D01*
X93765000Y-44596260D01*
X93822068Y-44883158D01*
X93934010Y-45153411D01*
X94096525Y-45396632D01*
X94303368Y-45603475D01*
X94485534Y-45725195D01*
X94368645Y-45794822D01*
X94152412Y-45989731D01*
X93978359Y-46223080D01*
X93853175Y-46485901D01*
X93808524Y-46633110D01*
X93929845Y-46863000D01*
X95123000Y-46863000D01*
X95123000Y-46843000D01*
X95377000Y-46843000D01*
X95377000Y-46863000D01*
X96570155Y-46863000D01*
X96691476Y-46633110D01*
X96646825Y-46485901D01*
X96521641Y-46223080D01*
X96347588Y-45989731D01*
X96131355Y-45794822D01*
X96014466Y-45725195D01*
X96196632Y-45603475D01*
X96403475Y-45396632D01*
X96565990Y-45153411D01*
X96677932Y-44883158D01*
X96735000Y-44596260D01*
X96735000Y-44303740D01*
X96677932Y-44016842D01*
X96565990Y-43746589D01*
X96403475Y-43503368D01*
X96271620Y-43371513D01*
X96344180Y-43349502D01*
X96454494Y-43290537D01*
X96551185Y-43211185D01*
X96630537Y-43114494D01*
X96689502Y-43004180D01*
X96725812Y-42884482D01*
X96738072Y-42760000D01*
X96738072Y-41060000D01*
X96725812Y-40935518D01*
X96689502Y-40815820D01*
X96630537Y-40705506D01*
X96551185Y-40608815D01*
X96454494Y-40529463D01*
X96344180Y-40470498D01*
X96224482Y-40434188D01*
X96100000Y-40421928D01*
X94836729Y-40421928D01*
X94542803Y-40128002D01*
X94519000Y-40098998D01*
X94403275Y-40004025D01*
X94271246Y-39933453D01*
X94127985Y-39889996D01*
X94016332Y-39878999D01*
X94016321Y-39878999D01*
X93978999Y-39875323D01*
X93941677Y-39878999D01*
X82228801Y-39878999D01*
X80791782Y-38441980D01*
X82594626Y-38441980D01*
X82714514Y-38726836D01*
X83038210Y-38887699D01*
X83387069Y-38982322D01*
X83747684Y-39007067D01*
X84106198Y-38960985D01*
X84448833Y-38845846D01*
X84671486Y-38726836D01*
X84791374Y-38441980D01*
X83693000Y-37343605D01*
X82594626Y-38441980D01*
X80791782Y-38441980D01*
X79568486Y-37218684D01*
X81849933Y-37218684D01*
X81896015Y-37577198D01*
X82011154Y-37919833D01*
X82130164Y-38142486D01*
X82415020Y-38262374D01*
X83513395Y-37164000D01*
X83872605Y-37164000D01*
X84970980Y-38262374D01*
X85255836Y-38142486D01*
X85416699Y-37818790D01*
X85511322Y-37469931D01*
X85536067Y-37109316D01*
X85489985Y-36750802D01*
X85374846Y-36408167D01*
X85255836Y-36185514D01*
X84970980Y-36065626D01*
X83872605Y-37164000D01*
X83513395Y-37164000D01*
X82415020Y-36065626D01*
X82130164Y-36185514D01*
X81969301Y-36509210D01*
X81874678Y-36858069D01*
X81849933Y-37218684D01*
X79568486Y-37218684D01*
X78913803Y-36564002D01*
X78890000Y-36534998D01*
X78774275Y-36440025D01*
X78642246Y-36369453D01*
X78498985Y-36325996D01*
X78387332Y-36314999D01*
X78387321Y-36314999D01*
X78349999Y-36311323D01*
X78312677Y-36314999D01*
X70912323Y-36314999D01*
X70875000Y-36311323D01*
X70837677Y-36314999D01*
X70837668Y-36314999D01*
X70726015Y-36325996D01*
X70582754Y-36369453D01*
X70450725Y-36440025D01*
X70335000Y-36534998D01*
X70311202Y-36563996D01*
X70088843Y-36786355D01*
X69981486Y-36765000D01*
X69718514Y-36765000D01*
X69460595Y-36816304D01*
X69217641Y-36916939D01*
X68998987Y-37063038D01*
X68813038Y-37248987D01*
X68666939Y-37467641D01*
X68566304Y-37710595D01*
X68515000Y-37968514D01*
X68515000Y-38231486D01*
X68566304Y-38489405D01*
X68666939Y-38732359D01*
X68813038Y-38951013D01*
X68998987Y-39136962D01*
X69090000Y-39197775D01*
X69090001Y-43739956D01*
X68935241Y-43843363D01*
X68735363Y-44043241D01*
X68578320Y-44278273D01*
X68470147Y-44539426D01*
X68415000Y-44816665D01*
X68415000Y-45099335D01*
X68470147Y-45376574D01*
X68578320Y-45637727D01*
X68735363Y-45872759D01*
X68935241Y-46072637D01*
X69090001Y-46176044D01*
X69090000Y-46781225D01*
X68998987Y-46842038D01*
X68813038Y-47027987D01*
X68666939Y-47246641D01*
X68566304Y-47489595D01*
X68515000Y-47747514D01*
X68515000Y-48010486D01*
X68566304Y-48268405D01*
X68666939Y-48511359D01*
X68813038Y-48730013D01*
X68998987Y-48915962D01*
X69217641Y-49062061D01*
X69427530Y-49149000D01*
X69217641Y-49235939D01*
X68998987Y-49382038D01*
X68813038Y-49567987D01*
X68666939Y-49786641D01*
X68566304Y-50029595D01*
X68515000Y-50287514D01*
X68515000Y-50550486D01*
X68566304Y-50808405D01*
X68666939Y-51051359D01*
X68813038Y-51270013D01*
X68998987Y-51455962D01*
X69090001Y-51516775D01*
X69090000Y-52001687D01*
X68871495Y-52147688D01*
X68657688Y-52361495D01*
X68580000Y-52477763D01*
X68502312Y-52361495D01*
X68288505Y-52147688D01*
X68070000Y-52001687D01*
X68070000Y-40042333D01*
X68073677Y-40005000D01*
X68059003Y-39856014D01*
X68015546Y-39712753D01*
X67944974Y-39580724D01*
X67873799Y-39493997D01*
X67850001Y-39464999D01*
X67821003Y-39441201D01*
X65956645Y-37576844D01*
X65978000Y-37469486D01*
X65978000Y-37206514D01*
X65926696Y-36948595D01*
X65826061Y-36705641D01*
X65679962Y-36486987D01*
X65494013Y-36301038D01*
X65275359Y-36154939D01*
X65032405Y-36054304D01*
X64774486Y-36003000D01*
X64511514Y-36003000D01*
X64253595Y-36054304D01*
X64010641Y-36154939D01*
X63791987Y-36301038D01*
X63606038Y-36486987D01*
X63459939Y-36705641D01*
X63373000Y-36915530D01*
X63286061Y-36705641D01*
X63139962Y-36486987D01*
X62954013Y-36301038D01*
X62735359Y-36154939D01*
X62492405Y-36054304D01*
X62234486Y-36003000D01*
X61971514Y-36003000D01*
X61713595Y-36054304D01*
X61470641Y-36154939D01*
X61251987Y-36301038D01*
X61066038Y-36486987D01*
X61005225Y-36578000D01*
X60312072Y-36578000D01*
X60312072Y-36338000D01*
X60299812Y-36213518D01*
X60263502Y-36093820D01*
X60204537Y-35983506D01*
X60125185Y-35886815D01*
X60124217Y-35886020D01*
X82594626Y-35886020D01*
X83693000Y-36984395D01*
X84791374Y-35886020D01*
X84671486Y-35601164D01*
X84347790Y-35440301D01*
X83998931Y-35345678D01*
X83914319Y-35339872D01*
X93396000Y-35339872D01*
X93396000Y-35780128D01*
X93481890Y-36211925D01*
X93650369Y-36618669D01*
X93894962Y-36984729D01*
X94206271Y-37296038D01*
X94572331Y-37540631D01*
X94979075Y-37709110D01*
X95410872Y-37795000D01*
X95851128Y-37795000D01*
X96282925Y-37709110D01*
X96689669Y-37540631D01*
X97055729Y-37296038D01*
X97367038Y-36984729D01*
X97611631Y-36618669D01*
X97780110Y-36211925D01*
X97866000Y-35780128D01*
X97866000Y-35339872D01*
X97780110Y-34908075D01*
X97611631Y-34501331D01*
X97367038Y-34135271D01*
X97055729Y-33823962D01*
X96689669Y-33579369D01*
X96282925Y-33410890D01*
X95851128Y-33325000D01*
X95410872Y-33325000D01*
X94979075Y-33410890D01*
X94572331Y-33579369D01*
X94206271Y-33823962D01*
X93894962Y-34135271D01*
X93650369Y-34501331D01*
X93481890Y-34908075D01*
X93396000Y-35339872D01*
X83914319Y-35339872D01*
X83638316Y-35320933D01*
X83279802Y-35367015D01*
X82937167Y-35482154D01*
X82714514Y-35601164D01*
X82594626Y-35886020D01*
X60124217Y-35886020D01*
X60091635Y-35859281D01*
X60122918Y-35812463D01*
X60246168Y-35514912D01*
X60309000Y-35199033D01*
X60309000Y-34876967D01*
X60246168Y-34561088D01*
X60122918Y-34263537D01*
X59943987Y-33995748D01*
X59841399Y-33893160D01*
X59925083Y-33809475D01*
X59809415Y-33693807D01*
X60073814Y-33598044D01*
X60214704Y-33308429D01*
X60296384Y-32996892D01*
X60315718Y-32675405D01*
X60271961Y-32356325D01*
X60166795Y-32051912D01*
X60073814Y-31877956D01*
X59809413Y-31782192D01*
X58853605Y-32738000D01*
X58867748Y-32752143D01*
X58688143Y-32931748D01*
X58674000Y-32917605D01*
X58659858Y-32931748D01*
X58480253Y-32752143D01*
X58494395Y-32738000D01*
X57538587Y-31782192D01*
X57274186Y-31877956D01*
X57133296Y-32167571D01*
X57051616Y-32479108D01*
X57032282Y-32800595D01*
X57076039Y-33119675D01*
X57144362Y-33317443D01*
X56337782Y-32510864D01*
X56302236Y-32467551D01*
X56129410Y-32325716D01*
X55932234Y-32220324D01*
X55718286Y-32155423D01*
X55551539Y-32139000D01*
X55551538Y-32139000D01*
X55495787Y-32133509D01*
X55440036Y-32139000D01*
X48463107Y-32139000D01*
X48444632Y-32120525D01*
X48201411Y-31958010D01*
X47931158Y-31846068D01*
X47644260Y-31789000D01*
X47351740Y-31789000D01*
X47064842Y-31846068D01*
X46794589Y-31958010D01*
X46551368Y-32120525D01*
X46536893Y-32135000D01*
X44818072Y-32135000D01*
X44818072Y-32020000D01*
X44805812Y-31895518D01*
X44769502Y-31775820D01*
X44710537Y-31665506D01*
X44658901Y-31602587D01*
X57718192Y-31602587D01*
X58674000Y-32558395D01*
X59629808Y-31602587D01*
X59534044Y-31338186D01*
X59244429Y-31197296D01*
X58932892Y-31115616D01*
X58611405Y-31096282D01*
X58292325Y-31140039D01*
X57987912Y-31245205D01*
X57813956Y-31338186D01*
X57718192Y-31602587D01*
X44658901Y-31602587D01*
X44631185Y-31568815D01*
X44534494Y-31489463D01*
X44424180Y-31430498D01*
X44304482Y-31394188D01*
X44180000Y-31381928D01*
X42180000Y-31381928D01*
X42055518Y-31394188D01*
X41935820Y-31430498D01*
X41825506Y-31489463D01*
X41728815Y-31568815D01*
X41649463Y-31665506D01*
X41590498Y-31775820D01*
X41554188Y-31895518D01*
X41541928Y-32020000D01*
X41541928Y-34020000D01*
X41554188Y-34144482D01*
X41590498Y-34264180D01*
X41649463Y-34374494D01*
X41728815Y-34471185D01*
X41825506Y-34550537D01*
X41871630Y-34575191D01*
X41731082Y-34785537D01*
X41607832Y-35083088D01*
X41545000Y-35398967D01*
X41545000Y-35721033D01*
X41607832Y-36036912D01*
X41731082Y-36334463D01*
X41910013Y-36602252D01*
X42137748Y-36829987D01*
X42405537Y-37008918D01*
X42703088Y-37132168D01*
X43018967Y-37195000D01*
X43341033Y-37195000D01*
X43656912Y-37132168D01*
X43954463Y-37008918D01*
X44222252Y-36829987D01*
X44353239Y-36699000D01*
X46013375Y-36699000D01*
X46022188Y-36788482D01*
X46058498Y-36908180D01*
X46117463Y-37018494D01*
X46196815Y-37115185D01*
X46293506Y-37194537D01*
X46363001Y-37231683D01*
X46363000Y-39299043D01*
X46343506Y-39309463D01*
X46246815Y-39388815D01*
X46233210Y-39405393D01*
X46177727Y-39368320D01*
X45916574Y-39260147D01*
X45639335Y-39205000D01*
X45356665Y-39205000D01*
X45079426Y-39260147D01*
X44818273Y-39368320D01*
X44583241Y-39525363D01*
X44383363Y-39725241D01*
X44226320Y-39960273D01*
X44118147Y-40221426D01*
X44063000Y-40498665D01*
X44063000Y-40781335D01*
X44118147Y-41058574D01*
X44226320Y-41319727D01*
X44383363Y-41554759D01*
X44583241Y-41754637D01*
X44818273Y-41911680D01*
X45079426Y-42019853D01*
X45356665Y-42075000D01*
X45639335Y-42075000D01*
X45916574Y-42019853D01*
X46177727Y-41911680D01*
X46233210Y-41874607D01*
X46246815Y-41891185D01*
X46343506Y-41970537D01*
X46363000Y-41980957D01*
X46363000Y-43471868D01*
X42216759Y-47618109D01*
X42100581Y-47595000D01*
X41719419Y-47595000D01*
X41345581Y-47669361D01*
X41314015Y-47682436D01*
X38756534Y-45124956D01*
X38728817Y-45091183D01*
X38594059Y-44980589D01*
X38440313Y-44898411D01*
X38273490Y-44847805D01*
X38260839Y-44846559D01*
X38255812Y-44795518D01*
X38219502Y-44675820D01*
X38160537Y-44565506D01*
X38081185Y-44468815D01*
X37984494Y-44389463D01*
X37874180Y-44330498D01*
X37754482Y-44294188D01*
X37630000Y-44281928D01*
X37622785Y-44281928D01*
X37643097Y-44212702D01*
X36830000Y-43399605D01*
X36016903Y-44212702D01*
X36037215Y-44281928D01*
X36030000Y-44281928D01*
X35905518Y-44294188D01*
X35785820Y-44330498D01*
X35675506Y-44389463D01*
X35578815Y-44468815D01*
X35499463Y-44565506D01*
X35440498Y-44675820D01*
X35404188Y-44795518D01*
X35391928Y-44920000D01*
X35391928Y-46520000D01*
X35404188Y-46644482D01*
X35440498Y-46764180D01*
X35499463Y-46874494D01*
X35578815Y-46971185D01*
X35675506Y-47050537D01*
X35785820Y-47109502D01*
X35905518Y-47145812D01*
X36030000Y-47158072D01*
X37630000Y-47158072D01*
X37754482Y-47145812D01*
X37874180Y-47109502D01*
X37984494Y-47050537D01*
X38081185Y-46971185D01*
X38089489Y-46961067D01*
X40062436Y-48934015D01*
X40049361Y-48965581D01*
X39975000Y-49339419D01*
X39975000Y-49665000D01*
X35707683Y-49665000D01*
X35670537Y-49595506D01*
X35591185Y-49498815D01*
X35494494Y-49419463D01*
X35384180Y-49360498D01*
X35264482Y-49324188D01*
X35140000Y-49311928D01*
X33440000Y-49311928D01*
X33315518Y-49324188D01*
X33195820Y-49360498D01*
X33085506Y-49419463D01*
X32988815Y-49498815D01*
X32909463Y-49595506D01*
X32850498Y-49705820D01*
X32814188Y-49825518D01*
X32801928Y-49950000D01*
X31710000Y-49950000D01*
X31710000Y-43290512D01*
X35389783Y-43290512D01*
X35431213Y-43570130D01*
X35526397Y-43836292D01*
X35593329Y-43961514D01*
X35837298Y-44033097D01*
X36650395Y-43220000D01*
X37009605Y-43220000D01*
X37822702Y-44033097D01*
X38066671Y-43961514D01*
X38187571Y-43706004D01*
X38256300Y-43431816D01*
X38270217Y-43149488D01*
X38228787Y-42869870D01*
X38133603Y-42603708D01*
X38066671Y-42478486D01*
X37822702Y-42406903D01*
X37009605Y-43220000D01*
X36650395Y-43220000D01*
X35837298Y-42406903D01*
X35593329Y-42478486D01*
X35472429Y-42733996D01*
X35403700Y-43008184D01*
X35389783Y-43290512D01*
X31710000Y-43290512D01*
X31710000Y-42227298D01*
X36016903Y-42227298D01*
X36830000Y-43040395D01*
X37643097Y-42227298D01*
X37571514Y-41983329D01*
X37316004Y-41862429D01*
X37041816Y-41793700D01*
X36759488Y-41779783D01*
X36479870Y-41821213D01*
X36213708Y-41916397D01*
X36088486Y-41983329D01*
X36016903Y-42227298D01*
X31710000Y-42227298D01*
X31710000Y-40022313D01*
X31784647Y-38835830D01*
X32003222Y-37690019D01*
X32363682Y-36580638D01*
X32860339Y-35525187D01*
X32977943Y-35339872D01*
X34087000Y-35339872D01*
X34087000Y-35780128D01*
X34172890Y-36211925D01*
X34341369Y-36618669D01*
X34585962Y-36984729D01*
X34897271Y-37296038D01*
X35263331Y-37540631D01*
X35670075Y-37709110D01*
X36101872Y-37795000D01*
X36542128Y-37795000D01*
X36973925Y-37709110D01*
X37380669Y-37540631D01*
X37746729Y-37296038D01*
X38058038Y-36984729D01*
X38302631Y-36618669D01*
X38471110Y-36211925D01*
X38557000Y-35780128D01*
X38557000Y-35339872D01*
X38471110Y-34908075D01*
X38302631Y-34501331D01*
X38058038Y-34135271D01*
X37746729Y-33823962D01*
X37380669Y-33579369D01*
X36973925Y-33410890D01*
X36542128Y-33325000D01*
X36101872Y-33325000D01*
X35670075Y-33410890D01*
X35263331Y-33579369D01*
X34897271Y-33823962D01*
X34585962Y-34135271D01*
X34341369Y-34501331D01*
X34172890Y-34908075D01*
X34087000Y-35339872D01*
X32977943Y-35339872D01*
X33485370Y-34540297D01*
X34228903Y-33641520D01*
X35079228Y-32843013D01*
X36022922Y-32157379D01*
X37045110Y-31595425D01*
X38129662Y-31166021D01*
X39259494Y-30875929D01*
X40427864Y-30728331D01*
X41011165Y-30710000D01*
X90977687Y-30710000D01*
X92164170Y-30784647D01*
G37*
G04 #@! TD.AperFunction*
D32*
X44608995Y-71781727D02*
X44761880Y-72010535D01*
X44956465Y-72205120D01*
X45185273Y-72358005D01*
X45439510Y-72463314D01*
X45709408Y-72517000D01*
X45984592Y-72517000D01*
X46254490Y-72463314D01*
X46508727Y-72358005D01*
X46737535Y-72205120D01*
X46932120Y-72010535D01*
X47085005Y-71781727D01*
X47117000Y-71704485D01*
X47148995Y-71781727D01*
X47301880Y-72010535D01*
X47496465Y-72205120D01*
X47725273Y-72358005D01*
X47979510Y-72463314D01*
X48249408Y-72517000D01*
X48524592Y-72517000D01*
X48678570Y-72486372D01*
X49347205Y-73155008D01*
X49370999Y-73184001D01*
X49399992Y-73207795D01*
X49399996Y-73207799D01*
X49470685Y-73265811D01*
X49486724Y-73278974D01*
X49618753Y-73349546D01*
X49762014Y-73393003D01*
X49873667Y-73404000D01*
X49873676Y-73404000D01*
X49910999Y-73407676D01*
X49948322Y-73404000D01*
X59525678Y-73404000D01*
X59563000Y-73407676D01*
X59600322Y-73404000D01*
X59600333Y-73404000D01*
X59711986Y-73393003D01*
X59855247Y-73349546D01*
X59987276Y-73278974D01*
X60103001Y-73184001D01*
X60126803Y-73154998D01*
X60795430Y-72486372D01*
X60949408Y-72517000D01*
X61224592Y-72517000D01*
X61378571Y-72486372D01*
X64501928Y-75609729D01*
X64501928Y-77100000D01*
X64514188Y-77224482D01*
X64550498Y-77344180D01*
X64609463Y-77454494D01*
X64688815Y-77551185D01*
X64785506Y-77630537D01*
X64895820Y-77689502D01*
X65015518Y-77725812D01*
X65140000Y-77738072D01*
X66630270Y-77738072D01*
X68637198Y-79745000D01*
X68428816Y-79745000D01*
X68132257Y-79803989D01*
X67852905Y-79919701D01*
X67601495Y-80087688D01*
X67535056Y-80154127D01*
X67529502Y-80135820D01*
X67470537Y-80025506D01*
X67391185Y-79928815D01*
X67294494Y-79849463D01*
X67184180Y-79790498D01*
X67064482Y-79754188D01*
X66940000Y-79741928D01*
X65140000Y-79741928D01*
X65015518Y-79754188D01*
X64895820Y-79790498D01*
X64785506Y-79849463D01*
X64688815Y-79928815D01*
X64609463Y-80025506D01*
X64550498Y-80135820D01*
X64514188Y-80255518D01*
X64501928Y-80380000D01*
X64501928Y-80520000D01*
X61124323Y-80520000D01*
X61087000Y-80516324D01*
X61049677Y-80520000D01*
X61049667Y-80520000D01*
X60938014Y-80530997D01*
X60796912Y-80573799D01*
X60794753Y-80574454D01*
X60662723Y-80645026D01*
X60615268Y-80683972D01*
X60546999Y-80739999D01*
X60523201Y-80768997D01*
X59982000Y-81310198D01*
X59982000Y-81185665D01*
X59926853Y-80908426D01*
X59818680Y-80647273D01*
X59661637Y-80412241D01*
X59461759Y-80212363D01*
X59226727Y-80055320D01*
X58965574Y-79947147D01*
X58688335Y-79892000D01*
X58405665Y-79892000D01*
X58128426Y-79947147D01*
X57867273Y-80055320D01*
X57632241Y-80212363D01*
X57432363Y-80412241D01*
X57275320Y-80647273D01*
X57167147Y-80908426D01*
X57112000Y-81185665D01*
X57112000Y-81468335D01*
X57167147Y-81745574D01*
X57275320Y-82006727D01*
X57432363Y-82241759D01*
X57632241Y-82441637D01*
X57867273Y-82598680D01*
X58128426Y-82706853D01*
X58405665Y-82762000D01*
X58530198Y-82762000D01*
X56298571Y-84993628D01*
X56144592Y-84963000D01*
X55869408Y-84963000D01*
X55715429Y-84993628D01*
X55483803Y-84762002D01*
X55460000Y-84732998D01*
X55344275Y-84638025D01*
X55212246Y-84567453D01*
X55068985Y-84523996D01*
X54957332Y-84512999D01*
X54957321Y-84512999D01*
X54919999Y-84509323D01*
X54882677Y-84512999D01*
X53331211Y-84512999D01*
X53074198Y-84255987D01*
X53050402Y-84226991D01*
X53003501Y-84188500D01*
X52934677Y-84132017D01*
X52802647Y-84061445D01*
X52702843Y-84031171D01*
X52659387Y-84017989D01*
X52547734Y-84006992D01*
X52510401Y-84003315D01*
X52473069Y-84006992D01*
X44949792Y-84006990D01*
X40257000Y-79314199D01*
X40257000Y-77319702D01*
X57733903Y-77319702D01*
X57805486Y-77563671D01*
X58060996Y-77684571D01*
X58335184Y-77753300D01*
X58617512Y-77767217D01*
X58897130Y-77725787D01*
X59163292Y-77630603D01*
X59288514Y-77563671D01*
X59360097Y-77319702D01*
X58547000Y-76506605D01*
X57733903Y-77319702D01*
X40257000Y-77319702D01*
X40257000Y-76397512D01*
X57106783Y-76397512D01*
X57148213Y-76677130D01*
X57243397Y-76943292D01*
X57310329Y-77068514D01*
X57554298Y-77140097D01*
X58367395Y-76327000D01*
X58726605Y-76327000D01*
X59539702Y-77140097D01*
X59783671Y-77068514D01*
X59904571Y-76813004D01*
X59973300Y-76538816D01*
X59987217Y-76256488D01*
X59945787Y-75976870D01*
X59850603Y-75710708D01*
X59783671Y-75585486D01*
X59539702Y-75513903D01*
X58726605Y-76327000D01*
X58367395Y-76327000D01*
X57554298Y-75513903D01*
X57310329Y-75585486D01*
X57189429Y-75840996D01*
X57120700Y-76115184D01*
X57106783Y-76397512D01*
X40257000Y-76397512D01*
X40257000Y-75334298D01*
X57733903Y-75334298D01*
X58547000Y-76147395D01*
X59360097Y-75334298D01*
X59288514Y-75090329D01*
X59033004Y-74969429D01*
X58758816Y-74900700D01*
X58476488Y-74886783D01*
X58196870Y-74928213D01*
X57930708Y-75023397D01*
X57805486Y-75090329D01*
X57733903Y-75334298D01*
X40257000Y-75334298D01*
X40257000Y-74482801D01*
X42436462Y-72303340D01*
X42518273Y-72358005D01*
X42772510Y-72463314D01*
X43042408Y-72517000D01*
X43317592Y-72517000D01*
X43587490Y-72463314D01*
X43841727Y-72358005D01*
X44070535Y-72205120D01*
X44265120Y-72010535D01*
X44418005Y-71781727D01*
X44513500Y-71551183D01*
X44608995Y-71781727D01*
G04 #@! TA.AperFunction,Conductor*
D33*
G36*
X44608995Y-71781727D02*
G01*
X44761880Y-72010535D01*
X44956465Y-72205120D01*
X45185273Y-72358005D01*
X45439510Y-72463314D01*
X45709408Y-72517000D01*
X45984592Y-72517000D01*
X46254490Y-72463314D01*
X46508727Y-72358005D01*
X46737535Y-72205120D01*
X46932120Y-72010535D01*
X47085005Y-71781727D01*
X47117000Y-71704485D01*
X47148995Y-71781727D01*
X47301880Y-72010535D01*
X47496465Y-72205120D01*
X47725273Y-72358005D01*
X47979510Y-72463314D01*
X48249408Y-72517000D01*
X48524592Y-72517000D01*
X48678570Y-72486372D01*
X49347205Y-73155008D01*
X49370999Y-73184001D01*
X49399992Y-73207795D01*
X49399996Y-73207799D01*
X49470685Y-73265811D01*
X49486724Y-73278974D01*
X49618753Y-73349546D01*
X49762014Y-73393003D01*
X49873667Y-73404000D01*
X49873676Y-73404000D01*
X49910999Y-73407676D01*
X49948322Y-73404000D01*
X59525678Y-73404000D01*
X59563000Y-73407676D01*
X59600322Y-73404000D01*
X59600333Y-73404000D01*
X59711986Y-73393003D01*
X59855247Y-73349546D01*
X59987276Y-73278974D01*
X60103001Y-73184001D01*
X60126803Y-73154998D01*
X60795430Y-72486372D01*
X60949408Y-72517000D01*
X61224592Y-72517000D01*
X61378571Y-72486372D01*
X64501928Y-75609729D01*
X64501928Y-77100000D01*
X64514188Y-77224482D01*
X64550498Y-77344180D01*
X64609463Y-77454494D01*
X64688815Y-77551185D01*
X64785506Y-77630537D01*
X64895820Y-77689502D01*
X65015518Y-77725812D01*
X65140000Y-77738072D01*
X66630270Y-77738072D01*
X68637198Y-79745000D01*
X68428816Y-79745000D01*
X68132257Y-79803989D01*
X67852905Y-79919701D01*
X67601495Y-80087688D01*
X67535056Y-80154127D01*
X67529502Y-80135820D01*
X67470537Y-80025506D01*
X67391185Y-79928815D01*
X67294494Y-79849463D01*
X67184180Y-79790498D01*
X67064482Y-79754188D01*
X66940000Y-79741928D01*
X65140000Y-79741928D01*
X65015518Y-79754188D01*
X64895820Y-79790498D01*
X64785506Y-79849463D01*
X64688815Y-79928815D01*
X64609463Y-80025506D01*
X64550498Y-80135820D01*
X64514188Y-80255518D01*
X64501928Y-80380000D01*
X64501928Y-80520000D01*
X61124323Y-80520000D01*
X61087000Y-80516324D01*
X61049677Y-80520000D01*
X61049667Y-80520000D01*
X60938014Y-80530997D01*
X60796912Y-80573799D01*
X60794753Y-80574454D01*
X60662723Y-80645026D01*
X60615268Y-80683972D01*
X60546999Y-80739999D01*
X60523201Y-80768997D01*
X59982000Y-81310198D01*
X59982000Y-81185665D01*
X59926853Y-80908426D01*
X59818680Y-80647273D01*
X59661637Y-80412241D01*
X59461759Y-80212363D01*
X59226727Y-80055320D01*
X58965574Y-79947147D01*
X58688335Y-79892000D01*
X58405665Y-79892000D01*
X58128426Y-79947147D01*
X57867273Y-80055320D01*
X57632241Y-80212363D01*
X57432363Y-80412241D01*
X57275320Y-80647273D01*
X57167147Y-80908426D01*
X57112000Y-81185665D01*
X57112000Y-81468335D01*
X57167147Y-81745574D01*
X57275320Y-82006727D01*
X57432363Y-82241759D01*
X57632241Y-82441637D01*
X57867273Y-82598680D01*
X58128426Y-82706853D01*
X58405665Y-82762000D01*
X58530198Y-82762000D01*
X56298571Y-84993628D01*
X56144592Y-84963000D01*
X55869408Y-84963000D01*
X55715429Y-84993628D01*
X55483803Y-84762002D01*
X55460000Y-84732998D01*
X55344275Y-84638025D01*
X55212246Y-84567453D01*
X55068985Y-84523996D01*
X54957332Y-84512999D01*
X54957321Y-84512999D01*
X54919999Y-84509323D01*
X54882677Y-84512999D01*
X53331211Y-84512999D01*
X53074198Y-84255987D01*
X53050402Y-84226991D01*
X53003501Y-84188500D01*
X52934677Y-84132017D01*
X52802647Y-84061445D01*
X52702843Y-84031171D01*
X52659387Y-84017989D01*
X52547734Y-84006992D01*
X52510401Y-84003315D01*
X52473069Y-84006992D01*
X44949792Y-84006990D01*
X40257000Y-79314199D01*
X40257000Y-77319702D01*
X57733903Y-77319702D01*
X57805486Y-77563671D01*
X58060996Y-77684571D01*
X58335184Y-77753300D01*
X58617512Y-77767217D01*
X58897130Y-77725787D01*
X59163292Y-77630603D01*
X59288514Y-77563671D01*
X59360097Y-77319702D01*
X58547000Y-76506605D01*
X57733903Y-77319702D01*
X40257000Y-77319702D01*
X40257000Y-76397512D01*
X57106783Y-76397512D01*
X57148213Y-76677130D01*
X57243397Y-76943292D01*
X57310329Y-77068514D01*
X57554298Y-77140097D01*
X58367395Y-76327000D01*
X58726605Y-76327000D01*
X59539702Y-77140097D01*
X59783671Y-77068514D01*
X59904571Y-76813004D01*
X59973300Y-76538816D01*
X59987217Y-76256488D01*
X59945787Y-75976870D01*
X59850603Y-75710708D01*
X59783671Y-75585486D01*
X59539702Y-75513903D01*
X58726605Y-76327000D01*
X58367395Y-76327000D01*
X57554298Y-75513903D01*
X57310329Y-75585486D01*
X57189429Y-75840996D01*
X57120700Y-76115184D01*
X57106783Y-76397512D01*
X40257000Y-76397512D01*
X40257000Y-75334298D01*
X57733903Y-75334298D01*
X58547000Y-76147395D01*
X59360097Y-75334298D01*
X59288514Y-75090329D01*
X59033004Y-74969429D01*
X58758816Y-74900700D01*
X58476488Y-74886783D01*
X58196870Y-74928213D01*
X57930708Y-75023397D01*
X57805486Y-75090329D01*
X57733903Y-75334298D01*
X40257000Y-75334298D01*
X40257000Y-74482801D01*
X42436462Y-72303340D01*
X42518273Y-72358005D01*
X42772510Y-72463314D01*
X43042408Y-72517000D01*
X43317592Y-72517000D01*
X43587490Y-72463314D01*
X43841727Y-72358005D01*
X44070535Y-72205120D01*
X44265120Y-72010535D01*
X44418005Y-71781727D01*
X44513500Y-71551183D01*
X44608995Y-71781727D01*
G37*
G04 #@! TD.AperFunction*
D32*
X64501928Y-66940000D02*
X64514188Y-67064482D01*
X64550498Y-67184180D01*
X64609463Y-67294494D01*
X64688815Y-67391185D01*
X64785506Y-67470537D01*
X64895820Y-67529502D01*
X65015518Y-67565812D01*
X65140000Y-67578072D01*
X66940000Y-67578072D01*
X67064482Y-67565812D01*
X67184180Y-67529502D01*
X67294494Y-67470537D01*
X67391185Y-67391185D01*
X67470537Y-67294494D01*
X67529502Y-67184180D01*
X67535056Y-67165873D01*
X67601495Y-67232312D01*
X67820000Y-67378313D01*
X67820001Y-69781687D01*
X67601495Y-69927688D01*
X67535056Y-69994127D01*
X67529502Y-69975820D01*
X67470537Y-69865506D01*
X67391185Y-69768815D01*
X67294494Y-69689463D01*
X67184180Y-69630498D01*
X67064482Y-69594188D01*
X66940000Y-69581928D01*
X65140000Y-69581928D01*
X65015518Y-69594188D01*
X64895820Y-69630498D01*
X64785506Y-69689463D01*
X64688815Y-69768815D01*
X64609463Y-69865506D01*
X64550498Y-69975820D01*
X64514188Y-70095518D01*
X64501928Y-70220000D01*
X64501928Y-72020000D01*
X64514188Y-72144482D01*
X64550498Y-72264180D01*
X64609463Y-72374494D01*
X64688815Y-72471185D01*
X64785506Y-72550537D01*
X64895820Y-72609502D01*
X65015518Y-72645812D01*
X65140000Y-72658072D01*
X66940000Y-72658072D01*
X67064482Y-72645812D01*
X67184180Y-72609502D01*
X67294494Y-72550537D01*
X67391185Y-72471185D01*
X67470537Y-72374494D01*
X67529502Y-72264180D01*
X67535056Y-72245873D01*
X67601495Y-72312312D01*
X67820000Y-72458313D01*
X67820001Y-74861687D01*
X67601495Y-75007688D01*
X67535056Y-75074127D01*
X67529502Y-75055820D01*
X67470537Y-74945506D01*
X67391185Y-74848815D01*
X67294494Y-74769463D01*
X67184180Y-74710498D01*
X67064482Y-74674188D01*
X66940000Y-74661928D01*
X65703729Y-74661928D01*
X62453372Y-71411571D01*
X62484000Y-71257592D01*
X62484000Y-70982408D01*
X62430314Y-70712510D01*
X62325005Y-70458273D01*
X62172120Y-70229465D01*
X61977535Y-70034880D01*
X61748727Y-69881995D01*
X61494490Y-69776686D01*
X61224592Y-69723000D01*
X60949408Y-69723000D01*
X60679510Y-69776686D01*
X60425273Y-69881995D01*
X60196465Y-70034880D01*
X60001880Y-70229465D01*
X59848995Y-70458273D01*
X59817000Y-70535515D01*
X59785005Y-70458273D01*
X59632120Y-70229465D01*
X59437535Y-70034880D01*
X59208727Y-69881995D01*
X58954490Y-69776686D01*
X58684592Y-69723000D01*
X58478801Y-69723000D01*
X61401802Y-66800000D01*
X64501928Y-66800000D01*
X64501928Y-66940000D01*
G04 #@! TA.AperFunction,Conductor*
D33*
G36*
X64501928Y-66940000D02*
G01*
X64514188Y-67064482D01*
X64550498Y-67184180D01*
X64609463Y-67294494D01*
X64688815Y-67391185D01*
X64785506Y-67470537D01*
X64895820Y-67529502D01*
X65015518Y-67565812D01*
X65140000Y-67578072D01*
X66940000Y-67578072D01*
X67064482Y-67565812D01*
X67184180Y-67529502D01*
X67294494Y-67470537D01*
X67391185Y-67391185D01*
X67470537Y-67294494D01*
X67529502Y-67184180D01*
X67535056Y-67165873D01*
X67601495Y-67232312D01*
X67820000Y-67378313D01*
X67820001Y-69781687D01*
X67601495Y-69927688D01*
X67535056Y-69994127D01*
X67529502Y-69975820D01*
X67470537Y-69865506D01*
X67391185Y-69768815D01*
X67294494Y-69689463D01*
X67184180Y-69630498D01*
X67064482Y-69594188D01*
X66940000Y-69581928D01*
X65140000Y-69581928D01*
X65015518Y-69594188D01*
X64895820Y-69630498D01*
X64785506Y-69689463D01*
X64688815Y-69768815D01*
X64609463Y-69865506D01*
X64550498Y-69975820D01*
X64514188Y-70095518D01*
X64501928Y-70220000D01*
X64501928Y-72020000D01*
X64514188Y-72144482D01*
X64550498Y-72264180D01*
X64609463Y-72374494D01*
X64688815Y-72471185D01*
X64785506Y-72550537D01*
X64895820Y-72609502D01*
X65015518Y-72645812D01*
X65140000Y-72658072D01*
X66940000Y-72658072D01*
X67064482Y-72645812D01*
X67184180Y-72609502D01*
X67294494Y-72550537D01*
X67391185Y-72471185D01*
X67470537Y-72374494D01*
X67529502Y-72264180D01*
X67535056Y-72245873D01*
X67601495Y-72312312D01*
X67820000Y-72458313D01*
X67820001Y-74861687D01*
X67601495Y-75007688D01*
X67535056Y-75074127D01*
X67529502Y-75055820D01*
X67470537Y-74945506D01*
X67391185Y-74848815D01*
X67294494Y-74769463D01*
X67184180Y-74710498D01*
X67064482Y-74674188D01*
X66940000Y-74661928D01*
X65703729Y-74661928D01*
X62453372Y-71411571D01*
X62484000Y-71257592D01*
X62484000Y-70982408D01*
X62430314Y-70712510D01*
X62325005Y-70458273D01*
X62172120Y-70229465D01*
X61977535Y-70034880D01*
X61748727Y-69881995D01*
X61494490Y-69776686D01*
X61224592Y-69723000D01*
X60949408Y-69723000D01*
X60679510Y-69776686D01*
X60425273Y-69881995D01*
X60196465Y-70034880D01*
X60001880Y-70229465D01*
X59848995Y-70458273D01*
X59817000Y-70535515D01*
X59785005Y-70458273D01*
X59632120Y-70229465D01*
X59437535Y-70034880D01*
X59208727Y-69881995D01*
X58954490Y-69776686D01*
X58684592Y-69723000D01*
X58478801Y-69723000D01*
X61401802Y-66800000D01*
X64501928Y-66800000D01*
X64501928Y-66940000D01*
G37*
G04 #@! TD.AperFunction*
D32*
X94096525Y-50476632D02*
X94303368Y-50683475D01*
X94477760Y-50800000D01*
X94303368Y-50916525D01*
X94096525Y-51123368D01*
X93971822Y-51310000D01*
X93382333Y-51310000D01*
X93345000Y-51306323D01*
X93307667Y-51310000D01*
X93196014Y-51320997D01*
X93052753Y-51364454D01*
X92920724Y-51435026D01*
X92804999Y-51529999D01*
X92781201Y-51558997D01*
X88134998Y-56205201D01*
X88106000Y-56228999D01*
X88082202Y-56257997D01*
X88082201Y-56257998D01*
X88011026Y-56344724D01*
X87940454Y-56476754D01*
X87896998Y-56620015D01*
X87882324Y-56769000D01*
X87886001Y-56806332D01*
X87886000Y-66804698D01*
X86406876Y-68283823D01*
X86392412Y-68277832D01*
X86076533Y-68215000D01*
X85754467Y-68215000D01*
X85438588Y-68277832D01*
X85141037Y-68401082D01*
X84873248Y-68580013D01*
X84645513Y-68807748D01*
X84466582Y-69075537D01*
X84460591Y-69090000D01*
X79816802Y-69090000D01*
X76052215Y-65325413D01*
X84959692Y-65325413D01*
X85055456Y-65589814D01*
X85345071Y-65730704D01*
X85656608Y-65812384D01*
X85978095Y-65831718D01*
X86297175Y-65787961D01*
X86601588Y-65682795D01*
X86775544Y-65589814D01*
X86871308Y-65325413D01*
X85915500Y-64369605D01*
X84959692Y-65325413D01*
X76052215Y-65325413D01*
X74979397Y-64252595D01*
X84273782Y-64252595D01*
X84317539Y-64571675D01*
X84422705Y-64876088D01*
X84515686Y-65050044D01*
X84780087Y-65145808D01*
X85735895Y-64190000D01*
X86095105Y-64190000D01*
X87050913Y-65145808D01*
X87315314Y-65050044D01*
X87456204Y-64760429D01*
X87537884Y-64448892D01*
X87557218Y-64127405D01*
X87513461Y-63808325D01*
X87408295Y-63503912D01*
X87315314Y-63329956D01*
X87050913Y-63234192D01*
X86095105Y-64190000D01*
X85735895Y-64190000D01*
X84780087Y-63234192D01*
X84515686Y-63329956D01*
X84374796Y-63619571D01*
X84293116Y-63931108D01*
X84273782Y-64252595D01*
X74979397Y-64252595D01*
X73781389Y-63054587D01*
X84959692Y-63054587D01*
X85915500Y-64010395D01*
X86871308Y-63054587D01*
X86775544Y-62790186D01*
X86485929Y-62649296D01*
X86174392Y-62567616D01*
X85852905Y-62548282D01*
X85533825Y-62592039D01*
X85229412Y-62697205D01*
X85055456Y-62790186D01*
X84959692Y-63054587D01*
X73781389Y-63054587D01*
X73150000Y-62423199D01*
X73150000Y-62298313D01*
X73368505Y-62152312D01*
X73582312Y-61938505D01*
X73660000Y-61822237D01*
X73737688Y-61938505D01*
X73951495Y-62152312D01*
X74202905Y-62320299D01*
X74482257Y-62436011D01*
X74778816Y-62495000D01*
X75081184Y-62495000D01*
X75377743Y-62436011D01*
X75657095Y-62320299D01*
X75908505Y-62152312D01*
X76036737Y-62024080D01*
X76585525Y-62024080D01*
X76669208Y-62278261D01*
X76941775Y-62409158D01*
X77234642Y-62484365D01*
X77536553Y-62500991D01*
X77835907Y-62458397D01*
X78121199Y-62358222D01*
X78270792Y-62278261D01*
X78354475Y-62024080D01*
X77470000Y-61139605D01*
X76585525Y-62024080D01*
X76036737Y-62024080D01*
X76122312Y-61938505D01*
X76224951Y-61784895D01*
X76405920Y-61844475D01*
X77290395Y-60960000D01*
X77276253Y-60945858D01*
X77455858Y-60766253D01*
X77470000Y-60780395D01*
X77484143Y-60766253D01*
X77663748Y-60945858D01*
X77649605Y-60960000D01*
X78534080Y-61844475D01*
X78788261Y-61760792D01*
X78919158Y-61488225D01*
X78994365Y-61195358D01*
X79010991Y-60893447D01*
X78999076Y-60809702D01*
X80974903Y-60809702D01*
X81046486Y-61053671D01*
X81301996Y-61174571D01*
X81576184Y-61243300D01*
X81858512Y-61257217D01*
X82138130Y-61215787D01*
X82404292Y-61120603D01*
X82529514Y-61053671D01*
X82601097Y-60809702D01*
X81788000Y-59996605D01*
X80974903Y-60809702D01*
X78999076Y-60809702D01*
X78968397Y-60594093D01*
X78878008Y-60336672D01*
X78954250Y-60313545D01*
X79086279Y-60242973D01*
X79202004Y-60148000D01*
X79225807Y-60118996D01*
X79457291Y-59887512D01*
X80347783Y-59887512D01*
X80389213Y-60167130D01*
X80484397Y-60433292D01*
X80551329Y-60558514D01*
X80795298Y-60630097D01*
X81608395Y-59817000D01*
X81967605Y-59817000D01*
X82780702Y-60630097D01*
X83024671Y-60558514D01*
X83145571Y-60303004D01*
X83214300Y-60028816D01*
X83228217Y-59746488D01*
X83195988Y-59528967D01*
X84280500Y-59528967D01*
X84280500Y-59851033D01*
X84343332Y-60166912D01*
X84466582Y-60464463D01*
X84645513Y-60732252D01*
X84873248Y-60959987D01*
X85141037Y-61138918D01*
X85438588Y-61262168D01*
X85754467Y-61325000D01*
X86076533Y-61325000D01*
X86392412Y-61262168D01*
X86689963Y-61138918D01*
X86957752Y-60959987D01*
X87185487Y-60732252D01*
X87364418Y-60464463D01*
X87487668Y-60166912D01*
X87550500Y-59851033D01*
X87550500Y-59528967D01*
X87487668Y-59213088D01*
X87364418Y-58915537D01*
X87185487Y-58647748D01*
X86957752Y-58420013D01*
X86689963Y-58241082D01*
X86392412Y-58117832D01*
X86076533Y-58055000D01*
X85754467Y-58055000D01*
X85438588Y-58117832D01*
X85141037Y-58241082D01*
X84873248Y-58420013D01*
X84645513Y-58647748D01*
X84466582Y-58915537D01*
X84343332Y-59213088D01*
X84280500Y-59528967D01*
X83195988Y-59528967D01*
X83186787Y-59466870D01*
X83091603Y-59200708D01*
X83024671Y-59075486D01*
X82780702Y-59003903D01*
X81967605Y-59817000D01*
X81608395Y-59817000D01*
X80795298Y-59003903D01*
X80551329Y-59075486D01*
X80430429Y-59330996D01*
X80361700Y-59605184D01*
X80347783Y-59887512D01*
X79457291Y-59887512D01*
X80520505Y-58824298D01*
X80974903Y-58824298D01*
X81788000Y-59637395D01*
X82601097Y-58824298D01*
X82529514Y-58580329D01*
X82274004Y-58459429D01*
X81999816Y-58390700D01*
X81717488Y-58376783D01*
X81437870Y-58418213D01*
X81171708Y-58513397D01*
X81046486Y-58580329D01*
X80974903Y-58824298D01*
X80520505Y-58824298D01*
X89054804Y-50290000D01*
X93971822Y-50290000D01*
X94096525Y-50476632D01*
G04 #@! TA.AperFunction,Conductor*
D33*
G36*
X94096525Y-50476632D02*
G01*
X94303368Y-50683475D01*
X94477760Y-50800000D01*
X94303368Y-50916525D01*
X94096525Y-51123368D01*
X93971822Y-51310000D01*
X93382333Y-51310000D01*
X93345000Y-51306323D01*
X93307667Y-51310000D01*
X93196014Y-51320997D01*
X93052753Y-51364454D01*
X92920724Y-51435026D01*
X92804999Y-51529999D01*
X92781201Y-51558997D01*
X88134998Y-56205201D01*
X88106000Y-56228999D01*
X88082202Y-56257997D01*
X88082201Y-56257998D01*
X88011026Y-56344724D01*
X87940454Y-56476754D01*
X87896998Y-56620015D01*
X87882324Y-56769000D01*
X87886001Y-56806332D01*
X87886000Y-66804698D01*
X86406876Y-68283823D01*
X86392412Y-68277832D01*
X86076533Y-68215000D01*
X85754467Y-68215000D01*
X85438588Y-68277832D01*
X85141037Y-68401082D01*
X84873248Y-68580013D01*
X84645513Y-68807748D01*
X84466582Y-69075537D01*
X84460591Y-69090000D01*
X79816802Y-69090000D01*
X76052215Y-65325413D01*
X84959692Y-65325413D01*
X85055456Y-65589814D01*
X85345071Y-65730704D01*
X85656608Y-65812384D01*
X85978095Y-65831718D01*
X86297175Y-65787961D01*
X86601588Y-65682795D01*
X86775544Y-65589814D01*
X86871308Y-65325413D01*
X85915500Y-64369605D01*
X84959692Y-65325413D01*
X76052215Y-65325413D01*
X74979397Y-64252595D01*
X84273782Y-64252595D01*
X84317539Y-64571675D01*
X84422705Y-64876088D01*
X84515686Y-65050044D01*
X84780087Y-65145808D01*
X85735895Y-64190000D01*
X86095105Y-64190000D01*
X87050913Y-65145808D01*
X87315314Y-65050044D01*
X87456204Y-64760429D01*
X87537884Y-64448892D01*
X87557218Y-64127405D01*
X87513461Y-63808325D01*
X87408295Y-63503912D01*
X87315314Y-63329956D01*
X87050913Y-63234192D01*
X86095105Y-64190000D01*
X85735895Y-64190000D01*
X84780087Y-63234192D01*
X84515686Y-63329956D01*
X84374796Y-63619571D01*
X84293116Y-63931108D01*
X84273782Y-64252595D01*
X74979397Y-64252595D01*
X73781389Y-63054587D01*
X84959692Y-63054587D01*
X85915500Y-64010395D01*
X86871308Y-63054587D01*
X86775544Y-62790186D01*
X86485929Y-62649296D01*
X86174392Y-62567616D01*
X85852905Y-62548282D01*
X85533825Y-62592039D01*
X85229412Y-62697205D01*
X85055456Y-62790186D01*
X84959692Y-63054587D01*
X73781389Y-63054587D01*
X73150000Y-62423199D01*
X73150000Y-62298313D01*
X73368505Y-62152312D01*
X73582312Y-61938505D01*
X73660000Y-61822237D01*
X73737688Y-61938505D01*
X73951495Y-62152312D01*
X74202905Y-62320299D01*
X74482257Y-62436011D01*
X74778816Y-62495000D01*
X75081184Y-62495000D01*
X75377743Y-62436011D01*
X75657095Y-62320299D01*
X75908505Y-62152312D01*
X76036737Y-62024080D01*
X76585525Y-62024080D01*
X76669208Y-62278261D01*
X76941775Y-62409158D01*
X77234642Y-62484365D01*
X77536553Y-62500991D01*
X77835907Y-62458397D01*
X78121199Y-62358222D01*
X78270792Y-62278261D01*
X78354475Y-62024080D01*
X77470000Y-61139605D01*
X76585525Y-62024080D01*
X76036737Y-62024080D01*
X76122312Y-61938505D01*
X76224951Y-61784895D01*
X76405920Y-61844475D01*
X77290395Y-60960000D01*
X77276253Y-60945858D01*
X77455858Y-60766253D01*
X77470000Y-60780395D01*
X77484143Y-60766253D01*
X77663748Y-60945858D01*
X77649605Y-60960000D01*
X78534080Y-61844475D01*
X78788261Y-61760792D01*
X78919158Y-61488225D01*
X78994365Y-61195358D01*
X79010991Y-60893447D01*
X78999076Y-60809702D01*
X80974903Y-60809702D01*
X81046486Y-61053671D01*
X81301996Y-61174571D01*
X81576184Y-61243300D01*
X81858512Y-61257217D01*
X82138130Y-61215787D01*
X82404292Y-61120603D01*
X82529514Y-61053671D01*
X82601097Y-60809702D01*
X81788000Y-59996605D01*
X80974903Y-60809702D01*
X78999076Y-60809702D01*
X78968397Y-60594093D01*
X78878008Y-60336672D01*
X78954250Y-60313545D01*
X79086279Y-60242973D01*
X79202004Y-60148000D01*
X79225807Y-60118996D01*
X79457291Y-59887512D01*
X80347783Y-59887512D01*
X80389213Y-60167130D01*
X80484397Y-60433292D01*
X80551329Y-60558514D01*
X80795298Y-60630097D01*
X81608395Y-59817000D01*
X81967605Y-59817000D01*
X82780702Y-60630097D01*
X83024671Y-60558514D01*
X83145571Y-60303004D01*
X83214300Y-60028816D01*
X83228217Y-59746488D01*
X83195988Y-59528967D01*
X84280500Y-59528967D01*
X84280500Y-59851033D01*
X84343332Y-60166912D01*
X84466582Y-60464463D01*
X84645513Y-60732252D01*
X84873248Y-60959987D01*
X85141037Y-61138918D01*
X85438588Y-61262168D01*
X85754467Y-61325000D01*
X86076533Y-61325000D01*
X86392412Y-61262168D01*
X86689963Y-61138918D01*
X86957752Y-60959987D01*
X87185487Y-60732252D01*
X87364418Y-60464463D01*
X87487668Y-60166912D01*
X87550500Y-59851033D01*
X87550500Y-59528967D01*
X87487668Y-59213088D01*
X87364418Y-58915537D01*
X87185487Y-58647748D01*
X86957752Y-58420013D01*
X86689963Y-58241082D01*
X86392412Y-58117832D01*
X86076533Y-58055000D01*
X85754467Y-58055000D01*
X85438588Y-58117832D01*
X85141037Y-58241082D01*
X84873248Y-58420013D01*
X84645513Y-58647748D01*
X84466582Y-58915537D01*
X84343332Y-59213088D01*
X84280500Y-59528967D01*
X83195988Y-59528967D01*
X83186787Y-59466870D01*
X83091603Y-59200708D01*
X83024671Y-59075486D01*
X82780702Y-59003903D01*
X81967605Y-59817000D01*
X81608395Y-59817000D01*
X80795298Y-59003903D01*
X80551329Y-59075486D01*
X80430429Y-59330996D01*
X80361700Y-59605184D01*
X80347783Y-59887512D01*
X79457291Y-59887512D01*
X80520505Y-58824298D01*
X80974903Y-58824298D01*
X81788000Y-59637395D01*
X82601097Y-58824298D01*
X82529514Y-58580329D01*
X82274004Y-58459429D01*
X81999816Y-58390700D01*
X81717488Y-58376783D01*
X81437870Y-58418213D01*
X81171708Y-58513397D01*
X81046486Y-58580329D01*
X80974903Y-58824298D01*
X80520505Y-58824298D01*
X89054804Y-50290000D01*
X93971822Y-50290000D01*
X94096525Y-50476632D01*
G37*
G04 #@! TD.AperFunction*
D32*
X71206939Y-38732359D02*
X71353038Y-38951013D01*
X71538987Y-39136962D01*
X71757641Y-39283061D01*
X72000595Y-39383696D01*
X72258514Y-39435000D01*
X72521486Y-39435000D01*
X72779405Y-39383696D01*
X73022359Y-39283061D01*
X73241013Y-39136962D01*
X73392975Y-38985000D01*
X77562422Y-38985000D01*
X81336468Y-42759047D01*
X81364183Y-42792817D01*
X81397951Y-42820530D01*
X81397953Y-42820532D01*
X81475876Y-42884482D01*
X81498941Y-42903411D01*
X81631277Y-42974145D01*
X81192951Y-43412471D01*
X81159184Y-43440183D01*
X81131471Y-43473951D01*
X81131468Y-43473954D01*
X81048590Y-43574941D01*
X80966412Y-43728687D01*
X80915805Y-43895510D01*
X80898719Y-44069000D01*
X80903001Y-44112479D01*
X80903000Y-52680968D01*
X80805059Y-52600589D01*
X80651313Y-52518411D01*
X80484490Y-52467805D01*
X80354477Y-52455000D01*
X80354469Y-52455000D01*
X80311000Y-52450719D01*
X80267531Y-52455000D01*
X79008072Y-52455000D01*
X79008072Y-52440000D01*
X78995812Y-52315518D01*
X78959502Y-52195820D01*
X78900537Y-52085506D01*
X78821185Y-51988815D01*
X78724494Y-51909463D01*
X78614180Y-51850498D01*
X78494482Y-51814188D01*
X78370000Y-51801928D01*
X76570000Y-51801928D01*
X76445518Y-51814188D01*
X76325820Y-51850498D01*
X76215506Y-51909463D01*
X76118815Y-51988815D01*
X76039463Y-52085506D01*
X75980498Y-52195820D01*
X75974944Y-52214127D01*
X75908505Y-52147688D01*
X75690000Y-52001687D01*
X75690000Y-49539885D01*
X75767383Y-49353067D01*
X75811000Y-49133788D01*
X75811000Y-48910212D01*
X75767383Y-48690933D01*
X75681824Y-48484376D01*
X75557612Y-48298480D01*
X75436000Y-48176868D01*
X75436000Y-46116987D01*
X75602574Y-46083853D01*
X75863727Y-45975680D01*
X76098759Y-45818637D01*
X76298637Y-45618759D01*
X76455680Y-45383727D01*
X76563853Y-45122574D01*
X76619000Y-44845335D01*
X76619000Y-44562665D01*
X76563853Y-44285426D01*
X76455680Y-44024273D01*
X76298637Y-43789241D01*
X76098759Y-43589363D01*
X75898131Y-43455308D01*
X75925514Y-43440671D01*
X75997097Y-43196702D01*
X75184000Y-42383605D01*
X74370903Y-43196702D01*
X74442486Y-43440671D01*
X74471341Y-43454324D01*
X74269241Y-43589363D01*
X74069363Y-43789241D01*
X73912320Y-44024273D01*
X73804147Y-44285426D01*
X73787000Y-44371629D01*
X73769853Y-44285426D01*
X73661680Y-44024273D01*
X73504637Y-43789241D01*
X73304759Y-43589363D01*
X73104131Y-43455308D01*
X73131514Y-43440671D01*
X73203097Y-43196702D01*
X72390000Y-42383605D01*
X71576903Y-43196702D01*
X71648486Y-43440671D01*
X71677341Y-43454324D01*
X71475241Y-43589363D01*
X71275363Y-43789241D01*
X71118320Y-44024273D01*
X71054658Y-44177967D01*
X70964637Y-44043241D01*
X70764759Y-43843363D01*
X70610000Y-43739957D01*
X70610000Y-42274512D01*
X70949783Y-42274512D01*
X70991213Y-42554130D01*
X71086397Y-42820292D01*
X71153329Y-42945514D01*
X71397298Y-43017097D01*
X72210395Y-42204000D01*
X72569605Y-42204000D01*
X73382702Y-43017097D01*
X73626671Y-42945514D01*
X73747571Y-42690004D01*
X73783882Y-42545145D01*
X73785213Y-42554130D01*
X73880397Y-42820292D01*
X73947329Y-42945514D01*
X74191298Y-43017097D01*
X75004395Y-42204000D01*
X75363605Y-42204000D01*
X76176702Y-43017097D01*
X76420671Y-42945514D01*
X76541571Y-42690004D01*
X76610300Y-42415816D01*
X76624217Y-42133488D01*
X76582787Y-41853870D01*
X76487603Y-41587708D01*
X76420671Y-41462486D01*
X76176702Y-41390903D01*
X75363605Y-42204000D01*
X75004395Y-42204000D01*
X74191298Y-41390903D01*
X73947329Y-41462486D01*
X73826429Y-41717996D01*
X73790118Y-41862855D01*
X73788787Y-41853870D01*
X73693603Y-41587708D01*
X73626671Y-41462486D01*
X73382702Y-41390903D01*
X72569605Y-42204000D01*
X72210395Y-42204000D01*
X71397298Y-41390903D01*
X71153329Y-41462486D01*
X71032429Y-41717996D01*
X70963700Y-41992184D01*
X70949783Y-42274512D01*
X70610000Y-42274512D01*
X70610000Y-41211298D01*
X71576903Y-41211298D01*
X72390000Y-42024395D01*
X73203097Y-41211298D01*
X74370903Y-41211298D01*
X75184000Y-42024395D01*
X75997097Y-41211298D01*
X75925514Y-40967329D01*
X75670004Y-40846429D01*
X75395816Y-40777700D01*
X75113488Y-40763783D01*
X74833870Y-40805213D01*
X74567708Y-40900397D01*
X74442486Y-40967329D01*
X74370903Y-41211298D01*
X73203097Y-41211298D01*
X73131514Y-40967329D01*
X72876004Y-40846429D01*
X72601816Y-40777700D01*
X72319488Y-40763783D01*
X72039870Y-40805213D01*
X71773708Y-40900397D01*
X71648486Y-40967329D01*
X71576903Y-41211298D01*
X70610000Y-41211298D01*
X70610000Y-39197775D01*
X70701013Y-39136962D01*
X70886962Y-38951013D01*
X71033061Y-38732359D01*
X71120000Y-38522470D01*
X71206939Y-38732359D01*
G04 #@! TA.AperFunction,Conductor*
D33*
G36*
X71206939Y-38732359D02*
G01*
X71353038Y-38951013D01*
X71538987Y-39136962D01*
X71757641Y-39283061D01*
X72000595Y-39383696D01*
X72258514Y-39435000D01*
X72521486Y-39435000D01*
X72779405Y-39383696D01*
X73022359Y-39283061D01*
X73241013Y-39136962D01*
X73392975Y-38985000D01*
X77562422Y-38985000D01*
X81336468Y-42759047D01*
X81364183Y-42792817D01*
X81397951Y-42820530D01*
X81397953Y-42820532D01*
X81475876Y-42884482D01*
X81498941Y-42903411D01*
X81631277Y-42974145D01*
X81192951Y-43412471D01*
X81159184Y-43440183D01*
X81131471Y-43473951D01*
X81131468Y-43473954D01*
X81048590Y-43574941D01*
X80966412Y-43728687D01*
X80915805Y-43895510D01*
X80898719Y-44069000D01*
X80903001Y-44112479D01*
X80903000Y-52680968D01*
X80805059Y-52600589D01*
X80651313Y-52518411D01*
X80484490Y-52467805D01*
X80354477Y-52455000D01*
X80354469Y-52455000D01*
X80311000Y-52450719D01*
X80267531Y-52455000D01*
X79008072Y-52455000D01*
X79008072Y-52440000D01*
X78995812Y-52315518D01*
X78959502Y-52195820D01*
X78900537Y-52085506D01*
X78821185Y-51988815D01*
X78724494Y-51909463D01*
X78614180Y-51850498D01*
X78494482Y-51814188D01*
X78370000Y-51801928D01*
X76570000Y-51801928D01*
X76445518Y-51814188D01*
X76325820Y-51850498D01*
X76215506Y-51909463D01*
X76118815Y-51988815D01*
X76039463Y-52085506D01*
X75980498Y-52195820D01*
X75974944Y-52214127D01*
X75908505Y-52147688D01*
X75690000Y-52001687D01*
X75690000Y-49539885D01*
X75767383Y-49353067D01*
X75811000Y-49133788D01*
X75811000Y-48910212D01*
X75767383Y-48690933D01*
X75681824Y-48484376D01*
X75557612Y-48298480D01*
X75436000Y-48176868D01*
X75436000Y-46116987D01*
X75602574Y-46083853D01*
X75863727Y-45975680D01*
X76098759Y-45818637D01*
X76298637Y-45618759D01*
X76455680Y-45383727D01*
X76563853Y-45122574D01*
X76619000Y-44845335D01*
X76619000Y-44562665D01*
X76563853Y-44285426D01*
X76455680Y-44024273D01*
X76298637Y-43789241D01*
X76098759Y-43589363D01*
X75898131Y-43455308D01*
X75925514Y-43440671D01*
X75997097Y-43196702D01*
X75184000Y-42383605D01*
X74370903Y-43196702D01*
X74442486Y-43440671D01*
X74471341Y-43454324D01*
X74269241Y-43589363D01*
X74069363Y-43789241D01*
X73912320Y-44024273D01*
X73804147Y-44285426D01*
X73787000Y-44371629D01*
X73769853Y-44285426D01*
X73661680Y-44024273D01*
X73504637Y-43789241D01*
X73304759Y-43589363D01*
X73104131Y-43455308D01*
X73131514Y-43440671D01*
X73203097Y-43196702D01*
X72390000Y-42383605D01*
X71576903Y-43196702D01*
X71648486Y-43440671D01*
X71677341Y-43454324D01*
X71475241Y-43589363D01*
X71275363Y-43789241D01*
X71118320Y-44024273D01*
X71054658Y-44177967D01*
X70964637Y-44043241D01*
X70764759Y-43843363D01*
X70610000Y-43739957D01*
X70610000Y-42274512D01*
X70949783Y-42274512D01*
X70991213Y-42554130D01*
X71086397Y-42820292D01*
X71153329Y-42945514D01*
X71397298Y-43017097D01*
X72210395Y-42204000D01*
X72569605Y-42204000D01*
X73382702Y-43017097D01*
X73626671Y-42945514D01*
X73747571Y-42690004D01*
X73783882Y-42545145D01*
X73785213Y-42554130D01*
X73880397Y-42820292D01*
X73947329Y-42945514D01*
X74191298Y-43017097D01*
X75004395Y-42204000D01*
X75363605Y-42204000D01*
X76176702Y-43017097D01*
X76420671Y-42945514D01*
X76541571Y-42690004D01*
X76610300Y-42415816D01*
X76624217Y-42133488D01*
X76582787Y-41853870D01*
X76487603Y-41587708D01*
X76420671Y-41462486D01*
X76176702Y-41390903D01*
X75363605Y-42204000D01*
X75004395Y-42204000D01*
X74191298Y-41390903D01*
X73947329Y-41462486D01*
X73826429Y-41717996D01*
X73790118Y-41862855D01*
X73788787Y-41853870D01*
X73693603Y-41587708D01*
X73626671Y-41462486D01*
X73382702Y-41390903D01*
X72569605Y-42204000D01*
X72210395Y-42204000D01*
X71397298Y-41390903D01*
X71153329Y-41462486D01*
X71032429Y-41717996D01*
X70963700Y-41992184D01*
X70949783Y-42274512D01*
X70610000Y-42274512D01*
X70610000Y-41211298D01*
X71576903Y-41211298D01*
X72390000Y-42024395D01*
X73203097Y-41211298D01*
X74370903Y-41211298D01*
X75184000Y-42024395D01*
X75997097Y-41211298D01*
X75925514Y-40967329D01*
X75670004Y-40846429D01*
X75395816Y-40777700D01*
X75113488Y-40763783D01*
X74833870Y-40805213D01*
X74567708Y-40900397D01*
X74442486Y-40967329D01*
X74370903Y-41211298D01*
X73203097Y-41211298D01*
X73131514Y-40967329D01*
X72876004Y-40846429D01*
X72601816Y-40777700D01*
X72319488Y-40763783D01*
X72039870Y-40805213D01*
X71773708Y-40900397D01*
X71648486Y-40967329D01*
X71576903Y-41211298D01*
X70610000Y-41211298D01*
X70610000Y-39197775D01*
X70701013Y-39136962D01*
X70886962Y-38951013D01*
X71033061Y-38732359D01*
X71120000Y-38522470D01*
X71206939Y-38732359D01*
G37*
G04 #@! TD.AperFunction*
D32*
X71275363Y-45618759D02*
X71475241Y-45818637D01*
X71710273Y-45975680D01*
X71971426Y-46083853D01*
X72016001Y-46092720D01*
X72016000Y-48176868D01*
X71894388Y-48298480D01*
X71770176Y-48484376D01*
X71684617Y-48690933D01*
X71641000Y-48910212D01*
X71641000Y-49133788D01*
X71656043Y-49209416D01*
X71640998Y-49259014D01*
X71631395Y-49356510D01*
X71626324Y-49408000D01*
X71630001Y-49445332D01*
X71630000Y-52001687D01*
X71411495Y-52147688D01*
X71197688Y-52361495D01*
X71120000Y-52477763D01*
X71042312Y-52361495D01*
X70828505Y-52147688D01*
X70610000Y-52001687D01*
X70610000Y-51516775D01*
X70701013Y-51455962D01*
X70886962Y-51270013D01*
X71033061Y-51051359D01*
X71133696Y-50808405D01*
X71185000Y-50550486D01*
X71185000Y-50287514D01*
X71133696Y-50029595D01*
X71033061Y-49786641D01*
X70886962Y-49567987D01*
X70701013Y-49382038D01*
X70482359Y-49235939D01*
X70272470Y-49149000D01*
X70482359Y-49062061D01*
X70701013Y-48915962D01*
X70886962Y-48730013D01*
X71033061Y-48511359D01*
X71133696Y-48268405D01*
X71185000Y-48010486D01*
X71185000Y-47747514D01*
X71133696Y-47489595D01*
X71033061Y-47246641D01*
X70886962Y-47027987D01*
X70701013Y-46842038D01*
X70610000Y-46781225D01*
X70610000Y-46176043D01*
X70764759Y-46072637D01*
X70964637Y-45872759D01*
X71121680Y-45637727D01*
X71185342Y-45484033D01*
X71275363Y-45618759D01*
G04 #@! TA.AperFunction,Conductor*
D33*
G36*
X71275363Y-45618759D02*
G01*
X71475241Y-45818637D01*
X71710273Y-45975680D01*
X71971426Y-46083853D01*
X72016001Y-46092720D01*
X72016000Y-48176868D01*
X71894388Y-48298480D01*
X71770176Y-48484376D01*
X71684617Y-48690933D01*
X71641000Y-48910212D01*
X71641000Y-49133788D01*
X71656043Y-49209416D01*
X71640998Y-49259014D01*
X71631395Y-49356510D01*
X71626324Y-49408000D01*
X71630001Y-49445332D01*
X71630000Y-52001687D01*
X71411495Y-52147688D01*
X71197688Y-52361495D01*
X71120000Y-52477763D01*
X71042312Y-52361495D01*
X70828505Y-52147688D01*
X70610000Y-52001687D01*
X70610000Y-51516775D01*
X70701013Y-51455962D01*
X70886962Y-51270013D01*
X71033061Y-51051359D01*
X71133696Y-50808405D01*
X71185000Y-50550486D01*
X71185000Y-50287514D01*
X71133696Y-50029595D01*
X71033061Y-49786641D01*
X70886962Y-49567987D01*
X70701013Y-49382038D01*
X70482359Y-49235939D01*
X70272470Y-49149000D01*
X70482359Y-49062061D01*
X70701013Y-48915962D01*
X70886962Y-48730013D01*
X71033061Y-48511359D01*
X71133696Y-48268405D01*
X71185000Y-48010486D01*
X71185000Y-47747514D01*
X71133696Y-47489595D01*
X71033061Y-47246641D01*
X70886962Y-47027987D01*
X70701013Y-46842038D01*
X70610000Y-46781225D01*
X70610000Y-46176043D01*
X70764759Y-46072637D01*
X70964637Y-45872759D01*
X71121680Y-45637727D01*
X71185342Y-45484033D01*
X71275363Y-45618759D01*
G37*
G04 #@! TD.AperFunction*
D32*
X56417800Y-35801146D02*
X56453338Y-35844449D01*
X56496641Y-35879987D01*
X56496643Y-35879989D01*
X56626164Y-35986284D01*
X56823340Y-36091676D01*
X57037288Y-36156577D01*
X57064644Y-36159271D01*
X57048188Y-36213518D01*
X57035928Y-36338000D01*
X57035928Y-38338000D01*
X57048188Y-38462482D01*
X57084498Y-38582180D01*
X57143463Y-38692494D01*
X57222815Y-38789185D01*
X57319506Y-38868537D01*
X57429820Y-38927502D01*
X57549518Y-38963812D01*
X57674000Y-38976072D01*
X59674000Y-38976072D01*
X59798482Y-38963812D01*
X59918180Y-38927502D01*
X60028494Y-38868537D01*
X60125185Y-38789185D01*
X60204537Y-38692494D01*
X60263502Y-38582180D01*
X60299812Y-38462482D01*
X60312072Y-38338000D01*
X60312072Y-38098000D01*
X61005225Y-38098000D01*
X61066038Y-38189013D01*
X61251987Y-38374962D01*
X61470641Y-38521061D01*
X61713595Y-38621696D01*
X61971514Y-38673000D01*
X62234486Y-38673000D01*
X62492405Y-38621696D01*
X62735359Y-38521061D01*
X62954013Y-38374962D01*
X63139962Y-38189013D01*
X63286061Y-37970359D01*
X63373000Y-37760470D01*
X63459939Y-37970359D01*
X63606038Y-38189013D01*
X63791987Y-38374962D01*
X63883000Y-38435775D01*
X63883001Y-39669225D01*
X63791987Y-39730038D01*
X63606038Y-39915987D01*
X63459939Y-40134641D01*
X63370506Y-40350550D01*
X63363047Y-40325956D01*
X63252792Y-40088608D01*
X63098351Y-39877330D01*
X62905660Y-39700241D01*
X62682123Y-39564147D01*
X62436330Y-39474278D01*
X62230000Y-39596799D01*
X62230000Y-40640000D01*
X62250000Y-40640000D01*
X62250000Y-40894000D01*
X62230000Y-40894000D01*
X62230000Y-41937201D01*
X62436330Y-42059722D01*
X62682123Y-41969853D01*
X62905660Y-41833759D01*
X63098351Y-41656670D01*
X63252792Y-41445392D01*
X63363047Y-41208044D01*
X63370506Y-41183450D01*
X63459939Y-41399359D01*
X63606038Y-41618013D01*
X63791987Y-41803962D01*
X64010641Y-41950061D01*
X64253595Y-42050696D01*
X64511514Y-42102000D01*
X64774486Y-42102000D01*
X65032405Y-42050696D01*
X65275359Y-41950061D01*
X65494013Y-41803962D01*
X65679962Y-41618013D01*
X65826061Y-41399359D01*
X65926696Y-41156405D01*
X65978000Y-40898486D01*
X65978000Y-40635514D01*
X65926696Y-40377595D01*
X65826061Y-40134641D01*
X65679962Y-39915987D01*
X65494013Y-39730038D01*
X65403000Y-39669225D01*
X65403000Y-39172801D01*
X66550001Y-40319803D01*
X66550000Y-52001687D01*
X66331495Y-52147688D01*
X66117688Y-52361495D01*
X66040000Y-52477763D01*
X65962312Y-52361495D01*
X65748505Y-52147688D01*
X65497095Y-51979701D01*
X65217743Y-51863989D01*
X64921184Y-51805000D01*
X64618816Y-51805000D01*
X64361071Y-51856268D01*
X62793804Y-50289003D01*
X62770001Y-50259999D01*
X62654276Y-50165026D01*
X62522247Y-50094454D01*
X62378986Y-50050997D01*
X62267333Y-50040000D01*
X62267322Y-50040000D01*
X62230000Y-50036324D01*
X62192678Y-50040000D01*
X60025775Y-50040000D01*
X59964962Y-49948987D01*
X59779013Y-49763038D01*
X59560359Y-49616939D01*
X59317405Y-49516304D01*
X59059486Y-49465000D01*
X58796514Y-49465000D01*
X58538595Y-49516304D01*
X58295641Y-49616939D01*
X58076987Y-49763038D01*
X57891038Y-49948987D01*
X57744939Y-50167641D01*
X57658000Y-50377530D01*
X57571061Y-50167641D01*
X57424962Y-49948987D01*
X57239013Y-49763038D01*
X57020359Y-49616939D01*
X56777405Y-49516304D01*
X56519486Y-49465000D01*
X56256514Y-49465000D01*
X55998595Y-49516304D01*
X55755641Y-49616939D01*
X55536987Y-49763038D01*
X55385025Y-49915000D01*
X43806328Y-49915000D01*
X43845000Y-49720581D01*
X43845000Y-49339419D01*
X43821891Y-49223241D01*
X47094430Y-45950702D01*
X64036903Y-45950702D01*
X64108486Y-46194671D01*
X64363996Y-46315571D01*
X64638184Y-46384300D01*
X64920512Y-46398217D01*
X65200130Y-46356787D01*
X65466292Y-46261603D01*
X65591514Y-46194671D01*
X65663097Y-45950702D01*
X64850000Y-45137605D01*
X64036903Y-45950702D01*
X47094430Y-45950702D01*
X48016620Y-45028512D01*
X63409783Y-45028512D01*
X63451213Y-45308130D01*
X63546397Y-45574292D01*
X63613329Y-45699514D01*
X63857298Y-45771097D01*
X64670395Y-44958000D01*
X65029605Y-44958000D01*
X65842702Y-45771097D01*
X66086671Y-45699514D01*
X66207571Y-45444004D01*
X66276300Y-45169816D01*
X66290217Y-44887488D01*
X66248787Y-44607870D01*
X66153603Y-44341708D01*
X66086671Y-44216486D01*
X65842702Y-44144903D01*
X65029605Y-44958000D01*
X64670395Y-44958000D01*
X63857298Y-44144903D01*
X63613329Y-44216486D01*
X63492429Y-44471996D01*
X63423700Y-44746184D01*
X63409783Y-45028512D01*
X48016620Y-45028512D01*
X48261141Y-44783991D01*
X48304449Y-44748449D01*
X48446284Y-44575623D01*
X48551676Y-44378447D01*
X48616577Y-44164499D01*
X48633000Y-43997752D01*
X48633000Y-43997743D01*
X48636195Y-43965298D01*
X64036903Y-43965298D01*
X64850000Y-44778395D01*
X65663097Y-43965298D01*
X65591514Y-43721329D01*
X65336004Y-43600429D01*
X65061816Y-43531700D01*
X64779488Y-43517783D01*
X64499870Y-43559213D01*
X64233708Y-43654397D01*
X64108486Y-43721329D01*
X64036903Y-43965298D01*
X48636195Y-43965298D01*
X48638490Y-43942001D01*
X48633000Y-43886259D01*
X48633000Y-41980957D01*
X48652494Y-41970537D01*
X48749185Y-41891185D01*
X48828537Y-41794494D01*
X48887502Y-41684180D01*
X48923812Y-41564482D01*
X48936072Y-41440000D01*
X48936072Y-41100329D01*
X60810284Y-41100329D01*
X60842953Y-41208044D01*
X60953208Y-41445392D01*
X61107649Y-41656670D01*
X61300340Y-41833759D01*
X61523877Y-41969853D01*
X61769670Y-42059722D01*
X61976000Y-41937201D01*
X61976000Y-40894000D01*
X60933626Y-40894000D01*
X60810284Y-41100329D01*
X48936072Y-41100329D01*
X48936072Y-40433671D01*
X60810284Y-40433671D01*
X60933626Y-40640000D01*
X61976000Y-40640000D01*
X61976000Y-39596799D01*
X61769670Y-39474278D01*
X61523877Y-39564147D01*
X61300340Y-39700241D01*
X61107649Y-39877330D01*
X60953208Y-40088608D01*
X60842953Y-40325956D01*
X60810284Y-40433671D01*
X48936072Y-40433671D01*
X48936072Y-39840000D01*
X48923812Y-39715518D01*
X48887502Y-39595820D01*
X48828537Y-39485506D01*
X48749185Y-39388815D01*
X48652494Y-39309463D01*
X48633000Y-39299043D01*
X48633000Y-37231683D01*
X48702494Y-37194537D01*
X48799185Y-37115185D01*
X48878537Y-37018494D01*
X48937502Y-36908180D01*
X48973812Y-36788482D01*
X48986072Y-36664000D01*
X48986072Y-34964000D01*
X48973812Y-34839518D01*
X48937502Y-34719820D01*
X48878537Y-34609506D01*
X48799185Y-34512815D01*
X48702494Y-34433463D01*
X48656728Y-34409000D01*
X55025656Y-34409000D01*
X56417800Y-35801146D01*
G04 #@! TA.AperFunction,Conductor*
D33*
G36*
X56417800Y-35801146D02*
G01*
X56453338Y-35844449D01*
X56496641Y-35879987D01*
X56496643Y-35879989D01*
X56626164Y-35986284D01*
X56823340Y-36091676D01*
X57037288Y-36156577D01*
X57064644Y-36159271D01*
X57048188Y-36213518D01*
X57035928Y-36338000D01*
X57035928Y-38338000D01*
X57048188Y-38462482D01*
X57084498Y-38582180D01*
X57143463Y-38692494D01*
X57222815Y-38789185D01*
X57319506Y-38868537D01*
X57429820Y-38927502D01*
X57549518Y-38963812D01*
X57674000Y-38976072D01*
X59674000Y-38976072D01*
X59798482Y-38963812D01*
X59918180Y-38927502D01*
X60028494Y-38868537D01*
X60125185Y-38789185D01*
X60204537Y-38692494D01*
X60263502Y-38582180D01*
X60299812Y-38462482D01*
X60312072Y-38338000D01*
X60312072Y-38098000D01*
X61005225Y-38098000D01*
X61066038Y-38189013D01*
X61251987Y-38374962D01*
X61470641Y-38521061D01*
X61713595Y-38621696D01*
X61971514Y-38673000D01*
X62234486Y-38673000D01*
X62492405Y-38621696D01*
X62735359Y-38521061D01*
X62954013Y-38374962D01*
X63139962Y-38189013D01*
X63286061Y-37970359D01*
X63373000Y-37760470D01*
X63459939Y-37970359D01*
X63606038Y-38189013D01*
X63791987Y-38374962D01*
X63883000Y-38435775D01*
X63883001Y-39669225D01*
X63791987Y-39730038D01*
X63606038Y-39915987D01*
X63459939Y-40134641D01*
X63370506Y-40350550D01*
X63363047Y-40325956D01*
X63252792Y-40088608D01*
X63098351Y-39877330D01*
X62905660Y-39700241D01*
X62682123Y-39564147D01*
X62436330Y-39474278D01*
X62230000Y-39596799D01*
X62230000Y-40640000D01*
X62250000Y-40640000D01*
X62250000Y-40894000D01*
X62230000Y-40894000D01*
X62230000Y-41937201D01*
X62436330Y-42059722D01*
X62682123Y-41969853D01*
X62905660Y-41833759D01*
X63098351Y-41656670D01*
X63252792Y-41445392D01*
X63363047Y-41208044D01*
X63370506Y-41183450D01*
X63459939Y-41399359D01*
X63606038Y-41618013D01*
X63791987Y-41803962D01*
X64010641Y-41950061D01*
X64253595Y-42050696D01*
X64511514Y-42102000D01*
X64774486Y-42102000D01*
X65032405Y-42050696D01*
X65275359Y-41950061D01*
X65494013Y-41803962D01*
X65679962Y-41618013D01*
X65826061Y-41399359D01*
X65926696Y-41156405D01*
X65978000Y-40898486D01*
X65978000Y-40635514D01*
X65926696Y-40377595D01*
X65826061Y-40134641D01*
X65679962Y-39915987D01*
X65494013Y-39730038D01*
X65403000Y-39669225D01*
X65403000Y-39172801D01*
X66550001Y-40319803D01*
X66550000Y-52001687D01*
X66331495Y-52147688D01*
X66117688Y-52361495D01*
X66040000Y-52477763D01*
X65962312Y-52361495D01*
X65748505Y-52147688D01*
X65497095Y-51979701D01*
X65217743Y-51863989D01*
X64921184Y-51805000D01*
X64618816Y-51805000D01*
X64361071Y-51856268D01*
X62793804Y-50289003D01*
X62770001Y-50259999D01*
X62654276Y-50165026D01*
X62522247Y-50094454D01*
X62378986Y-50050997D01*
X62267333Y-50040000D01*
X62267322Y-50040000D01*
X62230000Y-50036324D01*
X62192678Y-50040000D01*
X60025775Y-50040000D01*
X59964962Y-49948987D01*
X59779013Y-49763038D01*
X59560359Y-49616939D01*
X59317405Y-49516304D01*
X59059486Y-49465000D01*
X58796514Y-49465000D01*
X58538595Y-49516304D01*
X58295641Y-49616939D01*
X58076987Y-49763038D01*
X57891038Y-49948987D01*
X57744939Y-50167641D01*
X57658000Y-50377530D01*
X57571061Y-50167641D01*
X57424962Y-49948987D01*
X57239013Y-49763038D01*
X57020359Y-49616939D01*
X56777405Y-49516304D01*
X56519486Y-49465000D01*
X56256514Y-49465000D01*
X55998595Y-49516304D01*
X55755641Y-49616939D01*
X55536987Y-49763038D01*
X55385025Y-49915000D01*
X43806328Y-49915000D01*
X43845000Y-49720581D01*
X43845000Y-49339419D01*
X43821891Y-49223241D01*
X47094430Y-45950702D01*
X64036903Y-45950702D01*
X64108486Y-46194671D01*
X64363996Y-46315571D01*
X64638184Y-46384300D01*
X64920512Y-46398217D01*
X65200130Y-46356787D01*
X65466292Y-46261603D01*
X65591514Y-46194671D01*
X65663097Y-45950702D01*
X64850000Y-45137605D01*
X64036903Y-45950702D01*
X47094430Y-45950702D01*
X48016620Y-45028512D01*
X63409783Y-45028512D01*
X63451213Y-45308130D01*
X63546397Y-45574292D01*
X63613329Y-45699514D01*
X63857298Y-45771097D01*
X64670395Y-44958000D01*
X65029605Y-44958000D01*
X65842702Y-45771097D01*
X66086671Y-45699514D01*
X66207571Y-45444004D01*
X66276300Y-45169816D01*
X66290217Y-44887488D01*
X66248787Y-44607870D01*
X66153603Y-44341708D01*
X66086671Y-44216486D01*
X65842702Y-44144903D01*
X65029605Y-44958000D01*
X64670395Y-44958000D01*
X63857298Y-44144903D01*
X63613329Y-44216486D01*
X63492429Y-44471996D01*
X63423700Y-44746184D01*
X63409783Y-45028512D01*
X48016620Y-45028512D01*
X48261141Y-44783991D01*
X48304449Y-44748449D01*
X48446284Y-44575623D01*
X48551676Y-44378447D01*
X48616577Y-44164499D01*
X48633000Y-43997752D01*
X48633000Y-43997743D01*
X48636195Y-43965298D01*
X64036903Y-43965298D01*
X64850000Y-44778395D01*
X65663097Y-43965298D01*
X65591514Y-43721329D01*
X65336004Y-43600429D01*
X65061816Y-43531700D01*
X64779488Y-43517783D01*
X64499870Y-43559213D01*
X64233708Y-43654397D01*
X64108486Y-43721329D01*
X64036903Y-43965298D01*
X48636195Y-43965298D01*
X48638490Y-43942001D01*
X48633000Y-43886259D01*
X48633000Y-41980957D01*
X48652494Y-41970537D01*
X48749185Y-41891185D01*
X48828537Y-41794494D01*
X48887502Y-41684180D01*
X48923812Y-41564482D01*
X48936072Y-41440000D01*
X48936072Y-41100329D01*
X60810284Y-41100329D01*
X60842953Y-41208044D01*
X60953208Y-41445392D01*
X61107649Y-41656670D01*
X61300340Y-41833759D01*
X61523877Y-41969853D01*
X61769670Y-42059722D01*
X61976000Y-41937201D01*
X61976000Y-40894000D01*
X60933626Y-40894000D01*
X60810284Y-41100329D01*
X48936072Y-41100329D01*
X48936072Y-40433671D01*
X60810284Y-40433671D01*
X60933626Y-40640000D01*
X61976000Y-40640000D01*
X61976000Y-39596799D01*
X61769670Y-39474278D01*
X61523877Y-39564147D01*
X61300340Y-39700241D01*
X61107649Y-39877330D01*
X60953208Y-40088608D01*
X60842953Y-40325956D01*
X60810284Y-40433671D01*
X48936072Y-40433671D01*
X48936072Y-39840000D01*
X48923812Y-39715518D01*
X48887502Y-39595820D01*
X48828537Y-39485506D01*
X48749185Y-39388815D01*
X48652494Y-39309463D01*
X48633000Y-39299043D01*
X48633000Y-37231683D01*
X48702494Y-37194537D01*
X48799185Y-37115185D01*
X48878537Y-37018494D01*
X48937502Y-36908180D01*
X48973812Y-36788482D01*
X48986072Y-36664000D01*
X48986072Y-34964000D01*
X48973812Y-34839518D01*
X48937502Y-34719820D01*
X48878537Y-34609506D01*
X48799185Y-34512815D01*
X48702494Y-34433463D01*
X48656728Y-34409000D01*
X55025656Y-34409000D01*
X56417800Y-35801146D01*
G37*
G04 #@! TD.AperFunction*
G04 #@! TD*
M02*
