M48
; DRILL file {KiCad (5.1.9)-1} date 05/29/21 13:57:44
; FORMAT={-:-/ absolute / inch / decimal}
; #@! TF.CreationDate,2021-05-29T13:57:44+09:00
; #@! TF.GenerationSoftware,Kicad,Pcbnew,(5.1.9)-1
FMAT,2
INCH
T1C0.0157
T2C0.0197
T3C0.0276
T4C0.0300
T5C0.0315
T6C0.0354
T7C0.0394
T8C0.0433
T9C0.0472
T10C0.0512
T11C0.1260
%
G90
G05
T1
X1.535Y-3.16
X2.0Y-3.475
X2.475Y-2.7
X2.775Y-3.375
X3.0Y-3.265
X3.1Y-3.07
X3.1Y-3.2
T2
X2.8652Y-1.93
X2.94Y-1.93
T3
X2.22Y-2.0
X2.32Y-2.0
X2.445Y-1.47
X2.445Y-1.605
X2.545Y-1.47
X2.545Y-1.605
X2.75Y-1.5
X2.75Y-1.885
X2.75Y-1.985
X2.85Y-1.5
T4
X1.605Y-2.8
X1.605Y-3.4
X1.7Y-2.8
X1.705Y-3.4
X1.805Y-2.8
X1.805Y-3.4
X1.905Y-2.8
X1.905Y-3.4
X2.005Y-2.8
X2.005Y-3.4
X2.105Y-2.8
X2.105Y-3.4
X2.205Y-2.8
X2.205Y-3.4
X2.305Y-2.8
X2.305Y-3.4
X2.405Y-2.8
X2.405Y-3.4
T5
X1.35Y-2.4031
X1.35Y-2.6
X1.45Y-1.7016
X1.45Y-1.8
X1.555Y-2.305
X1.555Y-2.405
X1.555Y-2.505
X1.7913Y-1.6
X1.81Y-3.2
X1.85Y-2.35
X1.85Y-2.4484
X1.87Y-1.6
X2.305Y-3.005
X2.305Y-3.2019
X2.45Y-2.1
X2.45Y-2.4
X2.47Y-3.075
X2.55Y-2.1
X2.55Y-2.4
X2.5531Y-1.77
X2.65Y-2.1
X2.65Y-2.4
X2.75Y-1.77
X2.75Y-2.1
X2.75Y-2.4
X2.81Y-1.83
X2.85Y-1.6616
X2.85Y-1.76
X2.85Y-2.1
X2.85Y-2.4
X2.95Y-2.1
X2.95Y-2.4
X2.96Y-1.6616
X2.96Y-1.76
X3.05Y-2.1
X3.05Y-2.4
X3.22Y-2.1581
X3.22Y-2.355
T6
X2.6Y-2.6
X2.6Y-2.8
X2.6Y-3.0
X2.6Y-3.2
X2.6Y-3.4
X2.7Y-2.6
X2.7Y-2.8
X2.7Y-3.0
X2.7Y-3.2
X2.7Y-3.4
T7
X1.35Y-2.0
X1.35Y-2.1
X1.7Y-1.3
X1.7Y-1.4
X1.87Y-1.31
X1.87Y-1.41
X2.005Y-2.13
X2.005Y-2.23
X2.31Y-1.2889
X2.31Y-1.3794
X2.31Y-1.47
X3.75Y-1.65
X3.75Y-1.75
X3.75Y-1.85
X3.75Y-1.95
X3.75Y-2.05
T8
X3.3775Y-3.15
X3.3775Y-3.3272
X3.3825Y-2.35
X3.3825Y-2.5272
X3.3825Y-2.75
X3.3825Y-2.9272
X3.6334Y-3.15
X3.6334Y-3.3272
X3.6384Y-2.35
X3.6384Y-2.5272
X3.6384Y-2.75
X3.6384Y-2.9272
T9
X3.295Y-1.4631
X3.295Y-1.66
T10
X1.65Y-1.95
X1.65Y-2.1469
T11
X1.3625Y-3.4025
X1.43Y-1.4
X3.765Y-1.4
X3.835Y-3.4025
T0
M30
