G04 #@! TF.GenerationSoftware,KiCad,Pcbnew,(5.1.9)-1*
G04 #@! TF.CreationDate,2021-05-29T13:56:15+09:00*
G04 #@! TF.ProjectId,green_pomp4,67726565-6e5f-4706-9f6d-70342e6b6963,rev?*
G04 #@! TF.SameCoordinates,Original*
G04 #@! TF.FileFunction,Paste,Bot*
G04 #@! TF.FilePolarity,Positive*
%FSLAX46Y46*%
G04 Gerber Fmt 4.6, Leading zero omitted, Abs format (unit mm)*
G04 Created by KiCad (PCBNEW (5.1.9)-1) date 2021-05-29 13:56:15*
%MOMM*%
%LPD*%
G01*
G04 APERTURE LIST*
G04 APERTURE END LIST*
G04 #@! TO.C,U3*
G36*
G01*
X82599000Y-69650000D02*
X82599000Y-70050000D01*
G75*
G02*
X82469000Y-70180000I-130000J0D01*
G01*
X80599000Y-70180000D01*
G75*
G02*
X80469000Y-70050000I0J130000D01*
G01*
X80469000Y-69650000D01*
G75*
G02*
X80599000Y-69520000I130000J0D01*
G01*
X82469000Y-69520000D01*
G75*
G02*
X82599000Y-69650000I0J-130000D01*
G01*
G37*
G36*
G01*
X82599000Y-70920000D02*
X82599000Y-71320000D01*
G75*
G02*
X82469000Y-71450000I-130000J0D01*
G01*
X80599000Y-71450000D01*
G75*
G02*
X80469000Y-71320000I0J130000D01*
G01*
X80469000Y-70920000D01*
G75*
G02*
X80599000Y-70790000I130000J0D01*
G01*
X82469000Y-70790000D01*
G75*
G02*
X82599000Y-70920000I0J-130000D01*
G01*
G37*
G36*
G01*
X82599000Y-72190000D02*
X82599000Y-72590000D01*
G75*
G02*
X82469000Y-72720000I-130000J0D01*
G01*
X80599000Y-72720000D01*
G75*
G02*
X80469000Y-72590000I0J130000D01*
G01*
X80469000Y-72190000D01*
G75*
G02*
X80599000Y-72060000I130000J0D01*
G01*
X82469000Y-72060000D01*
G75*
G02*
X82599000Y-72190000I0J-130000D01*
G01*
G37*
G36*
G01*
X82599000Y-73460000D02*
X82599000Y-73860000D01*
G75*
G02*
X82469000Y-73990000I-130000J0D01*
G01*
X80599000Y-73990000D01*
G75*
G02*
X80469000Y-73860000I0J130000D01*
G01*
X80469000Y-73460000D01*
G75*
G02*
X80599000Y-73330000I130000J0D01*
G01*
X82469000Y-73330000D01*
G75*
G02*
X82599000Y-73460000I0J-130000D01*
G01*
G37*
G36*
G01*
X82599000Y-74730000D02*
X82599000Y-75130000D01*
G75*
G02*
X82469000Y-75260000I-130000J0D01*
G01*
X80599000Y-75260000D01*
G75*
G02*
X80469000Y-75130000I0J130000D01*
G01*
X80469000Y-74730000D01*
G75*
G02*
X80599000Y-74600000I130000J0D01*
G01*
X82469000Y-74600000D01*
G75*
G02*
X82599000Y-74730000I0J-130000D01*
G01*
G37*
G36*
G01*
X82599000Y-76000000D02*
X82599000Y-76400000D01*
G75*
G02*
X82469000Y-76530000I-130000J0D01*
G01*
X80599000Y-76530000D01*
G75*
G02*
X80469000Y-76400000I0J130000D01*
G01*
X80469000Y-76000000D01*
G75*
G02*
X80599000Y-75870000I130000J0D01*
G01*
X82469000Y-75870000D01*
G75*
G02*
X82599000Y-76000000I0J-130000D01*
G01*
G37*
G36*
G01*
X82599000Y-77270000D02*
X82599000Y-77670000D01*
G75*
G02*
X82469000Y-77800000I-130000J0D01*
G01*
X80599000Y-77800000D01*
G75*
G02*
X80469000Y-77670000I0J130000D01*
G01*
X80469000Y-77270000D01*
G75*
G02*
X80599000Y-77140000I130000J0D01*
G01*
X82469000Y-77140000D01*
G75*
G02*
X82599000Y-77270000I0J-130000D01*
G01*
G37*
G36*
G01*
X82599000Y-78540000D02*
X82599000Y-78940000D01*
G75*
G02*
X82469000Y-79070000I-130000J0D01*
G01*
X80599000Y-79070000D01*
G75*
G02*
X80469000Y-78940000I0J130000D01*
G01*
X80469000Y-78540000D01*
G75*
G02*
X80599000Y-78410000I130000J0D01*
G01*
X82469000Y-78410000D01*
G75*
G02*
X82599000Y-78540000I0J-130000D01*
G01*
G37*
G36*
G01*
X82599000Y-79810000D02*
X82599000Y-80210000D01*
G75*
G02*
X82469000Y-80340000I-130000J0D01*
G01*
X80599000Y-80340000D01*
G75*
G02*
X80469000Y-80210000I0J130000D01*
G01*
X80469000Y-79810000D01*
G75*
G02*
X80599000Y-79680000I130000J0D01*
G01*
X82469000Y-79680000D01*
G75*
G02*
X82599000Y-79810000I0J-130000D01*
G01*
G37*
G36*
G01*
X82599000Y-81080000D02*
X82599000Y-81480000D01*
G75*
G02*
X82469000Y-81610000I-130000J0D01*
G01*
X80599000Y-81610000D01*
G75*
G02*
X80469000Y-81480000I0J130000D01*
G01*
X80469000Y-81080000D01*
G75*
G02*
X80599000Y-80950000I130000J0D01*
G01*
X82469000Y-80950000D01*
G75*
G02*
X82599000Y-81080000I0J-130000D01*
G01*
G37*
G36*
G01*
X82599000Y-82350000D02*
X82599000Y-82750000D01*
G75*
G02*
X82469000Y-82880000I-130000J0D01*
G01*
X80599000Y-82880000D01*
G75*
G02*
X80469000Y-82750000I0J130000D01*
G01*
X80469000Y-82350000D01*
G75*
G02*
X80599000Y-82220000I130000J0D01*
G01*
X82469000Y-82220000D01*
G75*
G02*
X82599000Y-82350000I0J-130000D01*
G01*
G37*
G36*
G01*
X82599000Y-83620000D02*
X82599000Y-84020000D01*
G75*
G02*
X82469000Y-84150000I-130000J0D01*
G01*
X80599000Y-84150000D01*
G75*
G02*
X80469000Y-84020000I0J130000D01*
G01*
X80469000Y-83620000D01*
G75*
G02*
X80599000Y-83490000I130000J0D01*
G01*
X82469000Y-83490000D01*
G75*
G02*
X82599000Y-83620000I0J-130000D01*
G01*
G37*
G36*
G01*
X82599000Y-84890000D02*
X82599000Y-85290000D01*
G75*
G02*
X82469000Y-85420000I-130000J0D01*
G01*
X80599000Y-85420000D01*
G75*
G02*
X80469000Y-85290000I0J130000D01*
G01*
X80469000Y-84890000D01*
G75*
G02*
X80599000Y-84760000I130000J0D01*
G01*
X82469000Y-84760000D01*
G75*
G02*
X82599000Y-84890000I0J-130000D01*
G01*
G37*
G36*
G01*
X82599000Y-86160000D02*
X82599000Y-86560000D01*
G75*
G02*
X82469000Y-86690000I-130000J0D01*
G01*
X80599000Y-86690000D01*
G75*
G02*
X80469000Y-86560000I0J130000D01*
G01*
X80469000Y-86160000D01*
G75*
G02*
X80599000Y-86030000I130000J0D01*
G01*
X82469000Y-86030000D01*
G75*
G02*
X82599000Y-86160000I0J-130000D01*
G01*
G37*
G36*
G01*
X73599000Y-86160000D02*
X73599000Y-86560000D01*
G75*
G02*
X73469000Y-86690000I-130000J0D01*
G01*
X71599000Y-86690000D01*
G75*
G02*
X71469000Y-86560000I0J130000D01*
G01*
X71469000Y-86160000D01*
G75*
G02*
X71599000Y-86030000I130000J0D01*
G01*
X73469000Y-86030000D01*
G75*
G02*
X73599000Y-86160000I0J-130000D01*
G01*
G37*
G36*
G01*
X73599000Y-84890000D02*
X73599000Y-85290000D01*
G75*
G02*
X73469000Y-85420000I-130000J0D01*
G01*
X71599000Y-85420000D01*
G75*
G02*
X71469000Y-85290000I0J130000D01*
G01*
X71469000Y-84890000D01*
G75*
G02*
X71599000Y-84760000I130000J0D01*
G01*
X73469000Y-84760000D01*
G75*
G02*
X73599000Y-84890000I0J-130000D01*
G01*
G37*
G36*
G01*
X73599000Y-83620000D02*
X73599000Y-84020000D01*
G75*
G02*
X73469000Y-84150000I-130000J0D01*
G01*
X71599000Y-84150000D01*
G75*
G02*
X71469000Y-84020000I0J130000D01*
G01*
X71469000Y-83620000D01*
G75*
G02*
X71599000Y-83490000I130000J0D01*
G01*
X73469000Y-83490000D01*
G75*
G02*
X73599000Y-83620000I0J-130000D01*
G01*
G37*
G36*
G01*
X73599000Y-82350000D02*
X73599000Y-82750000D01*
G75*
G02*
X73469000Y-82880000I-130000J0D01*
G01*
X71599000Y-82880000D01*
G75*
G02*
X71469000Y-82750000I0J130000D01*
G01*
X71469000Y-82350000D01*
G75*
G02*
X71599000Y-82220000I130000J0D01*
G01*
X73469000Y-82220000D01*
G75*
G02*
X73599000Y-82350000I0J-130000D01*
G01*
G37*
G36*
G01*
X73599000Y-81080000D02*
X73599000Y-81480000D01*
G75*
G02*
X73469000Y-81610000I-130000J0D01*
G01*
X71599000Y-81610000D01*
G75*
G02*
X71469000Y-81480000I0J130000D01*
G01*
X71469000Y-81080000D01*
G75*
G02*
X71599000Y-80950000I130000J0D01*
G01*
X73469000Y-80950000D01*
G75*
G02*
X73599000Y-81080000I0J-130000D01*
G01*
G37*
G36*
G01*
X73599000Y-79810000D02*
X73599000Y-80210000D01*
G75*
G02*
X73469000Y-80340000I-130000J0D01*
G01*
X71599000Y-80340000D01*
G75*
G02*
X71469000Y-80210000I0J130000D01*
G01*
X71469000Y-79810000D01*
G75*
G02*
X71599000Y-79680000I130000J0D01*
G01*
X73469000Y-79680000D01*
G75*
G02*
X73599000Y-79810000I0J-130000D01*
G01*
G37*
G36*
G01*
X73599000Y-78540000D02*
X73599000Y-78940000D01*
G75*
G02*
X73469000Y-79070000I-130000J0D01*
G01*
X71599000Y-79070000D01*
G75*
G02*
X71469000Y-78940000I0J130000D01*
G01*
X71469000Y-78540000D01*
G75*
G02*
X71599000Y-78410000I130000J0D01*
G01*
X73469000Y-78410000D01*
G75*
G02*
X73599000Y-78540000I0J-130000D01*
G01*
G37*
G36*
G01*
X73599000Y-77270000D02*
X73599000Y-77670000D01*
G75*
G02*
X73469000Y-77800000I-130000J0D01*
G01*
X71599000Y-77800000D01*
G75*
G02*
X71469000Y-77670000I0J130000D01*
G01*
X71469000Y-77270000D01*
G75*
G02*
X71599000Y-77140000I130000J0D01*
G01*
X73469000Y-77140000D01*
G75*
G02*
X73599000Y-77270000I0J-130000D01*
G01*
G37*
G36*
G01*
X73599000Y-76000000D02*
X73599000Y-76400000D01*
G75*
G02*
X73469000Y-76530000I-130000J0D01*
G01*
X71599000Y-76530000D01*
G75*
G02*
X71469000Y-76400000I0J130000D01*
G01*
X71469000Y-76000000D01*
G75*
G02*
X71599000Y-75870000I130000J0D01*
G01*
X73469000Y-75870000D01*
G75*
G02*
X73599000Y-76000000I0J-130000D01*
G01*
G37*
G36*
G01*
X73599000Y-74730000D02*
X73599000Y-75130000D01*
G75*
G02*
X73469000Y-75260000I-130000J0D01*
G01*
X71599000Y-75260000D01*
G75*
G02*
X71469000Y-75130000I0J130000D01*
G01*
X71469000Y-74730000D01*
G75*
G02*
X71599000Y-74600000I130000J0D01*
G01*
X73469000Y-74600000D01*
G75*
G02*
X73599000Y-74730000I0J-130000D01*
G01*
G37*
G36*
G01*
X73599000Y-73460000D02*
X73599000Y-73860000D01*
G75*
G02*
X73469000Y-73990000I-130000J0D01*
G01*
X71599000Y-73990000D01*
G75*
G02*
X71469000Y-73860000I0J130000D01*
G01*
X71469000Y-73460000D01*
G75*
G02*
X71599000Y-73330000I130000J0D01*
G01*
X73469000Y-73330000D01*
G75*
G02*
X73599000Y-73460000I0J-130000D01*
G01*
G37*
G36*
G01*
X73599000Y-72190000D02*
X73599000Y-72590000D01*
G75*
G02*
X73469000Y-72720000I-130000J0D01*
G01*
X71599000Y-72720000D01*
G75*
G02*
X71469000Y-72590000I0J130000D01*
G01*
X71469000Y-72190000D01*
G75*
G02*
X71599000Y-72060000I130000J0D01*
G01*
X73469000Y-72060000D01*
G75*
G02*
X73599000Y-72190000I0J-130000D01*
G01*
G37*
G36*
G01*
X73599000Y-70920000D02*
X73599000Y-71320000D01*
G75*
G02*
X73469000Y-71450000I-130000J0D01*
G01*
X71599000Y-71450000D01*
G75*
G02*
X71469000Y-71320000I0J130000D01*
G01*
X71469000Y-70920000D01*
G75*
G02*
X71599000Y-70790000I130000J0D01*
G01*
X73469000Y-70790000D01*
G75*
G02*
X73599000Y-70920000I0J-130000D01*
G01*
G37*
G36*
G01*
X73599000Y-69650000D02*
X73599000Y-70050000D01*
G75*
G02*
X73469000Y-70180000I-130000J0D01*
G01*
X71599000Y-70180000D01*
G75*
G02*
X71469000Y-70050000I0J130000D01*
G01*
X71469000Y-69650000D01*
G75*
G02*
X71599000Y-69520000I130000J0D01*
G01*
X73469000Y-69520000D01*
G75*
G02*
X73599000Y-69650000I0J-130000D01*
G01*
G37*
G04 #@! TD*
M02*
