M48
;DRILL file {KiCad 4.0.7} date 06/25/18 21:51:17
;FORMAT={3:3/ absolute / metric / suppress leading zeros}
FMAT,2
METRIC,TZ
T1C0.400
T2C0.500
T3C0.700
T4C0.762
T5C0.800
T6C0.900
T7C1.000
T8C1.100
T9C1.300
T10C3.200
%
G90
G05
M71
T1
X44958Y-75946
X48768Y-75184
X50038Y-76454
X57912Y-78232
X60198Y-72136
X62738Y-83566
X64516Y-70866
X68580Y-77978
X69342Y-75692
T2
X63500Y-53086
X66040Y-53086
T3
X33020Y-81788
X35560Y-81788
X51054Y-41148
X51054Y-43688
X55626Y-65786
X58166Y-65786
X61976Y-41148
X64516Y-41148
X69088Y-35814
X69088Y-39878
X71120Y-52578
X71120Y-55118
X71628Y-35814
X71628Y-39878
T4
X64262Y-70866
X64262Y-86106
X66802Y-70866
X66802Y-86106
X69342Y-70866
X69342Y-86106
X71882Y-70866
X71882Y-86106
X74422Y-70866
X74422Y-86106
X76962Y-70866
X76962Y-86106
X79502Y-70866
X79502Y-86106
X82042Y-70866
X82042Y-86106
X84582Y-70866
X84582Y-86106
T5
X34370Y-63754
X39370Y-63754
X43942Y-56896
X43942Y-59436
X43942Y-61976
X47578Y-66040
X49530Y-49784
X52030Y-49784
X52578Y-66040
X54102Y-33274
X54102Y-35774
X55666Y-59436
X58166Y-59436
X63540Y-50800
X66040Y-50800
X68580Y-52618
X68580Y-55118
X74000Y-50000
X74000Y-52540
X74000Y-55080
X74000Y-57620
X74000Y-60160
X74000Y-62700
X74000Y-65240
X75000Y-45000
X77597Y-35750
X80000Y-45000
X80097Y-35750
X81620Y-50000
X81620Y-52540
X81620Y-55080
X81620Y-57620
X81620Y-60160
X81620Y-62700
X81620Y-65240
X89662Y-35640
X89662Y-40640
T6
X38100Y-82804
X40640Y-82804
T7
X35814Y-59182
X38354Y-59182
X40069Y-40513
X40069Y-43053
X42418Y-33274
X42418Y-35814
X47498Y-33274
X47498Y-35814
X61595Y-32865
X61595Y-35165
X61595Y-37465
X97028Y-41910
X97028Y-44450
X97028Y-46990
X97028Y-49530
X97028Y-52070
T8
X43942Y-82042
X43942Y-86542
X50442Y-82042
X50442Y-86542
X85852Y-45212
X85852Y-49712
X90678Y-64516
X90678Y-69016
X90678Y-75438
X90678Y-79938
X92352Y-45212
X92352Y-49712
X97178Y-64516
X97178Y-69016
X97178Y-75438
X97178Y-79938
T9
X40000Y-49000
X40000Y-54000
T10
X34544Y-86614
X36322Y-35306
X95758Y-35560
X97536Y-86614
T0
M30
