G04 #@! TF.FileFunction,Soldermask,Top*
%FSLAX46Y46*%
G04 Gerber Fmt 4.6, Leading zero omitted, Abs format (unit mm)*
G04 Created by KiCad (PCBNEW 4.0.7) date 06/25/18 21:51:06*
%MOMM*%
%LPD*%
G01*
G04 APERTURE LIST*
%ADD10C,0.150000*%
%ADD11C,1.924000*%
%ADD12C,1.800000*%
%ADD13O,1.800000X1.800000*%
%ADD14C,2.400000*%
%ADD15C,3.600000*%
%ADD16R,0.800000X2.270000*%
%ADD17R,2.200000X2.200000*%
%ADD18C,2.200000*%
%ADD19R,2.000000X2.000000*%
%ADD20C,2.000000*%
%ADD21R,2.400000X2.400000*%
%ADD22R,2.100000X2.100000*%
%ADD23O,2.100000X2.100000*%
%ADD24C,1.400000*%
%ADD25C,3.000000*%
G04 APERTURE END LIST*
D10*
D11*
X74422000Y-70866000D03*
X71882000Y-70866000D03*
X69342000Y-70866000D03*
X66802000Y-70866000D03*
X64262000Y-70866000D03*
X76962000Y-70866000D03*
X79502000Y-70866000D03*
X82042000Y-70866000D03*
X84582000Y-70866000D03*
X74422000Y-86106000D03*
X71882000Y-86106000D03*
X69342000Y-86106000D03*
X66802000Y-86106000D03*
X64262000Y-86106000D03*
X76962000Y-86106000D03*
X79502000Y-86106000D03*
X82042000Y-86106000D03*
X84582000Y-86106000D03*
D12*
X71628000Y-39878000D03*
D13*
X69088000Y-39878000D03*
D14*
X90678000Y-79938000D03*
X90678000Y-75438000D03*
X97178000Y-79938000D03*
X97178000Y-75438000D03*
D15*
X97536000Y-86614000D03*
D16*
X38608000Y-78232000D03*
X39878000Y-78232000D03*
X41148000Y-78232000D03*
X42418000Y-78232000D03*
X43688000Y-78232000D03*
X44958000Y-78232000D03*
X46228000Y-78232000D03*
X47498000Y-78232000D03*
X48768000Y-78232000D03*
X50038000Y-78232000D03*
X51308000Y-78232000D03*
X52578000Y-78232000D03*
X53848000Y-78232000D03*
X55118000Y-78232000D03*
X55118000Y-69232000D03*
X53848000Y-69232000D03*
X52578000Y-69232000D03*
X51308000Y-69232000D03*
X50038000Y-69232000D03*
X48768000Y-69232000D03*
X47498000Y-69232000D03*
X46228000Y-69232000D03*
X44958000Y-69232000D03*
X43688000Y-69232000D03*
X42418000Y-69232000D03*
X41148000Y-69232000D03*
X39878000Y-69232000D03*
X38608000Y-69232000D03*
D17*
X43942000Y-61976000D03*
D18*
X43942000Y-59436000D03*
X43942000Y-56896000D03*
D19*
X49530000Y-49784000D03*
D20*
X52030000Y-49784000D03*
D14*
X90678000Y-69016000D03*
X90678000Y-64516000D03*
X97178000Y-69016000D03*
X97178000Y-64516000D03*
X43942000Y-86542000D03*
X43942000Y-82042000D03*
X50442000Y-86542000D03*
X50442000Y-82042000D03*
D19*
X77597000Y-35750500D03*
D20*
X80097000Y-35750500D03*
X80000000Y-45000000D03*
X75000000Y-45000000D03*
X89662000Y-40640000D03*
X89662000Y-35640000D03*
X66040000Y-50800000D03*
X63540000Y-50800000D03*
X68580000Y-55118000D03*
X68580000Y-52618000D03*
X39370000Y-63754000D03*
X34370000Y-63754000D03*
D17*
X58166000Y-59436000D03*
D18*
X55666000Y-59436000D03*
D17*
X54102000Y-33274000D03*
D18*
X54102000Y-35774000D03*
D21*
X42418000Y-33274000D03*
D14*
X42418000Y-35814000D03*
D21*
X38354000Y-59182000D03*
D14*
X35814000Y-59182000D03*
D22*
X40068500Y-43053000D03*
D23*
X40068500Y-40513000D03*
D22*
X47498000Y-35814000D03*
D23*
X47498000Y-33274000D03*
D22*
X97028000Y-41910000D03*
D23*
X97028000Y-44450000D03*
X97028000Y-46990000D03*
X97028000Y-49530000D03*
X97028000Y-52070000D03*
D17*
X38100000Y-82804000D03*
D18*
X40640000Y-82804000D03*
D21*
X61595000Y-37465000D03*
D14*
X61595000Y-35165000D03*
X61595000Y-32865000D03*
D12*
X51054000Y-41148000D03*
D13*
X51054000Y-43688000D03*
D12*
X64516000Y-41148000D03*
D13*
X61976000Y-41148000D03*
D12*
X69088000Y-35814000D03*
D13*
X71628000Y-35814000D03*
D12*
X71120000Y-52578000D03*
D13*
X71120000Y-55118000D03*
D12*
X35560000Y-81788000D03*
D13*
X33020000Y-81788000D03*
D14*
X85852000Y-49712000D03*
X85852000Y-45212000D03*
X92352000Y-49712000D03*
X92352000Y-45212000D03*
D17*
X74000000Y-50000000D03*
D18*
X74000000Y-52540000D03*
X74000000Y-55080000D03*
X74000000Y-57620000D03*
X74000000Y-60160000D03*
X74000000Y-62700000D03*
X74000000Y-65240000D03*
X81620000Y-65240000D03*
X81620000Y-62700000D03*
X81620000Y-60160000D03*
X81620000Y-57620000D03*
X81620000Y-55080000D03*
X81620000Y-52540000D03*
X81620000Y-50000000D03*
D24*
X63500000Y-53086000D03*
X66040000Y-53086000D03*
D12*
X55626000Y-65786000D03*
D13*
X58166000Y-65786000D03*
D25*
X40000000Y-49000000D03*
X40000000Y-54000000D03*
D20*
X52578000Y-66040000D03*
X47578000Y-66040000D03*
D15*
X95758000Y-35560000D03*
X36322000Y-35306000D03*
X34544000Y-86614000D03*
M02*
