G04 #@! TF.FileFunction,Legend,Top*
%FSLAX46Y46*%
G04 Gerber Fmt 4.6, Leading zero omitted, Abs format (unit mm)*
G04 Created by KiCad (PCBNEW 4.0.7) date 06/25/18 21:51:06*
%MOMM*%
%LPD*%
G01*
G04 APERTURE LIST*
%ADD10C,0.150000*%
%ADD11C,0.200000*%
%ADD12C,0.400000*%
%ADD13C,0.300000*%
%ADD14C,0.120000*%
%ADD15C,0.010000*%
G04 APERTURE END LIST*
D10*
D11*
X96774000Y-56134000D02*
X97536000Y-56134000D01*
X96774000Y-56896000D02*
X96774000Y-56134000D01*
X96774000Y-56134000D02*
X96774000Y-56896000D01*
X96774000Y-61722000D02*
G75*
G03X96774000Y-56134000I-2794000J2794000D01*
G01*
X59182000Y-81280000D02*
X59182000Y-81534000D01*
X58420000Y-80518000D02*
X59182000Y-81280000D01*
X58420000Y-80518000D02*
X57658000Y-81280000D01*
X58420000Y-88646000D02*
X59182000Y-87884000D01*
X58420000Y-88646000D02*
X57658000Y-87884000D01*
X58420000Y-80518000D02*
X58420000Y-88646000D01*
D12*
X93980000Y-58928000D02*
X95250000Y-60198000D01*
X93980000Y-56642000D02*
X93980000Y-58928000D01*
X96876046Y-58928000D02*
G75*
G03X96876046Y-58928000I-2896046J0D01*
G01*
D13*
X46926572Y-31095143D02*
X48069429Y-31095143D01*
X47498000Y-31666571D02*
X47498000Y-30523714D01*
D11*
X99822000Y-42926000D02*
X98806000Y-41910000D01*
X99822000Y-40894000D02*
X99822000Y-42926000D01*
X98806000Y-41910000D02*
X99822000Y-40894000D01*
D13*
X51879428Y-47605143D02*
X50736571Y-47605143D01*
X51308000Y-48176571D02*
X51308000Y-47033714D01*
X33972572Y-57257143D02*
X35115429Y-57257143D01*
X34544000Y-57828571D02*
X34544000Y-56685714D01*
X40830572Y-81133143D02*
X41973429Y-81133143D01*
X41402000Y-81704571D02*
X41402000Y-80561714D01*
X77152572Y-32111143D02*
X78295429Y-32111143D01*
X77724000Y-32682571D02*
X77724000Y-31539714D01*
X41846572Y-37699143D02*
X42989429Y-37699143D01*
X42418000Y-38270571D02*
X42418000Y-37127714D01*
X36766572Y-43033143D02*
X37909429Y-43033143D01*
X36766572Y-40493143D02*
X37909429Y-40493143D01*
X37338000Y-41064571D02*
X37338000Y-39921714D01*
D10*
X87022000Y-69986000D02*
X61822000Y-69986000D01*
X61822000Y-69986000D02*
X61822000Y-86986000D01*
X61822000Y-86986000D02*
X87022000Y-86986000D01*
X87022000Y-86986000D02*
X87022000Y-69986000D01*
D14*
X72488000Y-39878000D02*
G75*
G03X72488000Y-39878000I-860000J0D01*
G01*
X70768000Y-39878000D02*
X70088000Y-39878000D01*
X91678000Y-80938000D02*
X96178000Y-80938000D01*
X90428000Y-76938000D02*
X90428000Y-78438000D01*
X96178000Y-74438000D02*
X91678000Y-74438000D01*
X97428000Y-78438000D02*
X97428000Y-76938000D01*
D10*
X38773000Y-73732000D02*
G75*
G03X37773000Y-72732000I-1000000J0D01*
G01*
X37773000Y-74732000D02*
G75*
G03X38773000Y-73732000I0J1000000D01*
G01*
X37773000Y-77097000D02*
X37773000Y-70367000D01*
X37773000Y-70367000D02*
X55953000Y-70367000D01*
X55953000Y-70367000D02*
X55953000Y-77097000D01*
X55953000Y-77097000D02*
X37773000Y-77097000D01*
X38808000Y-79767000D02*
G75*
G03X38808000Y-79767000I-200000J0D01*
G01*
X45492000Y-56976000D02*
X45492000Y-61876000D01*
X45036610Y-62081127D02*
G75*
G03X45492000Y-61876000I-944610J2705127D01*
G01*
X45479812Y-56971783D02*
G75*
G03X45042000Y-56776000I-1337812J-2404217D01*
G01*
X42800490Y-56773077D02*
G75*
G03X42792000Y-61976000I891510J-2602923D01*
G01*
D14*
X54620000Y-49784000D02*
G75*
G03X54620000Y-49784000I-3840000J0D01*
G01*
X50780000Y-45984000D02*
X50780000Y-53584000D01*
X50820000Y-45984000D02*
X50820000Y-53584000D01*
X50860000Y-45984000D02*
X50860000Y-53584000D01*
X50900000Y-45985000D02*
X50900000Y-53583000D01*
X50940000Y-45987000D02*
X50940000Y-53581000D01*
X50980000Y-45989000D02*
X50980000Y-53579000D01*
X51020000Y-45991000D02*
X51020000Y-53577000D01*
X51060000Y-45994000D02*
X51060000Y-48804000D01*
X51060000Y-50764000D02*
X51060000Y-53574000D01*
X51100000Y-45997000D02*
X51100000Y-48804000D01*
X51100000Y-50764000D02*
X51100000Y-53571000D01*
X51140000Y-46000000D02*
X51140000Y-48804000D01*
X51140000Y-50764000D02*
X51140000Y-53568000D01*
X51180000Y-46004000D02*
X51180000Y-48804000D01*
X51180000Y-50764000D02*
X51180000Y-53564000D01*
X51220000Y-46009000D02*
X51220000Y-48804000D01*
X51220000Y-50764000D02*
X51220000Y-53559000D01*
X51260000Y-46014000D02*
X51260000Y-48804000D01*
X51260000Y-50764000D02*
X51260000Y-53554000D01*
X51300000Y-46019000D02*
X51300000Y-48804000D01*
X51300000Y-50764000D02*
X51300000Y-53549000D01*
X51340000Y-46025000D02*
X51340000Y-48804000D01*
X51340000Y-50764000D02*
X51340000Y-53543000D01*
X51380000Y-46031000D02*
X51380000Y-48804000D01*
X51380000Y-50764000D02*
X51380000Y-53537000D01*
X51420000Y-46037000D02*
X51420000Y-48804000D01*
X51420000Y-50764000D02*
X51420000Y-53531000D01*
X51460000Y-46044000D02*
X51460000Y-48804000D01*
X51460000Y-50764000D02*
X51460000Y-53524000D01*
X51501000Y-46052000D02*
X51501000Y-48804000D01*
X51501000Y-50764000D02*
X51501000Y-53516000D01*
X51541000Y-46059000D02*
X51541000Y-48804000D01*
X51541000Y-50764000D02*
X51541000Y-53509000D01*
X51581000Y-46068000D02*
X51581000Y-48804000D01*
X51581000Y-50764000D02*
X51581000Y-53500000D01*
X51621000Y-46077000D02*
X51621000Y-48804000D01*
X51621000Y-50764000D02*
X51621000Y-53491000D01*
X51661000Y-46086000D02*
X51661000Y-48804000D01*
X51661000Y-50764000D02*
X51661000Y-53482000D01*
X51701000Y-46095000D02*
X51701000Y-48804000D01*
X51701000Y-50764000D02*
X51701000Y-53473000D01*
X51741000Y-46105000D02*
X51741000Y-48804000D01*
X51741000Y-50764000D02*
X51741000Y-53463000D01*
X51781000Y-46116000D02*
X51781000Y-48804000D01*
X51781000Y-50764000D02*
X51781000Y-53452000D01*
X51821000Y-46127000D02*
X51821000Y-48804000D01*
X51821000Y-50764000D02*
X51821000Y-53441000D01*
X51861000Y-46139000D02*
X51861000Y-48804000D01*
X51861000Y-50764000D02*
X51861000Y-53429000D01*
X51901000Y-46150000D02*
X51901000Y-48804000D01*
X51901000Y-50764000D02*
X51901000Y-53418000D01*
X51941000Y-46163000D02*
X51941000Y-48804000D01*
X51941000Y-50764000D02*
X51941000Y-53405000D01*
X51981000Y-46176000D02*
X51981000Y-48804000D01*
X51981000Y-50764000D02*
X51981000Y-53392000D01*
X52021000Y-46189000D02*
X52021000Y-48804000D01*
X52021000Y-50764000D02*
X52021000Y-53379000D01*
X52061000Y-46203000D02*
X52061000Y-48804000D01*
X52061000Y-50764000D02*
X52061000Y-53365000D01*
X52101000Y-46218000D02*
X52101000Y-48804000D01*
X52101000Y-50764000D02*
X52101000Y-53350000D01*
X52141000Y-46232000D02*
X52141000Y-48804000D01*
X52141000Y-50764000D02*
X52141000Y-53336000D01*
X52181000Y-46248000D02*
X52181000Y-48804000D01*
X52181000Y-50764000D02*
X52181000Y-53320000D01*
X52221000Y-46264000D02*
X52221000Y-48804000D01*
X52221000Y-50764000D02*
X52221000Y-53304000D01*
X52261000Y-46280000D02*
X52261000Y-48804000D01*
X52261000Y-50764000D02*
X52261000Y-53288000D01*
X52301000Y-46297000D02*
X52301000Y-48804000D01*
X52301000Y-50764000D02*
X52301000Y-53271000D01*
X52341000Y-46315000D02*
X52341000Y-48804000D01*
X52341000Y-50764000D02*
X52341000Y-53253000D01*
X52381000Y-46333000D02*
X52381000Y-48804000D01*
X52381000Y-50764000D02*
X52381000Y-53235000D01*
X52421000Y-46351000D02*
X52421000Y-48804000D01*
X52421000Y-50764000D02*
X52421000Y-53217000D01*
X52461000Y-46371000D02*
X52461000Y-48804000D01*
X52461000Y-50764000D02*
X52461000Y-53197000D01*
X52501000Y-46390000D02*
X52501000Y-48804000D01*
X52501000Y-50764000D02*
X52501000Y-53178000D01*
X52541000Y-46411000D02*
X52541000Y-48804000D01*
X52541000Y-50764000D02*
X52541000Y-53157000D01*
X52581000Y-46432000D02*
X52581000Y-48804000D01*
X52581000Y-50764000D02*
X52581000Y-53136000D01*
X52621000Y-46453000D02*
X52621000Y-48804000D01*
X52621000Y-50764000D02*
X52621000Y-53115000D01*
X52661000Y-46475000D02*
X52661000Y-48804000D01*
X52661000Y-50764000D02*
X52661000Y-53093000D01*
X52701000Y-46498000D02*
X52701000Y-48804000D01*
X52701000Y-50764000D02*
X52701000Y-53070000D01*
X52741000Y-46521000D02*
X52741000Y-48804000D01*
X52741000Y-50764000D02*
X52741000Y-53047000D01*
X52781000Y-46545000D02*
X52781000Y-48804000D01*
X52781000Y-50764000D02*
X52781000Y-53023000D01*
X52821000Y-46570000D02*
X52821000Y-48804000D01*
X52821000Y-50764000D02*
X52821000Y-52998000D01*
X52861000Y-46596000D02*
X52861000Y-48804000D01*
X52861000Y-50764000D02*
X52861000Y-52972000D01*
X52901000Y-46622000D02*
X52901000Y-48804000D01*
X52901000Y-50764000D02*
X52901000Y-52946000D01*
X52941000Y-46649000D02*
X52941000Y-48804000D01*
X52941000Y-50764000D02*
X52941000Y-52919000D01*
X52981000Y-46676000D02*
X52981000Y-48804000D01*
X52981000Y-50764000D02*
X52981000Y-52892000D01*
X53021000Y-46705000D02*
X53021000Y-52863000D01*
X53061000Y-46734000D02*
X53061000Y-52834000D01*
X53101000Y-46764000D02*
X53101000Y-52804000D01*
X53141000Y-46794000D02*
X53141000Y-52774000D01*
X53181000Y-46826000D02*
X53181000Y-52742000D01*
X53221000Y-46858000D02*
X53221000Y-52710000D01*
X53261000Y-46892000D02*
X53261000Y-52676000D01*
X53301000Y-46926000D02*
X53301000Y-52642000D01*
X53341000Y-46961000D02*
X53341000Y-52607000D01*
X53381000Y-46998000D02*
X53381000Y-52570000D01*
X53421000Y-47035000D02*
X53421000Y-52533000D01*
X53461000Y-47073000D02*
X53461000Y-52495000D01*
X53501000Y-47113000D02*
X53501000Y-52455000D01*
X53541000Y-47154000D02*
X53541000Y-52414000D01*
X53581000Y-47196000D02*
X53581000Y-52372000D01*
X53621000Y-47239000D02*
X53621000Y-52329000D01*
X53661000Y-47284000D02*
X53661000Y-52284000D01*
X53701000Y-47330000D02*
X53701000Y-52238000D01*
X53741000Y-47377000D02*
X53741000Y-52191000D01*
X53781000Y-47427000D02*
X53781000Y-52141000D01*
X53821000Y-47477000D02*
X53821000Y-52091000D01*
X53861000Y-47530000D02*
X53861000Y-52038000D01*
X53901000Y-47585000D02*
X53901000Y-51983000D01*
X53941000Y-47642000D02*
X53941000Y-51926000D01*
X53981000Y-47701000D02*
X53981000Y-51867000D01*
X54021000Y-47762000D02*
X54021000Y-51806000D01*
X54061000Y-47827000D02*
X54061000Y-51741000D01*
X54101000Y-47894000D02*
X54101000Y-51674000D01*
X54141000Y-47964000D02*
X54141000Y-51604000D01*
X54181000Y-48039000D02*
X54181000Y-51529000D01*
X54221000Y-48117000D02*
X54221000Y-51451000D01*
X54261000Y-48200000D02*
X54261000Y-51368000D01*
X54301000Y-48289000D02*
X54301000Y-51279000D01*
X54341000Y-48384000D02*
X54341000Y-51184000D01*
X54381000Y-48487000D02*
X54381000Y-51081000D01*
X54421000Y-48600000D02*
X54421000Y-50968000D01*
X54461000Y-48727000D02*
X54461000Y-50841000D01*
X54501000Y-48871000D02*
X54501000Y-50697000D01*
X54541000Y-49044000D02*
X54541000Y-50524000D01*
X54581000Y-49271000D02*
X54581000Y-50297000D01*
X47330000Y-49784000D02*
X48530000Y-49784000D01*
X47930000Y-49134000D02*
X47930000Y-50434000D01*
X91678000Y-70016000D02*
X96178000Y-70016000D01*
X90428000Y-66016000D02*
X90428000Y-67516000D01*
X96178000Y-63516000D02*
X91678000Y-63516000D01*
X97428000Y-67516000D02*
X97428000Y-66016000D01*
X44942000Y-87542000D02*
X49442000Y-87542000D01*
X43692000Y-83542000D02*
X43692000Y-85042000D01*
X49442000Y-81042000D02*
X44942000Y-81042000D01*
X50692000Y-85042000D02*
X50692000Y-83542000D01*
X83937000Y-35750500D02*
G75*
G03X83937000Y-35750500I-5090000J0D01*
G01*
X78847000Y-30700500D02*
X78847000Y-40800500D01*
X78887000Y-30700500D02*
X78887000Y-40800500D01*
X78927000Y-30700500D02*
X78927000Y-40800500D01*
X78967000Y-30701500D02*
X78967000Y-40799500D01*
X79007000Y-30702500D02*
X79007000Y-40798500D01*
X79047000Y-30703500D02*
X79047000Y-40797500D01*
X79087000Y-30705500D02*
X79087000Y-40795500D01*
X79127000Y-30707500D02*
X79127000Y-34770500D01*
X79127000Y-36730500D02*
X79127000Y-40793500D01*
X79167000Y-30710500D02*
X79167000Y-34770500D01*
X79167000Y-36730500D02*
X79167000Y-40790500D01*
X79207000Y-30712500D02*
X79207000Y-34770500D01*
X79207000Y-36730500D02*
X79207000Y-40788500D01*
X79247000Y-30715500D02*
X79247000Y-34770500D01*
X79247000Y-36730500D02*
X79247000Y-40785500D01*
X79287000Y-30719500D02*
X79287000Y-34770500D01*
X79287000Y-36730500D02*
X79287000Y-40781500D01*
X79327000Y-30722500D02*
X79327000Y-34770500D01*
X79327000Y-36730500D02*
X79327000Y-40778500D01*
X79367000Y-30726500D02*
X79367000Y-34770500D01*
X79367000Y-36730500D02*
X79367000Y-40774500D01*
X79407000Y-30730500D02*
X79407000Y-34770500D01*
X79407000Y-36730500D02*
X79407000Y-40770500D01*
X79447000Y-30735500D02*
X79447000Y-34770500D01*
X79447000Y-36730500D02*
X79447000Y-40765500D01*
X79487000Y-30740500D02*
X79487000Y-34770500D01*
X79487000Y-36730500D02*
X79487000Y-40760500D01*
X79527000Y-30745500D02*
X79527000Y-34770500D01*
X79527000Y-36730500D02*
X79527000Y-40755500D01*
X79568000Y-30751500D02*
X79568000Y-34770500D01*
X79568000Y-36730500D02*
X79568000Y-40749500D01*
X79608000Y-30757500D02*
X79608000Y-34770500D01*
X79608000Y-36730500D02*
X79608000Y-40743500D01*
X79648000Y-30763500D02*
X79648000Y-34770500D01*
X79648000Y-36730500D02*
X79648000Y-40737500D01*
X79688000Y-30769500D02*
X79688000Y-34770500D01*
X79688000Y-36730500D02*
X79688000Y-40731500D01*
X79728000Y-30776500D02*
X79728000Y-34770500D01*
X79728000Y-36730500D02*
X79728000Y-40724500D01*
X79768000Y-30783500D02*
X79768000Y-34770500D01*
X79768000Y-36730500D02*
X79768000Y-40717500D01*
X79808000Y-30791500D02*
X79808000Y-34770500D01*
X79808000Y-36730500D02*
X79808000Y-40709500D01*
X79848000Y-30799500D02*
X79848000Y-34770500D01*
X79848000Y-36730500D02*
X79848000Y-40701500D01*
X79888000Y-30807500D02*
X79888000Y-34770500D01*
X79888000Y-36730500D02*
X79888000Y-40693500D01*
X79928000Y-30815500D02*
X79928000Y-34770500D01*
X79928000Y-36730500D02*
X79928000Y-40685500D01*
X79968000Y-30824500D02*
X79968000Y-34770500D01*
X79968000Y-36730500D02*
X79968000Y-40676500D01*
X80008000Y-30833500D02*
X80008000Y-34770500D01*
X80008000Y-36730500D02*
X80008000Y-40667500D01*
X80048000Y-30843500D02*
X80048000Y-34770500D01*
X80048000Y-36730500D02*
X80048000Y-40657500D01*
X80088000Y-30853500D02*
X80088000Y-34770500D01*
X80088000Y-36730500D02*
X80088000Y-40647500D01*
X80128000Y-30863500D02*
X80128000Y-34770500D01*
X80128000Y-36730500D02*
X80128000Y-40637500D01*
X80168000Y-30874500D02*
X80168000Y-34770500D01*
X80168000Y-36730500D02*
X80168000Y-40626500D01*
X80208000Y-30885500D02*
X80208000Y-34770500D01*
X80208000Y-36730500D02*
X80208000Y-40615500D01*
X80248000Y-30896500D02*
X80248000Y-34770500D01*
X80248000Y-36730500D02*
X80248000Y-40604500D01*
X80288000Y-30907500D02*
X80288000Y-34770500D01*
X80288000Y-36730500D02*
X80288000Y-40593500D01*
X80328000Y-30919500D02*
X80328000Y-34770500D01*
X80328000Y-36730500D02*
X80328000Y-40581500D01*
X80368000Y-30932500D02*
X80368000Y-34770500D01*
X80368000Y-36730500D02*
X80368000Y-40568500D01*
X80408000Y-30944500D02*
X80408000Y-34770500D01*
X80408000Y-36730500D02*
X80408000Y-40556500D01*
X80448000Y-30958500D02*
X80448000Y-34770500D01*
X80448000Y-36730500D02*
X80448000Y-40542500D01*
X80488000Y-30971500D02*
X80488000Y-34770500D01*
X80488000Y-36730500D02*
X80488000Y-40529500D01*
X80528000Y-30985500D02*
X80528000Y-34770500D01*
X80528000Y-36730500D02*
X80528000Y-40515500D01*
X80568000Y-30999500D02*
X80568000Y-34770500D01*
X80568000Y-36730500D02*
X80568000Y-40501500D01*
X80608000Y-31013500D02*
X80608000Y-34770500D01*
X80608000Y-36730500D02*
X80608000Y-40487500D01*
X80648000Y-31028500D02*
X80648000Y-34770500D01*
X80648000Y-36730500D02*
X80648000Y-40472500D01*
X80688000Y-31044500D02*
X80688000Y-34770500D01*
X80688000Y-36730500D02*
X80688000Y-40456500D01*
X80728000Y-31059500D02*
X80728000Y-34770500D01*
X80728000Y-36730500D02*
X80728000Y-40441500D01*
X80768000Y-31076500D02*
X80768000Y-34770500D01*
X80768000Y-36730500D02*
X80768000Y-40424500D01*
X80808000Y-31092500D02*
X80808000Y-34770500D01*
X80808000Y-36730500D02*
X80808000Y-40408500D01*
X80848000Y-31109500D02*
X80848000Y-34770500D01*
X80848000Y-36730500D02*
X80848000Y-40391500D01*
X80888000Y-31126500D02*
X80888000Y-34770500D01*
X80888000Y-36730500D02*
X80888000Y-40374500D01*
X80928000Y-31144500D02*
X80928000Y-34770500D01*
X80928000Y-36730500D02*
X80928000Y-40356500D01*
X80968000Y-31162500D02*
X80968000Y-34770500D01*
X80968000Y-36730500D02*
X80968000Y-40338500D01*
X81008000Y-31181500D02*
X81008000Y-34770500D01*
X81008000Y-36730500D02*
X81008000Y-40319500D01*
X81048000Y-31200500D02*
X81048000Y-34770500D01*
X81048000Y-36730500D02*
X81048000Y-40300500D01*
X81088000Y-31219500D02*
X81088000Y-40281500D01*
X81128000Y-31239500D02*
X81128000Y-40261500D01*
X81168000Y-31259500D02*
X81168000Y-40241500D01*
X81208000Y-31280500D02*
X81208000Y-40220500D01*
X81248000Y-31301500D02*
X81248000Y-40199500D01*
X81288000Y-31322500D02*
X81288000Y-40178500D01*
X81328000Y-31345500D02*
X81328000Y-40155500D01*
X81368000Y-31367500D02*
X81368000Y-40133500D01*
X81408000Y-31390500D02*
X81408000Y-40110500D01*
X81448000Y-31414500D02*
X81448000Y-40086500D01*
X81488000Y-31438500D02*
X81488000Y-40062500D01*
X81528000Y-31462500D02*
X81528000Y-40038500D01*
X81568000Y-31487500D02*
X81568000Y-40013500D01*
X81608000Y-31513500D02*
X81608000Y-39987500D01*
X81648000Y-31539500D02*
X81648000Y-39961500D01*
X81688000Y-31565500D02*
X81688000Y-39935500D01*
X81728000Y-31593500D02*
X81728000Y-39907500D01*
X81768000Y-31620500D02*
X81768000Y-39880500D01*
X81808000Y-31649500D02*
X81808000Y-39851500D01*
X81848000Y-31678500D02*
X81848000Y-39822500D01*
X81888000Y-31707500D02*
X81888000Y-39793500D01*
X81928000Y-31737500D02*
X81928000Y-39763500D01*
X81968000Y-31768500D02*
X81968000Y-39732500D01*
X82008000Y-31799500D02*
X82008000Y-39701500D01*
X82048000Y-31831500D02*
X82048000Y-39669500D01*
X82088000Y-31864500D02*
X82088000Y-39636500D01*
X82128000Y-31897500D02*
X82128000Y-39603500D01*
X82168000Y-31931500D02*
X82168000Y-39569500D01*
X82208000Y-31966500D02*
X82208000Y-39534500D01*
X82248000Y-32002500D02*
X82248000Y-39498500D01*
X82288000Y-32038500D02*
X82288000Y-39462500D01*
X82328000Y-32075500D02*
X82328000Y-39425500D01*
X82368000Y-32113500D02*
X82368000Y-39387500D01*
X82408000Y-32152500D02*
X82408000Y-39348500D01*
X82448000Y-32191500D02*
X82448000Y-39309500D01*
X82488000Y-32232500D02*
X82488000Y-39268500D01*
X82528000Y-32273500D02*
X82528000Y-39227500D01*
X82568000Y-32315500D02*
X82568000Y-39185500D01*
X82608000Y-32359500D02*
X82608000Y-39141500D01*
X82648000Y-32403500D02*
X82648000Y-39097500D01*
X82688000Y-32448500D02*
X82688000Y-39052500D01*
X82728000Y-32495500D02*
X82728000Y-39005500D01*
X82768000Y-32543500D02*
X82768000Y-38957500D01*
X82808000Y-32592500D02*
X82808000Y-38908500D01*
X82848000Y-32642500D02*
X82848000Y-38858500D01*
X82888000Y-32693500D02*
X82888000Y-38807500D01*
X82928000Y-32746500D02*
X82928000Y-38754500D01*
X82968000Y-32801500D02*
X82968000Y-38699500D01*
X83008000Y-32856500D02*
X83008000Y-38644500D01*
X83048000Y-32914500D02*
X83048000Y-38586500D01*
X83088000Y-32973500D02*
X83088000Y-38527500D01*
X83128000Y-33035500D02*
X83128000Y-38465500D01*
X83168000Y-33098500D02*
X83168000Y-38402500D01*
X83208000Y-33163500D02*
X83208000Y-38337500D01*
X83248000Y-33231500D02*
X83248000Y-38269500D01*
X83288000Y-33301500D02*
X83288000Y-38199500D01*
X83328000Y-33373500D02*
X83328000Y-38127500D01*
X83368000Y-33449500D02*
X83368000Y-38051500D01*
X83408000Y-33528500D02*
X83408000Y-37972500D01*
X83448000Y-33610500D02*
X83448000Y-37890500D01*
X83488000Y-33697500D02*
X83488000Y-37803500D01*
X83528000Y-33788500D02*
X83528000Y-37712500D01*
X83568000Y-33884500D02*
X83568000Y-37616500D01*
X83608000Y-33987500D02*
X83608000Y-37513500D01*
X83648000Y-34096500D02*
X83648000Y-37404500D01*
X83688000Y-34214500D02*
X83688000Y-37286500D01*
X83728000Y-34343500D02*
X83728000Y-37157500D01*
X83768000Y-34485500D02*
X83768000Y-37015500D01*
X83808000Y-34646500D02*
X83808000Y-36854500D01*
X83848000Y-34837500D02*
X83848000Y-36663500D01*
X83888000Y-35078500D02*
X83888000Y-36422500D01*
X83928000Y-35471500D02*
X83928000Y-36029500D01*
X75397000Y-35750500D02*
X76597000Y-35750500D01*
X75997000Y-35100500D02*
X75997000Y-36400500D01*
X80560000Y-46310000D02*
X74440000Y-46310000D01*
X80560000Y-43690000D02*
X74440000Y-43690000D01*
X80560000Y-46310000D02*
X80560000Y-45996000D01*
X80560000Y-44004000D02*
X80560000Y-43690000D01*
X74440000Y-46310000D02*
X74440000Y-45996000D01*
X74440000Y-44004000D02*
X74440000Y-43690000D01*
X88352000Y-41200000D02*
X88352000Y-35080000D01*
X90972000Y-41200000D02*
X90972000Y-35080000D01*
X88352000Y-41200000D02*
X88666000Y-41200000D01*
X90658000Y-41200000D02*
X90972000Y-41200000D01*
X88352000Y-35080000D02*
X88666000Y-35080000D01*
X90658000Y-35080000D02*
X90972000Y-35080000D01*
X66350000Y-51860000D02*
X63230000Y-51860000D01*
X66350000Y-49740000D02*
X63230000Y-49740000D01*
X66350000Y-51860000D02*
X66350000Y-51796000D01*
X66350000Y-49804000D02*
X66350000Y-49740000D01*
X63230000Y-51860000D02*
X63230000Y-51796000D01*
X63230000Y-49804000D02*
X63230000Y-49740000D01*
X67520000Y-55428000D02*
X67520000Y-52308000D01*
X69640000Y-55428000D02*
X69640000Y-52308000D01*
X67520000Y-55428000D02*
X67584000Y-55428000D01*
X69576000Y-55428000D02*
X69640000Y-55428000D01*
X67520000Y-52308000D02*
X67584000Y-52308000D01*
X69576000Y-52308000D02*
X69640000Y-52308000D01*
X39930000Y-65064000D02*
X33810000Y-65064000D01*
X39930000Y-62444000D02*
X33810000Y-62444000D01*
X39930000Y-65064000D02*
X39930000Y-64750000D01*
X39930000Y-62758000D02*
X39930000Y-62444000D01*
X33810000Y-65064000D02*
X33810000Y-64750000D01*
X33810000Y-62758000D02*
X33810000Y-62444000D01*
D10*
X60066000Y-59436000D02*
G75*
G03X60066000Y-59436000I-3150000J0D01*
G01*
X56916000Y-59436000D02*
X53766000Y-59436000D01*
X56916000Y-59436000D02*
X53766000Y-59436000D01*
X56916000Y-59336000D02*
X53767588Y-59336000D01*
X56916000Y-59536000D02*
X53767588Y-59536000D01*
X56916000Y-59236000D02*
X53772356Y-59236000D01*
X56916000Y-59636000D02*
X53772356Y-59636000D01*
X56916000Y-59136000D02*
X53780318Y-59136000D01*
X56916000Y-59736000D02*
X53780318Y-59736000D01*
X56916000Y-59036000D02*
X53791500Y-59036000D01*
X56916000Y-59836000D02*
X53791500Y-59836000D01*
X56916000Y-58936000D02*
X53805936Y-58936000D01*
X56916000Y-59936000D02*
X53805936Y-59936000D01*
X56916000Y-58836000D02*
X53823671Y-58836000D01*
X56916000Y-60036000D02*
X53823671Y-60036000D01*
X56916000Y-58736000D02*
X53844762Y-58736000D01*
X56916000Y-60136000D02*
X53844762Y-60136000D01*
X56916000Y-58636000D02*
X53869280Y-58636000D01*
X56916000Y-60236000D02*
X53869280Y-60236000D01*
X56916000Y-58536000D02*
X53897308Y-58536000D01*
X56916000Y-60336000D02*
X53897308Y-60336000D01*
X56916000Y-58436000D02*
X53928945Y-58436000D01*
X56916000Y-60436000D02*
X53928945Y-60436000D01*
X56916000Y-58336000D02*
X53964306Y-58336000D01*
X56916000Y-60536000D02*
X53964306Y-60536000D01*
X56916000Y-58236000D02*
X54003527Y-58236000D01*
X56916000Y-60636000D02*
X54003527Y-60636000D01*
X56916000Y-58136000D02*
X54046767Y-58136000D01*
X56916000Y-60736000D02*
X54046767Y-60736000D01*
X56916000Y-58036000D02*
X54094210Y-58036000D01*
X56916000Y-60836000D02*
X54094210Y-60836000D01*
X56916000Y-57936000D02*
X54146072Y-57936000D01*
X56916000Y-60936000D02*
X54146072Y-60936000D01*
X56916000Y-57836000D02*
X54202607Y-57836000D01*
X56916000Y-61036000D02*
X54202607Y-61036000D01*
X56916000Y-57736000D02*
X54264114Y-57736000D01*
X56916000Y-61136000D02*
X54264114Y-61136000D01*
X56916000Y-57636000D02*
X54330947Y-57636000D01*
X56916000Y-61236000D02*
X54330947Y-61236000D01*
X56916000Y-57536000D02*
X54403531Y-57536000D01*
X56916000Y-61336000D02*
X54403531Y-61336000D01*
X56916000Y-57436000D02*
X54482381Y-57436000D01*
X56916000Y-61436000D02*
X54482381Y-61436000D01*
X56916000Y-57336000D02*
X54568129Y-57336000D01*
X56916000Y-61536000D02*
X54568129Y-61536000D01*
X56916000Y-57236000D02*
X54661560Y-57236000D01*
X56916000Y-61636000D02*
X54661560Y-61636000D01*
X56916000Y-57136000D02*
X54763676Y-57136000D01*
X56916000Y-61736000D02*
X54763676Y-61736000D01*
X56916000Y-57036000D02*
X54875779Y-57036000D01*
X56916000Y-61836000D02*
X54875779Y-61836000D01*
X56916000Y-56936000D02*
X54999623Y-56936000D01*
X56916000Y-61936000D02*
X54999623Y-61936000D01*
X56916000Y-56836000D02*
X55137658Y-56836000D01*
X56916000Y-62036000D02*
X55137658Y-62036000D01*
X56916000Y-56736000D02*
X55293502Y-56736000D01*
X56916000Y-62136000D02*
X55293502Y-62136000D01*
X56916000Y-56636000D02*
X55472913Y-56636000D01*
X56916000Y-62236000D02*
X55472913Y-62236000D01*
X56916000Y-56536000D02*
X55686163Y-56536000D01*
X56916000Y-62336000D02*
X55686163Y-62336000D01*
X56916000Y-56436000D02*
X55955531Y-56436000D01*
X56916000Y-62436000D02*
X55955531Y-62436000D01*
X56916000Y-56336000D02*
X56356983Y-56336000D01*
X56916000Y-62536000D02*
X56356983Y-62536000D01*
X57252000Y-34524000D02*
G75*
G03X57252000Y-34524000I-3150000J0D01*
G01*
X54102000Y-34524000D02*
X54102000Y-37674000D01*
X54102000Y-34524000D02*
X54102000Y-37674000D01*
X54002000Y-34524000D02*
X54002000Y-37672412D01*
X54202000Y-34524000D02*
X54202000Y-37672412D01*
X53902000Y-34524000D02*
X53902000Y-37667644D01*
X54302000Y-34524000D02*
X54302000Y-37667644D01*
X53802000Y-34524000D02*
X53802000Y-37659682D01*
X54402000Y-34524000D02*
X54402000Y-37659682D01*
X53702000Y-34524000D02*
X53702000Y-37648500D01*
X54502000Y-34524000D02*
X54502000Y-37648500D01*
X53602000Y-34524000D02*
X53602000Y-37634064D01*
X54602000Y-34524000D02*
X54602000Y-37634064D01*
X53502000Y-34524000D02*
X53502000Y-37616329D01*
X54702000Y-34524000D02*
X54702000Y-37616329D01*
X53402000Y-34524000D02*
X53402000Y-37595238D01*
X54802000Y-34524000D02*
X54802000Y-37595238D01*
X53302000Y-34524000D02*
X53302000Y-37570720D01*
X54902000Y-34524000D02*
X54902000Y-37570720D01*
X53202000Y-34524000D02*
X53202000Y-37542692D01*
X55002000Y-34524000D02*
X55002000Y-37542692D01*
X53102000Y-34524000D02*
X53102000Y-37511055D01*
X55102000Y-34524000D02*
X55102000Y-37511055D01*
X53002000Y-34524000D02*
X53002000Y-37475694D01*
X55202000Y-34524000D02*
X55202000Y-37475694D01*
X52902000Y-34524000D02*
X52902000Y-37436473D01*
X55302000Y-34524000D02*
X55302000Y-37436473D01*
X52802000Y-34524000D02*
X52802000Y-37393233D01*
X55402000Y-34524000D02*
X55402000Y-37393233D01*
X52702000Y-34524000D02*
X52702000Y-37345790D01*
X55502000Y-34524000D02*
X55502000Y-37345790D01*
X52602000Y-34524000D02*
X52602000Y-37293928D01*
X55602000Y-34524000D02*
X55602000Y-37293928D01*
X52502000Y-34524000D02*
X52502000Y-37237393D01*
X55702000Y-34524000D02*
X55702000Y-37237393D01*
X52402000Y-34524000D02*
X52402000Y-37175886D01*
X55802000Y-34524000D02*
X55802000Y-37175886D01*
X52302000Y-34524000D02*
X52302000Y-37109053D01*
X55902000Y-34524000D02*
X55902000Y-37109053D01*
X52202000Y-34524000D02*
X52202000Y-37036469D01*
X56002000Y-34524000D02*
X56002000Y-37036469D01*
X52102000Y-34524000D02*
X52102000Y-36957619D01*
X56102000Y-34524000D02*
X56102000Y-36957619D01*
X52002000Y-34524000D02*
X52002000Y-36871871D01*
X56202000Y-34524000D02*
X56202000Y-36871871D01*
X51902000Y-34524000D02*
X51902000Y-36778440D01*
X56302000Y-34524000D02*
X56302000Y-36778440D01*
X51802000Y-34524000D02*
X51802000Y-36676324D01*
X56402000Y-34524000D02*
X56402000Y-36676324D01*
X51702000Y-34524000D02*
X51702000Y-36564221D01*
X56502000Y-34524000D02*
X56502000Y-36564221D01*
X51602000Y-34524000D02*
X51602000Y-36440377D01*
X56602000Y-34524000D02*
X56602000Y-36440377D01*
X51502000Y-34524000D02*
X51502000Y-36302342D01*
X56702000Y-34524000D02*
X56702000Y-36302342D01*
X51402000Y-34524000D02*
X51402000Y-36146498D01*
X56802000Y-34524000D02*
X56802000Y-36146498D01*
X51302000Y-34524000D02*
X51302000Y-35967087D01*
X56902000Y-34524000D02*
X56902000Y-35967087D01*
X51202000Y-34524000D02*
X51202000Y-35753837D01*
X57002000Y-34524000D02*
X57002000Y-35753837D01*
X51102000Y-34524000D02*
X51102000Y-35484469D01*
X57102000Y-34524000D02*
X57102000Y-35484469D01*
X51002000Y-34524000D02*
X51002000Y-35083017D01*
X57202000Y-34524000D02*
X57202000Y-35083017D01*
X43932214Y-33274000D02*
G75*
G03X43932214Y-33274000I-1514214J0D01*
G01*
X39868214Y-59182000D02*
G75*
G03X39868214Y-59182000I-1514214J0D01*
G01*
D14*
X41398500Y-39183000D02*
X38738500Y-39183000D01*
X41398500Y-41783000D02*
X41398500Y-39183000D01*
X38738500Y-41783000D02*
X38738500Y-39183000D01*
X41398500Y-41783000D02*
X38738500Y-41783000D01*
X41398500Y-43053000D02*
X41398500Y-44383000D01*
X41398500Y-44383000D02*
X40068500Y-44383000D01*
X48828000Y-31944000D02*
X46168000Y-31944000D01*
X48828000Y-34544000D02*
X48828000Y-31944000D01*
X46168000Y-34544000D02*
X46168000Y-31944000D01*
X48828000Y-34544000D02*
X46168000Y-34544000D01*
X48828000Y-35814000D02*
X48828000Y-37144000D01*
X48828000Y-37144000D02*
X47498000Y-37144000D01*
X95698000Y-53400000D02*
X98358000Y-53400000D01*
X95698000Y-43180000D02*
X95698000Y-53400000D01*
X98358000Y-43180000D02*
X98358000Y-53400000D01*
X95698000Y-43180000D02*
X98358000Y-43180000D01*
X95698000Y-41910000D02*
X95698000Y-40580000D01*
X95698000Y-40580000D02*
X97028000Y-40580000D01*
X41042335Y-81725392D02*
G75*
G03X37810000Y-81568484I-1672335J-1078608D01*
G01*
X41042335Y-83882608D02*
G75*
G02X37810000Y-84039516I-1672335J1078608D01*
G01*
X40411130Y-81724163D02*
G75*
G03X38329039Y-81724000I-1041130J-1079837D01*
G01*
X40411130Y-83883837D02*
G75*
G02X38329039Y-83884000I-1041130J1079837D01*
G01*
X37810000Y-81568000D02*
X37810000Y-81724000D01*
X37810000Y-83884000D02*
X37810000Y-84040000D01*
D10*
X62865000Y-38615000D02*
X60195000Y-38615000D01*
X62865000Y-31715000D02*
X60195000Y-31715000D01*
X62865000Y-38615000D02*
X62865000Y-31715000D01*
X60195000Y-38615000D02*
X60195000Y-31715000D01*
X60695000Y-38615000D02*
X60695000Y-31715000D01*
D14*
X51914000Y-41148000D02*
G75*
G03X51914000Y-41148000I-860000J0D01*
G01*
X51054000Y-42008000D02*
X51054000Y-42688000D01*
X65376000Y-41148000D02*
G75*
G03X65376000Y-41148000I-860000J0D01*
G01*
X63656000Y-41148000D02*
X62976000Y-41148000D01*
X69948000Y-35814000D02*
G75*
G03X69948000Y-35814000I-860000J0D01*
G01*
X69948000Y-35814000D02*
X70628000Y-35814000D01*
X71980000Y-52578000D02*
G75*
G03X71980000Y-52578000I-860000J0D01*
G01*
X71120000Y-53438000D02*
X71120000Y-54118000D01*
X36420000Y-81788000D02*
G75*
G03X36420000Y-81788000I-860000J0D01*
G01*
X34700000Y-81788000D02*
X34020000Y-81788000D01*
X86852000Y-50712000D02*
X91352000Y-50712000D01*
X85602000Y-46712000D02*
X85602000Y-48212000D01*
X91352000Y-44212000D02*
X86852000Y-44212000D01*
X92602000Y-48212000D02*
X92602000Y-46712000D01*
D10*
X77810000Y-49530000D02*
G75*
G03X78810000Y-48530000I0J1000000D01*
G01*
X76810000Y-48530000D02*
G75*
G03X77810000Y-49530000I1000000J0D01*
G01*
X75100000Y-48530000D02*
X80520000Y-48530000D01*
X80520000Y-48530000D02*
X80520000Y-66710000D01*
X80520000Y-66710000D02*
X75100000Y-66710000D01*
X75100000Y-66710000D02*
X75100000Y-48530000D01*
X72900000Y-50000000D02*
G75*
G03X72900000Y-50000000I-200000J0D01*
G01*
D14*
X63070000Y-55886000D02*
X63070000Y-66786000D01*
X63070000Y-66786000D02*
X66470000Y-66786000D01*
X66470000Y-66786000D02*
X66470000Y-55886000D01*
X66470000Y-55886000D02*
X63070000Y-55886000D01*
X64170000Y-55886000D02*
X63500000Y-54486000D01*
X63500000Y-54486000D02*
X63500000Y-53786000D01*
X65370000Y-55886000D02*
X66040000Y-54486000D01*
X66040000Y-54486000D02*
X66040000Y-53786000D01*
X56486000Y-65786000D02*
G75*
G03X56486000Y-65786000I-860000J0D01*
G01*
X56486000Y-65786000D02*
X57166000Y-65786000D01*
X44440000Y-51500000D02*
G75*
G03X44440000Y-51500000I-4440000J0D01*
G01*
X53138000Y-67350000D02*
X47018000Y-67350000D01*
X53138000Y-64730000D02*
X47018000Y-64730000D01*
X53138000Y-67350000D02*
X53138000Y-67036000D01*
X53138000Y-65044000D02*
X53138000Y-64730000D01*
X47018000Y-67350000D02*
X47018000Y-67036000D01*
X47018000Y-65044000D02*
X47018000Y-64730000D01*
D15*
G36*
X54660919Y-80502306D02*
X54703171Y-80542476D01*
X54744266Y-80629683D01*
X54791713Y-80780503D01*
X54853022Y-81011509D01*
X54863191Y-81051400D01*
X54958013Y-81402803D01*
X55056689Y-81715723D01*
X55168301Y-82010182D01*
X55301929Y-82306208D01*
X55466655Y-82623826D01*
X55671559Y-82983060D01*
X55925723Y-83403936D01*
X55941948Y-83430305D01*
X56211997Y-83881818D01*
X56425374Y-84272178D01*
X56588803Y-84619629D01*
X56709004Y-84942415D01*
X56792700Y-85258780D01*
X56846613Y-85586967D01*
X56877466Y-85945220D01*
X56879021Y-85973495D01*
X56874063Y-86524582D01*
X56794594Y-87013129D01*
X56637177Y-87449203D01*
X56398369Y-87842871D01*
X56137857Y-88142645D01*
X55879074Y-88375189D01*
X55624413Y-88539239D01*
X55346839Y-88645897D01*
X55019320Y-88706264D01*
X54711600Y-88728365D01*
X54341844Y-88727872D01*
X54049191Y-88692920D01*
X53950831Y-88669343D01*
X53604117Y-88540239D01*
X53302946Y-88352567D01*
X53015973Y-88086468D01*
X52994892Y-88063609D01*
X52707537Y-87684644D01*
X52503346Y-87264139D01*
X52379871Y-86794270D01*
X52334665Y-86267214D01*
X52335626Y-86222501D01*
X52857380Y-86222501D01*
X52883974Y-86471369D01*
X52986444Y-86913871D01*
X53156788Y-87304252D01*
X53386766Y-87633958D01*
X53668138Y-87894435D01*
X53992661Y-88077128D01*
X54352096Y-88173482D01*
X54536340Y-88186570D01*
X54696812Y-88176444D01*
X54818429Y-88148169D01*
X54853840Y-88127840D01*
X54905067Y-88018544D01*
X54908362Y-87877670D01*
X54865081Y-87758797D01*
X54843931Y-87736024D01*
X54756231Y-87695407D01*
X54606583Y-87653887D01*
X54490683Y-87631250D01*
X54275979Y-87588772D01*
X54120892Y-87531033D01*
X53988240Y-87437135D01*
X53840842Y-87286181D01*
X53805129Y-87245951D01*
X53628852Y-86999157D01*
X53506665Y-86711836D01*
X53429518Y-86360333D01*
X53411399Y-86216992D01*
X53364914Y-85967489D01*
X53287703Y-85813016D01*
X53177103Y-85750958D01*
X53030452Y-85778698D01*
X52986903Y-85799860D01*
X52903768Y-85879488D01*
X52861282Y-86015878D01*
X52857380Y-86222501D01*
X52335626Y-86222501D01*
X52340978Y-85973495D01*
X52372355Y-85598796D01*
X52428901Y-85254951D01*
X52517479Y-84923315D01*
X52644951Y-84585247D01*
X52818181Y-84222102D01*
X53044031Y-83815239D01*
X53277652Y-83428912D01*
X53539196Y-82999461D01*
X53750088Y-82631202D01*
X53919745Y-82303387D01*
X54057586Y-81995268D01*
X54173027Y-81686098D01*
X54275487Y-81355127D01*
X54356808Y-81051400D01*
X54420670Y-80807780D01*
X54469613Y-80646679D01*
X54511148Y-80551522D01*
X54552783Y-80505736D01*
X54602029Y-80492745D01*
X54609999Y-80492600D01*
X54660919Y-80502306D01*
X54660919Y-80502306D01*
G37*
X54660919Y-80502306D02*
X54703171Y-80542476D01*
X54744266Y-80629683D01*
X54791713Y-80780503D01*
X54853022Y-81011509D01*
X54863191Y-81051400D01*
X54958013Y-81402803D01*
X55056689Y-81715723D01*
X55168301Y-82010182D01*
X55301929Y-82306208D01*
X55466655Y-82623826D01*
X55671559Y-82983060D01*
X55925723Y-83403936D01*
X55941948Y-83430305D01*
X56211997Y-83881818D01*
X56425374Y-84272178D01*
X56588803Y-84619629D01*
X56709004Y-84942415D01*
X56792700Y-85258780D01*
X56846613Y-85586967D01*
X56877466Y-85945220D01*
X56879021Y-85973495D01*
X56874063Y-86524582D01*
X56794594Y-87013129D01*
X56637177Y-87449203D01*
X56398369Y-87842871D01*
X56137857Y-88142645D01*
X55879074Y-88375189D01*
X55624413Y-88539239D01*
X55346839Y-88645897D01*
X55019320Y-88706264D01*
X54711600Y-88728365D01*
X54341844Y-88727872D01*
X54049191Y-88692920D01*
X53950831Y-88669343D01*
X53604117Y-88540239D01*
X53302946Y-88352567D01*
X53015973Y-88086468D01*
X52994892Y-88063609D01*
X52707537Y-87684644D01*
X52503346Y-87264139D01*
X52379871Y-86794270D01*
X52334665Y-86267214D01*
X52335626Y-86222501D01*
X52857380Y-86222501D01*
X52883974Y-86471369D01*
X52986444Y-86913871D01*
X53156788Y-87304252D01*
X53386766Y-87633958D01*
X53668138Y-87894435D01*
X53992661Y-88077128D01*
X54352096Y-88173482D01*
X54536340Y-88186570D01*
X54696812Y-88176444D01*
X54818429Y-88148169D01*
X54853840Y-88127840D01*
X54905067Y-88018544D01*
X54908362Y-87877670D01*
X54865081Y-87758797D01*
X54843931Y-87736024D01*
X54756231Y-87695407D01*
X54606583Y-87653887D01*
X54490683Y-87631250D01*
X54275979Y-87588772D01*
X54120892Y-87531033D01*
X53988240Y-87437135D01*
X53840842Y-87286181D01*
X53805129Y-87245951D01*
X53628852Y-86999157D01*
X53506665Y-86711836D01*
X53429518Y-86360333D01*
X53411399Y-86216992D01*
X53364914Y-85967489D01*
X53287703Y-85813016D01*
X53177103Y-85750958D01*
X53030452Y-85778698D01*
X52986903Y-85799860D01*
X52903768Y-85879488D01*
X52861282Y-86015878D01*
X52857380Y-86222501D01*
X52335626Y-86222501D01*
X52340978Y-85973495D01*
X52372355Y-85598796D01*
X52428901Y-85254951D01*
X52517479Y-84923315D01*
X52644951Y-84585247D01*
X52818181Y-84222102D01*
X53044031Y-83815239D01*
X53277652Y-83428912D01*
X53539196Y-82999461D01*
X53750088Y-82631202D01*
X53919745Y-82303387D01*
X54057586Y-81995268D01*
X54173027Y-81686098D01*
X54275487Y-81355127D01*
X54356808Y-81051400D01*
X54420670Y-80807780D01*
X54469613Y-80646679D01*
X54511148Y-80551522D01*
X54552783Y-80505736D01*
X54602029Y-80492745D01*
X54609999Y-80492600D01*
X54660919Y-80502306D01*
D10*
X73660095Y-65238381D02*
X73660095Y-66047905D01*
X73707714Y-66143143D01*
X73755333Y-66190762D01*
X73850571Y-66238381D01*
X74041048Y-66238381D01*
X74136286Y-66190762D01*
X74183905Y-66143143D01*
X74231524Y-66047905D01*
X74231524Y-65238381D01*
X74660095Y-65333619D02*
X74707714Y-65286000D01*
X74802952Y-65238381D01*
X75041048Y-65238381D01*
X75136286Y-65286000D01*
X75183905Y-65333619D01*
X75231524Y-65428857D01*
X75231524Y-65524095D01*
X75183905Y-65666952D01*
X74612476Y-66238381D01*
X75231524Y-66238381D01*
X70112476Y-78938381D02*
X70112476Y-77938381D01*
X70112476Y-78414571D02*
X70683905Y-78414571D01*
X70683905Y-78938381D02*
X70683905Y-77938381D01*
X71160095Y-78938381D02*
X71160095Y-77938381D01*
X71398190Y-77938381D01*
X71541048Y-77986000D01*
X71636286Y-78081238D01*
X71683905Y-78176476D01*
X71731524Y-78366952D01*
X71731524Y-78509810D01*
X71683905Y-78700286D01*
X71636286Y-78795524D01*
X71541048Y-78890762D01*
X71398190Y-78938381D01*
X71160095Y-78938381D01*
X72112476Y-78890762D02*
X72255333Y-78938381D01*
X72493429Y-78938381D01*
X72588667Y-78890762D01*
X72636286Y-78843143D01*
X72683905Y-78747905D01*
X72683905Y-78652667D01*
X72636286Y-78557429D01*
X72588667Y-78509810D01*
X72493429Y-78462190D01*
X72302952Y-78414571D01*
X72207714Y-78366952D01*
X72160095Y-78319333D01*
X72112476Y-78224095D01*
X72112476Y-78128857D01*
X72160095Y-78033619D01*
X72207714Y-77986000D01*
X72302952Y-77938381D01*
X72541048Y-77938381D01*
X72683905Y-77986000D01*
X73112476Y-78938381D02*
X73112476Y-77938381D01*
X73493429Y-77938381D01*
X73588667Y-77986000D01*
X73636286Y-78033619D01*
X73683905Y-78128857D01*
X73683905Y-78271714D01*
X73636286Y-78366952D01*
X73588667Y-78414571D01*
X73493429Y-78462190D01*
X73112476Y-78462190D01*
X74112476Y-78557429D02*
X74874381Y-78557429D01*
X75350571Y-78938381D02*
X75350571Y-77938381D01*
X75922000Y-78938381D02*
X75493428Y-78366952D01*
X75922000Y-77938381D02*
X75350571Y-78509810D01*
X76874381Y-78938381D02*
X76302952Y-78938381D01*
X76588666Y-78938381D02*
X76588666Y-77938381D01*
X76493428Y-78081238D01*
X76398190Y-78176476D01*
X76302952Y-78224095D01*
X77255333Y-78033619D02*
X77302952Y-77986000D01*
X77398190Y-77938381D01*
X77636286Y-77938381D01*
X77731524Y-77986000D01*
X77779143Y-78033619D01*
X77826762Y-78128857D01*
X77826762Y-78224095D01*
X77779143Y-78366952D01*
X77207714Y-78938381D01*
X77826762Y-78938381D01*
X78160095Y-77938381D02*
X78779143Y-77938381D01*
X78445809Y-78319333D01*
X78588667Y-78319333D01*
X78683905Y-78366952D01*
X78731524Y-78414571D01*
X78779143Y-78509810D01*
X78779143Y-78747905D01*
X78731524Y-78843143D01*
X78683905Y-78890762D01*
X78588667Y-78938381D01*
X78302952Y-78938381D01*
X78207714Y-78890762D01*
X78160095Y-78843143D01*
X67143334Y-39314381D02*
X66810000Y-38838190D01*
X66571905Y-39314381D02*
X66571905Y-38314381D01*
X66952858Y-38314381D01*
X67048096Y-38362000D01*
X67095715Y-38409619D01*
X67143334Y-38504857D01*
X67143334Y-38647714D01*
X67095715Y-38742952D01*
X67048096Y-38790571D01*
X66952858Y-38838190D01*
X66571905Y-38838190D01*
X67714762Y-38742952D02*
X67619524Y-38695333D01*
X67571905Y-38647714D01*
X67524286Y-38552476D01*
X67524286Y-38504857D01*
X67571905Y-38409619D01*
X67619524Y-38362000D01*
X67714762Y-38314381D01*
X67905239Y-38314381D01*
X68000477Y-38362000D01*
X68048096Y-38409619D01*
X68095715Y-38504857D01*
X68095715Y-38552476D01*
X68048096Y-38647714D01*
X68000477Y-38695333D01*
X67905239Y-38742952D01*
X67714762Y-38742952D01*
X67619524Y-38790571D01*
X67571905Y-38838190D01*
X67524286Y-38933429D01*
X67524286Y-39123905D01*
X67571905Y-39219143D01*
X67619524Y-39266762D01*
X67714762Y-39314381D01*
X67905239Y-39314381D01*
X68000477Y-39266762D01*
X68048096Y-39219143D01*
X68095715Y-39123905D01*
X68095715Y-38933429D01*
X68048096Y-38838190D01*
X68000477Y-38790571D01*
X67905239Y-38742952D01*
X69596096Y-41441714D02*
X69596096Y-42108381D01*
X69358000Y-41060762D02*
X69119905Y-41775048D01*
X69738953Y-41775048D01*
X70024667Y-41108381D02*
X70691334Y-41108381D01*
X70262762Y-42108381D01*
X71262762Y-41108381D02*
X71358001Y-41108381D01*
X71453239Y-41156000D01*
X71500858Y-41203619D01*
X71548477Y-41298857D01*
X71596096Y-41489333D01*
X71596096Y-41727429D01*
X71548477Y-41917905D01*
X71500858Y-42013143D01*
X71453239Y-42060762D01*
X71358001Y-42108381D01*
X71262762Y-42108381D01*
X71167524Y-42060762D01*
X71119905Y-42013143D01*
X71072286Y-41917905D01*
X71024667Y-41727429D01*
X71024667Y-41489333D01*
X71072286Y-41298857D01*
X71119905Y-41203619D01*
X71167524Y-41156000D01*
X71262762Y-41108381D01*
D13*
X89055429Y-81516571D02*
X89412572Y-83016571D01*
X89698286Y-81945143D01*
X89984000Y-83016571D01*
X90341143Y-81516571D01*
X91555429Y-83016571D02*
X91555429Y-82230857D01*
X91484000Y-82088000D01*
X91341143Y-82016571D01*
X91055429Y-82016571D01*
X90912572Y-82088000D01*
X91555429Y-82945143D02*
X91412572Y-83016571D01*
X91055429Y-83016571D01*
X90912572Y-82945143D01*
X90841143Y-82802286D01*
X90841143Y-82659429D01*
X90912572Y-82516571D01*
X91055429Y-82445143D01*
X91412572Y-82445143D01*
X91555429Y-82373714D01*
X92269715Y-83016571D02*
X92269715Y-82016571D01*
X92269715Y-81516571D02*
X92198286Y-81588000D01*
X92269715Y-81659429D01*
X92341143Y-81588000D01*
X92269715Y-81516571D01*
X92269715Y-81659429D01*
X92769715Y-82016571D02*
X93341144Y-82016571D01*
X92984001Y-81516571D02*
X92984001Y-82802286D01*
X93055429Y-82945143D01*
X93198287Y-83016571D01*
X93341144Y-83016571D01*
X93626858Y-81516571D02*
X94484001Y-81516571D01*
X94055430Y-83016571D02*
X94055430Y-81516571D01*
X94984001Y-83016571D02*
X94984001Y-82016571D01*
X94984001Y-81516571D02*
X94912572Y-81588000D01*
X94984001Y-81659429D01*
X95055429Y-81588000D01*
X94984001Y-81516571D01*
X94984001Y-81659429D01*
X95698287Y-83016571D02*
X95698287Y-82016571D01*
X95698287Y-82159429D02*
X95769715Y-82088000D01*
X95912573Y-82016571D01*
X96126858Y-82016571D01*
X96269715Y-82088000D01*
X96341144Y-82230857D01*
X96341144Y-83016571D01*
X96341144Y-82230857D02*
X96412573Y-82088000D01*
X96555430Y-82016571D01*
X96769715Y-82016571D01*
X96912573Y-82088000D01*
X96984001Y-82230857D01*
X96984001Y-83016571D01*
X98269715Y-82945143D02*
X98126858Y-83016571D01*
X97841144Y-83016571D01*
X97698287Y-82945143D01*
X97626858Y-82802286D01*
X97626858Y-82230857D01*
X97698287Y-82088000D01*
X97841144Y-82016571D01*
X98126858Y-82016571D01*
X98269715Y-82088000D01*
X98341144Y-82230857D01*
X98341144Y-82373714D01*
X97626858Y-82516571D01*
D10*
X35520381Y-74493905D02*
X36329905Y-74493905D01*
X36425143Y-74446286D01*
X36472762Y-74398667D01*
X36520381Y-74303429D01*
X36520381Y-74112952D01*
X36472762Y-74017714D01*
X36425143Y-73970095D01*
X36329905Y-73922476D01*
X35520381Y-73922476D01*
X35853714Y-73017714D02*
X36520381Y-73017714D01*
X35472762Y-73255810D02*
X36187048Y-73493905D01*
X36187048Y-72874857D01*
X40418095Y-73112381D02*
X40989524Y-73112381D01*
X40703809Y-74112381D02*
X40703809Y-73112381D01*
X41322857Y-74112381D02*
X41322857Y-73112381D01*
X41656191Y-73826667D01*
X41989524Y-73112381D01*
X41989524Y-74112381D01*
X42989524Y-74112381D02*
X42418095Y-74112381D01*
X42703809Y-74112381D02*
X42703809Y-73112381D01*
X42608571Y-73255238D01*
X42513333Y-73350476D01*
X42418095Y-73398095D01*
X43846667Y-73112381D02*
X43656190Y-73112381D01*
X43560952Y-73160000D01*
X43513333Y-73207619D01*
X43418095Y-73350476D01*
X43370476Y-73540952D01*
X43370476Y-73921905D01*
X43418095Y-74017143D01*
X43465714Y-74064762D01*
X43560952Y-74112381D01*
X43751429Y-74112381D01*
X43846667Y-74064762D01*
X43894286Y-74017143D01*
X43941905Y-73921905D01*
X43941905Y-73683810D01*
X43894286Y-73588571D01*
X43846667Y-73540952D01*
X43751429Y-73493333D01*
X43560952Y-73493333D01*
X43465714Y-73540952D01*
X43418095Y-73588571D01*
X43370476Y-73683810D01*
X44799048Y-73445714D02*
X44799048Y-74112381D01*
X44560952Y-73064762D02*
X44322857Y-73779048D01*
X44941905Y-73779048D01*
X45513333Y-73112381D02*
X45608572Y-73112381D01*
X45703810Y-73160000D01*
X45751429Y-73207619D01*
X45799048Y-73302857D01*
X45846667Y-73493333D01*
X45846667Y-73731429D01*
X45799048Y-73921905D01*
X45751429Y-74017143D01*
X45703810Y-74064762D01*
X45608572Y-74112381D01*
X45513333Y-74112381D01*
X45418095Y-74064762D01*
X45370476Y-74017143D01*
X45322857Y-73921905D01*
X45275238Y-73731429D01*
X45275238Y-73493333D01*
X45322857Y-73302857D01*
X45370476Y-73207619D01*
X45418095Y-73160000D01*
X45513333Y-73112381D01*
X47442381Y-62309000D02*
X46442381Y-62309000D01*
X46918571Y-62309000D02*
X46918571Y-61737571D01*
X47442381Y-61737571D02*
X46442381Y-61737571D01*
X46442381Y-61404238D02*
X46442381Y-60832809D01*
X47442381Y-61118524D02*
X46442381Y-61118524D01*
X46442381Y-60594714D02*
X46442381Y-59928047D01*
X47442381Y-60356619D01*
X46442381Y-59642333D02*
X46442381Y-58975666D01*
X47442381Y-59404238D01*
X46442381Y-58118523D02*
X46442381Y-58594714D01*
X46918571Y-58642333D01*
X46870952Y-58594714D01*
X46823333Y-58499476D01*
X46823333Y-58261380D01*
X46870952Y-58166142D01*
X46918571Y-58118523D01*
X47013810Y-58070904D01*
X47251905Y-58070904D01*
X47347143Y-58118523D01*
X47394762Y-58166142D01*
X47442381Y-58261380D01*
X47442381Y-58499476D01*
X47394762Y-58594714D01*
X47347143Y-58642333D01*
X46442381Y-57451857D02*
X46442381Y-57356618D01*
X46490000Y-57261380D01*
X46537619Y-57213761D01*
X46632857Y-57166142D01*
X46823333Y-57118523D01*
X47061429Y-57118523D01*
X47251905Y-57166142D01*
X47347143Y-57213761D01*
X47394762Y-57261380D01*
X47442381Y-57356618D01*
X47442381Y-57451857D01*
X47394762Y-57547095D01*
X47347143Y-57594714D01*
X47251905Y-57642333D01*
X47061429Y-57689952D01*
X46823333Y-57689952D01*
X46632857Y-57642333D01*
X46537619Y-57594714D01*
X46490000Y-57547095D01*
X46442381Y-57451857D01*
X47156667Y-56737571D02*
X47156667Y-56261380D01*
X47442381Y-56832809D02*
X46442381Y-56499476D01*
X47442381Y-56166142D01*
X46569334Y-47093143D02*
X46521715Y-47140762D01*
X46378858Y-47188381D01*
X46283620Y-47188381D01*
X46140762Y-47140762D01*
X46045524Y-47045524D01*
X45997905Y-46950286D01*
X45950286Y-46759810D01*
X45950286Y-46616952D01*
X45997905Y-46426476D01*
X46045524Y-46331238D01*
X46140762Y-46236000D01*
X46283620Y-46188381D01*
X46378858Y-46188381D01*
X46521715Y-46236000D01*
X46569334Y-46283619D01*
X47426477Y-46188381D02*
X47236000Y-46188381D01*
X47140762Y-46236000D01*
X47093143Y-46283619D01*
X46997905Y-46426476D01*
X46950286Y-46616952D01*
X46950286Y-46997905D01*
X46997905Y-47093143D01*
X47045524Y-47140762D01*
X47140762Y-47188381D01*
X47331239Y-47188381D01*
X47426477Y-47140762D01*
X47474096Y-47093143D01*
X47521715Y-46997905D01*
X47521715Y-46759810D01*
X47474096Y-46664571D01*
X47426477Y-46616952D01*
X47331239Y-46569333D01*
X47140762Y-46569333D01*
X47045524Y-46616952D01*
X46997905Y-46664571D01*
X46950286Y-46759810D01*
X55348381Y-47950381D02*
X54776952Y-47950381D01*
X55062666Y-47950381D02*
X55062666Y-46950381D01*
X54967428Y-47093238D01*
X54872190Y-47188476D01*
X54776952Y-47236095D01*
X55967428Y-46950381D02*
X56062667Y-46950381D01*
X56157905Y-46998000D01*
X56205524Y-47045619D01*
X56253143Y-47140857D01*
X56300762Y-47331333D01*
X56300762Y-47569429D01*
X56253143Y-47759905D01*
X56205524Y-47855143D01*
X56157905Y-47902762D01*
X56062667Y-47950381D01*
X55967428Y-47950381D01*
X55872190Y-47902762D01*
X55824571Y-47855143D01*
X55776952Y-47759905D01*
X55729333Y-47569429D01*
X55729333Y-47331333D01*
X55776952Y-47140857D01*
X55824571Y-47045619D01*
X55872190Y-46998000D01*
X55967428Y-46950381D01*
X56919809Y-46950381D02*
X57015048Y-46950381D01*
X57110286Y-46998000D01*
X57157905Y-47045619D01*
X57205524Y-47140857D01*
X57253143Y-47331333D01*
X57253143Y-47569429D01*
X57205524Y-47759905D01*
X57157905Y-47855143D01*
X57110286Y-47902762D01*
X57015048Y-47950381D01*
X56919809Y-47950381D01*
X56824571Y-47902762D01*
X56776952Y-47855143D01*
X56729333Y-47759905D01*
X56681714Y-47569429D01*
X56681714Y-47331333D01*
X56729333Y-47140857D01*
X56776952Y-47045619D01*
X56824571Y-46998000D01*
X56919809Y-46950381D01*
X58110286Y-47283714D02*
X58110286Y-47950381D01*
X57681714Y-47283714D02*
X57681714Y-47807524D01*
X57729333Y-47902762D01*
X57824571Y-47950381D01*
X57967429Y-47950381D01*
X58062667Y-47902762D01*
X58110286Y-47855143D01*
X58919810Y-47426571D02*
X58586476Y-47426571D01*
X58586476Y-47950381D02*
X58586476Y-46950381D01*
X59062667Y-46950381D01*
D13*
X91116429Y-71959643D02*
X91330715Y-72031071D01*
X91687858Y-72031071D01*
X91830715Y-71959643D01*
X91902144Y-71888214D01*
X91973572Y-71745357D01*
X91973572Y-71602500D01*
X91902144Y-71459643D01*
X91830715Y-71388214D01*
X91687858Y-71316786D01*
X91402144Y-71245357D01*
X91259286Y-71173929D01*
X91187858Y-71102500D01*
X91116429Y-70959643D01*
X91116429Y-70816786D01*
X91187858Y-70673929D01*
X91259286Y-70602500D01*
X91402144Y-70531071D01*
X91759286Y-70531071D01*
X91973572Y-70602500D01*
X92402143Y-71031071D02*
X92973572Y-71031071D01*
X92616429Y-70531071D02*
X92616429Y-71816786D01*
X92687857Y-71959643D01*
X92830715Y-72031071D01*
X92973572Y-72031071D01*
X94116429Y-72031071D02*
X94116429Y-71245357D01*
X94045000Y-71102500D01*
X93902143Y-71031071D01*
X93616429Y-71031071D01*
X93473572Y-71102500D01*
X94116429Y-71959643D02*
X93973572Y-72031071D01*
X93616429Y-72031071D01*
X93473572Y-71959643D01*
X93402143Y-71816786D01*
X93402143Y-71673929D01*
X93473572Y-71531071D01*
X93616429Y-71459643D01*
X93973572Y-71459643D01*
X94116429Y-71388214D01*
X94830715Y-72031071D02*
X94830715Y-71031071D01*
X94830715Y-71316786D02*
X94902143Y-71173929D01*
X94973572Y-71102500D01*
X95116429Y-71031071D01*
X95259286Y-71031071D01*
X95545000Y-71031071D02*
X96116429Y-71031071D01*
X95759286Y-70531071D02*
X95759286Y-71816786D01*
X95830714Y-71959643D01*
X95973572Y-72031071D01*
X96116429Y-72031071D01*
X42344572Y-88120571D02*
X42701715Y-89620571D01*
X42987429Y-88549143D01*
X43273143Y-89620571D01*
X43630286Y-88120571D01*
X44844572Y-89620571D02*
X44844572Y-88834857D01*
X44773143Y-88692000D01*
X44630286Y-88620571D01*
X44344572Y-88620571D01*
X44201715Y-88692000D01*
X44844572Y-89549143D02*
X44701715Y-89620571D01*
X44344572Y-89620571D01*
X44201715Y-89549143D01*
X44130286Y-89406286D01*
X44130286Y-89263429D01*
X44201715Y-89120571D01*
X44344572Y-89049143D01*
X44701715Y-89049143D01*
X44844572Y-88977714D01*
X45344572Y-88620571D02*
X45916001Y-88620571D01*
X45558858Y-88120571D02*
X45558858Y-89406286D01*
X45630286Y-89549143D01*
X45773144Y-89620571D01*
X45916001Y-89620571D01*
X46987429Y-89549143D02*
X46844572Y-89620571D01*
X46558858Y-89620571D01*
X46416001Y-89549143D01*
X46344572Y-89406286D01*
X46344572Y-88834857D01*
X46416001Y-88692000D01*
X46558858Y-88620571D01*
X46844572Y-88620571D01*
X46987429Y-88692000D01*
X47058858Y-88834857D01*
X47058858Y-88977714D01*
X46344572Y-89120571D01*
X47701715Y-89620571D02*
X47701715Y-88620571D01*
X47701715Y-88906286D02*
X47773143Y-88763429D01*
X47844572Y-88692000D01*
X47987429Y-88620571D01*
X48130286Y-88620571D01*
X48416000Y-88120571D02*
X48916000Y-89620571D01*
X49416000Y-88120571D01*
X50130286Y-89620571D02*
X49987428Y-89549143D01*
X49916000Y-89477714D01*
X49844571Y-89334857D01*
X49844571Y-88906286D01*
X49916000Y-88763429D01*
X49987428Y-88692000D01*
X50130286Y-88620571D01*
X50344571Y-88620571D01*
X50487428Y-88692000D01*
X50558857Y-88763429D01*
X50630286Y-88906286D01*
X50630286Y-89334857D01*
X50558857Y-89477714D01*
X50487428Y-89549143D01*
X50344571Y-89620571D01*
X50130286Y-89620571D01*
X51487429Y-89620571D02*
X51344571Y-89549143D01*
X51273143Y-89406286D01*
X51273143Y-88120571D01*
D10*
X83145334Y-31789643D02*
X83097715Y-31837262D01*
X82954858Y-31884881D01*
X82859620Y-31884881D01*
X82716762Y-31837262D01*
X82621524Y-31742024D01*
X82573905Y-31646786D01*
X82526286Y-31456310D01*
X82526286Y-31313452D01*
X82573905Y-31122976D01*
X82621524Y-31027738D01*
X82716762Y-30932500D01*
X82859620Y-30884881D01*
X82954858Y-30884881D01*
X83097715Y-30932500D01*
X83145334Y-30980119D01*
X84097715Y-31884881D02*
X83526286Y-31884881D01*
X83812000Y-31884881D02*
X83812000Y-30884881D01*
X83716762Y-31027738D01*
X83621524Y-31122976D01*
X83526286Y-31170595D01*
X81796191Y-41346381D02*
X81224762Y-41346381D01*
X81510476Y-41346381D02*
X81510476Y-40346381D01*
X81415238Y-40489238D01*
X81320000Y-40584476D01*
X81224762Y-40632095D01*
X82415238Y-40346381D02*
X82510477Y-40346381D01*
X82605715Y-40394000D01*
X82653334Y-40441619D01*
X82700953Y-40536857D01*
X82748572Y-40727333D01*
X82748572Y-40965429D01*
X82700953Y-41155905D01*
X82653334Y-41251143D01*
X82605715Y-41298762D01*
X82510477Y-41346381D01*
X82415238Y-41346381D01*
X82320000Y-41298762D01*
X82272381Y-41251143D01*
X82224762Y-41155905D01*
X82177143Y-40965429D01*
X82177143Y-40727333D01*
X82224762Y-40536857D01*
X82272381Y-40441619D01*
X82320000Y-40394000D01*
X82415238Y-40346381D01*
X83367619Y-40346381D02*
X83462858Y-40346381D01*
X83558096Y-40394000D01*
X83605715Y-40441619D01*
X83653334Y-40536857D01*
X83700953Y-40727333D01*
X83700953Y-40965429D01*
X83653334Y-41155905D01*
X83605715Y-41251143D01*
X83558096Y-41298762D01*
X83462858Y-41346381D01*
X83367619Y-41346381D01*
X83272381Y-41298762D01*
X83224762Y-41251143D01*
X83177143Y-41155905D01*
X83129524Y-40965429D01*
X83129524Y-40727333D01*
X83177143Y-40536857D01*
X83224762Y-40441619D01*
X83272381Y-40394000D01*
X83367619Y-40346381D01*
X84320000Y-40346381D02*
X84415239Y-40346381D01*
X84510477Y-40394000D01*
X84558096Y-40441619D01*
X84605715Y-40536857D01*
X84653334Y-40727333D01*
X84653334Y-40965429D01*
X84605715Y-41155905D01*
X84558096Y-41251143D01*
X84510477Y-41298762D01*
X84415239Y-41346381D01*
X84320000Y-41346381D01*
X84224762Y-41298762D01*
X84177143Y-41251143D01*
X84129524Y-41155905D01*
X84081905Y-40965429D01*
X84081905Y-40727333D01*
X84129524Y-40536857D01*
X84177143Y-40441619D01*
X84224762Y-40394000D01*
X84320000Y-40346381D01*
X85510477Y-40679714D02*
X85510477Y-41346381D01*
X85081905Y-40679714D02*
X85081905Y-41203524D01*
X85129524Y-41298762D01*
X85224762Y-41346381D01*
X85367620Y-41346381D01*
X85462858Y-41298762D01*
X85510477Y-41251143D01*
X86320001Y-40822571D02*
X85986667Y-40822571D01*
X85986667Y-41346381D02*
X85986667Y-40346381D01*
X86462858Y-40346381D01*
X82129334Y-45315143D02*
X82081715Y-45362762D01*
X81938858Y-45410381D01*
X81843620Y-45410381D01*
X81700762Y-45362762D01*
X81605524Y-45267524D01*
X81557905Y-45172286D01*
X81510286Y-44981810D01*
X81510286Y-44838952D01*
X81557905Y-44648476D01*
X81605524Y-44553238D01*
X81700762Y-44458000D01*
X81843620Y-44410381D01*
X81938858Y-44410381D01*
X82081715Y-44458000D01*
X82129334Y-44505619D01*
X82510286Y-44505619D02*
X82557905Y-44458000D01*
X82653143Y-44410381D01*
X82891239Y-44410381D01*
X82986477Y-44458000D01*
X83034096Y-44505619D01*
X83081715Y-44600857D01*
X83081715Y-44696095D01*
X83034096Y-44838952D01*
X82462667Y-45410381D01*
X83081715Y-45410381D01*
X76763714Y-42124381D02*
X76858953Y-42124381D01*
X76954191Y-42172000D01*
X77001810Y-42219619D01*
X77049429Y-42314857D01*
X77097048Y-42505333D01*
X77097048Y-42743429D01*
X77049429Y-42933905D01*
X77001810Y-43029143D01*
X76954191Y-43076762D01*
X76858953Y-43124381D01*
X76763714Y-43124381D01*
X76668476Y-43076762D01*
X76620857Y-43029143D01*
X76573238Y-42933905D01*
X76525619Y-42743429D01*
X76525619Y-42505333D01*
X76573238Y-42314857D01*
X76620857Y-42219619D01*
X76668476Y-42172000D01*
X76763714Y-42124381D01*
X77525619Y-43029143D02*
X77573238Y-43076762D01*
X77525619Y-43124381D01*
X77478000Y-43076762D01*
X77525619Y-43029143D01*
X77525619Y-43124381D01*
X78525619Y-43124381D02*
X77954190Y-43124381D01*
X78239904Y-43124381D02*
X78239904Y-42124381D01*
X78144666Y-42267238D01*
X78049428Y-42362476D01*
X77954190Y-42410095D01*
X79382762Y-42457714D02*
X79382762Y-43124381D01*
X78954190Y-42457714D02*
X78954190Y-42981524D01*
X79001809Y-43076762D01*
X79097047Y-43124381D01*
X79239905Y-43124381D01*
X79335143Y-43076762D01*
X79382762Y-43029143D01*
X88495143Y-33694666D02*
X88542762Y-33742285D01*
X88590381Y-33885142D01*
X88590381Y-33980380D01*
X88542762Y-34123238D01*
X88447524Y-34218476D01*
X88352286Y-34266095D01*
X88161810Y-34313714D01*
X88018952Y-34313714D01*
X87828476Y-34266095D01*
X87733238Y-34218476D01*
X87638000Y-34123238D01*
X87590381Y-33980380D01*
X87590381Y-33885142D01*
X87638000Y-33742285D01*
X87685619Y-33694666D01*
X87590381Y-33361333D02*
X87590381Y-32742285D01*
X87971333Y-33075619D01*
X87971333Y-32932761D01*
X88018952Y-32837523D01*
X88066571Y-32789904D01*
X88161810Y-32742285D01*
X88399905Y-32742285D01*
X88495143Y-32789904D01*
X88542762Y-32837523D01*
X88590381Y-32932761D01*
X88590381Y-33218476D01*
X88542762Y-33313714D01*
X88495143Y-33361333D01*
X91674381Y-39354286D02*
X91674381Y-39259047D01*
X91722000Y-39163809D01*
X91769619Y-39116190D01*
X91864857Y-39068571D01*
X92055333Y-39020952D01*
X92293429Y-39020952D01*
X92483905Y-39068571D01*
X92579143Y-39116190D01*
X92626762Y-39163809D01*
X92674381Y-39259047D01*
X92674381Y-39354286D01*
X92626762Y-39449524D01*
X92579143Y-39497143D01*
X92483905Y-39544762D01*
X92293429Y-39592381D01*
X92055333Y-39592381D01*
X91864857Y-39544762D01*
X91769619Y-39497143D01*
X91722000Y-39449524D01*
X91674381Y-39354286D01*
X92579143Y-38592381D02*
X92626762Y-38544762D01*
X92674381Y-38592381D01*
X92626762Y-38640000D01*
X92579143Y-38592381D01*
X92674381Y-38592381D01*
X92674381Y-37592381D02*
X92674381Y-38163810D01*
X92674381Y-37878096D02*
X91674381Y-37878096D01*
X91817238Y-37973334D01*
X91912476Y-38068572D01*
X91960095Y-38163810D01*
X92007714Y-36735238D02*
X92674381Y-36735238D01*
X92007714Y-37163810D02*
X92531524Y-37163810D01*
X92626762Y-37116191D01*
X92674381Y-37020953D01*
X92674381Y-36878095D01*
X92626762Y-36782857D01*
X92579143Y-36735238D01*
X61047334Y-51157143D02*
X60999715Y-51204762D01*
X60856858Y-51252381D01*
X60761620Y-51252381D01*
X60618762Y-51204762D01*
X60523524Y-51109524D01*
X60475905Y-51014286D01*
X60428286Y-50823810D01*
X60428286Y-50680952D01*
X60475905Y-50490476D01*
X60523524Y-50395238D01*
X60618762Y-50300000D01*
X60761620Y-50252381D01*
X60856858Y-50252381D01*
X60999715Y-50300000D01*
X61047334Y-50347619D01*
X61904477Y-50585714D02*
X61904477Y-51252381D01*
X61666381Y-50204762D02*
X61428286Y-50919048D01*
X62047334Y-50919048D01*
X64147143Y-48942381D02*
X63575714Y-48942381D01*
X63861428Y-48942381D02*
X63861428Y-47942381D01*
X63766190Y-48085238D01*
X63670952Y-48180476D01*
X63575714Y-48228095D01*
X65051905Y-47942381D02*
X64575714Y-47942381D01*
X64528095Y-48418571D01*
X64575714Y-48370952D01*
X64670952Y-48323333D01*
X64909048Y-48323333D01*
X65004286Y-48370952D01*
X65051905Y-48418571D01*
X65099524Y-48513810D01*
X65099524Y-48751905D01*
X65051905Y-48847143D01*
X65004286Y-48894762D01*
X64909048Y-48942381D01*
X64670952Y-48942381D01*
X64575714Y-48894762D01*
X64528095Y-48847143D01*
X65528095Y-48275714D02*
X65528095Y-49275714D01*
X65528095Y-48323333D02*
X65623333Y-48275714D01*
X65813810Y-48275714D01*
X65909048Y-48323333D01*
X65956667Y-48370952D01*
X66004286Y-48466190D01*
X66004286Y-48751905D01*
X65956667Y-48847143D01*
X65909048Y-48894762D01*
X65813810Y-48942381D01*
X65623333Y-48942381D01*
X65528095Y-48894762D01*
X68937143Y-50458666D02*
X68984762Y-50506285D01*
X69032381Y-50649142D01*
X69032381Y-50744380D01*
X68984762Y-50887238D01*
X68889524Y-50982476D01*
X68794286Y-51030095D01*
X68603810Y-51077714D01*
X68460952Y-51077714D01*
X68270476Y-51030095D01*
X68175238Y-50982476D01*
X68080000Y-50887238D01*
X68032381Y-50744380D01*
X68032381Y-50649142D01*
X68080000Y-50506285D01*
X68127619Y-50458666D01*
X68032381Y-49553904D02*
X68032381Y-50030095D01*
X68508571Y-50077714D01*
X68460952Y-50030095D01*
X68413333Y-49934857D01*
X68413333Y-49696761D01*
X68460952Y-49601523D01*
X68508571Y-49553904D01*
X68603810Y-49506285D01*
X68841905Y-49506285D01*
X68937143Y-49553904D01*
X68984762Y-49601523D01*
X69032381Y-49696761D01*
X69032381Y-49934857D01*
X68984762Y-50030095D01*
X68937143Y-50077714D01*
X69032381Y-58554857D02*
X69032381Y-59126286D01*
X69032381Y-58840572D02*
X68032381Y-58840572D01*
X68175238Y-58935810D01*
X68270476Y-59031048D01*
X68318095Y-59126286D01*
X68032381Y-57650095D02*
X68032381Y-58126286D01*
X68508571Y-58173905D01*
X68460952Y-58126286D01*
X68413333Y-58031048D01*
X68413333Y-57792952D01*
X68460952Y-57697714D01*
X68508571Y-57650095D01*
X68603810Y-57602476D01*
X68841905Y-57602476D01*
X68937143Y-57650095D01*
X68984762Y-57697714D01*
X69032381Y-57792952D01*
X69032381Y-58031048D01*
X68984762Y-58126286D01*
X68937143Y-58173905D01*
X68365714Y-57173905D02*
X69365714Y-57173905D01*
X68413333Y-57173905D02*
X68365714Y-57078667D01*
X68365714Y-56888190D01*
X68413333Y-56792952D01*
X68460952Y-56745333D01*
X68556190Y-56697714D01*
X68841905Y-56697714D01*
X68937143Y-56745333D01*
X68984762Y-56792952D01*
X69032381Y-56888190D01*
X69032381Y-57078667D01*
X68984762Y-57173905D01*
X36663334Y-64111143D02*
X36615715Y-64158762D01*
X36472858Y-64206381D01*
X36377620Y-64206381D01*
X36234762Y-64158762D01*
X36139524Y-64063524D01*
X36091905Y-63968286D01*
X36044286Y-63777810D01*
X36044286Y-63634952D01*
X36091905Y-63444476D01*
X36139524Y-63349238D01*
X36234762Y-63254000D01*
X36377620Y-63206381D01*
X36472858Y-63206381D01*
X36615715Y-63254000D01*
X36663334Y-63301619D01*
X36996667Y-63206381D02*
X37663334Y-63206381D01*
X37234762Y-64206381D01*
X35869714Y-65492381D02*
X35964953Y-65492381D01*
X36060191Y-65540000D01*
X36107810Y-65587619D01*
X36155429Y-65682857D01*
X36203048Y-65873333D01*
X36203048Y-66111429D01*
X36155429Y-66301905D01*
X36107810Y-66397143D01*
X36060191Y-66444762D01*
X35964953Y-66492381D01*
X35869714Y-66492381D01*
X35774476Y-66444762D01*
X35726857Y-66397143D01*
X35679238Y-66301905D01*
X35631619Y-66111429D01*
X35631619Y-65873333D01*
X35679238Y-65682857D01*
X35726857Y-65587619D01*
X35774476Y-65540000D01*
X35869714Y-65492381D01*
X36631619Y-66397143D02*
X36679238Y-66444762D01*
X36631619Y-66492381D01*
X36584000Y-66444762D01*
X36631619Y-66397143D01*
X36631619Y-66492381D01*
X37631619Y-66492381D02*
X37060190Y-66492381D01*
X37345904Y-66492381D02*
X37345904Y-65492381D01*
X37250666Y-65635238D01*
X37155428Y-65730476D01*
X37060190Y-65778095D01*
X38488762Y-65825714D02*
X38488762Y-66492381D01*
X38060190Y-65825714D02*
X38060190Y-66349524D01*
X38107809Y-66444762D01*
X38203047Y-66492381D01*
X38345905Y-66492381D01*
X38441143Y-66444762D01*
X38488762Y-66397143D01*
X54037334Y-56435143D02*
X53989715Y-56482762D01*
X53846858Y-56530381D01*
X53751620Y-56530381D01*
X53608762Y-56482762D01*
X53513524Y-56387524D01*
X53465905Y-56292286D01*
X53418286Y-56101810D01*
X53418286Y-55958952D01*
X53465905Y-55768476D01*
X53513524Y-55673238D01*
X53608762Y-55578000D01*
X53751620Y-55530381D01*
X53846858Y-55530381D01*
X53989715Y-55578000D01*
X54037334Y-55625619D01*
X54608762Y-55958952D02*
X54513524Y-55911333D01*
X54465905Y-55863714D01*
X54418286Y-55768476D01*
X54418286Y-55720857D01*
X54465905Y-55625619D01*
X54513524Y-55578000D01*
X54608762Y-55530381D01*
X54799239Y-55530381D01*
X54894477Y-55578000D01*
X54942096Y-55625619D01*
X54989715Y-55720857D01*
X54989715Y-55768476D01*
X54942096Y-55863714D01*
X54894477Y-55911333D01*
X54799239Y-55958952D01*
X54608762Y-55958952D01*
X54513524Y-56006571D01*
X54465905Y-56054190D01*
X54418286Y-56149429D01*
X54418286Y-56339905D01*
X54465905Y-56435143D01*
X54513524Y-56482762D01*
X54608762Y-56530381D01*
X54799239Y-56530381D01*
X54894477Y-56482762D01*
X54942096Y-56435143D01*
X54989715Y-56339905D01*
X54989715Y-56149429D01*
X54942096Y-56054190D01*
X54894477Y-56006571D01*
X54799239Y-55958952D01*
X59967905Y-62015714D02*
X59967905Y-62682381D01*
X59729809Y-61634762D02*
X59491714Y-62349048D01*
X60110762Y-62349048D01*
X60396476Y-61682381D02*
X61063143Y-61682381D01*
X60634571Y-62682381D01*
X61872667Y-62015714D02*
X61872667Y-62682381D01*
X61444095Y-62015714D02*
X61444095Y-62539524D01*
X61491714Y-62634762D01*
X61586952Y-62682381D01*
X61729810Y-62682381D01*
X61825048Y-62634762D01*
X61872667Y-62587143D01*
X59919048Y-57419429D02*
X60680953Y-57419429D01*
X60300001Y-57800381D02*
X60300001Y-57038476D01*
X51919143Y-31662666D02*
X51966762Y-31710285D01*
X52014381Y-31853142D01*
X52014381Y-31948380D01*
X51966762Y-32091238D01*
X51871524Y-32186476D01*
X51776286Y-32234095D01*
X51585810Y-32281714D01*
X51442952Y-32281714D01*
X51252476Y-32234095D01*
X51157238Y-32186476D01*
X51062000Y-32091238D01*
X51014381Y-31948380D01*
X51014381Y-31853142D01*
X51062000Y-31710285D01*
X51109619Y-31662666D01*
X52014381Y-31186476D02*
X52014381Y-30996000D01*
X51966762Y-30900761D01*
X51919143Y-30853142D01*
X51776286Y-30757904D01*
X51585810Y-30710285D01*
X51204857Y-30710285D01*
X51109619Y-30757904D01*
X51062000Y-30805523D01*
X51014381Y-30900761D01*
X51014381Y-31091238D01*
X51062000Y-31186476D01*
X51109619Y-31234095D01*
X51204857Y-31281714D01*
X51442952Y-31281714D01*
X51538190Y-31234095D01*
X51585810Y-31186476D01*
X51633429Y-31091238D01*
X51633429Y-30900761D01*
X51585810Y-30805523D01*
X51538190Y-30757904D01*
X51442952Y-30710285D01*
X52141429Y-34035952D02*
X52141429Y-33274047D01*
X52522381Y-33654999D02*
X51760476Y-33654999D01*
X40330381Y-34774095D02*
X39330381Y-34774095D01*
X39330381Y-34536000D01*
X39378000Y-34393142D01*
X39473238Y-34297904D01*
X39568476Y-34250285D01*
X39758952Y-34202666D01*
X39901810Y-34202666D01*
X40092286Y-34250285D01*
X40187524Y-34297904D01*
X40282762Y-34393142D01*
X40330381Y-34536000D01*
X40330381Y-34774095D01*
X39425619Y-33821714D02*
X39378000Y-33774095D01*
X39330381Y-33678857D01*
X39330381Y-33440761D01*
X39378000Y-33345523D01*
X39425619Y-33297904D01*
X39520857Y-33250285D01*
X39616095Y-33250285D01*
X39758952Y-33297904D01*
X40330381Y-33869333D01*
X40330381Y-33250285D01*
X32524905Y-59546881D02*
X32524905Y-58546881D01*
X32763000Y-58546881D01*
X32905858Y-58594500D01*
X33001096Y-58689738D01*
X33048715Y-58784976D01*
X33096334Y-58975452D01*
X33096334Y-59118310D01*
X33048715Y-59308786D01*
X33001096Y-59404024D01*
X32905858Y-59499262D01*
X32763000Y-59546881D01*
X32524905Y-59546881D01*
X33429667Y-58546881D02*
X34048715Y-58546881D01*
X33715381Y-58927833D01*
X33858239Y-58927833D01*
X33953477Y-58975452D01*
X34001096Y-59023071D01*
X34048715Y-59118310D01*
X34048715Y-59356405D01*
X34001096Y-59451643D01*
X33953477Y-59499262D01*
X33858239Y-59546881D01*
X33572524Y-59546881D01*
X33477286Y-59499262D01*
X33429667Y-59451643D01*
X35758381Y-44473524D02*
X34758381Y-44473524D01*
X34758381Y-44092571D01*
X34806000Y-43997333D01*
X34853619Y-43949714D01*
X34948857Y-43902095D01*
X35091714Y-43902095D01*
X35186952Y-43949714D01*
X35234571Y-43997333D01*
X35282190Y-44092571D01*
X35282190Y-44473524D01*
X34758381Y-43283048D02*
X34758381Y-43092571D01*
X34806000Y-42997333D01*
X34901238Y-42902095D01*
X35091714Y-42854476D01*
X35425048Y-42854476D01*
X35615524Y-42902095D01*
X35710762Y-42997333D01*
X35758381Y-43092571D01*
X35758381Y-43283048D01*
X35710762Y-43378286D01*
X35615524Y-43473524D01*
X35425048Y-43521143D01*
X35091714Y-43521143D01*
X34901238Y-43473524D01*
X34806000Y-43378286D01*
X34758381Y-43283048D01*
X34758381Y-42521143D02*
X35758381Y-42283048D01*
X35044095Y-42092571D01*
X35758381Y-41902095D01*
X34758381Y-41664000D01*
X35234571Y-41283048D02*
X35234571Y-40949714D01*
X35758381Y-40806857D02*
X35758381Y-41283048D01*
X34758381Y-41283048D01*
X34758381Y-40806857D01*
X35758381Y-39806857D02*
X35282190Y-40140191D01*
X35758381Y-40378286D02*
X34758381Y-40378286D01*
X34758381Y-39997333D01*
X34806000Y-39902095D01*
X34853619Y-39854476D01*
X34948857Y-39806857D01*
X35091714Y-39806857D01*
X35186952Y-39854476D01*
X35234571Y-39902095D01*
X35282190Y-39997333D01*
X35282190Y-40378286D01*
X50236381Y-36805905D02*
X49236381Y-36805905D01*
X49950667Y-36472571D01*
X49236381Y-36139238D01*
X50236381Y-36139238D01*
X49236381Y-35472572D02*
X49236381Y-35282095D01*
X49284000Y-35186857D01*
X49379238Y-35091619D01*
X49569714Y-35044000D01*
X49903048Y-35044000D01*
X50093524Y-35091619D01*
X50188762Y-35186857D01*
X50236381Y-35282095D01*
X50236381Y-35472572D01*
X50188762Y-35567810D01*
X50093524Y-35663048D01*
X49903048Y-35710667D01*
X49569714Y-35710667D01*
X49379238Y-35663048D01*
X49284000Y-35567810D01*
X49236381Y-35472572D01*
X49236381Y-34758286D02*
X49236381Y-34186857D01*
X50236381Y-34472572D02*
X49236381Y-34472572D01*
X49236381Y-33663048D02*
X49236381Y-33472571D01*
X49284000Y-33377333D01*
X49379238Y-33282095D01*
X49569714Y-33234476D01*
X49903048Y-33234476D01*
X50093524Y-33282095D01*
X50188762Y-33377333D01*
X50236381Y-33472571D01*
X50236381Y-33663048D01*
X50188762Y-33758286D01*
X50093524Y-33853524D01*
X49903048Y-33901143D01*
X49569714Y-33901143D01*
X49379238Y-33853524D01*
X49284000Y-33758286D01*
X49236381Y-33663048D01*
X50236381Y-32234476D02*
X49760190Y-32567810D01*
X50236381Y-32805905D02*
X49236381Y-32805905D01*
X49236381Y-32424952D01*
X49284000Y-32329714D01*
X49331619Y-32282095D01*
X49426857Y-32234476D01*
X49569714Y-32234476D01*
X49664952Y-32282095D01*
X49712571Y-32329714D01*
X49760190Y-32424952D01*
X49760190Y-32805905D01*
X96694667Y-39032381D02*
X96694667Y-39746667D01*
X96647047Y-39889524D01*
X96551809Y-39984762D01*
X96408952Y-40032381D01*
X96313714Y-40032381D01*
X97075619Y-39032381D02*
X97694667Y-39032381D01*
X97361333Y-39413333D01*
X97504191Y-39413333D01*
X97599429Y-39460952D01*
X97647048Y-39508571D01*
X97694667Y-39603810D01*
X97694667Y-39841905D01*
X97647048Y-39937143D01*
X97599429Y-39984762D01*
X97504191Y-40032381D01*
X97218476Y-40032381D01*
X97123238Y-39984762D01*
X97075619Y-39937143D01*
X99766381Y-49839238D02*
X98766381Y-49839238D01*
X98766381Y-49458285D01*
X98814000Y-49363047D01*
X98861619Y-49315428D01*
X98956857Y-49267809D01*
X99099714Y-49267809D01*
X99194952Y-49315428D01*
X99242571Y-49363047D01*
X99290190Y-49458285D01*
X99290190Y-49839238D01*
X99766381Y-48839238D02*
X98766381Y-48839238D01*
X99671143Y-47791619D02*
X99718762Y-47839238D01*
X99766381Y-47982095D01*
X99766381Y-48077333D01*
X99718762Y-48220191D01*
X99623524Y-48315429D01*
X99528286Y-48363048D01*
X99337810Y-48410667D01*
X99194952Y-48410667D01*
X99004476Y-48363048D01*
X98909238Y-48315429D01*
X98814000Y-48220191D01*
X98766381Y-48077333D01*
X98766381Y-47982095D01*
X98814000Y-47839238D01*
X98861619Y-47791619D01*
X99766381Y-47363048D02*
X98766381Y-47363048D01*
X99766381Y-46791619D02*
X99194952Y-47220191D01*
X98766381Y-46791619D02*
X99337810Y-47363048D01*
X99766381Y-46363048D02*
X98766381Y-46363048D01*
X98766381Y-46029715D02*
X98766381Y-45458286D01*
X99766381Y-45744001D02*
X98766381Y-45744001D01*
X98766381Y-45220191D02*
X98766381Y-44601143D01*
X99147333Y-44934477D01*
X99147333Y-44791619D01*
X99194952Y-44696381D01*
X99242571Y-44648762D01*
X99337810Y-44601143D01*
X99575905Y-44601143D01*
X99671143Y-44648762D01*
X99718762Y-44696381D01*
X99766381Y-44791619D01*
X99766381Y-45077334D01*
X99718762Y-45172572D01*
X99671143Y-45220191D01*
X37274761Y-86168762D02*
X37369999Y-86216381D01*
X37560475Y-86216381D01*
X37655714Y-86168762D01*
X37703333Y-86073524D01*
X37703333Y-86025905D01*
X37655714Y-85930667D01*
X37560475Y-85883048D01*
X37417618Y-85883048D01*
X37322380Y-85835429D01*
X37274761Y-85740190D01*
X37274761Y-85692571D01*
X37322380Y-85597333D01*
X37417618Y-85549714D01*
X37560475Y-85549714D01*
X37655714Y-85597333D01*
X37989047Y-85549714D02*
X38369999Y-85549714D01*
X38131904Y-85216381D02*
X38131904Y-86073524D01*
X38179523Y-86168762D01*
X38274761Y-86216381D01*
X38369999Y-86216381D01*
X39131905Y-86216381D02*
X39131905Y-85692571D01*
X39084286Y-85597333D01*
X38989048Y-85549714D01*
X38798571Y-85549714D01*
X38703333Y-85597333D01*
X39131905Y-86168762D02*
X39036667Y-86216381D01*
X38798571Y-86216381D01*
X38703333Y-86168762D01*
X38655714Y-86073524D01*
X38655714Y-85978286D01*
X38703333Y-85883048D01*
X38798571Y-85835429D01*
X39036667Y-85835429D01*
X39131905Y-85787810D01*
X39465238Y-85549714D02*
X39846190Y-85549714D01*
X39608095Y-85216381D02*
X39608095Y-86073524D01*
X39655714Y-86168762D01*
X39750952Y-86216381D01*
X39846190Y-86216381D01*
X40608096Y-85549714D02*
X40608096Y-86216381D01*
X40179524Y-85549714D02*
X40179524Y-86073524D01*
X40227143Y-86168762D01*
X40322381Y-86216381D01*
X40465239Y-86216381D01*
X40560477Y-86168762D01*
X40608096Y-86121143D01*
X41036667Y-86168762D02*
X41131905Y-86216381D01*
X41322381Y-86216381D01*
X41417620Y-86168762D01*
X41465239Y-86073524D01*
X41465239Y-86025905D01*
X41417620Y-85930667D01*
X41322381Y-85883048D01*
X41179524Y-85883048D01*
X41084286Y-85835429D01*
X41036667Y-85740190D01*
X41036667Y-85692571D01*
X41084286Y-85597333D01*
X41179524Y-85549714D01*
X41322381Y-85549714D01*
X41417620Y-85597333D01*
X58832762Y-38393619D02*
X58737524Y-38346000D01*
X58642286Y-38250762D01*
X58499429Y-38107905D01*
X58404190Y-38060286D01*
X58308952Y-38060286D01*
X58356571Y-38298381D02*
X58261333Y-38250762D01*
X58166095Y-38155524D01*
X58118476Y-37965048D01*
X58118476Y-37631714D01*
X58166095Y-37441238D01*
X58261333Y-37346000D01*
X58356571Y-37298381D01*
X58547048Y-37298381D01*
X58642286Y-37346000D01*
X58737524Y-37441238D01*
X58785143Y-37631714D01*
X58785143Y-37965048D01*
X58737524Y-38155524D01*
X58642286Y-38250762D01*
X58547048Y-38298381D01*
X58356571Y-38298381D01*
X59737524Y-38298381D02*
X59166095Y-38298381D01*
X59451809Y-38298381D02*
X59451809Y-37298381D01*
X59356571Y-37441238D01*
X59261333Y-37536476D01*
X59166095Y-37584095D01*
X64063619Y-37964667D02*
X64016000Y-37917048D01*
X63968381Y-37821810D01*
X63968381Y-37583714D01*
X64016000Y-37488476D01*
X64063619Y-37440857D01*
X64158857Y-37393238D01*
X64254095Y-37393238D01*
X64396952Y-37440857D01*
X64968381Y-38012286D01*
X64968381Y-37393238D01*
X64920762Y-37012286D02*
X64968381Y-36869429D01*
X64968381Y-36631333D01*
X64920762Y-36536095D01*
X64873143Y-36488476D01*
X64777905Y-36440857D01*
X64682667Y-36440857D01*
X64587429Y-36488476D01*
X64539810Y-36536095D01*
X64492190Y-36631333D01*
X64444571Y-36821810D01*
X64396952Y-36917048D01*
X64349333Y-36964667D01*
X64254095Y-37012286D01*
X64158857Y-37012286D01*
X64063619Y-36964667D01*
X64016000Y-36917048D01*
X63968381Y-36821810D01*
X63968381Y-36583714D01*
X64016000Y-36440857D01*
X64968381Y-36012286D02*
X63968381Y-36012286D01*
X64968381Y-35440857D02*
X64396952Y-35869429D01*
X63968381Y-35440857D02*
X64539810Y-36012286D01*
X64301714Y-34583714D02*
X64968381Y-34583714D01*
X63920762Y-34821810D02*
X64635048Y-35059905D01*
X64635048Y-34440857D01*
X63968381Y-33869429D02*
X63968381Y-33774190D01*
X64016000Y-33678952D01*
X64063619Y-33631333D01*
X64158857Y-33583714D01*
X64349333Y-33536095D01*
X64587429Y-33536095D01*
X64777905Y-33583714D01*
X64873143Y-33631333D01*
X64920762Y-33678952D01*
X64968381Y-33774190D01*
X64968381Y-33869429D01*
X64920762Y-33964667D01*
X64873143Y-34012286D01*
X64777905Y-34059905D01*
X64587429Y-34107524D01*
X64349333Y-34107524D01*
X64158857Y-34059905D01*
X64063619Y-34012286D01*
X64016000Y-33964667D01*
X63968381Y-33869429D01*
X64968381Y-32583714D02*
X64968381Y-33155143D01*
X64968381Y-32869429D02*
X63968381Y-32869429D01*
X64111238Y-32964667D01*
X64206476Y-33059905D01*
X64254095Y-33155143D01*
X63968381Y-32250381D02*
X63968381Y-31583714D01*
X64968381Y-32012286D01*
X49728381Y-42584666D02*
X49252190Y-42918000D01*
X49728381Y-43156095D02*
X48728381Y-43156095D01*
X48728381Y-42775142D01*
X48776000Y-42679904D01*
X48823619Y-42632285D01*
X48918857Y-42584666D01*
X49061714Y-42584666D01*
X49156952Y-42632285D01*
X49204571Y-42679904D01*
X49252190Y-42775142D01*
X49252190Y-43156095D01*
X48823619Y-42203714D02*
X48776000Y-42156095D01*
X48728381Y-42060857D01*
X48728381Y-41822761D01*
X48776000Y-41727523D01*
X48823619Y-41679904D01*
X48918857Y-41632285D01*
X49014095Y-41632285D01*
X49156952Y-41679904D01*
X49728381Y-42251333D01*
X49728381Y-41632285D01*
X52633619Y-43933905D02*
X52586000Y-43886286D01*
X52538381Y-43791048D01*
X52538381Y-43552952D01*
X52586000Y-43457714D01*
X52633619Y-43410095D01*
X52728857Y-43362476D01*
X52824095Y-43362476D01*
X52966952Y-43410095D01*
X53538381Y-43981524D01*
X53538381Y-43362476D01*
X52538381Y-42743429D02*
X52538381Y-42648190D01*
X52586000Y-42552952D01*
X52633619Y-42505333D01*
X52728857Y-42457714D01*
X52919333Y-42410095D01*
X53157429Y-42410095D01*
X53347905Y-42457714D01*
X53443143Y-42505333D01*
X53490762Y-42552952D01*
X53538381Y-42648190D01*
X53538381Y-42743429D01*
X53490762Y-42838667D01*
X53443143Y-42886286D01*
X53347905Y-42933905D01*
X53157429Y-42981524D01*
X52919333Y-42981524D01*
X52728857Y-42933905D01*
X52633619Y-42886286D01*
X52586000Y-42838667D01*
X52538381Y-42743429D01*
X53538381Y-41981524D02*
X52538381Y-41981524D01*
X53538381Y-41410095D02*
X52966952Y-41838667D01*
X52538381Y-41410095D02*
X53109810Y-41981524D01*
X59523334Y-41854381D02*
X59190000Y-41378190D01*
X58951905Y-41854381D02*
X58951905Y-40854381D01*
X59332858Y-40854381D01*
X59428096Y-40902000D01*
X59475715Y-40949619D01*
X59523334Y-41044857D01*
X59523334Y-41187714D01*
X59475715Y-41282952D01*
X59428096Y-41330571D01*
X59332858Y-41378190D01*
X58951905Y-41378190D01*
X59856667Y-40854381D02*
X60475715Y-40854381D01*
X60142381Y-41235333D01*
X60285239Y-41235333D01*
X60380477Y-41282952D01*
X60428096Y-41330571D01*
X60475715Y-41425810D01*
X60475715Y-41663905D01*
X60428096Y-41759143D01*
X60380477Y-41806762D01*
X60285239Y-41854381D01*
X59999524Y-41854381D01*
X59904286Y-41806762D01*
X59856667Y-41759143D01*
X62484096Y-42965714D02*
X62484096Y-43632381D01*
X62246000Y-42584762D02*
X62007905Y-43299048D01*
X62626953Y-43299048D01*
X62912667Y-42632381D02*
X63579334Y-42632381D01*
X63150762Y-43632381D01*
X64150762Y-42632381D02*
X64246001Y-42632381D01*
X64341239Y-42680000D01*
X64388858Y-42727619D01*
X64436477Y-42822857D01*
X64484096Y-43013333D01*
X64484096Y-43251429D01*
X64436477Y-43441905D01*
X64388858Y-43537143D01*
X64341239Y-43584762D01*
X64246001Y-43632381D01*
X64150762Y-43632381D01*
X64055524Y-43584762D01*
X64007905Y-43537143D01*
X63960286Y-43441905D01*
X63912667Y-43251429D01*
X63912667Y-43013333D01*
X63960286Y-42822857D01*
X64007905Y-42727619D01*
X64055524Y-42680000D01*
X64150762Y-42632381D01*
X67397334Y-34488381D02*
X67064000Y-34012190D01*
X66825905Y-34488381D02*
X66825905Y-33488381D01*
X67206858Y-33488381D01*
X67302096Y-33536000D01*
X67349715Y-33583619D01*
X67397334Y-33678857D01*
X67397334Y-33821714D01*
X67349715Y-33916952D01*
X67302096Y-33964571D01*
X67206858Y-34012190D01*
X66825905Y-34012190D01*
X68254477Y-33821714D02*
X68254477Y-34488381D01*
X68016381Y-33440762D02*
X67778286Y-34155048D01*
X68397334Y-34155048D01*
X69667524Y-38126381D02*
X69096095Y-38126381D01*
X69381809Y-38126381D02*
X69381809Y-37126381D01*
X69286571Y-37269238D01*
X69191333Y-37364476D01*
X69096095Y-37412095D01*
X70286571Y-37126381D02*
X70381810Y-37126381D01*
X70477048Y-37174000D01*
X70524667Y-37221619D01*
X70572286Y-37316857D01*
X70619905Y-37507333D01*
X70619905Y-37745429D01*
X70572286Y-37935905D01*
X70524667Y-38031143D01*
X70477048Y-38078762D01*
X70381810Y-38126381D01*
X70286571Y-38126381D01*
X70191333Y-38078762D01*
X70143714Y-38031143D01*
X70096095Y-37935905D01*
X70048476Y-37745429D01*
X70048476Y-37507333D01*
X70096095Y-37316857D01*
X70143714Y-37221619D01*
X70191333Y-37174000D01*
X70286571Y-37126381D01*
X71048476Y-38126381D02*
X71048476Y-37126381D01*
X71619905Y-38126381D02*
X71191333Y-37554952D01*
X71619905Y-37126381D02*
X71048476Y-37697810D01*
X71572381Y-50458666D02*
X71096190Y-50792000D01*
X71572381Y-51030095D02*
X70572381Y-51030095D01*
X70572381Y-50649142D01*
X70620000Y-50553904D01*
X70667619Y-50506285D01*
X70762857Y-50458666D01*
X70905714Y-50458666D01*
X71000952Y-50506285D01*
X71048571Y-50553904D01*
X71096190Y-50649142D01*
X71096190Y-51030095D01*
X70572381Y-49553904D02*
X70572381Y-50030095D01*
X71048571Y-50077714D01*
X71000952Y-50030095D01*
X70953333Y-49934857D01*
X70953333Y-49696761D01*
X71000952Y-49601523D01*
X71048571Y-49553904D01*
X71143810Y-49506285D01*
X71381905Y-49506285D01*
X71477143Y-49553904D01*
X71524762Y-49601523D01*
X71572381Y-49696761D01*
X71572381Y-49934857D01*
X71524762Y-50030095D01*
X71477143Y-50077714D01*
X71572381Y-58673904D02*
X71572381Y-59245333D01*
X71572381Y-58959619D02*
X70572381Y-58959619D01*
X70715238Y-59054857D01*
X70810476Y-59150095D01*
X70858095Y-59245333D01*
X70572381Y-58054857D02*
X70572381Y-57959618D01*
X70620000Y-57864380D01*
X70667619Y-57816761D01*
X70762857Y-57769142D01*
X70953333Y-57721523D01*
X71191429Y-57721523D01*
X71381905Y-57769142D01*
X71477143Y-57816761D01*
X71524762Y-57864380D01*
X71572381Y-57959618D01*
X71572381Y-58054857D01*
X71524762Y-58150095D01*
X71477143Y-58197714D01*
X71381905Y-58245333D01*
X71191429Y-58292952D01*
X70953333Y-58292952D01*
X70762857Y-58245333D01*
X70667619Y-58197714D01*
X70620000Y-58150095D01*
X70572381Y-58054857D01*
X71572381Y-57292952D02*
X70572381Y-57292952D01*
X71286667Y-56959618D01*
X70572381Y-56626285D01*
X71572381Y-56626285D01*
X34123334Y-79954381D02*
X33790000Y-79478190D01*
X33551905Y-79954381D02*
X33551905Y-78954381D01*
X33932858Y-78954381D01*
X34028096Y-79002000D01*
X34075715Y-79049619D01*
X34123334Y-79144857D01*
X34123334Y-79287714D01*
X34075715Y-79382952D01*
X34028096Y-79430571D01*
X33932858Y-79478190D01*
X33551905Y-79478190D01*
X34980477Y-78954381D02*
X34790000Y-78954381D01*
X34694762Y-79002000D01*
X34647143Y-79049619D01*
X34551905Y-79192476D01*
X34504286Y-79382952D01*
X34504286Y-79763905D01*
X34551905Y-79859143D01*
X34599524Y-79906762D01*
X34694762Y-79954381D01*
X34885239Y-79954381D01*
X34980477Y-79906762D01*
X35028096Y-79859143D01*
X35075715Y-79763905D01*
X35075715Y-79525810D01*
X35028096Y-79430571D01*
X34980477Y-79382952D01*
X34885239Y-79335333D01*
X34694762Y-79335333D01*
X34599524Y-79382952D01*
X34551905Y-79430571D01*
X34504286Y-79525810D01*
X34075715Y-84272381D02*
X33504286Y-84272381D01*
X33790000Y-84272381D02*
X33790000Y-83272381D01*
X33694762Y-83415238D01*
X33599524Y-83510476D01*
X33504286Y-83558095D01*
X34504286Y-84272381D02*
X34504286Y-83272381D01*
X35075715Y-84272381D02*
X34647143Y-83700952D01*
X35075715Y-83272381D02*
X34504286Y-83843810D01*
D13*
X87498358Y-52727071D02*
X86998358Y-52012786D01*
X86641215Y-52727071D02*
X86641215Y-51227071D01*
X87212643Y-51227071D01*
X87355501Y-51298500D01*
X87426929Y-51369929D01*
X87498358Y-51512786D01*
X87498358Y-51727071D01*
X87426929Y-51869929D01*
X87355501Y-51941357D01*
X87212643Y-52012786D01*
X86641215Y-52012786D01*
X88712643Y-52655643D02*
X88569786Y-52727071D01*
X88284072Y-52727071D01*
X88141215Y-52655643D01*
X88069786Y-52512786D01*
X88069786Y-51941357D01*
X88141215Y-51798500D01*
X88284072Y-51727071D01*
X88569786Y-51727071D01*
X88712643Y-51798500D01*
X88784072Y-51941357D01*
X88784072Y-52084214D01*
X88069786Y-52227071D01*
X89355500Y-52655643D02*
X89498357Y-52727071D01*
X89784072Y-52727071D01*
X89926929Y-52655643D01*
X89998357Y-52512786D01*
X89998357Y-52441357D01*
X89926929Y-52298500D01*
X89784072Y-52227071D01*
X89569786Y-52227071D01*
X89426929Y-52155643D01*
X89355500Y-52012786D01*
X89355500Y-51941357D01*
X89426929Y-51798500D01*
X89569786Y-51727071D01*
X89784072Y-51727071D01*
X89926929Y-51798500D01*
X91212643Y-52655643D02*
X91069786Y-52727071D01*
X90784072Y-52727071D01*
X90641215Y-52655643D01*
X90569786Y-52512786D01*
X90569786Y-51941357D01*
X90641215Y-51798500D01*
X90784072Y-51727071D01*
X91069786Y-51727071D01*
X91212643Y-51798500D01*
X91284072Y-51941357D01*
X91284072Y-52084214D01*
X90569786Y-52227071D01*
X91712643Y-51727071D02*
X92284072Y-51727071D01*
X91926929Y-51227071D02*
X91926929Y-52512786D01*
X91998357Y-52655643D01*
X92141215Y-52727071D01*
X92284072Y-52727071D01*
D10*
X77048095Y-46912381D02*
X77048095Y-47721905D01*
X77095714Y-47817143D01*
X77143333Y-47864762D01*
X77238571Y-47912381D01*
X77429048Y-47912381D01*
X77524286Y-47864762D01*
X77571905Y-47817143D01*
X77619524Y-47721905D01*
X77619524Y-46912381D01*
X78619524Y-47912381D02*
X78048095Y-47912381D01*
X78333809Y-47912381D02*
X78333809Y-46912381D01*
X78238571Y-47055238D01*
X78143333Y-47150476D01*
X78048095Y-47198095D01*
X78008381Y-64262857D02*
X77008381Y-64262857D01*
X77008381Y-63881904D01*
X77056000Y-63786666D01*
X77103619Y-63739047D01*
X77198857Y-63691428D01*
X77341714Y-63691428D01*
X77436952Y-63739047D01*
X77484571Y-63786666D01*
X77532190Y-63881904D01*
X77532190Y-64262857D01*
X78008381Y-63262857D02*
X77008381Y-63262857D01*
X77913143Y-62215238D02*
X77960762Y-62262857D01*
X78008381Y-62405714D01*
X78008381Y-62500952D01*
X77960762Y-62643810D01*
X77865524Y-62739048D01*
X77770286Y-62786667D01*
X77579810Y-62834286D01*
X77436952Y-62834286D01*
X77246476Y-62786667D01*
X77151238Y-62739048D01*
X77056000Y-62643810D01*
X77008381Y-62500952D01*
X77008381Y-62405714D01*
X77056000Y-62262857D01*
X77103619Y-62215238D01*
X78008381Y-61262857D02*
X78008381Y-61834286D01*
X78008381Y-61548572D02*
X77008381Y-61548572D01*
X77151238Y-61643810D01*
X77246476Y-61739048D01*
X77294095Y-61834286D01*
X77008381Y-60405714D02*
X77008381Y-60596191D01*
X77056000Y-60691429D01*
X77103619Y-60739048D01*
X77246476Y-60834286D01*
X77436952Y-60881905D01*
X77817905Y-60881905D01*
X77913143Y-60834286D01*
X77960762Y-60786667D01*
X78008381Y-60691429D01*
X78008381Y-60500952D01*
X77960762Y-60405714D01*
X77913143Y-60358095D01*
X77817905Y-60310476D01*
X77579810Y-60310476D01*
X77484571Y-60358095D01*
X77436952Y-60405714D01*
X77389333Y-60500952D01*
X77389333Y-60691429D01*
X77436952Y-60786667D01*
X77484571Y-60834286D01*
X77579810Y-60881905D01*
X77484571Y-59548571D02*
X77484571Y-59881905D01*
X78008381Y-59881905D02*
X77008381Y-59881905D01*
X77008381Y-59405714D01*
X78008381Y-58500952D02*
X78008381Y-59072381D01*
X78008381Y-58786667D02*
X77008381Y-58786667D01*
X77151238Y-58881905D01*
X77246476Y-58977143D01*
X77294095Y-59072381D01*
X77436952Y-57929524D02*
X77389333Y-58024762D01*
X77341714Y-58072381D01*
X77246476Y-58120000D01*
X77198857Y-58120000D01*
X77103619Y-58072381D01*
X77056000Y-58024762D01*
X77008381Y-57929524D01*
X77008381Y-57739047D01*
X77056000Y-57643809D01*
X77103619Y-57596190D01*
X77198857Y-57548571D01*
X77246476Y-57548571D01*
X77341714Y-57596190D01*
X77389333Y-57643809D01*
X77436952Y-57739047D01*
X77436952Y-57929524D01*
X77484571Y-58024762D01*
X77532190Y-58072381D01*
X77627429Y-58120000D01*
X77817905Y-58120000D01*
X77913143Y-58072381D01*
X77960762Y-58024762D01*
X78008381Y-57929524D01*
X78008381Y-57739047D01*
X77960762Y-57643809D01*
X77913143Y-57596190D01*
X77817905Y-57548571D01*
X77627429Y-57548571D01*
X77532190Y-57596190D01*
X77484571Y-57643809D01*
X77436952Y-57739047D01*
X77008381Y-57215238D02*
X77008381Y-56596190D01*
X77389333Y-56929524D01*
X77389333Y-56786666D01*
X77436952Y-56691428D01*
X77484571Y-56643809D01*
X77579810Y-56596190D01*
X77817905Y-56596190D01*
X77913143Y-56643809D01*
X77960762Y-56691428D01*
X78008381Y-56786666D01*
X78008381Y-57072381D01*
X77960762Y-57167619D01*
X77913143Y-57215238D01*
X77103619Y-56215238D02*
X77056000Y-56167619D01*
X77008381Y-56072381D01*
X77008381Y-55834285D01*
X77056000Y-55739047D01*
X77103619Y-55691428D01*
X77198857Y-55643809D01*
X77294095Y-55643809D01*
X77436952Y-55691428D01*
X78008381Y-56262857D01*
X78008381Y-55643809D01*
X77008381Y-55310476D02*
X77008381Y-54691428D01*
X77389333Y-55024762D01*
X77389333Y-54881904D01*
X77436952Y-54786666D01*
X77484571Y-54739047D01*
X77579810Y-54691428D01*
X77817905Y-54691428D01*
X77913143Y-54739047D01*
X77960762Y-54786666D01*
X78008381Y-54881904D01*
X78008381Y-55167619D01*
X77960762Y-55262857D01*
X77913143Y-55310476D01*
X77627429Y-54262857D02*
X77627429Y-53500952D01*
X78008381Y-53024762D02*
X77008381Y-53024762D01*
X76960762Y-51834286D02*
X78246476Y-52691429D01*
X78008381Y-51500953D02*
X77008381Y-51500953D01*
X77008381Y-51120000D01*
X77056000Y-51024762D01*
X77103619Y-50977143D01*
X77198857Y-50929524D01*
X77341714Y-50929524D01*
X77436952Y-50977143D01*
X77484571Y-51024762D01*
X77532190Y-51120000D01*
X77532190Y-51500953D01*
X67794190Y-64992191D02*
X68270381Y-64992191D01*
X67270381Y-65325524D02*
X67794190Y-64992191D01*
X67270381Y-64658857D01*
X68270381Y-63801714D02*
X68270381Y-64373143D01*
X68270381Y-64087429D02*
X67270381Y-64087429D01*
X67413238Y-64182667D01*
X67508476Y-64277905D01*
X67556095Y-64373143D01*
X64476381Y-65118762D02*
X64476381Y-64499714D01*
X64857333Y-64833048D01*
X64857333Y-64690190D01*
X64904952Y-64594952D01*
X64952571Y-64547333D01*
X65047810Y-64499714D01*
X65285905Y-64499714D01*
X65381143Y-64547333D01*
X65428762Y-64594952D01*
X65476381Y-64690190D01*
X65476381Y-64975905D01*
X65428762Y-65071143D01*
X65381143Y-65118762D01*
X64571619Y-64118762D02*
X64524000Y-64071143D01*
X64476381Y-63975905D01*
X64476381Y-63737809D01*
X64524000Y-63642571D01*
X64571619Y-63594952D01*
X64666857Y-63547333D01*
X64762095Y-63547333D01*
X64904952Y-63594952D01*
X65476381Y-64166381D01*
X65476381Y-63547333D01*
X65381143Y-63118762D02*
X65428762Y-63071143D01*
X65476381Y-63118762D01*
X65428762Y-63166381D01*
X65381143Y-63118762D01*
X65476381Y-63118762D01*
X64476381Y-62737810D02*
X64476381Y-62071143D01*
X65476381Y-62499715D01*
X64476381Y-61261619D02*
X64476381Y-61452096D01*
X64524000Y-61547334D01*
X64571619Y-61594953D01*
X64714476Y-61690191D01*
X64904952Y-61737810D01*
X65285905Y-61737810D01*
X65381143Y-61690191D01*
X65428762Y-61642572D01*
X65476381Y-61547334D01*
X65476381Y-61356857D01*
X65428762Y-61261619D01*
X65381143Y-61214000D01*
X65285905Y-61166381D01*
X65047810Y-61166381D01*
X64952571Y-61214000D01*
X64904952Y-61261619D01*
X64857333Y-61356857D01*
X64857333Y-61547334D01*
X64904952Y-61642572D01*
X64952571Y-61690191D01*
X65047810Y-61737810D01*
X64904952Y-60594953D02*
X64857333Y-60690191D01*
X64809714Y-60737810D01*
X64714476Y-60785429D01*
X64666857Y-60785429D01*
X64571619Y-60737810D01*
X64524000Y-60690191D01*
X64476381Y-60594953D01*
X64476381Y-60404476D01*
X64524000Y-60309238D01*
X64571619Y-60261619D01*
X64666857Y-60214000D01*
X64714476Y-60214000D01*
X64809714Y-60261619D01*
X64857333Y-60309238D01*
X64904952Y-60404476D01*
X64904952Y-60594953D01*
X64952571Y-60690191D01*
X65000190Y-60737810D01*
X65095429Y-60785429D01*
X65285905Y-60785429D01*
X65381143Y-60737810D01*
X65428762Y-60690191D01*
X65476381Y-60594953D01*
X65476381Y-60404476D01*
X65428762Y-60309238D01*
X65381143Y-60261619D01*
X65285905Y-60214000D01*
X65095429Y-60214000D01*
X65000190Y-60261619D01*
X64952571Y-60309238D01*
X64904952Y-60404476D01*
X65476381Y-59785429D02*
X64476381Y-59785429D01*
X65476381Y-59214000D02*
X64904952Y-59642572D01*
X64476381Y-59214000D02*
X65047810Y-59785429D01*
X65476381Y-58785429D02*
X64476381Y-58785429D01*
X64952571Y-58785429D02*
X64952571Y-58214000D01*
X65476381Y-58214000D02*
X64476381Y-58214000D01*
X64809714Y-57833048D02*
X64809714Y-57309238D01*
X65476381Y-57833048D01*
X65476381Y-57309238D01*
X60228334Y-66214881D02*
X59895000Y-65738690D01*
X59656905Y-66214881D02*
X59656905Y-65214881D01*
X60037858Y-65214881D01*
X60133096Y-65262500D01*
X60180715Y-65310119D01*
X60228334Y-65405357D01*
X60228334Y-65548214D01*
X60180715Y-65643452D01*
X60133096Y-65691071D01*
X60037858Y-65738690D01*
X59656905Y-65738690D01*
X60704524Y-66214881D02*
X60895000Y-66214881D01*
X60990239Y-66167262D01*
X61037858Y-66119643D01*
X61133096Y-65976786D01*
X61180715Y-65786310D01*
X61180715Y-65405357D01*
X61133096Y-65310119D01*
X61085477Y-65262500D01*
X60990239Y-65214881D01*
X60799762Y-65214881D01*
X60704524Y-65262500D01*
X60656905Y-65310119D01*
X60609286Y-65405357D01*
X60609286Y-65643452D01*
X60656905Y-65738690D01*
X60704524Y-65786310D01*
X60799762Y-65833929D01*
X60990239Y-65833929D01*
X61085477Y-65786310D01*
X61133096Y-65738690D01*
X61180715Y-65643452D01*
X57372286Y-68270381D02*
X56800857Y-68270381D01*
X57086571Y-68270381D02*
X57086571Y-67270381D01*
X56991333Y-67413238D01*
X56896095Y-67508476D01*
X56800857Y-67556095D01*
X57800857Y-68270381D02*
X57800857Y-67270381D01*
X58134191Y-67984667D01*
X58467524Y-67270381D01*
X58467524Y-68270381D01*
X43124381Y-51474666D02*
X43124381Y-51950857D01*
X42124381Y-51950857D01*
X43124381Y-50617523D02*
X43124381Y-51188952D01*
X43124381Y-50903238D02*
X42124381Y-50903238D01*
X42267238Y-50998476D01*
X42362476Y-51093714D01*
X42410095Y-51188952D01*
X37123714Y-52823904D02*
X37790381Y-52823904D01*
X36742762Y-53062000D02*
X37457048Y-53300095D01*
X37457048Y-52681047D01*
X36790381Y-52395333D02*
X36790381Y-51728666D01*
X37790381Y-52157238D01*
X37123714Y-50919142D02*
X37790381Y-50919142D01*
X37123714Y-51347714D02*
X37647524Y-51347714D01*
X37742762Y-51300095D01*
X37790381Y-51204857D01*
X37790381Y-51061999D01*
X37742762Y-50966761D01*
X37695143Y-50919142D01*
X37790381Y-50442952D02*
X36790381Y-50442952D01*
X37266571Y-50442952D02*
X37266571Y-49871523D01*
X37790381Y-49871523D02*
X36790381Y-49871523D01*
X49395143Y-66397143D02*
X49347524Y-66444762D01*
X49204667Y-66492381D01*
X49109429Y-66492381D01*
X48966571Y-66444762D01*
X48871333Y-66349524D01*
X48823714Y-66254286D01*
X48776095Y-66063810D01*
X48776095Y-65920952D01*
X48823714Y-65730476D01*
X48871333Y-65635238D01*
X48966571Y-65540000D01*
X49109429Y-65492381D01*
X49204667Y-65492381D01*
X49347524Y-65540000D01*
X49395143Y-65587619D01*
X50347524Y-66492381D02*
X49776095Y-66492381D01*
X50061809Y-66492381D02*
X50061809Y-65492381D01*
X49966571Y-65635238D01*
X49871333Y-65730476D01*
X49776095Y-65778095D01*
X50966571Y-65492381D02*
X51061810Y-65492381D01*
X51157048Y-65540000D01*
X51204667Y-65587619D01*
X51252286Y-65682857D01*
X51299905Y-65873333D01*
X51299905Y-66111429D01*
X51252286Y-66301905D01*
X51204667Y-66397143D01*
X51157048Y-66444762D01*
X51061810Y-66492381D01*
X50966571Y-66492381D01*
X50871333Y-66444762D01*
X50823714Y-66397143D01*
X50776095Y-66301905D01*
X50728476Y-66111429D01*
X50728476Y-65873333D01*
X50776095Y-65682857D01*
X50823714Y-65587619D01*
X50871333Y-65540000D01*
X50966571Y-65492381D01*
X48823714Y-67778381D02*
X48918953Y-67778381D01*
X49014191Y-67826000D01*
X49061810Y-67873619D01*
X49109429Y-67968857D01*
X49157048Y-68159333D01*
X49157048Y-68397429D01*
X49109429Y-68587905D01*
X49061810Y-68683143D01*
X49014191Y-68730762D01*
X48918953Y-68778381D01*
X48823714Y-68778381D01*
X48728476Y-68730762D01*
X48680857Y-68683143D01*
X48633238Y-68587905D01*
X48585619Y-68397429D01*
X48585619Y-68159333D01*
X48633238Y-67968857D01*
X48680857Y-67873619D01*
X48728476Y-67826000D01*
X48823714Y-67778381D01*
X49585619Y-68683143D02*
X49633238Y-68730762D01*
X49585619Y-68778381D01*
X49538000Y-68730762D01*
X49585619Y-68683143D01*
X49585619Y-68778381D01*
X50585619Y-68778381D02*
X50014190Y-68778381D01*
X50299904Y-68778381D02*
X50299904Y-67778381D01*
X50204666Y-67921238D01*
X50109428Y-68016476D01*
X50014190Y-68064095D01*
X51442762Y-68111714D02*
X51442762Y-68778381D01*
X51014190Y-68111714D02*
X51014190Y-68635524D01*
X51061809Y-68730762D01*
X51157047Y-68778381D01*
X51299905Y-68778381D01*
X51395143Y-68730762D01*
X51442762Y-68683143D01*
M02*
